<?xml version="1.0" encoding="UTF-8" standalone="no"?>
<svg
   xmlns:dc="http://purl.org/dc/elements/1.1/"
   xmlns:cc="http://creativecommons.org/ns#"
   xmlns:rdf="http://www.w3.org/1999/02/22-rdf-syntax-ns#"
   xmlns:svg="http://www.w3.org/2000/svg"
   xmlns="http://www.w3.org/2000/svg"
   xmlns:sodipodi="http://sodipodi.sourceforge.net/DTD/sodipodi-0.dtd"
   xmlns:inkscape="http://www.inkscape.org/namespaces/inkscape"
   width="1097.7128mm"
   height="441.5657mm"
   viewBox="0 0 1097.7128 441.56569"
   version="1.1"
   id="svg8"
   inkscape:version="1.0.1 (c497b03c, 2020-09-10)"
   sodipodi:docname="bayes_theorem.svg">
  <defs
     id="defs2" />
  <sodipodi:namedview
     id="base"
     pagecolor="#ffffff"
     bordercolor="#666666"
     borderopacity="1.0"
     inkscape:pageopacity="0.0"
     inkscape:pageshadow="2"
     inkscape:zoom="0.13183539"
     inkscape:cx="2552.749"
     inkscape:cy="695.50254"
     inkscape:document-units="mm"
     inkscape:current-layer="layer1"
     inkscape:document-rotation="0"
     showgrid="false"
     inkscape:window-width="1252"
     inkscape:window-height="806"
     inkscape:window-x="0"
     inkscape:window-y="23"
     inkscape:window-maximized="0"
     inkscape:snap-global="false" />
  <metadata
     id="metadata5">
    <rdf:RDF>
      <cc:Work
         rdf:about="">
        <dc:format>image/svg+xml</dc:format>
        <dc:type
           rdf:resource="http://purl.org/dc/dcmitype/StillImage" />
        <dc:title></dc:title>
      </cc:Work>
    </rdf:RDF>
  </metadata>
  <g
     inkscape:label="Layer 1"
     inkscape:groupmode="layer"
     id="layer1"
     transform="translate(79.027752,9.4943576)">
    <path
       style="fill:#000000;stroke-width:0.264583"
       id="path10"
       d="m -78.06319,47.227466 c 3.361103,9.396931 4.88251,19.408695 5.664534,29.326683 0.283398,3.594187 0.365347,7.201421 0.548021,10.802133 0.491537,20.158648 -2.341587,40.156068 -6.124197,59.897468 -0.350972,1.70975 -0.701945,3.41951 -1.05292,5.12927 0,0 9.200155,-4.48662 9.200155,-4.48662 v 0 c 0.245301,-1.66164 0.490601,-3.32328 0.735902,-4.98492 2.815746,-19.77844 5.42232,-39.65182 5.244449,-59.676417 -0.272915,-7.774392 -0.354357,-13.263951 -1.041945,-20.95292 -0.535649,-5.989904 -1.651572,-11.775117 -2.829462,-17.652939 -0.181232,-0.904364 -0.340813,-1.81293 -0.511218,-2.719398 0,0 -9.833319,5.31766 -9.833319,5.31766 z" />
    <path
       style="fill:#000000;stroke-width:0.264583"
       id="path12"
       d="m -75.056049,46.762818 c 8.01393,-4.02844 16.527295,-6.876177 25.131987,-9.329161 4.77433,-1.045043 10.421829,-3.356795 15.247768,-1.135885 0.708401,0.326006 1.317411,0.834794 1.976115,1.252191 4.953598,4.509423 6.442585,11.001017 7.505071,17.344098 0.735351,5.592003 1.1038,11.346918 -0.554841,16.824526 -0.335443,1.107787 -0.816599,2.166109 -1.224898,3.249163 -2.979235,5.864521 -7.53872,10.842924 -12.820314,14.738424 -1.021689,0.753557 -2.109462,1.413131 -3.164192,2.119698 1.945955,-1.145315 3.957066,-2.186511 5.837865,-3.435945 0.916889,-0.6091 -1.944889,1.032896 -2.937328,1.509088 -2.655313,1.274075 -5.40385,2.257629 -8.236122,3.046024 -0.910119,0.236762 -1.834012,0.412035 -2.765814,0.534709 0,0 -9.041516,6.708962 -9.041516,6.708962 v 0 c 1.042652,-0.0782 2.067124,-0.293594 3.081547,-0.542463 8.650036,-2.307133 16.294989,-6.96063 23.854454,-11.669035 1.033436,-0.731124 2.100054,-1.417463 3.100303,-2.193367 5.272203,-4.089707 9.813333,-9.241242 12.680507,-15.288448 0.394953,-1.128255 0.862298,-2.233721 1.184859,-3.384767 1.572212,-5.610383 1.142371,-11.478469 0.337925,-17.170061 -1.127367,-6.622695 -2.776752,-13.343747 -7.73365,-18.216091 -1.947284,-1.373121 -2.16258,-1.811462 -4.522064,-2.351278 -4.59663,-1.051645 -9.270508,0.741151 -13.673452,1.799937 -8.375465,2.385792 -16.671507,5.059214 -24.612862,8.669422 0,0 -8.651348,6.920259 -8.651348,6.920259 z" />
    <path
       style="fill:#000000;stroke-width:0.264583"
       id="path14"
       d="M 29.301646,25.427968 C 23.634239,39.801344 17.693587,54.06005 12.171476,68.491237 5.4365297,87.281908 -0.76475507,106.41081 -5.4553463,125.82747 c -0.6810261,2.8191 -1.261392,5.66157 -1.8920881,8.49236 -1.8514104,8.74675 -3.2987576,17.91723 -1.0946391,26.75244 0.2623129,1.05148 0.6596144,2.06461 0.9894215,3.09691 1.6893222,4.73654 4.1196709,7.56832 7.75259599,10.8548 2.24850751,1.93117 4.44401501,3.91074 6.54409971,6.00053 0.2061334,0.20296 0.4122671,0.40592 0.6184005,0.60887 0,0 9.4886728,-5.86171 9.4886728,-5.86171 v 0 c -0.216481,-0.1903 -0.432961,-0.3806 -0.649442,-0.5709 -2.198637,-2.02582 -4.410133,-4.03196 -6.7248729,-5.92898 -3.4676521,-3.10451 -5.9703935,-5.77804 -7.6958379,-10.24486 -0.3432251,-0.97676 -0.7502402,-1.9334 -1.02967541,-2.93029 -2.37873189,-8.48616 -1.16065055,-17.39747 0.34661351,-25.91108 0.5429062,-2.77667 1.0329426,-5.56421 1.6287187,-8.33001 4.1924837,-19.46303 10.293798,-38.482967 17.358895,-57.079095 1.443437,-3.632763 2.841758,-7.283781 4.33031,-10.898291 4.605517,-11.183135 9.684821,-22.165606 14.825897,-33.109847 0,0 -10.040077,4.659651 -10.040077,4.659651 z" />
    <path
       style="fill:#000000;stroke-width:0.264583"
       id="path16"
       d="m 68.327624,59.78648 c 0.07094,5.519769 -1.19371,11.15184 -2.395503,16.498014 C 64.017728,84.800653 62.564829,89.562 60.169186,98.174531 55.036878,115.70335 48.794722,132.87333 42.164711,149.8826 c 0,0 9.324237,-4.35136 9.324237,-4.35136 v 0 c 5.613958,-16.99 11.337703,-33.94386 16.516847,-51.074338 3.595389,-11.867578 7.424761,-23.771703 9.890503,-35.945063 0.364694,-1.800492 0.352182,-2.281537 0.430837,-3.820364 0,0 -9.999511,5.095005 -9.999511,5.095005 z" />
    <path
       style="fill:#000000;stroke-width:0.264583"
       id="path18"
       d="m 72.107387,59.78648 c 0.04121,0.590346 0.05941,1.182748 0.123621,1.771036 0.680371,6.233617 1.764501,12.438123 2.736012,18.628373 2.329074,14.840317 1.125299,7.298068 3.709148,23.171021 2.861231,18.26528 6.144411,36.52217 11.408341,54.26506 1.405314,4.35606 3.218225,8.56273 5.57643,12.48353 0,0 9.524421,-5.56719 9.524421,-5.56719 v 0 c -2.5738,-3.6537 -4.61113,-7.63033 -6.188785,-11.81752 -1.731054,-4.84177 -2.355371,-6.37908 -3.862091,-11.59606 C 91.1793,127.43005 88.433388,113.40833 86.310718,99.323122 84.83521,88.501182 84.452311,86.286863 83.316145,75.798203 82.627652,69.4423 81.918296,62.99691 81.983275,56.588487 c 0.0064,-0.633645 0.08241,-1.264674 0.123621,-1.897012 0,0 -9.999509,5.095005 -9.999509,5.095005 z" />
    <path
       style="fill:#000000;stroke-width:0.264583"
       id="path20"
       d="m 54.044953,126.48425 c 12.45104,-0.44647 24.913878,-0.44272 37.371273,-0.40767 8.37624,0.0715 4.383572,0.0267 11.978064,0.12871 0,0 8.21715,-5.97011 8.21715,-5.97011 v 0 c -7.84583,0.10166 -3.73506,0.057 -12.332364,0.12871 -12.083081,0.0337 -24.173031,0.0568 -36.249069,-0.40767 0,0 -8.985054,6.52803 -8.985054,6.52803 z" />
    <path
       style="fill:#000000;stroke-width:0.264583"
       id="path22"
       d="m 133.35684,44.839461 c 0.0636,0.873143 0.0958,1.749142 0.1908,2.619428 0.38912,3.564429 0.91742,7.113537 1.26135,10.68261 1.55655,16.152944 1.94824,24.644693 2.88502,41.506171 1.56214,28.11731 1.39467,26.20502 2.64415,54.6352 1.02916,22.33493 1.533,44.68734 1.99188,67.03929 0,0 6.65493,-3.42845 6.65493,-3.42845 v 0 c -1.53237,-22.00784 -3.01523,-44.02116 -3.87261,-66.06843 -1.02911,-26.28956 -1.9432,-52.566214 -2.24795,-78.87619 -0.073,-6.301949 -0.14589,-12.604768 -0.0906,-18.906897 0.0676,-7.704794 0.17679,-8.80682 0.54791,-14.280094 0,0 -9.96489,5.077362 -9.96489,5.077362 z" />
    <path
       style="fill:#000000;stroke-width:0.264583"
       id="path24"
       d="m 167.24537,73.998289 c 0.93646,17.914636 1.00706,35.862781 1.12615,53.797371 0.0473,14.54485 -0.13912,29.08767 -0.49338,43.62769 0,0 8.54354,-4.35315 8.54354,-4.35315 v 0 c -0.35909,-14.37233 -0.54043,-28.74761 -0.49338,-43.12491 0.12082,-18.31732 0.20662,-36.646542 1.12616,-54.94498 0,0 -9.80909,4.997979 -9.80909,4.997979 z" />
    <path
       style="fill:#000000;stroke-width:0.264583"
       id="path26"
       d="m 175.28489,75.551044 c 4.28485,-4.450977 9.39885,-7.991366 14.61685,-11.250697 0.72934,-0.455567 -2.93221,1.733222 -2.10844,1.486506 2.32219,-0.695481 4.45816,-1.905217 6.68724,-2.857825 6.66046,-2.181691 15.92453,-5.729735 23.06739,-4.006083 3.70405,0.893829 4.20321,2.020528 6.82512,4.519036 0.74057,1.273122 1.62326,2.473581 2.22171,3.819371 1.92407,4.326864 2.67748,9.461227 1.68883,14.124829 -0.90114,4.250729 -2.26866,6.04624 -4.35033,9.812755 -3.65779,4.603205 -3.73688,5.208019 -8.44212,9.001874 -1.74339,1.4057 -3.6961,2.53383 -5.47148,3.8989 -0.76021,0.58452 3.33539,-1.84322 2.42123,-1.5536 -2.07389,0.65702 -3.93282,1.86818 -5.95402,2.67281 -1.89107,0.75283 -3.84744,1.32996 -5.77116,1.99494 -7.04445,2.04856 -14.40894,3.34103 -21.75952,2.79035 -2.06999,-0.45071 -2.54335,-1.19063 -7.38939,4.69357 -0.93967,1.14098 2.76949,-1.04218 4.18851,-1.45596 4.97857,-1.45171 7.66549,-1.84122 12.83639,-2.84409 9.2565,-1.48655 18.58777,-2.97227 27.9881,-2.57429 1.37677,0.21639 3.22051,0.26418 4.06952,1.62655 1.22321,1.96286 0.84489,4.8442 0.8154,6.97573 -0.72327,7.8641 -2.79275,15.51092 -5.41143,22.93408 -1.4251,3.08522 -2.235,5.37162 -4.55445,8.01163 -2.35411,2.67944 -6.8791,6.09819 -9.79702,8.01605 -1.77887,1.16919 -3.53163,2.44125 -5.50834,3.23118 -1.29442,0.51726 2.28362,-1.59922 3.42543,-2.39883 -3.50048,1.69093 -7.14477,3.03001 -10.81143,4.30198 0,0 -8.42609,6.56976 -8.42609,6.56976 v 0 c 3.83955,-1.3758 7.66386,-2.80012 11.3461,-4.56712 9.37034,-5.09937 21.93428,-10.77893 29.16119,-19.26536 2.40316,-2.82199 3.16729,-5.07153 4.6341,-8.32766 2.64288,-7.54248 4.60597,-15.33611 5.41991,-23.30341 0.10656,-2.77962 0.77635,-7.20721 -1.99109,-9.12168 -1.08726,-0.75214 -2.39651,-0.78978 -3.64105,-0.98846 -9.70142,-0.14768 -19.28906,1.40781 -28.8456,2.93639 -2.23119,0.39314 -4.46901,0.75035 -6.69358,1.1794 -9.39566,1.81216 -12.40721,2.74825 -21.34316,9.19236 -0.35713,0.25755 0.066,0.96147 0.38679,1.26303 0.31329,0.29447 0.83892,0.18886 1.25838,0.28329 7.68318,0.40651 15.36458,-0.90264 22.73747,-3.00878 1.96481,-0.66006 3.96113,-1.23283 5.89443,-1.98016 7.52413,-2.90853 13.27942,-6.45504 20.50665,-10.92158 3.35447,-2.073112 7.56662,-5.596711 10.22543,-8.53484 1.37566,-1.520182 2.49691,-3.252531 3.74537,-4.878795 2.08794,-3.973544 3.42437,-5.792554 4.28053,-10.253019 0.93196,-4.855329 0.0694,-10.213605 -1.89635,-14.710746 -0.62888,-1.43868 -1.54788,-2.732254 -2.32183,-4.09838 -2.74668,-2.703597 -3.38138,-4.035091 -7.31292,-5.04761 -1.6049,-0.413321 -3.29621,-0.464314 -4.95313,-0.430492 -6.49918,0.132662 -12.73781,2.344843 -18.82361,4.364971 -2.24218,0.923568 -4.56948,1.66279 -6.72653,2.770706 -10.00537,5.139023 -20.39394,10.911374 -28.73668,18.651445 -0.60093,0.557516 -1.11363,1.203161 -1.67044,1.804741 0,0 10.26312,-4.548767 10.26312,-4.548767 z" />
    <path
       style="fill:#000000;stroke-width:0.264583"
       id="path28"
       d="m 249.415,7.8025108 c 5.06101,5.2502402 9.2347,11.2300052 12.59024,17.7087592 1.44938,2.798413 2.69096,5.699657 4.03642,8.549487 1.30678,3.712654 2.81001,7.361896 3.92031,11.137963 3.06334,10.418294 4.93021,20.554005 6.45932,31.323989 1.67643,11.807724 3.04872,26.659091 3.72594,38.557781 0.34724,6.10097 0.43432,12.21397 0.65149,18.32095 -0.19482,19.20273 -0.59061,38.75448 -5.16581,57.52197 -0.39894,1.63646 -0.92628,3.23893 -1.3894,4.8584 -0.81386,2.57829 -1.93625,5.01669 -3.22353,7.38346 0,0 9.98284,-4.53028 9.98284,-4.53028 v 0 c 1.01248,-2.36864 1.91404,-4.77761 2.50795,-7.29276 0.33671,-1.58186 0.72565,-3.1535 1.01013,-4.74558 3.33023,-18.63719 2.99895,-37.74049 2.8652,-56.5865 -0.90519,-18.71253 -0.7221,-18.5507 -2.38014,-37.620876 -1.49812,-17.230511 -3.12282,-34.599864 -7.3492,-51.42448 -0.97411,-3.877776 -2.34444,-7.645114 -3.51665,-11.467671 -1.23561,-2.941587 -2.37133,-5.927141 -3.70679,-8.824762 -3.04424,-6.605351 -6.90389,-12.7316644 -11.30578,-18.499194 0,0 -9.71254,5.6293438 -9.71254,5.6293438 z" />
    <path
       style="fill:#000000;stroke-width:0.264583"
       id="path30"
       d="m 295.75315,138.59091 c 8.61891,-0.73077 17.15424,-2.26388 25.72512,-3.42113 5.42097,-0.71536 10.86736,-1.19531 16.31963,-1.58854 0,0 8.59232,-6.3552 8.59232,-6.3552 v 0 c -5.60141,0.54913 -11.19934,1.14255 -16.78085,1.86937 -8.25908,1.09392 -16.51278,2.54195 -24.83975,2.94463 0,0 -9.01647,6.55087 -9.01647,6.55087 z" />
    <path
       style="fill:#000000;stroke-width:0.264583"
       id="path32"
       d="m 301.40761,117.44708 c 8.34724,-0.62248 16.68156,-1.4582 25.03342,-2.07131 5.79988,-0.41423 11.60862,-0.67501 17.41967,-0.86255 0,0 8.58938,-6.30473 8.58938,-6.30473 v 0 c -5.96519,0.38445 -11.93088,0.76144 -17.89377,1.18087 -5.47881,0.39307 -10.95793,0.75993 -16.43912,1.11663 -0.30083,0.0196 -5.31077,0.38333 -6.23869,0.40326 -0.46413,0.01 -0.92768,-0.0391 -1.3915,-0.0587 0,0 -9.07939,6.59654 -9.07939,6.59654 z" />
    <path
       style="fill:#000000;stroke-width:0.264583"
       id="path10-8"
       d="m 393.11,47.97931 c 3.3611,9.396932 4.88251,19.408694 5.66453,29.326682 0.2834,3.594187 0.36535,7.201421 0.54802,10.802133 0.49154,20.158645 -2.34158,40.156065 -6.12419,59.897475 -0.35097,1.70975 -0.70195,3.41951 -1.05292,5.12927 0,0 9.20015,-4.48662 9.20015,-4.48662 v 0 c 0.2453,-1.66164 0.4906,-3.32328 0.7359,-4.98492 2.81575,-19.77844 5.42232,-39.65183 5.24445,-59.676424 -0.27291,-7.774392 -0.35435,-13.263951 -1.04194,-20.95292 -0.53565,-5.989902 -1.65157,-11.775117 -2.82946,-17.652938 -0.18124,-0.904365 -0.34082,-1.81293 -0.51122,-2.719399 0,0 -9.83332,5.317661 -9.83332,5.317661 z" />
    <path
       style="fill:#000000;stroke-width:0.264583"
       id="path12-0"
       d="m 396.11714,47.514662 c 8.01393,-4.02844 16.5273,-6.876178 25.13199,-9.329161 4.77433,-1.045043 10.42183,-3.356796 15.24777,-1.135885 0.7084,0.326005 1.31741,0.834794 1.97611,1.25219 4.9536,4.509424 6.44259,11.001018 7.50507,17.344099 0.73535,5.592002 1.1038,11.346917 -0.55484,16.824525 -0.33544,1.107789 -0.8166,2.166109 -1.2249,3.249163 -2.97923,5.864521 -7.53872,10.842926 -12.82031,14.738426 -1.02169,0.753555 -2.10946,1.413129 -3.16419,2.119696 1.94595,-1.145315 3.95706,-2.186511 5.83786,-3.435945 0.91689,-0.6091 -1.94489,1.032896 -2.93733,1.509088 -2.65531,1.274075 -5.40385,2.257629 -8.23612,3.046024 -0.91012,0.236762 -1.83401,0.412035 -2.76581,0.534709 0,0 -9.04152,6.708959 -9.04152,6.708959 v 0 c 1.04265,-0.0782 2.06713,-0.29359 3.08155,-0.54246 8.65003,-2.307133 16.29499,-6.96063 23.85445,-11.669033 1.03344,-0.731126 2.10006,-1.417463 3.10031,-2.193369 5.2722,-4.089707 9.81333,-9.24124 12.6805,-15.288448 0.39496,-1.128255 0.8623,-2.233721 1.18486,-3.384767 1.57221,-5.610381 1.14237,-11.478469 0.33793,-17.17006 -1.12737,-6.622695 -2.77675,-13.343747 -7.73365,-18.216092 -1.94729,-1.373121 -2.16258,-1.811462 -4.52207,-2.351278 -4.59663,-1.051645 -9.2705,0.741151 -13.67345,1.799937 -8.37546,2.385792 -16.67151,5.059214 -24.61286,8.669422 0,0 -8.65135,6.92026 -8.65135,6.92026 z" />
    <path
       style="fill:#000000;stroke-width:0.264583"
       id="path14-2"
       d="m 486.8782,24.768783 c -5.66741,14.373376 -11.60806,28.632081 -17.13017,43.063269 -6.73495,18.790671 -12.93624,37.919578 -17.62683,57.336228 -0.68102,2.8191 -1.26139,5.66157 -1.89208,8.49236 -1.85142,8.74675 -3.29876,17.91723 -1.09464,26.75244 0.26231,1.05148 0.65961,2.06461 0.98942,3.09691 1.68932,4.73654 4.11967,7.56832 7.75259,10.85481 2.24851,1.93117 4.44402,3.91074 6.5441,6.00052 0.20614,0.20297 0.41227,0.40592 0.6184,0.60888 0,0 9.48868,-5.86172 9.48868,-5.86172 v 0 c -0.21648,-0.19029 -0.43296,-0.3806 -0.64944,-0.57089 -2.19864,-2.02582 -4.41014,-4.03197 -6.72488,-5.92899 -3.46765,-3.10451 -5.97039,-5.77804 -7.69584,-10.24486 -0.34322,-0.97676 -0.75024,-1.93339 -1.02967,-2.93029 -2.37873,-8.48615 -1.16065,-17.39747 0.34661,-25.91108 0.54291,-2.77667 1.03295,-5.56421 1.62872,-8.33001 4.19248,-19.46302 10.2938,-38.482962 17.3589,-57.07909 1.44343,-3.632764 2.84175,-7.283781 4.33031,-10.898291 4.60551,-11.183135 9.68482,-22.165606 14.82589,-33.109847 0,0 -10.04007,4.659651 -10.04007,4.659651 z" />
    <path
       style="fill:#000000;stroke-width:0.264583"
       id="path24-8"
       d="m 490.44575,64.846455 c 0.93646,17.914638 1.00706,35.862785 1.12615,53.797375 0.0473,14.54485 -0.13912,29.08767 -0.49338,43.62769 0,0 8.54354,-4.35315 8.54354,-4.35315 v 0 c -0.35909,-14.37233 -0.54043,-28.74761 -0.49338,-43.12491 0.12082,-18.317317 0.20662,-36.646545 1.12616,-54.944984 0,0 -9.80909,4.997979 -9.80909,4.997979 z" />
    <path
       style="fill:#000000;stroke-width:0.264583"
       id="path26-3"
       d="m 498.48527,66.39921 c 4.28485,-4.450977 9.39885,-7.991366 14.61685,-11.250697 0.72934,-0.455567 -2.93221,1.733222 -2.10844,1.486506 2.32219,-0.695481 4.45816,-1.905217 6.68724,-2.857825 6.66046,-2.181691 15.92453,-5.729735 23.06739,-4.006083 3.70405,0.893829 4.20321,2.020528 6.82512,4.519036 0.74057,1.273122 1.62326,2.473581 2.22171,3.819371 1.92407,4.326864 2.67748,9.461227 1.68883,14.12483 -0.90114,4.250727 -2.26866,6.04624 -4.35033,9.812753 -3.65779,4.603208 -3.73688,5.208022 -8.44212,9.001871 -1.74339,1.405703 -3.6961,2.533841 -5.47148,3.898908 -0.76021,0.584513 3.33539,-1.843219 2.42123,-1.553607 -2.07389,0.657022 -3.93282,1.868184 -5.95402,2.672819 -1.89107,0.752827 -3.84744,1.329952 -5.77116,1.994932 -7.04445,2.048556 -14.40894,3.341026 -21.75952,2.790356 -2.06999,-0.45071 -2.54335,-1.190635 -7.38939,4.69357 -0.93967,1.14097 2.76949,-1.04219 4.18851,-1.45596 4.97857,-1.45171 7.66549,-1.84123 12.83639,-2.84409 9.2565,-1.486551 18.58777,-2.972273 27.9881,-2.574292 1.37677,0.216392 3.22051,0.264176 4.06952,1.626542 1.22321,1.96286 0.84489,4.84421 0.8154,6.97573 -0.72327,7.86411 -2.79275,15.51093 -5.41143,22.93409 -1.4251,3.08522 -2.235,5.37162 -4.55445,8.01163 -2.35411,2.67944 -6.8791,6.09819 -9.79702,8.01605 -1.77887,1.16919 -3.53163,2.44125 -5.50834,3.23118 -1.29442,0.51726 2.28362,-1.59922 3.42543,-2.39883 -3.50048,1.69093 -7.14477,3.03001 -10.81143,4.30198 0,0 -8.42609,6.56976 -8.42609,6.56976 v 0 c 3.83955,-1.3758 7.66386,-2.80012 11.3461,-4.56712 9.37034,-5.09937 21.93428,-10.77893 29.16119,-19.26536 2.40316,-2.82199 3.16729,-5.07154 4.6341,-8.32766 2.64288,-7.54248 4.60597,-15.33611 5.41991,-23.30341 0.10656,-2.779626 0.77635,-7.207211 -1.99109,-9.121678 -1.08726,-0.752144 -2.39651,-0.789781 -3.64105,-0.988468 -9.70142,-0.147679 -19.28906,1.407817 -28.8456,2.936397 -2.23119,0.393131 -4.46901,0.750345 -6.69358,1.179401 -9.39566,1.81215 -12.40721,2.748246 -21.34316,9.192358 -0.35713,0.25754 0.066,0.96147 0.38679,1.26303 0.31329,0.29447 0.83892,0.18886 1.25838,0.28329 7.68318,0.40651 15.36458,-0.90264 22.73747,-3.00879 1.96481,-0.66005 3.96113,-1.23282 5.89443,-1.98016 7.52413,-2.908518 13.27942,-6.455031 20.50665,-10.92157 3.35447,-2.073117 7.56662,-5.596716 10.22543,-8.534845 1.37566,-1.520179 2.49691,-3.252531 3.74537,-4.878795 2.08794,-3.973541 3.42437,-5.792552 4.28053,-10.253018 0.93196,-4.855329 0.0694,-10.213605 -1.89635,-14.710746 -0.62888,-1.43868 -1.54788,-2.732254 -2.32183,-4.09838 -2.74668,-2.703597 -3.38138,-4.035091 -7.31292,-5.04761 -1.6049,-0.413321 -3.29621,-0.464314 -4.95313,-0.430492 -6.49918,0.132662 -12.73781,2.344843 -18.82361,4.364971 -2.24218,0.923568 -4.56948,1.66279 -6.72653,2.770706 -10.00537,5.139023 -20.39394,10.911374 -28.73668,18.651445 -0.60093,0.557516 -1.11363,1.203162 -1.67044,1.804743 0,0 10.26312,-4.548769 10.26312,-4.548769 z" />
    <path
       style="fill:#000000;stroke-width:0.264583"
       id="path22-9"
       d="m 577.29308,5.7675702 c 0.0636,0.873143 0.0958,1.7491419 0.1908,2.6194279 0.38912,3.5644289 0.91742,7.1135369 1.26135,10.6826099 1.55655,16.152945 1.94824,24.644694 2.88502,41.506172 1.56214,28.117311 1.39467,26.205019 2.64415,54.6352 1.02916,22.33493 1.533,44.68734 1.99188,67.03929 0,0 6.65493,-3.42845 6.65493,-3.42845 v 0 c -1.53237,-22.00784 -3.01523,-44.02116 -3.87261,-66.06843 -1.02911,-26.28956 -1.9432,-52.566214 -2.24795,-78.87619 -0.073,-6.301949 -0.14589,-12.604769 -0.0906,-18.906898 0.0676,-7.7047938 0.17679,-8.8068199 0.54791,-14.2800939 0,0 -9.96489,5.0773621 -9.96489,5.0773621 z" />
    <path
       style="fill:#000000;stroke-width:0.264583"
       id="path16-0"
       d="m 633.24312,48.685609 c 0.0709,5.519769 -1.19371,11.15184 -2.3955,16.498014 -1.9144,8.51616 -3.36729,13.277506 -5.76294,21.890034 -5.13231,17.528823 -11.37446,34.698803 -18.00447,51.708073 0,0 9.32423,-4.35136 9.32423,-4.35136 v 0 c 5.61396,-16.99 11.33771,-33.94386 16.51685,-51.074338 3.59539,-11.867579 7.42476,-23.771704 9.89051,-35.945064 0.36469,-1.800492 0.35218,-2.281537 0.43083,-3.820364 0,0 -9.99951,5.095005 -9.99951,5.095005 z" />
    <path
       style="fill:#000000;stroke-width:0.264583"
       id="path18-5"
       d="m 637.02288,48.685609 c 0.0412,0.590346 0.0594,1.182748 0.12362,1.771036 0.68038,6.233617 1.76451,12.438123 2.73602,18.628373 2.32907,14.840318 1.1253,7.298068 3.70915,23.171019 2.86123,18.265283 6.14441,36.522173 11.40834,54.265073 1.40531,4.35606 3.21822,8.56273 5.57643,12.48353 0,0 9.52442,-5.5672 9.52442,-5.5672 v 0 c -2.5738,-3.6537 -4.61113,-7.63032 -6.18879,-11.81752 -1.73105,-4.84177 -2.35537,-6.37908 -3.86209,-11.59606 -3.95518,-13.69468 -6.7011,-27.7164 -8.82377,-41.801613 -1.4755,-10.821936 -1.8584,-13.036255 -2.99457,-23.524915 -0.68849,-6.355903 -1.39785,-12.801293 -1.33287,-19.209716 0.006,-0.633645 0.0824,-1.264674 0.12362,-1.897012 0,0 -9.99951,5.095005 -9.99951,5.095005 z" />
    <path
       style="fill:#000000;stroke-width:0.264583"
       id="path20-2"
       d="m 618.96045,115.38338 c 12.45104,-0.44647 24.91388,-0.44272 37.37127,-0.40767 8.37624,0.0715 4.38357,0.0267 11.97807,0.12871 0,0 8.21715,-5.97011 8.21715,-5.97011 v 0 c -7.84583,0.10166 -3.73506,0.057 -12.33237,0.12871 -12.08308,0.0337 -24.17303,0.0568 -36.24907,-0.40767 0,0 -8.98505,6.52803 -8.98505,6.52803 z" />
    <path
       style="fill:#000000;stroke-width:0.264583"
       id="path28-2"
       d="m 687.03541,7.9428176 c 5.06101,5.2502404 9.2347,11.2300054 12.59024,17.7087594 1.44938,2.798413 2.69096,5.699659 4.03642,8.549488 1.30678,3.712652 2.81001,7.361897 3.92031,11.137964 3.06334,10.418291 4.93021,20.554003 6.45932,31.323989 1.67643,11.807722 3.04872,26.659092 3.72594,38.557772 0.34724,6.10097 0.43432,12.21398 0.65149,18.32096 -0.19482,19.20274 -0.59061,38.75449 -5.16581,57.52197 -0.39894,1.63647 -0.92628,3.23894 -1.3894,4.85841 -0.81386,2.57829 -1.93625,5.01669 -3.22353,7.38345 0,0 9.98284,-4.53028 9.98284,-4.53028 v 0 c 1.01248,-2.36864 1.91404,-4.77761 2.50795,-7.29276 0.33671,-1.58186 0.72565,-3.1535 1.01013,-4.74558 3.33023,-18.63719 2.99895,-37.74049 2.8652,-56.58649 -0.90519,-18.71255 -0.7221,-18.55072 -2.38013,-37.620887 -1.49813,-17.230513 -3.12283,-34.599864 -7.34921,-51.424483 -0.97411,-3.877776 -2.34444,-7.645111 -3.51665,-11.467669 -1.23561,-2.941588 -2.37133,-5.927142 -3.70679,-8.824763 -3.04424,-6.605351 -6.90389,-12.7316644 -11.30578,-18.4991944 0,0 -9.71254,5.629344 -9.71254,5.629344 z" />
    <path
       style="fill:#000000;stroke-width:0.264583"
       id="path10-7"
       d="m 541.64907,257.09033 c 3.3611,9.39693 4.88251,19.40869 5.66453,29.32668 0.2834,3.59419 0.36535,7.20142 0.54802,10.80213 0.49154,20.15865 -2.34159,40.15607 -6.1242,59.89748 -0.35097,1.70975 -0.70194,3.41951 -1.05292,5.12927 0,0 9.20016,-4.48662 9.20016,-4.48662 v 0 c 0.2453,-1.66164 0.4906,-3.32328 0.7359,-4.98492 2.81575,-19.77845 5.42232,-39.65183 5.24445,-59.67642 -0.27291,-7.7744 -0.35436,-13.26396 -1.04194,-20.95292 -0.53565,-5.98991 -1.65158,-11.77512 -2.82947,-17.65294 -0.18123,-0.90437 -0.34081,-1.81293 -0.51121,-2.7194 0,0 -9.83332,5.31766 -9.83332,5.31766 z" />
    <path
       style="fill:#000000;stroke-width:0.264583"
       id="path12-3"
       d="m 544.65621,256.62568 c 8.01393,-4.02844 16.52729,-6.87618 25.13198,-9.32916 4.77433,-1.04504 10.42183,-3.35679 15.24777,-1.13588 0.7084,0.326 1.31741,0.83479 1.97612,1.25219 4.9536,4.50942 6.44258,11.00101 7.50507,17.34409 0.73535,5.59201 1.1038,11.34692 -0.55484,16.82453 -0.33545,1.10779 -0.8166,2.16611 -1.2249,3.24916 -2.97924,5.86452 -7.53872,10.84293 -12.82031,14.73843 -1.02169,0.75355 -2.10947,1.41313 -3.1642,2.11969 1.94596,-1.14531 3.95707,-2.18651 5.83787,-3.43594 0.91689,-0.6091 -1.94489,1.0329 -2.93733,1.50909 -2.65531,1.27407 -5.40385,2.25763 -8.23612,3.04602 -0.91012,0.23676 -1.83401,0.41204 -2.76581,0.53471 0,0 -9.04152,6.70896 -9.04152,6.70896 v 0 c 1.04265,-0.0782 2.06712,-0.29359 3.08155,-0.54246 8.65003,-2.30713 16.29498,-6.96063 23.85445,-11.66903 1.03344,-0.73113 2.10005,-1.41747 3.1003,-2.19337 5.27221,-4.08971 9.81334,-9.24124 12.68051,-15.28845 0.39495,-1.12826 0.8623,-2.23372 1.18486,-3.38477 1.57221,-5.61038 1.14237,-11.47847 0.33792,-17.17006 -1.12736,-6.62269 -2.77675,-13.34374 -7.73364,-18.21609 -1.94729,-1.37312 -2.16258,-1.81146 -4.52207,-2.35128 -4.59663,-1.05164 -9.27051,0.74115 -13.67345,1.79994 -8.37547,2.38579 -16.67151,5.05921 -24.61286,8.66942 0,0 -8.65135,6.92026 -8.65135,6.92026 z" />
    <path
       style="fill:#000000;stroke-width:0.264583"
       id="path14-7"
       d="m 642.22084,230.856 c -5.66741,14.37337 -11.60806,28.63208 -17.13017,43.06326 -6.73495,18.79068 -12.93623,37.91958 -17.62683,57.33623 -0.68102,2.8191 -1.26139,5.66157 -1.89208,8.49236 -1.85141,8.74675 -3.29876,17.91723 -1.09464,26.75244 0.26231,1.05148 0.65961,2.06461 0.98942,3.09691 1.68932,4.73654 4.11967,7.56832 7.75259,10.85481 2.24851,1.93117 4.44402,3.91074 6.5441,6.00052 0.20614,0.20297 0.41227,0.40592 0.6184,0.60888 0,0 9.48868,-5.86172 9.48868,-5.86172 v 0 c -0.21648,-0.19029 -0.43296,-0.3806 -0.64944,-0.57089 -2.19864,-2.02582 -4.41014,-4.03197 -6.72488,-5.92899 -3.46765,-3.10451 -5.97039,-5.77804 -7.69584,-10.24486 -0.34322,-0.97676 -0.75024,-1.93339 -1.02967,-2.93029 -2.37873,-8.48615 -1.16065,-17.39747 0.34661,-25.91108 0.54291,-2.77667 1.03295,-5.56421 1.62872,-8.33001 4.19248,-19.46302 10.2938,-38.48296 17.3589,-57.07909 1.44343,-3.63276 2.84175,-7.28378 4.33031,-10.89829 4.60551,-11.18313 9.68482,-22.1656 14.82589,-33.10985 0,0 -10.04007,4.65966 -10.04007,4.65966 z" />
    <path
       style="fill:#000000;stroke-width:0.264583"
       id="path16-2"
       d="m 678.97266,248.7252 c 0.0709,5.51977 -1.19371,11.15184 -2.3955,16.49802 -1.91439,8.51616 -3.36729,13.2775 -5.76293,21.89003 -5.13231,17.52883 -11.37447,34.6988 -18.00448,51.70807 0,0 9.32424,-4.35136 9.32424,-4.35136 v 0 c 5.61396,-16.98999 11.3377,-33.94386 16.51685,-51.07433 3.59538,-11.86758 7.42476,-23.77171 9.8905,-35.94507 0.36469,-1.80049 0.35218,-2.28153 0.43084,-3.82036 0,0 -9.99952,5.095 -9.99952,5.095 z" />
    <path
       style="fill:#000000;stroke-width:0.264583"
       id="path18-3"
       d="m 682.75243,248.7252 c 0.0412,0.59035 0.0594,1.18275 0.12362,1.77104 0.68037,6.23362 1.7645,12.43812 2.73601,18.62837 2.32907,14.84032 1.1253,7.29807 3.70915,23.17102 2.86123,18.26528 6.14441,36.52217 11.40834,54.26507 1.40531,4.35606 3.21823,8.56273 5.57643,12.48353 0,0 9.52442,-5.5672 9.52442,-5.5672 v 0 c -2.5738,-3.6537 -4.61113,-7.63032 -6.18878,-11.81752 -1.73106,-4.84177 -2.35537,-6.37908 -3.86209,-11.59606 -3.95519,-13.69468 -6.7011,-27.7164 -8.82377,-41.8016 -1.47551,-10.82194 -1.85841,-13.03626 -2.99457,-23.52492 -0.6885,-6.35591 -1.39785,-12.8013 -1.33287,-19.20972 0.006,-0.63364 0.0824,-1.26467 0.12362,-1.89701 0,0 -9.99951,5.095 -9.99951,5.095 z" />
    <path
       style="fill:#000000;stroke-width:0.264583"
       id="path20-9"
       d="m 664.68999,315.42297 c 12.45104,-0.44647 24.91388,-0.44272 37.37128,-0.40767 8.37624,0.0715 4.38357,0.0267 11.97806,0.12871 0,0 8.21715,-5.97011 8.21715,-5.97011 v 0 c -7.84583,0.10166 -3.73506,0.057 -12.33236,0.12872 -12.08308,0.0337 -24.17303,0.0568 -36.24907,-0.40767 0,0 -8.98506,6.52802 -8.98506,6.52802 z" />
    <path
       style="fill:#000000;stroke-width:0.264583"
       id="path28-9"
       d="m 732.76496,236.7086 c 5.06101,5.25024 9.2347,11.23001 12.59024,17.70876 1.44938,2.79842 2.69096,5.69966 4.03642,8.54949 1.30678,3.71265 2.81001,7.3619 3.92031,11.13797 3.06334,10.41829 4.93021,20.554 6.45932,31.32398 1.67643,11.80773 3.04872,26.6591 3.72594,38.55778 0.34724,6.10097 0.43432,12.21397 0.65149,18.32095 -0.19482,19.20274 -0.59061,38.75449 -5.16581,57.52197 -0.39894,1.63647 -0.92628,3.23894 -1.3894,4.85841 -0.81386,2.57829 -1.93625,5.01669 -3.22353,7.38345 0,0 9.98284,-4.53028 9.98284,-4.53028 v 0 c 1.01248,-2.36864 1.91404,-4.77761 2.50795,-7.29276 0.33671,-1.58186 0.72565,-3.1535 1.01013,-4.74558 3.33023,-18.63719 2.99895,-37.74049 2.8652,-56.58649 -0.90519,-18.71254 -0.7221,-18.55071 -2.38014,-37.62088 -1.49812,-17.23051 -3.12282,-34.59986 -7.3492,-51.42448 -0.97411,-3.87778 -2.34444,-7.64511 -3.51665,-11.46767 -1.23561,-2.94159 -2.37133,-5.92714 -3.70679,-8.82477 -3.04424,-6.60535 -6.90389,-12.73166 -11.30578,-18.49919 0,0 -9.71254,5.62934 -9.71254,5.62934 z" />
    <path
       style="fill:#000000;stroke-width:0.264583"
       id="path10-1"
       d="m 752.96938,47.510769 c 3.3611,9.396932 4.88251,19.408694 5.66453,29.326682 0.2834,3.594187 0.36535,7.201421 0.54802,10.802133 0.49154,20.158646 -2.34159,40.156066 -6.1242,59.897476 -0.35097,1.70974 -0.70194,3.4195 -1.05292,5.12926 0,0 9.20016,-4.48662 9.20016,-4.48662 v 0 c 0.2453,-1.66163 0.4906,-3.32328 0.7359,-4.98491 2.81575,-19.77845 5.42232,-39.65183 5.24445,-59.676425 -0.27291,-7.774392 -0.35436,-13.263951 -1.04194,-20.95292 -0.53565,-5.989902 -1.65158,-11.775116 -2.82947,-17.652938 -0.18123,-0.904364 -0.34081,-1.81293 -0.51121,-2.719398 0,0 -9.83332,5.31766 -9.83332,5.31766 z" />
    <path
       style="fill:#000000;stroke-width:0.264583"
       id="path12-4"
       d="m 755.97652,47.046121 c 8.01393,-4.02844 16.52729,-6.876177 25.13198,-9.329161 4.77433,-1.045043 10.42183,-3.356795 15.24777,-1.135885 0.7084,0.326006 1.31741,0.834794 1.97612,1.252191 4.9536,4.509423 6.44258,11.001017 7.50507,17.344098 0.73535,5.592002 1.1038,11.346917 -0.55484,16.824525 -0.33545,1.107789 -0.8166,2.166109 -1.2249,3.249163 -2.97924,5.864521 -7.53872,10.842926 -12.82031,14.738426 -1.02169,0.753555 -2.10947,1.413129 -3.1642,2.119697 1.94596,-1.145316 3.95707,-2.186512 5.83787,-3.435946 0.91689,-0.6091 -1.94489,1.032897 -2.93733,1.509088 -2.65531,1.274075 -5.40385,2.257629 -8.23612,3.046024 -0.91012,0.236762 -1.83401,0.412035 -2.76581,0.53471 0,0 -9.04152,6.708959 -9.04152,6.708959 v 0 c 1.04265,-0.0782 2.06712,-0.29359 3.08155,-0.542459 8.65003,-2.307134 16.29498,-6.960631 23.85445,-11.669035 1.03344,-0.731126 2.10005,-1.417463 3.1003,-2.193369 5.27221,-4.089707 9.81334,-9.24124 12.68051,-15.288448 0.39495,-1.128255 0.8623,-2.233721 1.18486,-3.384767 1.57221,-5.610381 1.14237,-11.478469 0.33792,-17.17006 -1.12736,-6.622695 -2.77675,-13.343747 -7.73364,-18.216091 -1.94729,-1.373121 -2.16258,-1.811462 -4.52207,-2.351278 -4.59663,-1.051645 -9.27051,0.741151 -13.67345,1.799937 -8.37547,2.385792 -16.67151,5.059214 -24.61286,8.669422 0,0 -8.65135,6.920259 -8.65135,6.920259 z" />
    <path
       style="fill:#000000;stroke-width:0.264583"
       id="path24-7"
       d="m 868.17185,47.017859 c 0.93646,17.914637 1.00706,35.862782 1.12615,53.797371 0.0473,14.54485 -0.13912,29.08768 -0.49338,43.6277 0,0 8.54354,-4.35315 8.54354,-4.35315 v 0 c -0.35909,-14.37233 -0.54043,-28.74762 -0.49338,-43.124921 0.12082,-18.317318 0.20662,-36.64654 1.12616,-54.94498 0,0 -9.80909,4.99798 -9.80909,4.99798 z" />
    <path
       style="fill:#000000;stroke-width:0.264583"
       id="path26-1"
       d="m 876.21137,48.570613 c 4.28485,-4.450976 9.39885,-7.991366 14.61685,-11.250697 0.72934,-0.455567 -2.93221,1.733222 -2.10844,1.486506 2.32219,-0.695481 4.45816,-1.905217 6.68724,-2.857825 6.66046,-2.181691 15.92453,-5.729735 23.06739,-4.006083 3.70405,0.893829 4.20321,2.020528 6.82512,4.519036 0.74057,1.273122 1.62326,2.473581 2.22171,3.819371 1.92407,4.326864 2.67748,9.461228 1.68883,14.12483 -0.90114,4.250728 -2.26866,6.04624 -4.35033,9.812753 -3.65779,4.603208 -3.73688,5.208022 -8.44212,9.001877 -1.74339,1.405699 -3.6961,2.53383 -5.47148,3.8989 -0.76021,0.58452 3.33539,-1.84322 2.42123,-1.553602 -2.07389,0.657021 -3.93282,1.868181 -5.95402,2.67281 -1.89107,0.75283 -3.84744,1.32996 -5.77116,1.99494 -7.04445,2.048561 -14.40894,3.341032 -21.75952,2.790352 -2.06999,-0.45071 -2.54335,-1.190631 -7.38939,4.693568 -0.93967,1.140981 2.76949,-1.042178 4.18851,-1.45596 4.97857,-1.451708 7.66549,-1.84122 12.83639,-2.844088 9.2565,-1.486551 18.58777,-2.972271 27.9881,-2.57429 1.37677,0.216389 3.22051,0.264178 4.06952,1.62655 1.22321,1.962859 0.84489,4.844198 0.8154,6.975729 -0.72327,7.864099 -2.79275,15.51092 -5.41143,22.93408 -1.4251,3.08522 -2.235,5.37162 -4.55445,8.01163 -2.35411,2.67944 -6.8791,6.0982 -9.79702,8.01606 -1.77887,1.16919 -3.53163,2.44125 -5.50834,3.23118 -1.29442,0.51726 2.28362,-1.59922 3.42543,-2.39883 -3.50048,1.69093 -7.14477,3.03001 -10.81143,4.30198 0,0 -8.42609,6.56976 -8.42609,6.56976 v 0 c 3.83955,-1.3758 7.66386,-2.80012 11.3461,-4.56712 9.37034,-5.09937 21.93428,-10.77894 29.16119,-19.26537 2.40316,-2.82199 3.16729,-5.07153 4.6341,-8.32766 2.64288,-7.54248 4.60597,-15.336111 5.41991,-23.303411 0.10656,-2.779619 0.77635,-7.20721 -1.99109,-9.121679 -1.08726,-0.752139 -2.39651,-0.789782 -3.64105,-0.98846 -9.70142,-0.14768 -19.28906,1.407811 -28.8456,2.936391 -2.23119,0.393139 -4.46901,0.750348 -6.69358,1.179399 -9.39566,1.81216 -12.40721,2.748251 -21.34316,9.19236 -0.35713,0.257551 0.066,0.96147 0.38679,1.263031 0.31329,0.294468 0.83892,0.18886 1.25838,0.28329 7.68318,0.406508 15.36458,-0.902642 22.73747,-3.008781 1.96481,-0.660059 3.96113,-1.232829 5.89443,-1.98016 7.52413,-2.908531 13.27942,-6.45504 20.50665,-10.92158 3.35447,-2.073113 7.56662,-5.596713 10.22543,-8.534842 1.37566,-1.520179 2.49691,-3.252531 3.74537,-4.878795 2.08794,-3.973541 3.42437,-5.792552 4.28053,-10.253018 0.93196,-4.855329 0.0694,-10.213605 -1.89635,-14.710746 -0.62888,-1.43868 -1.54788,-2.732254 -2.32183,-4.09838 -2.74668,-2.703597 -3.38138,-4.035091 -7.31292,-5.04761 -1.6049,-0.413321 -3.29621,-0.464314 -4.95313,-0.430492 -6.49918,0.132662 -12.73781,2.344843 -18.82361,4.364971 -2.24218,0.923568 -4.56948,1.66279 -6.72653,2.770706 -10.00537,5.139023 -20.39394,10.911374 -28.73668,18.651445 -0.60093,0.557516 -1.11363,1.203162 -1.67044,1.804743 0,0 10.26312,-4.548769 10.26312,-4.548769 z" />
    <path
       style="fill:#000000;stroke-width:0.264583"
       id="path14-3"
       d="M 850.53659,1.1803603 C 844.86918,15.553736 838.92853,29.812441 833.40642,44.243629 826.67147,63.0343 820.47019,82.163204 815.7796,101.57986 c -0.68103,2.8191 -1.2614,5.66157 -1.89209,8.49236 -1.85141,8.74675 -3.29876,17.91723 -1.09464,26.75244 0.26231,1.05148 0.65961,2.06461 0.98942,3.09691 1.68932,4.73654 4.11967,7.56832 7.7526,10.8548 2.2485,1.93117 4.44401,3.91074 6.5441,6.00053 0.20613,0.20296 0.41226,0.40592 0.6184,0.60887 0,0 9.48867,-5.86171 9.48867,-5.86171 v 0 c -0.21648,-0.1903 -0.43296,-0.3806 -0.64944,-0.5709 -2.19864,-2.02582 -4.41013,-4.03196 -6.72487,-5.92898 -3.46766,-3.10451 -5.9704,-5.77804 -7.69584,-10.24486 -0.34323,-0.97676 -0.75024,-1.9334 -1.02968,-2.93029 -2.37873,-8.48616 -1.16065,-17.39747 0.34662,-25.91108 0.5429,-2.77667 1.03294,-5.56421 1.62871,-8.330009 4.19249,-19.463028 10.2938,-38.482966 17.3589,-57.079094 1.44344,-3.632764 2.84176,-7.283781 4.33031,-10.898291 4.60552,-11.183135 9.68482,-22.165606 14.8259,-33.1098469 0,0 -10.04008,4.6596512 -10.04008,4.6596512 z" />
    <path
       style="fill:#000000;stroke-width:0.264583"
       id="path28-8"
       d="m 943.5406,-3.8650138 c 5.06101,5.2502401 9.2347,11.2300051 12.59024,17.7087588 1.44938,2.798413 2.69096,5.699659 4.03642,8.549488 1.30678,3.712652 2.81001,7.361897 3.92031,11.137964 3.06334,10.418291 4.93021,20.554003 6.45932,31.323989 1.67643,11.807722 3.04872,26.659088 3.72594,38.557774 0.34724,6.10097 0.43432,12.21397 0.65149,18.32095 -0.19482,19.20273 -0.59061,38.75448 -5.16581,57.52197 -0.39894,1.63646 -0.92628,3.23893 -1.3894,4.8584 -0.81386,2.57829 -1.93625,5.01669 -3.22353,7.38346 0,0 9.98284,-4.53028 9.98284,-4.53028 v 0 c 1.01248,-2.36864 1.91404,-4.77761 2.50795,-7.29276 0.33671,-1.58186 0.72565,-3.1535 1.01013,-4.74558 3.33023,-18.63719 2.99895,-37.74049 2.8652,-56.5865 -0.90519,-18.712526 -0.7221,-18.550696 -2.38014,-37.620869 -1.49812,-17.230513 -3.12282,-34.599864 -7.3492,-51.424483 -0.97411,-3.877775 -2.34444,-7.645111 -3.51665,-11.467669 -1.23561,-2.941588 -2.37133,-5.927142 -3.70679,-8.8247627 -3.04424,-6.605351 -6.90389,-12.7316643 -11.30578,-18.4991939 0,0 -9.71254,5.6293438 -9.71254,5.6293438 z" />
    <path
       style="fill:#000000;stroke-width:0.264583"
       id="path328"
       d="m 358.50648,199.95253 c 47.83333,-1.53366 95.69974,-1.77316 143.55386,-1.9623 63.2256,-0.22115 126.44903,-0.0945 189.66953,0.73829 34.44462,0.20328 68.74893,3.63398 103.02009,6.74257 24.92833,2.54533 49.91346,3.24876 74.94831,3.00934 19.92855,-0.53076 39.87176,-0.31223 59.79798,-0.87262 11.68548,-0.19318 23.2814,-1.48506 34.66343,-4.10507 6.55857,-1.73435 12.97961,-3.93394 19.4378,-6.00114 3.88755,-1.28812 7.79986,-2.47487 11.59677,-4.01707 0,0 23.49075,-18.32465 23.49075,-18.32465 v 0 c -3.988,1.23228 -7.7034,3.30066 -11.8101,4.21804 -6.4251,2.38078 -13.05683,4.2243 -19.5482,6.42373 -11.4568,2.99753 -23.14225,4.72907 -35.00104,5.09003 -20.05629,0.92099 -40.15105,0.7329 -60.22012,1.26448 -25.2036,0.41248 -50.39431,0.11305 -75.51554,-2.26714 -34.78173,-2.85319 -69.59656,-6.52476 -104.5427,-5.92197 -63.89812,0.8123 -127.79885,0.96933 -191.70187,0.73829 -46.05316,-0.18402 -92.12193,-0.37682 -138.1521,-1.9623 0,0 -23.68685,17.20949 -23.68685,17.20949 z" />
  </g>
</svg>
