<?xml version="1.0" encoding="UTF-8" standalone="no"?>
<svg
   xmlns:dc="http://purl.org/dc/elements/1.1/"
   xmlns:cc="http://creativecommons.org/ns#"
   xmlns:rdf="http://www.w3.org/1999/02/22-rdf-syntax-ns#"
   xmlns:svg="http://www.w3.org/2000/svg"
   xmlns="http://www.w3.org/2000/svg"
   xmlns:sodipodi="http://sodipodi.sourceforge.net/DTD/sodipodi-0.dtd"
   xmlns:inkscape="http://www.inkscape.org/namespaces/inkscape"
   width="820.55396mm"
   height="232.23697mm"
   viewBox="0 0 820.55396 232.23697"
   version="1.1"
   id="svg8"
   inkscape:version="1.0.1 (c497b03c, 2020-09-10)"
   sodipodi:docname="clt.svg">
  <defs
     id="defs2" />
  <sodipodi:namedview
     id="base"
     pagecolor="#ffffff"
     bordercolor="#666666"
     borderopacity="1.0"
     inkscape:pageopacity="0.0"
     inkscape:pageshadow="2"
     inkscape:zoom="0.24559284"
     inkscape:cx="2121.6588"
     inkscape:cy="751.70183"
     inkscape:document-units="mm"
     inkscape:current-layer="layer1"
     inkscape:document-rotation="0"
     showgrid="false"
     inkscape:window-width="1252"
     inkscape:window-height="806"
     inkscape:window-x="0"
     inkscape:window-y="23"
     inkscape:window-maximized="0"
     inkscape:pagecheckerboard="true" />
  <metadata
     id="metadata5">
    <rdf:RDF>
      <cc:Work
         rdf:about="">
        <dc:format>image/svg+xml</dc:format>
        <dc:type
           rdf:resource="http://purl.org/dc/dcmitype/StillImage" />
        <dc:title />
      </cc:Work>
    </rdf:RDF>
  </metadata>
  <g
     inkscape:label="Layer 1"
     inkscape:groupmode="layer"
     id="layer1"
     transform="translate(-77.146231,96.310062)">
    <circle
       id="path120"
       style="fill:#ff0000;stroke:#000000;stroke-width:0.264583"
       cx="-38.553574"
       cy="65.767853"
       r="0.099906191" />
    <circle
       id="path236"
       style="fill:#000000;stroke:#000000;stroke-width:0.264583"
       cx="-145.89882"
       cy="45.357143"
       r="0.099906191" />
    <path
       style="fill:#000000;stroke-width:0.264583"
       id="path238"
       d="m 88.198197,-25.038973 c 9.830115,9.600166 20.127373,18.6927955 30.346543,27.8719593 20.1051,18.0589977 6.396,6.0118108 26.80387,23.7160037 12.24924,10.515388 24.59873,20.911968 37.03138,31.20945 0,0 8.10151,-5.105968 8.10151,-5.105968 v 0 C 177.24462,43.041141 164.22294,33.136858 151.71316,22.586451 132.59829,6.0087676 113.36061,-10.783941 97.70098,-30.785757 c 0,0 -9.502783,5.746784 -9.502783,5.746784 z" />
    <path
       style="fill:#000000;stroke-width:0.264583"
       id="path240"
       d="m 164.71182,-20.581775 c -0.75267,1.540439 -1.42554,2.953359 -2.31478,4.478214 -6.05984,10.3912156 -13.56624,19.9204917 -20.82366,29.4776 -12.82428,16.37611 -26.87238,31.737392 -41.09941,46.892212 -6.708765,7.00764 -13.308116,14.164461 -20.737463,20.425222 -0.907052,0.673677 -1.770547,1.399834 -2.590276,2.17601 0,0 10.375014,-4.259268 10.375014,-4.259268 v 0 c 0.736203,-0.684392 1.495311,-1.343154 2.257861,-1.998032 6.89697,-6.273575 13.124724,-13.228468 19.492524,-20.026194 13.91637,-15.151375 27.69828,-30.457766 40.37119,-46.6778526 8.80388,-11.4055072 17.97483,-22.6525314 25.28137,-35.1083094 0,0 -10.21237,4.620398 -10.21237,4.620398 z" />
    <path
       style="fill:#000000;stroke-width:0.264583"
       id="path242"
       d="m 89.31018,-43.633585 c 12.90108,-0.72543 25.78553,0.41833 38.62769,1.529744 10.00237,0.944089 20.02967,1.578718 30.06624,2.008359 2.99909,0.124511 5.99921,0.220771 8.99974,0.301705 0,0 9.0044,-6.540966 9.0044,-6.540966 v 0 c -3.14037,0.07478 -6.28199,0.08304 -9.42299,0.04375 -10.24339,-0.177125 -20.47723,-0.668763 -30.68974,-1.49597 -12.54563,-0.96334 -25.09352,-2.06444 -37.678875,-2.317543 0,0 -8.906465,6.470925 -8.906465,6.470925 z" />
    <path
       style="fill:#000000;stroke-width:0.264583"
       id="path244"
       d="m 209.23798,25.719405 c 0.67962,-3.467554 2.94963,-5.811247 5.39789,-8.180255 -1.56533,0.480137 6.82255,-4.465749 5.13853,-3.316751 -1.87616,1.280084 -4.1839,1.992117 -5.78025,3.607732 -0.96288,0.974493 2.50958,-1.102174 3.78885,-1.592312 2.40756,-0.922429 6.01075,-2.05611 8.45891,-2.850477 8.51563,-2.665489 17.18257,-4.7625914 25.98329,-6.2144353 8.36179,-1.306781 16.83763,-1.6453612 25.20397,-0.1917742 1.4541,0.2526411 2.88464,0.6260478 4.32697,0.9390716 6.60524,1.608397 11.51451,4.4700009 16.72124,8.6814709 3.34846,2.976746 6.27531,6.380391 9.80747,9.144223 2.99699,2.14449 6.40741,3.480794 10.00329,4.176976 3.9117,0.570873 7.67924,-0.364775 11.36083,-1.5847 2.66293,-1.030939 5.26363,-2.273892 7.7355,-3.707393 11.38078,-6.60002 7.81497,-3.985742 12.8938,-7.866459 2.67303,-2.192901 4.49421,-5.1 5.632,-8.3306646 0.13513,-0.3210089 0.27025,-0.6420178 0.40537,-0.9630267 0,0 -10.08772,4.6706563 -10.08772,4.6706563 v 0 c -0.11885,0.321853 -0.2377,0.643705 -0.35652,0.965557 -1.19565,3.046152 -3.05962,5.69413 -5.70593,7.669275 -4.04727,2.872846 -2.31883,1.557938 5.67018,-2.965652 0.64514,-0.365294 -1.28061,0.748055 -1.93397,1.098424 -1.2577,0.674448 -2.52947,1.324047 -3.8196,1.934134 -0.59423,0.280989 -1.2047,0.526175 -1.80705,0.789263 -3.56947,1.222204 -7.16328,2.425387 -11.00447,2.002723 -3.48618,-0.560995 -6.80943,-1.684375 -9.72527,-3.734531 -3.60145,-2.685701 -6.64416,-6.000564 -9.99188,-8.985619 C 305.86177,9.5144033 304.75962,8.5219486 302.92135,7.3163813 299.06949,4.7902568 294.71852,3.1399498 290.27657,2.0009641 286.1343,1.1207709 285.21011,0.81662788 280.89111,0.36064515 274.06354,-0.3601798 267.24176,0.00822346 260.4587,0.9914973 c -4.1188,0.6220025 -5.23597,0.7249758 -9.25027,1.5821237 -5.6548,1.2074306 -11.20546,2.8830718 -16.76483,4.4550741 -1.16859,0.3738491 -7.25886,2.3101582 -8.44005,2.7356675 -1.26806,0.4568024 -2.56044,0.8728034 -3.75995,1.4874694 -4.19124,2.14772 -8.28184,4.487087 -12.39065,6.788583 -2.89528,1.62175 -2.70742,1.632825 -5.18729,3.626297 -2.51418,2.575624 -4.80975,5.343182 -5.50851,8.981163 0,0 10.08083,-4.92847 10.08083,-4.92847 z" />
    <path
       style="fill:#000000;stroke-width:0.264583"
       id="path246"
       d="m 266.80191,-21.679632 c 0.87342,1.289684 0.95007,2.510798 -0.18317,3.612259 -3.41311,1.843796 -7.72908,4.597781 7.96462,-4.684659 0.16547,-0.09786 -0.3465,0.168886 -0.5285,0.230704 -0.54896,0.186451 -0.5366,0.130872 -1.11562,0.09889 -1.52482,-0.925677 -1.60202,-3.211686 -1.77922,-4.81477 0.0212,-0.661705 0.0233,-1.551985 0.68173,-1.960494 0.18484,-0.114673 0.80603,-0.314875 0.62087,-0.200737 -8.66235,5.34002 -12.14988,5.719696 -7.65244,5.047417 2.85875,0.29074 5.50683,1.584415 7.62961,3.491437 0.60571,0.75181 1.92791,2.347551 1.14006,3.413108 -0.11483,0.155307 -0.31753,0.220008 -0.4763,0.330011 -4.04543,1.195192 0.31834,-0.03067 7.99859,-4.937376 0.29242,-0.186822 -0.66897,0.209356 -1.01536,0.229731 -1.49006,0.08764 -2.5536,-0.751124 -3.69793,-1.563518 -1.66134,-1.554973 -2.96561,-3.458972 -3.65622,-5.632466 0.008,-0.122433 -0.003,-0.587976 0.13359,-0.712279 0.14438,-0.132874 0.74612,-0.212889 0.57798,-0.111742 -9.66792,5.8155 -11.76848,8.142603 -9.16849,5.306356 1.06409,-0.02547 1.50362,2.585609 1.73002,3.327158 0.55377,2.465162 1.27315,5.050148 0.74538,7.572257 -0.30638,0.587131 -0.30834,0.773318 -0.85352,1.153652 -0.1811,0.126342 -0.7839,0.4058 -0.59428,0.29265 18.35254,-10.951302 11.33872,-5.896565 7.99148,-4.908346 -1.97482,-0.975238 -2.32368,-4.424787 -2.64303,-6.354465 0.006,-1.428492 -0.83293,-3.629483 -0.0309,-4.931773 4.8727,-0.584795 -11.17338,8.579961 -8.92526,5.233215 0,0 9.40328,-6.257536 9.40328,-6.257536 v 0 c -3.28834,-2.718147 -9.60353,1.921703 -10.65879,5.82842 -0.21838,1.763625 0.30873,3.548167 0.49749,5.291085 0.50558,2.747616 0.99554,5.758669 3.21566,7.685 0.54447,0.189829 0.79988,0.422582 1.35637,0.112834 3.92055,-2.182195 10.06933,-3.237613 11.22416,-8.05896 0.20949,-2.683579 -0.44696,-5.34507 -1.01116,-7.953849 -0.44286,-1.666894 -0.76957,-3.6048 -2.3051,-4.625055 -4.24294,-1.866929 -11.59478,2.918021 -10.47486,7.532628 0.91373,2.309593 2.41734,4.323923 4.16121,6.077965 0.98851,0.792607 1.59676,1.386105 2.7559,1.914143 4.44796,2.02621 10.91994,-3.039467 13.5001,-5.999855 0.64545,-1.933082 -0.16465,-3.644304 -1.5014,-5.093541 -2.29556,-2.066592 -5.08863,-3.417906 -8.08186,-4.170503 -5.15498,-0.63414 -1.41579,-0.424558 -11.7102,5.62326 -0.9524,0.559521 -0.74741,2.317316 -0.73942,3.174662 0.30053,2.183372 0.64851,4.507434 2.40991,6.024831 0.56969,0.208562 1.44527,0.602565 2.06345,0.265722 2.51447,-1.370121 8.45812,-3.435515 11.07781,-6.755192 0.78589,-1.65367 0.5371,-3.194234 -0.36367,-4.771623 0,0 -9.71254,5.629344 -9.71254,5.629344 z" />
    <path
       style="fill:#000000;stroke-width:0.264583"
       id="path262"
       d="m 407.03756,-41.837017 c 0.75443,12.450808 0.71824,24.932409 0.69382,37.4007099 0.0578,11.0008606 -0.29342,22.0142511 -1.72829,32.9276221 -0.7226,5.897784 -2.00059,11.677636 -3.43323,17.438428 -2.59358,10.176205 -6.26663,19.995406 -10.89906,29.406645 -2.72582,5.675096 -6.1718,10.944712 -10.25607,15.724532 -2.98892,3.254121 -6.71716,5.705491 -10.46861,7.98885 2.05015,-1.153983 -5.83388,3.50535 -3.7565,2.30249 2.94047,-1.712432 5.88092,-3.424863 8.82139,-5.137294 -0.49985,0.238342 -0.3598,0.07334 -0.53983,0.360746 0.15119,0.178985 0.24905,0.422635 0.45358,0.536951 0.11975,0.06695 1.11416,-1.67957 1.18425,-1.825797 0.44254,-0.727369 0.53488,-1.522593 0.59563,-2.350569 0.86389,-4.394025 -9.8283,1.304086 -10.04666,5.343504 -0.28146,4.102189 0.71197,-10.971819 10.44385,-4.685665 3.04768,1.968592 -12.50199,7.370084 -9.38355,5.51562 7.48612,-4.451821 7.52927,-3.025367 10.27374,-6.270971 -3.21643,1.800045 -6.41562,3.63126 -9.64933,5.400135 -0.0315,0.01722 -0.0268,-0.08938 -0.0627,-0.08754 -0.14579,0.0075 -1.74099,1.87781 -1.86526,2.00514 -0.33973,0.29253 -0.66913,0.59746 -1.01912,0.8776 -0.38487,0.30803 -0.77833,0.60605 -1.18415,0.88588 -0.39999,0.27581 -1.65261,1.02211 -1.23147,0.7798 15.16941,-8.72827 9.89348,-5.424138 6.53502,-3.991816 -1.35615,0.45896 -1.14295,-1.466239 -1.20052,-2.334233 -0.21347,-1.690172 0.50821,-2.8061 1.76038,-3.824137 3.74121,-1.75637 0.15108,-0.09071 -8.51286,5.031735 -0.59839,0.353793 0.84039,-0.573829 1.0542,-0.288431 0.27205,0.964158 0.5738,1.997213 -0.52295,2.450323 -3.77687,1.489239 0.0954,-0.01484 8.94617,-5.212432 0.0591,-0.03468 -0.15433,0.0466 -0.20547,0.0011 -0.11816,-0.105309 -0.18661,-0.25908 -0.24789,-0.405032 -0.29228,-0.696203 -0.24313,-0.810517 -0.30755,-1.556829 0.0824,-0.213067 0.12822,-0.444146 0.24709,-0.639197 0.36989,-0.606787 2.72489,-1.716354 1.69897,-1.104005 -8.3617,4.990912 -12.27444,6.557142 -8.4523,4.997923 0.27025,0.0149 1.24489,-0.543063 1.3743,-0.183526 -3.93422,1.289622 -3.1279,1.607019 8.33107,-5.154813 0.19825,-0.116996 -0.40529,0.224565 -0.62447,0.294997 -0.36782,-0.05795 -0.50903,-0.418412 -0.60653,-0.736076 0,0 -9.84232,5.46898 -9.84232,5.46898 v 0 c 0.27205,0.6576 0.65077,1.216848 1.20518,1.679236 3.8757,1.917822 9.40385,-4.471056 11.14208,-5.536993 0.469,-0.287613 0.30171,-1.177722 0.21333,-1.572885 -0.51805,-1.020088 -1.17697,-1.37147 -2.31333,-1.091546 -4.47606,0.785302 -0.87093,0.07818 -10.8626,5.857142 -1.03103,0.596331 -1.36726,1.807178 -1.37477,2.910559 1.11953,6.629926 5.98588,4.415876 12.0451,-2.349677 0.57677,-1.238332 0.34478,-2.523837 -0.13025,-3.770715 -0.40926,-0.676288 -1.04926,-1.537922 -1.98343,-1.02281 -9.89099,5.454047 -7.36616,3.11078 -10.61595,6.218573 -1.12184,1.367909 -1.52522,2.91469 -1.31345,4.681385 0.15304,1.66955 0.34203,3.63789 2.29405,4.04034 0.92723,-0.24779 1.02579,-0.21716 1.93172,-0.73364 4.79097,-2.73138 10.04321,-5.008704 13.98442,-8.96558 0.62394,-0.761952 1.49108,-1.614725 1.54657,-2.677353 0.20497,-3.926289 -16.47897,-8.929698 -10.6062,3.974423 -0.13816,0.113535 -0.58666,0.407712 -0.43172,0.318463 3.1295,-1.802498 12.33869,-7.493593 9.37856,-5.424667 -5.93622,4.149031 -20.25214,10.706634 0.2183,1.248574 0.0414,-0.0191 -0.004,-0.09106 -0.006,-0.136594 -0.16846,-4.391975 -10.28089,0.781359 -10.11531,4.782859 -0.10396,0.699262 -0.39034,1.322134 -0.74896,1.929064 -0.36065,0.565651 -1.20065,1.636121 -1.00116,2.372211 0.0903,0.33294 0.30322,0.61971 0.45482,0.92957 0.43543,0.17876 0.46509,0.28805 0.96822,0.009 4.69175,-2.6004 9.34781,-5.195704 13.85493,-8.085311 3.69782,-2.357123 7.35388,-4.887206 10.21088,-8.257495 3.93745,-4.834086 7.20072,-10.159455 9.81988,-15.821718 4.41079,-9.501892 7.82566,-19.384301 10.60908,-29.483881 1.64967,-5.849223 3.58039,-11.652935 3.76978,-17.78253 0.83407,-10.823612 0.85524,-21.6823811 0.70855,-32.5326165 -0.0249,-12.7042495 -0.044,-25.4200165 0.69382,-38.1077445 0,0 -9.91296,5.050903 -9.91296,5.050903 z" />
    <path
       style="fill:#000000;stroke-width:0.264583"
       id="path264"
       d="m 413.13711,-36.029262 c 1.30744,11.223904 3.3732,22.327757 5.49463,33.4200193 2.17479,10.4659259 4.47976,20.9054167 6.87707,31.3227327 1.38568,6.174627 2.89171,12.320715 5.02711,18.282336 1.48585,4.452908 2.842,8.946647 4.30324,13.408736 2.14426,5.881989 5.08148,11.393183 8.34906,16.714232 2.56524,4.672787 6.30743,8.357486 10.08319,12.032154 2.09386,2.042594 4.37668,3.871272 6.78622,5.524908 1.15027,0.670898 2.28372,1.371272 3.47141,1.97522 0,0 9.23994,-6.454378 9.23994,-6.454378 v 0 c -0.81955,0.270597 -2.51773,-1.306819 -3.35344,-1.524519 -2.45634,-1.525066 -4.7603,-3.29302 -6.93192,-5.199649 -0.81243,-0.751925 -2.96207,-2.724762 -3.69462,-3.474662 -2.4412,-2.498998 -4.4324,-5.356945 -6.36548,-8.254188 -1.15379,-1.814221 -2.2307,-3.438308 -3.25371,-5.33746 -1.93273,-3.588039 -3.44003,-7.392692 -4.88598,-11.195302 -1.45703,-4.484817 -2.66756,-9.046569 -4.25823,-13.483608 -2.24933,-5.837454 -3.94063,-11.855431 -5.38313,-17.940808 -2.55879,-10.324256 -4.96676,-20.6894695 -7.23824,-31.079959 -2.20062,-11.127042 -4.41105,-22.345697 -4.45801,-33.733784 0,0 -9.80911,4.997979 -9.80911,4.997979 z" />
    <path
       style="fill:#000000;stroke-width:0.264583"
       id="path268"
       d="M 475.07231,81.042345 C 474.4181,67.26973 473.94029,53.432736 474.6758,39.651117 c 0.2086,-3.908886 0.60373,-7.805582 0.90559,-11.708371 2.01441,-19.2415832 6.37352,-38.155309 12.57001,-56.462847 1.43383,-3.9961 2.89513,-8.027398 4.98438,-11.740883 0.50909,-0.904862 1.09104,-1.766824 1.62444,-2.65756 1.6959,-3.105676 3.78245,-5.972344 5.72198,-8.925065 1.69924,-2.41795 3.51864,-4.76002 5.55377,-6.90504 0.64341,-0.526716 1.15173,-1.265825 1.84766,-1.735346 0.13457,-0.09077 0.58166,-0.287068 0.44177,-0.204753 -10.08909,5.937046 -12.24367,7.374551 -9.06147,5.26057 0.0193,-0.748292 1.41179,0.725963 1.59054,0.924168 0.48773,0.584473 0.58219,1.303089 0.62611,2.035006 -0.13351,0.317849 -0.45172,0.333602 -0.74086,0.460057 3.08737,-1.832803 6.17347,-3.667789 9.26214,-5.498412 0.23484,-0.139181 -0.48326,0.260731 -0.7433,0.343763 -0.59928,0.09823 -1.22025,0.328816 -1.78419,0.08083 -0.40693,-0.343472 -0.46447,-0.878224 -0.50281,-1.377344 0.42524,-0.133012 -0.11226,0.07739 0.3043,-0.28443 0.17335,-0.150572 0.85545,-0.320302 0.65846,-0.202309 -8.3403,4.995921 -12.49373,6.826182 -8.80329,5.184365 0.38534,-0.117948 1.19557,-0.475681 1.52484,-0.06662 0.1873,0.607693 -0.10387,1.089673 -0.3443,1.63685 -4.0301,1.374384 0.71353,-0.611126 8.65944,-5.234942 0.375,-0.218207 -0.5458,0.268486 -0.96035,0.357521 -0.45511,0.202197 -0.85119,-0.04518 -0.97819,-0.499013 0.0451,-0.0186 0.0902,-0.03721 0.13533,-0.05582 0,0 -10.08451,5.055272 -10.08451,5.055272 v 0 c 0.0332,0.162854 0.0664,0.32571 0.0996,0.488564 0.36042,0.830431 0.93623,1.441825 1.79994,1.758169 4.43852,-0.299275 10.009,-2.344121 11.52496,-6.642399 0.24037,-0.891209 0.30059,-1.758373 -0.13708,-2.603746 -0.55102,-0.796314 -1.35486,-1.229005 -2.35286,-1.076854 -4.23135,0.87752 -0.93274,0.142973 -10.55008,5.831702 -0.46037,0.27232 -0.51588,1.157621 -0.47479,1.603762 0.13602,0.770704 0.38555,1.536147 0.93908,2.113645 0.76833,0.769083 1.30075,0.830326 2.36019,0.723508 4.46929,-0.447828 10.98204,-2.575811 11.16539,-7.300097 -0.11829,-0.944883 -0.36788,-1.866445 -0.98102,-2.620362 -0.66683,-0.820338 -1.51638,-1.476296 -2.35358,-2.114984 -5.07441,1.165011 -8.99874,4.291512 -12.2824,7.942932 -1.93895,2.251776 -3.81588,4.56593 -5.45349,7.048992 -1.93297,2.965299 -3.90588,5.908429 -5.69132,8.966305 -2.58556,4.429382 -4.23315,9.280983 -5.6139,14.210212 -5.25553,18.3709441 -9.29598,37.104795 -11.37817,56.116493 -0.3339,3.933962 -0.74869,7.861898 -1.00174,11.801887 -0.90519,14.09346 -0.47858,28.233293 -1.36953,42.326546 0,0 9.73984,-4.962699 9.73984,-4.962699 z" />
    <path
       style="fill:#000000;stroke-width:0.264583"
       id="path290"
       d="m 552.78935,-86.002721 c -1.81282,7.853312 -4.54356,15.476368 -7.2934,23.042146 -3.4735,8.867164 -6.25938,17.960681 -8.7957,27.132158 -1.36158,5.350598 -2.12876,10.824804 -2.99239,16.271049 -1.51249,8.97478 -3.00267,17.9534849 -4.47569,26.9349614 -1.37028,8.0805626 -2.05555,16.2438056 -2.41213,24.4244336 -0.12787,4.497025 -0.28088,8.994706 -0.33729,13.493406 0.1963,5.969659 0.25784,11.941612 0.2553,17.914308 -0.11311,6.359548 -0.003,12.709771 0.24794,19.063702 0.0707,3.483324 0.20857,6.947358 0.61436,10.407462 0.23932,3.478573 0.87313,6.89496 1.56353,10.309175 1.05754,3.93067 1.65886,7.95626 2.47388,11.93582 0.39267,1.5726 0.69676,3.15703 0.8177,4.77345 0.30173,1.29074 0.55546,2.58105 0.96348,3.84266 0.43495,1.2713 0.89847,2.5371 1.41099,3.7813 0.2711,0.74395 0.14695,0.38209 0.37513,1.08466 0,0 9.82221,-5.42771 9.82221,-5.42771 v 0 c -0.27099,-0.72664 -0.12766,-0.34866 -0.43114,-1.13352 -0.51972,-1.20796 -0.92842,-2.46265 -1.35948,-3.70369 -0.38762,-1.17634 -0.59294,-2.40182 -0.85,-3.61143 -0.15767,-1.64446 -0.56216,-3.24366 -1.02185,-4.828 -0.91083,-3.92482 -1.72278,-7.87337 -2.69534,-11.784602 -0.30025,-1.677718 -0.61248,-3.246533 -0.79838,-4.9392 -0.19965,-1.818201 -0.10118,-3.662354 -0.45564,-5.462762 -0.49405,-3.379126 -0.69575,-6.774008 -0.84727,-10.185249 -0.36963,-6.297327 -0.51832,-12.595865 -0.44474,-18.904886 -0.0101,-6.051278 0.0505,-12.101608 0.20288,-18.150909 -0.0843,-4.417168 -0.18984,-8.835437 -0.0365,-13.253032 0.27291,-8.086345 0.84873,-16.163754 2.15984,-24.156716 1.45526,-9.070619 3.06234,-18.11543 4.87191,-27.122639 0.9502,-5.381863 1.73021,-10.795487 2.91928,-16.132276 2.2072,-9.14441 5.11587,-18.075208 8.46383,-26.866103 2.85721,-7.842615 5.7599,-15.689159 8.11083,-23.700486 0,0 -10.02617,4.952519 -10.02617,4.952519 z" />
    <path
       style="fill:#000000;stroke-width:0.264583"
       id="path294"
       d="m 534.88412,124.88023 c 0.19182,1.35824 0.47948,2.65976 0.97533,3.93869 0.17825,0.59635 0.50859,1.06954 0.85424,1.57415 0.20828,0.50915 0.44746,0.96748 0.79211,1.40563 0.39396,0.53805 0.77623,1.0879 1.17165,1.62726 0.53806,0.60997 1.16472,1.1344 1.70744,1.73786 0.14322,0.1654 0.27191,0.34205 0.39716,0.52109 0,0 9.71997,-5.76754 9.71997,-5.76754 v 0 c -0.15679,-0.19771 -0.31567,-0.39378 -0.48238,-0.5833 -0.51983,-0.58538 -1.09668,-1.10806 -1.66209,-1.6454 -0.41682,-0.55582 -0.80079,-1.13905 -1.17988,-1.71348 -0.3551,-0.37011 -0.4672,-0.82861 -0.72279,-1.26642 -0.28075,-0.45491 -0.6078,-0.85506 -0.78788,-1.37552 -0.5099,-1.1827 -0.72797,-2.43486 -0.87029,-3.71171 0,0 -9.91259,5.25869 -9.91259,5.25869 z" />
    <path
       style="fill:#000000;stroke-width:0.264583"
       id="path300"
       d="m 590.69072,9.1376711 c 0.21813,4.5597139 0.25382,9.1276789 0.1542,13.6909039 -0.0188,5.043583 -0.86667,10.020266 -1.96556,14.925402 -0.36351,2.036543 -1.06257,3.994791 -1.37893,6.037443 -0.48141,3.028484 -1.07455,6.028367 -1.81052,9.005276 -0.59377,2.117661 -1.1613,4.246226 -2.12013,6.232371 -0.65265,1.504032 -1.37459,2.964495 -2.08206,4.445278 -0.54911,1.164058 -1.12075,2.311731 -1.67436,3.482306 -0.83955,1.458023 -1.42417,3.036342 -2.16958,4.54384 -0.73256,1.587654 -1.45656,3.185263 -2.28296,4.7273 -0.93009,1.613072 -1.94903,3.166713 -3.02056,4.690335 -1.3788,2.018101 -2.71428,4.062338 -4.04117,6.114491 -0.21241,0.30411 -0.43344,0.602372 -0.6372,0.912329 -0.30734,0.467471 -0.75988,1.281535 -1.09992,1.736106 -0.5248,0.701566 -1.18526,1.295145 -1.73421,1.979805 -1.12215,1.066446 -2.27939,2.103752 -3.54232,2.996166 -0.90035,0.799443 -2.01811,1.358442 -2.87221,2.191519 -0.80016,0.796354 -1.46347,1.767367 -1.94639,2.788748 -0.53784,1.05777 -1.1667,2.05089 -1.74461,3.09152 -5.19779,2.84812 11.8794,-6.607398 8.35795,-4.828962 -0.20492,0.06006 -0.10665,0.03611 -0.29419,0.07453 0,0 -9.11487,6.690182 -9.11487,6.690182 v 0 c 0.2421,0.0175 0.11415,0.009 0.38397,0.0233 4.02738,0.25671 8.83713,-2.90757 10.92906,-6.554158 0.56005,-1.031412 1.16486,-2.037231 1.72408,-3.069426 0.60267,-0.894572 1.22023,-1.774614 2.11566,-2.404931 0.98833,-0.661217 1.88772,-1.449675 2.84808,-2.150811 1.19639,-1.010004 2.43946,-1.98271 3.42472,-3.212637 1.2692,-1.473546 2.3274,-3.076929 3.35441,-4.727707 1.30686,-2.062676 2.68314,-4.078375 4.07474,-6.084729 1.07246,-1.569839 2.12188,-3.153968 3.00183,-4.842652 0.77391,-1.574512 1.5362,-3.154969 2.25983,-4.75334 0.70279,-1.533184 1.42793,-3.052728 2.18919,-4.557419 0.55081,-1.17217 1.23383,-2.277832 1.69352,-3.492788 0.68443,-1.483771 1.40012,-2.953878 2.03962,-4.458076 0.81868,-2.062835 1.36269,-4.207849 1.91191,-6.355644 0.68291,-3.020748 1.23542,-6.066805 1.89119,-9.093062 0.4664,-1.968389 0.86069,-3.946827 1.20999,-5.940499 0.94742,-4.942057 1.61502,-9.929223 1.63224,-14.973009 0.16359,-4.657094 0.11401,-9.319008 0.33507,-13.9743234 0,0 -9.99951,5.095005 -9.99951,5.095005 z" />
    <path
       style="fill:#000000;stroke-width:0.264583"
       id="path308"
       d="m 589.95206,31.232319 c 0.0943,2.839825 0.0805,5.682181 0.0822,8.523239 -0.007,3.026564 -0.0116,6.052902 -0.004,9.079458 -0.0539,2.875446 -0.0465,5.737169 0.22696,8.600376 0.19548,3.032797 0.67191,6.033873 0.95917,9.057928 0.28668,2.512346 0.68511,4.988642 1.28215,7.444211 0.34356,1.9148 0.64857,3.801986 1.23721,5.665351 0.53859,1.677493 0.98288,3.370593 1.8155,4.930804 0.41703,0.832472 1.13895,1.313916 1.9264,1.752068 1.25185,0.620654 2.49439,1.264505 3.78865,1.792986 1.27735,0.363913 2.48515,0.918231 3.71189,1.419051 1.89487,0.691784 3.83397,1.284163 5.80332,1.724072 1.98974,0.386956 3.95941,0.570082 5.92378,0.01606 10.6145,-5.677521 10.47605,-4.945007 15.46506,-13.023193 3.07358,-4.675058 6.14238,-9.3544 9.30116,-13.972887 2.81604,-3.971448 5.06981,-8.227049 6.97505,-12.691705 1.52765,-4.425733 2.97505,-8.901758 3.9602,-13.482815 0.69012,-3.812706 1.55197,-7.593427 2.23293,-11.4081 0.37536,-1.992434 0.40812,-4.019939 0.469,-6.039259 0.0217,-1.158879 0.0114,-2.318023 0.0311,-3.476905 0.065,-1.077532 -0.075,-2.105663 -0.29665,-3.155587 -0.19539,-0.845007 -0.3534,-1.69631 -0.44111,-2.559269 -0.0225,-0.453607 -0.0227,-0.908306 -0.0132,-1.362304 -0.0111,-0.5600002 0.003,-1.1200998 -0.003,-1.6800732 -1.58787,-4.9469878 -10.45228,0.8070199 -10.72679,5.3598262 -0.0335,2.773327 0.0386,5.547776 0.0758,8.321113 0.0259,4.545389 0.0403,9.090949 0.0452,13.636443 -0.13938,4.48305 -0.50093,8.950764 -0.86505,13.418709 -0.34603,5.916183 -0.44183,11.843723 -0.54534,17.76808 -0.0687,4.725419 -0.12893,9.451118 -0.14221,14.177057 -0.003,3.366201 -0.0191,6.73254 -0.0566,10.098561 -0.018,1.988495 -0.0344,3.976884 -0.0524,5.965375 -0.0169,0.955144 -0.029,1.9103 -0.043,2.865443 -0.003,0.08924 -0.004,0.178477 -0.006,0.267717 0,0 10.05273,-5.122093 10.05273,-5.122093 v 0 c -0.003,-0.08713 -0.004,-0.174271 -0.006,-0.261406 -0.014,-0.940551 -0.0259,-1.881119 -0.043,-2.821673 -0.0183,-1.970479 -0.0351,-3.940855 -0.0548,-5.91132 -0.0411,-3.344471 -0.063,-6.689278 -0.0696,-10.033966 -0.0156,-4.689919 -0.0734,-9.379863 -0.0352,-14.069851 0.0592,-5.926947 0.15642,-11.861583 0.71871,-17.766326 0.42119,-4.487074 0.6555,-8.987472 0.79814,-13.491961 0,-4.555847 0.004,-9.11174 0.0151,-13.667534 0.0319,-2.769935 -0.0161,-5.55713 0.28557,-8.3135528 1.08601,-4.0152711 0.20164,-0.2794537 -9.45396,4.7440568 -0.0277,0.0144 -0.0935,-0.646536 0.0533,-0.175219 0.013,0.04127 0.006,0.08625 0.009,0.129368 -0.008,0.563962 0.003,1.128109 -0.0119,1.692074 0.0119,0.501654 0.0148,1.004138 0.095,1.50113 0.16134,0.859178 0.34184,1.71349 0.54332,2.564125 0.17315,0.997991 0.16971,1.989787 0.1482,3.000602 0.0358,1.136655 0.041,2.274094 0.036,3.411235 -0.0114,1.953262 -0.12767,3.904857 -0.43127,5.836551 -0.59278,3.77439 -1.32115,7.529409 -2.08524,11.271948 -1.04357,4.517652 -2.39649,8.971463 -4.05963,13.300213 -1.93413,4.357809 -4.1651,8.5462 -6.92587,12.448844 -3.15515,4.663792 -6.27136,9.353465 -9.38411,14.045366 -1.13638,1.73573 -2.23514,3.476387 -3.62553,5.024853 -2.67949,2.984156 -9.31233,5.795113 6.83744,-3.233706 -1.88645,0.927759 -3.51658,0.83393 -5.56236,0.496208 -1.92498,-0.347401 -3.78891,-0.933828 -5.64274,-1.549813 -1.20973,-0.557083 -2.42949,-1.16427 -3.71867,-1.495414 -1.29611,-0.412845 -2.50103,-1.050467 -3.69099,-1.69944 -0.63989,-0.2838 -1.20512,-0.586118 -1.57713,-1.201994 -0.89228,-1.419709 -1.2964,-3.05304 -1.83962,-4.625703 -0.54655,-1.872715 -0.65749,-3.788748 -1.13604,-5.668724 -0.65738,-2.369005 -1.09265,-4.770914 -1.33009,-7.221728 -0.30424,-3.020634 -0.75848,-6.024591 -0.93514,-9.057587 -0.22458,-2.832653 -0.21876,-5.663369 -0.20352,-8.504356 0.008,-3.025193 0.003,-6.050166 -0.004,-9.07537 0.003,-2.869001 -0.0111,-5.739222 0.0822,-8.607029 0,0 -9.9649,5.077363 -9.9649,5.077363 z" />
    <path
       style="fill:#000000;stroke-width:0.264583"
       id="path310"
       d="m 681.0019,85.125318 c -0.18878,0.171683 -0.36239,0.361707 -0.56636,0.515051 -0.6754,0.507775 -2.70574,1.58265 -1.78192,1.035823 14.45686,-8.557329 10.54074,-5.549686 6.71378,-4.314291 -1.86352,0.439971 -3.01586,0.07855 -3.91607,-1.626952 -0.58629,-1.54614 -0.66739,-3.209456 -0.67459,-4.845399 0.21265,-0.842782 1.07786,-1.483016 1.86619,-1.786866 -19.84089,13.262594 -11.26048,5.283692 -7.77176,4.835626 0.54239,0.03519 1.16739,-0.17584 1.68981,-0.04085 0.54504,0.329129 1.13527,0.51969 1.68608,0.838674 0.59939,0.259472 1.15282,0.589402 1.71961,0.911426 0.44963,0.293243 0.69011,0.751652 1.02724,1.149697 0.33772,0.505275 0.34595,1.169762 0.38267,1.758603 -0.20772,0.868082 -0.54374,1.499066 -1.18449,2.114743 -3.52602,1.89117 -0.45354,0.250595 8.67784,-5.143434 0.14089,-0.08323 -0.27972,0.170509 -0.42508,0.245653 -0.46125,0.238403 -0.92242,0.35547 -1.42825,0.453281 -0.8517,0.139856 -1.71765,0.150255 -2.57868,0.147646 -0.53512,0.131627 -0.53367,-0.207037 -0.57717,-0.637043 0.0212,-0.947616 0.61654,-1.810631 0.94978,-2.688442 0.50379,-0.646141 1.01108,-1.439127 1.80433,-1.73192 -3.1006,1.81056 -6.2012,3.621119 -9.3018,5.431676 0.31927,-0.220427 0.25146,-0.204324 0.60454,-0.333552 0.31944,-0.116911 0.64728,-0.13363 0.9706,-0.245173 0.85085,-0.407938 1.69659,-0.842415 2.59538,-1.141476 0.68934,-0.230106 1.41303,-0.312108 2.13434,-0.359781 0.78616,-0.122322 1.21822,0.07884 1.85232,0.548728 0.9262,0.720309 1.71201,1.562904 2.35088,2.543735 0.367,0.500997 0.3793,1.078207 0.39245,1.672392 -0.006,1.008803 0.0159,2.017413 0.0233,3.026124 0.13554,2.339719 0.46654,4.666073 0.6214,7.009887 0.14703,3.312694 0.30586,6.635676 0.1157,9.948506 -0.0547,3.15041 -0.99999,6.09891 -2.34093,8.91495 -1.13093,2.49044 -2.81061,4.62486 -4.61296,6.65423 -1.77569,1.69036 -3.83778,3.03764 -5.73016,4.5941 -0.28342,0.19864 -0.56837,0.3951 -0.85026,0.59591 -1.44494,1.02932 -0.17087,0.17808 -1.62068,1.06733 -0.26196,0.16069 -1.04457,0.64773 -0.77825,0.49435 9.87362,-5.68662 11.68628,-6.61843 8.03426,-4.71278 -0.59647,0.29461 -1.23412,0.4744 -1.87274,0.64764 0,0 -8.91837,6.80829 -8.91837,6.80829 v 0 c 0.68959,-0.14797 1.37721,-0.30567 2.05081,-0.51722 5.13787,-2.02035 9.8383,-5.21218 14.25485,-8.52255 1.92017,-1.52323 3.97899,-2.90584 5.60782,-4.75798 1.78062,-2.11957 3.36526,-4.37739 4.46037,-6.93755 1.25035,-2.96046 2.09209,-6.02017 2.11315,-9.262089 0.12721,-3.361264 0.0169,-6.72629 -0.11591,-10.086337 -0.14629,-2.336583 -0.45014,-4.668644 -0.45694,-7.009 0.0161,-1.040326 0.0709,-2.082356 0.0238,-3.122301 -0.0619,-0.785143 -0.22185,-1.556469 -0.71363,-2.196023 -0.73747,-1.037553 -1.54831,-1.994439 -2.52648,-2.816905 -0.65815,-0.579945 -1.33453,-1.315132 -2.26729,-1.228259 -0.77904,-0.01257 -1.55287,0.02236 -2.32363,0.147645 -0.94504,0.224904 -1.83504,0.544574 -2.70033,0.961316 -0.17979,0.121187 -0.32465,0.300202 -0.52406,0.385374 -0.21109,0.09016 -0.45498,0.06119 -0.68244,0.09194 -4.29202,0.580306 1.86975,-1.279792 -10.33675,5.838505 -0.60925,0.700686 -1.20319,1.407599 -1.51468,2.300965 -0.44532,1.035111 -0.92335,2.11828 -0.72774,3.270702 0.19243,0.875557 0.54708,1.610053 1.42391,1.96596 0.89866,0.0029 1.79768,0.01916 2.69552,-0.03209 4.71871,-0.450276 9.53733,-2.96295 12.50336,-6.70174 0.54631,-0.868923 0.84429,-1.857949 0.83072,-2.891014 -0.0881,-0.841862 -0.23175,-1.700134 -0.7161,-2.415429 -0.42145,-0.418942 -0.64037,-0.997186 -1.16943,-1.328113 -0.528,-0.449676 -1.16819,-0.809337 -1.81404,-1.067229 -0.58878,-0.24861 -1.09162,-0.621062 -1.66955,-0.845579 -0.78549,-0.527857 -1.12842,-0.465886 -2.04612,-0.452811 -4.69924,0.05611 -6.57821,2.52915 -11.77243,5.93262 -0.82738,0.800703 -1.42946,1.606177 -1.35866,2.828017 0.12578,1.78175 0.26845,3.586959 0.97158,5.25235 1.00536,1.912435 2.49491,3.096395 4.75932,2.878137 4.83182,-1.13031 7.01403,-3.336906 12.46968,-6.469779 0.59367,-0.34091 1.24619,-0.857792 1.70821,-1.365261 0.20489,-0.225059 0.36282,-0.488772 0.54424,-0.733157 0,0 -10.26313,4.548769 -10.26313,4.548769 z" />
    <path
       style="fill:#000000;stroke-width:0.264583"
       id="path316"
       d="m 763.29965,18.544005 c -1.80411,-1.835624 -3.4186,-3.844097 -5.22975,-5.673184 -1.55758,-1.695876 -3.52283,-2.708065 -5.60949,-3.5883281 -2.06502,-0.7859692 -4.22243,-1.1011498 -6.42006,-1.0058027 -1.94654,0.040716 -3.73883,0.8021399 -5.55302,1.4205651 -5.17763,2.0702437 -9.82835,5.1747187 -14.63792,7.9682867 -1.64663,0.868305 -3.04829,2.096918 -4.4169,3.340711 -1.67629,1.41586 -2.97595,3.168987 -4.2442,4.940432 -1.03299,1.919546 -2.35556,3.681245 -3.38117,5.599519 -1.01594,1.85697 -1.98241,3.769627 -2.67684,5.772137 -0.95234,2.56595 -1.67394,5.202026 -2.19268,7.887351 -0.68718,4.027577 -1.16663,8.072625 -1.45275,12.14715 -0.18894,2.981227 -0.41616,5.959343 -0.0953,8.935164 0.091,1.707965 0.83407,3.048844 1.92804,4.3052 1.75432,1.854327 3.57127,3.639095 5.49598,5.31527 2.13328,1.954093 4.46471,3.667667 6.83154,5.325623 1.86873,1.255422 3.85538,2.362388 5.88288,3.343561 1.36557,0.647634 2.81003,0.958387 4.30525,1.080532 2.08793,-0.01781 4.14014,-0.531487 6.17347,-0.960988 2.92258,-0.62543 5.9101,-1.036074 8.72098,-2.081916 7.54515,-3.281884 11.54629,-5.959727 15.9362,-11.7425 1.72305,-2.558891 2.93653,-5.35274 3.90387,-8.268237 0.62804,-1.804963 1.04918,-3.659907 1.1697,-5.565724 -0.0326,-1.893925 0.0838,-3.763907 0.44596,-5.624806 0.36713,-1.816664 0.77491,-3.633201 1.00134,-5.474375 0.12393,-1.247167 0.0805,-2.508224 0.0764,-3.760811 -0.007,-1.500974 -0.0103,-3.001958 -0.0124,-4.502941 0.0116,-1.240449 0.0143,-2.480996 0.0169,-3.721479 0.0748,-1.205642 -0.23931,-2.379046 -0.63754,-3.508658 -0.69646,-1.684271 -1.65695,-3.241823 -2.33947,-4.929718 -0.84034,-1.673557 -1.66164,-3.364689 -2.54312,-5.017875 -1.09032,-2.070676 -2.66676,-3.785901 -4.31678,-5.417754 -0.94634,-0.995843 -1.91725,-1.984261 -3.00252,-2.830936 -2.72307,-2.9676601 -0.52327,-0.741368 -9.0501,6.474158 -0.35126,0.297248 2.73595,0.897807 2.79064,0.906888 1.68045,0.206054 3.37484,0.251773 5.06561,0.298063 1.16752,0.03082 2.3351,0.0069 3.50258,-0.01126 2.31732,-0.183579 4.62457,-0.461637 6.94565,-0.614128 1.37073,-0.0093 2.71055,-0.12038 4.03418,-0.477066 1.86447,-0.460819 3.81701,-0.412914 5.72561,-0.440532 1.915,0.05295 3.79976,0.02327 5.64574,-0.518452 2.51486,-1.000216 5.1263,-1.65236 7.7707,-2.200356 3.65445,-0.656687 7.36476,-0.897469 11.07019,-1.022907 2.13173,-0.141901 4.24265,0.210945 6.35175,0.458018 1.25701,0.04873 2.46235,0.278098 3.66488,0.626005 0.61457,0.201912 1.24502,0.342193 1.88812,0.408104 0.25492,0.0274 0.51157,0.02928 0.76758,0.03531 0,0 9.13223,-6.6278495 9.13223,-6.6278495 v 0 c -0.24599,0.00336 -0.492,0.00613 -0.73798,0.0094 -0.59873,8.23e-5 -1.20428,-0.0113 -1.78297,-0.1854223 -1.27344,-0.3317595 -2.50632,-0.7720071 -3.84551,-0.7216656 -2.17628,-0.2064615 -4.34986,-0.6304442 -6.54058,-0.5182889 -3.76277,0.1591297 -7.52422,0.4153839 -11.25379,0.9579877 -2.59609,0.4355399 -5.21607,0.9138174 -7.65424,1.9359466 -1.80956,0.635502 -3.57925,1.028228 -5.52656,0.846434 -1.91444,0.01567 -3.84246,-0.03173 -5.74865,0.1389 -1.34358,0.298279 -2.60623,0.840975 -4.02233,0.714264 -2.28907,0.143972 -4.57843,0.321942 -6.85181,0.631393 -1.15477,-0.0142 -2.30928,-0.02364 -3.46406,-0.0012 -1.67642,0.01386 -3.3556,-0.0016 -5.02674,-0.148999 -0.47485,-0.05175 -1.01375,-0.09346 -1.48537,-0.202178 -0.17587,-0.04054 -0.34856,-0.09565 -0.51779,-0.158356 -0.15473,-0.05732 -0.31054,-0.285459 -0.4523,-0.201065 -9.87267,5.876812 -8.30596,9.803824 -9.74903,5.92433 0.41283,-0.225463 2.58043,1.988787 2.91677,2.326793 1.61991,1.508395 3.07427,3.168779 4.08816,5.155023 0.88699,1.601834 1.64885,3.278503 2.50298,4.897888 0.67884,1.663467 1.61356,3.206766 2.23584,4.897554 0.3108,1.048142 0.53483,2.105123 0.4541,3.205615 0.003,1.234467 0.006,2.469034 0.0214,3.703426 0.003,1.501246 0.007,3.002502 0.003,4.503748 -0.009,1.21784 -0.0122,2.438156 -0.16018,3.648996 -0.23037,1.800397 -0.53803,3.587215 -0.90593,5.364906 -0.3074,1.91549 -0.47059,3.833034 -0.50049,5.772493 -0.16798,1.786345 -0.56152,3.537622 -1.14109,5.237062 -1.01167,2.804057 -2.24378,5.51289 -4.02625,7.923353 -1.01584,1.25621 -2.03517,2.510935 -3.23673,3.599323 -0.38544,0.34916 -1.6679,1.229537 -1.20681,0.988917 4.80808,-2.509171 11.45373,-6.646249 7.29639,-4.069757 -2.6301,1.430697 -5.71815,1.714447 -8.61486,2.304089 -1.94861,0.416624 -3.90539,0.778219 -5.87098,1.10399 -1.4098,-0.04057 -2.7999,-0.168704 -4.1235,-0.704487 -2.03496,-0.857896 -3.96753,-1.991874 -5.84473,-3.143621 -2.38453,-1.559494 -4.6769,-3.267813 -6.75817,-5.217715 -1.88756,-1.622269 -3.69096,-3.337992 -5.32667,-5.217996 -0.91313,-1.110322 -1.54279,-2.23333 -1.64245,-3.709445 -0.3311,-2.878736 -0.13955,-5.773322 -0.003,-8.660805 0.28924,-4.043423 0.79367,-8.062881 1.58824,-12.040624 0.63368,-2.645227 1.38621,-5.261642 2.38517,-7.794813 0.79994,-1.924169 1.69198,-3.815818 2.75103,-5.612362 1.13556,-1.835567 2.22356,-3.702627 3.42992,-5.491317 1.27821,-1.730628 2.69002,-3.345907 4.3552,-4.719911 1.40732,-1.193535 2.88775,-2.278439 4.50239,-3.179425 -16.77032,9.615852 -8.60401,4.715051 -4.52255,2.917753 1.73369,-0.688298 3.52939,-1.400255 5.37226,-1.670406 2.09206,-0.230274 4.13084,-0.110678 6.14445,0.577243 1.99429,0.760779 3.88517,1.651791 5.39763,3.207659 1.86169,1.760602 3.49753,3.745501 5.1153,5.728909 0,0 9.55119,-5.852978 9.55119,-5.852978 z" />
    <path
       style="fill:#000000;stroke-width:0.264583"
       id="path320"
       d="m 799.35048,-55.646624 c 2.69518,-3.436347 6.23871,-6.025882 9.81369,-8.46941 7.31845,-4.334724 -2.51135,1.389454 -3.71396,2.170269 -0.78661,0.51072 1.66677,-0.861391 2.5159,-1.25965 2.03959,-0.95663 4.09585,-1.662163 6.25808,-2.271085 3.53182,-0.825394 6.27359,-1.082794 9.68774,0.240133 2.43248,1.303584 3.67636,3.504478 4.40394,6.070827 0.81381,4.810326 0.74102,9.726369 0.76404,14.590795 -0.0531,3.364351 0.031,6.791457 -0.53981,10.123797 -0.29792,1.739037 -0.51585,2.194115 -1.06095,3.829566 -1.18546,3.018141 -3.29147,5.320589 -5.68886,7.423461 -2.75143,2.377718 -5.54752,4.701871 -8.31154,7.064807 -2.74452,2.182732 -5.80911,3.905846 -8.7359,5.826208 -1.17171,0.9820515 -2.79496,1.7103277 -3.60426,3.0556868 -0.42347,0.667231 0.23457,1.4873999 0.99261,1.5822406 0.0802,0.010038 5.24608,-1.5171748 5.30428,-1.5328394 4.99557,-1.1402573 10.06105,-1.9870317 15.14171,-2.6488744 3.34439,-0.4715226 6.72478,-0.1809466 10.08018,-0.014243 2.37646,0.1103945 4.75379,0.1989752 7.13134,0.2815863 1.35424,0.055704 2.71018,0.017859 4.06513,0.014161 0.76708,-0.00437 1.53408,0.00469 2.30114,0.00757 0,0 9.05071,-6.5766659 9.05071,-6.5766659 v 0 c -0.77539,0.0039 -1.55073,0.0141 -2.32614,0.01079 -1.34599,-0.0022 -2.69187,-0.02867 -4.03781,-0.01154 -2.4212,0.0061 -4.84256,-0.03753 -7.26154,-0.143927 -3.41553,-0.15633 -6.86017,-0.520972 -10.26655,-0.09178 -5.12373,0.683235 -10.20947,1.638133 -15.28662,2.598986 -0.46632,0.11052 -3.31832,0.778439 -4.00619,0.967142 -0.32437,0.08899 -0.75001,0.04691 -0.96051,0.309269 -0.0374,0.04657 0.01,1.080846 0.20322,1.098785 0.10991,0.0102 0.14682,-0.164843 0.22024,-0.247264 1.14816,-0.94406 2.29989,-1.88433 3.55886,-2.681512 2.89639,-1.908368 5.91913,-3.64656 8.56655,-5.906408 2.78381,-2.370295 5.61297,-4.687758 8.34371,-7.120009 2.36837,-2.266177 4.41979,-4.740592 5.40221,-7.934198 0.46937,-1.683258 0.67906,-2.222227 0.91916,-3.995605 0.45459,-3.357679 0.29255,-6.785284 0.35404,-10.160418 -0.0268,-4.998095 0.13624,-10.047893 -0.63105,-15.00021 -0.84167,-2.870105 -2.28754,-5.335418 -4.92221,-6.911425 -1.11117,-0.490535 -1.7771,-0.8533 -2.98645,-1.101354 -2.38901,-0.490009 -4.85,-0.06426 -7.21072,0.343296 -8.65066,2.191211 -16.14675,7.295714 -23.67846,11.921731 -3.6884,2.614366 -7.27118,5.396053 -10.14566,8.922134 0,0 10.29671,-4.374817 10.29671,-4.374817 z" />
    <path
       style="fill:#000000;stroke-width:0.264583"
       id="path324"
       d="m 863.40772,-90.442726 c 3.53128,4.679328 6.18132,9.953612 8.76919,15.191467 3.03162,6.22223 5.44613,12.713171 7.10586,19.429685 0.66392,3.689927 1.36895,7.359856 2.12114,11.03439 1.47026,6.55598 2.3333,13.20356 3.17108,19.860496 0.4554,3.369503 0.75081,6.755267 0.94401,10.148688 0.27855,4.197794 0.89238,8.362035 1.21962,12.5597129 0.36346,3.5148618 0.73573,7.0295265 0.96769,10.5560005 0.1551,2.6881986 0.17904,5.3820876 0.19473,8.0740476 -0.0132,3.30562 0,6.611329 -0.0145,9.916908 -0.0596,3.013403 0.11597,6.036709 -0.13475,9.042635 -0.29824,2.577174 -0.45104,5.159685 -0.81701,7.728516 -0.87961,3.603056 -1.09757,7.328826 -1.49196,11.006608 -0.42106,4.796851 -0.9548,9.573721 -1.60112,14.344661 -0.40172,2.684208 -0.64077,5.414907 -1.21521,8.069828 -0.45741,2.017089 -1.06608,3.970581 -1.35932,6.024655 -0.31293,1.767303 -0.91594,3.459565 -1.28159,5.211162 -0.25162,2.511994 -1.01039,4.918742 -1.9599,7.245236 -0.80018,1.9146 -2.06822,3.566626 -2.96871,5.42356 -1.24989,1.90721 -2.38016,3.892 -3.50903,5.87269 -1.57713,2.86722 -3.0896,5.76744 -4.79163,8.5637 -1.31535,2.16092 -2.65147,4.3301 -4.32094,6.23703 -1.1544,1.26271 -1.84909,2.84761 -2.85816,4.2046 -0.70154,1.04203 -1.26632,2.16982 -2.1218,3.09001 -0.58584,0.58876 -0.60153,1.41203 -1.06429,2.09365 -0.63923,1.18972 -1.35046,2.41867 -2.22917,3.44704 -0.47318,0.38788 -0.55668,1.27121 -1.03155,1.64438 -0.0193,0.0152 -0.47295,0.10096 -0.50964,0.10812 -0.0752,0.08 -0.15047,0.1601 -0.22569,0.24015 0,0 10.46001,-4.19642 10.46001,-4.19642 v 0 c 0.0918,-0.0533 0.18362,-0.10659 0.27543,-0.15988 0.47432,-0.65719 0.74123,-1.47596 1.31418,-2.0777 0.75404,-1.18282 1.56525,-2.33065 2.19229,-3.58964 0.32546,-0.71022 0.56608,-1.37727 1.15176,-1.92347 0.70961,-1.02724 1.31744,-2.12538 2.02927,-3.15261 0.86379,-1.42307 1.7757,-2.81346 2.85435,-4.08634 1.54308,-2.0029 2.84832,-4.18048 4.14904,-6.34509 1.64108,-2.8302 3.14904,-5.73297 4.77914,-8.56929 1.18989,-2.004689 2.47018,-3.955554 3.61831,-5.983543 0.99357,-1.811467 2.1258,-3.551698 2.8461,-5.502616 0.86347,-2.414469 1.55226,-4.878142 1.9645,-7.412596 0.45908,-1.748973 0.93761,-3.49245 1.23042,-5.280147 0.34401,-2.019951 0.98994,-3.963516 1.34864,-5.980514 0.43436,-2.67928 0.75893,-5.381414 1.06505,-8.077579 0.50252,-4.747254 0.85767,-9.506 1.40385,-14.248405 0.49162,-3.725693 0.98362,-7.451206 1.77512,-11.127636 0.33237,-2.589856 0.53768,-5.191498 0.77459,-7.7915 0.1524,-3.023696 0,-6.055146 0.0519,-9.081806 -0.0103,-3.304112 0.0146,-6.608293 6e-5,-9.912456 0.007,-2.7393008 0.087,-5.4860001 -0.11875,-8.2199254 -0.38161,-3.47255596 -0.93935,-6.924726 -1.23915,-10.4068506 -0.35729,-4.22171 -0.87487,-8.439394 -0.94027,-12.678516 -0.2127,-3.369694 -0.91631,-6.695088 -1.3257,-10.042964 -0.98311,-6.643655 -1.94879,-13.285409 -3.19979,-19.886019 -0.52184,-3.752223 -0.9683,-7.529177 -2.09524,-11.161393 -1.94087,-6.691166 -4.47479,-13.169465 -7.46643,-19.463927 -2.60649,-5.376232 -5.34578,-10.69009 -8.31133,-15.878129 0,0 -9.57461,5.867336 -9.57461,5.867336 z" />
    <path
       style="fill:#000000;stroke-width:0.264583"
       id="path35"
       d="m 831.78498,36.23477 c -2.99577,2.035939 -6.16421,3.810391 -9.27777,5.659971 -4.3016,2.743026 -8.63436,5.44839 -12.87658,8.282964 -0.747,0.489733 -1.48982,0.985861 -2.24097,1.469197 -0.73975,0.476017 -1.48085,0.950248 -2.23158,1.408761 -0.80967,0.494498 -3.27138,1.923216 -2.44914,1.449977 17.42715,-10.029938 12.31337,-7.238185 -5.31323,3.108955 -0.99777,0.585705 -1.96797,1.217155 -2.95195,1.825733 -6.74426,4.125863 -13.17265,8.661429 -19.3121,13.63744 -5.5255,4.810749 -10.88366,9.790459 -16.49098,14.508692 -4.14414,3.419265 -8.54794,6.496219 -12.87891,9.668631 -3.20127,2.331556 -6.50843,4.514819 -9.69846,6.860299 -2.44237,1.68485 -4.70606,3.60865 -7.09041,5.36889 -1.84256,1.61517 -3.81719,3.06806 -5.68764,4.65314 -1.1639,0.89611 -1.99086,1.83001 -2.52727,3.18648 -0.0354,0.11038 -0.007,0.27104 -0.10623,0.33115 -0.0944,0.0573 -0.22678,-0.12312 -0.32383,-0.0704 -0.007,0.004 -0.88831,1.24048 -0.98168,1.34874 -0.10978,0.31267 -0.6114,0.49497 -0.71438,0.80644 -0.0503,0.15219 0.0379,0.3389 -0.0395,0.47924 -0.12684,0.22986 -0.46455,0.24931 -0.67357,0.40819 -1.05434,1.07378 -1.66683,2.42178 -3.16511,2.95017 0.24834,-0.25798 -1.77699,1.11487 -1.32194,0.85391 27.69034,-15.87927 4.76197,-3.05661 -2.87332,1.78369 -0.25506,0.48424 -1.43912,0.52452 -1.66809,1.00351 -0.36692,0.76758 0.28014,0.35478 -0.33697,0.65487 -0.0893,0.0585 -0.17854,0.11704 -0.26781,0.17557 0,0 14.89887,-6.0716 14.89887,-6.0716 v 0 c 0.0759,-0.0888 0.15187,-0.17753 0.2278,-0.2663 0.33481,-0.58005 1.53599,-0.66165 2.03825,-1.33051 4.67984,-3.33912 1.29175,-0.89073 -12.38155,7.03313 -0.25379,0.14708 0.53113,-0.2507 0.7852,-0.39728 5.25479,-3.03142 10.65406,-6.00817 15.83484,-9.24334 1.07514,-1.05394 1.91955,-2.302 3.04509,-3.30966 0.11695,-0.15549 0.23389,-0.31099 0.35084,-0.46648 0.0508,-0.1502 0.061,-0.32098 0.15232,-0.4506 0.18923,-0.26867 0.7897,-0.48232 0.88368,-0.89663 0.51316,-0.64632 1.07082,-1.17018 1.28746,-1.93889 0.69379,-1.02593 1.78327,-1.71053 2.67354,-2.55359 1.84113,-1.53616 3.74494,-2.99581 5.58689,-4.53115 2.32645,-1.83237 4.72059,-3.56712 7.10033,-5.329091 3.18434,-2.262227 6.3686,-4.523629 9.53865,-6.806144 4.29033,-3.130836 8.59327,-6.249453 12.64261,-9.693093 5.54276,-4.719939 10.80471,-9.747482 16.38464,-14.423114 6.19456,-4.929466 12.71469,-9.380072 19.48003,-13.493986 1.00216,-0.608192 4.02884,-2.398141 3.00649,-1.824577 -3.50208,1.964698 -13.91489,8.022743 -10.44681,5.998692 7.62272,-4.448787 15.44688,-8.598189 22.76917,-13.54609 4.30882,-2.794884 8.61332,-5.602497 13.00929,-8.258421 3.19715,-1.906778 6.4147,-3.778954 9.55795,-5.773976 0,0 -14.92616,5.75844 -14.92616,5.75844 z" />
    <path
       style="fill:#000000;stroke-width:0.264583"
       id="path37"
       d="m 765.99764,105.4893 c 0.42627,7.4386 1.09511,14.86057 1.59837,22.29435 0.28668,4.67423 0.50162,9.35276 0.56846,14.03546 -0.12417,1.55528 0.22201,3.21029 -0.21947,4.72276 -0.28721,2.77771 -0.82715,5.51351 -1.23172,8.27485 -0.34404,2.36374 -0.50564,4.74724 -0.75541,7.12112 -0.0212,0.0765 -0.13393,0.26619 -0.0636,0.22948 17.43937,-9.09875 14.8422,-2.73927 13.58511,-11.12163 -0.50348,-5.22002 -0.65963,-10.48363 -0.37576,-15.71985 0.15539,-3.6189 0.69146,-7.03319 2.06944,-10.37508 1.93945,-4.04744 3.51954,-8.28414 5.63261,-12.24446 1.12881,-2.28825 2.32941,-4.5113 3.92848,-6.50517 2.40315,-2.85501 4.98247,-5.56539 8.10395,-7.629848 6.25715,-3.27225 -2.7517,1.403242 -10.26534,6.202568 -0.55472,0.35433 1.23437,-0.45959 1.86325,-0.65393 2.30317,-0.71175 4.61801,-1.04961 7.00035,-1.36921 5.27923,-0.50442 10.49811,0.39939 15.46434,2.15974 0.85177,0.39721 2.02967,0.82305 2.69523,1.56719 1.94863,2.17875 1.94032,6.991 2.18059,9.64341 0.49863,7.94782 0.39209,15.91179 -0.0806,23.85534 -0.36396,5.24913 -0.68744,10.50121 -0.91797,15.75799 -0.0429,1.32336 -0.0969,2.64632 -0.15222,3.96921 0,0 14.21871,-7.21998 14.21871,-7.21998 v 0 c -0.0196,-1.28704 -0.0321,-2.5743 -0.003,-3.86137 0.0873,-5.19161 0.31015,-10.37828 0.60939,-15.562 0.38328,-8.00444 0.23892,-16.00819 -0.0408,-24.01582 -0.21365,-3.51172 -0.0437,-8.06326 -2.43303,-10.999907 -0.80242,-0.986235 -1.96019,-1.397254 -3.05138,-1.931128 -5.11723,-1.841833 -10.52857,-2.884056 -15.98472,-2.657134 -10.26848,0.857917 -16.32525,4.123576 -25.75013,10.912739 -2.99098,2.3698 -5.65242,5.10555 -8.01626,8.10349 -1.49654,2.11267 -2.6764,4.41114 -3.76407,6.75873 -1.84973,4.11034 -3.5967,8.26783 -5.53683,12.33815 -1.32644,3.47522 -1.61838,7.05022 -1.65201,10.76285 -0.11985,5.37769 -0.0453,10.7718 0.17664,16.14482 0.57369,4.09426 5.6461,28.49958 14.89636,-3.72727 0.0527,-2.30639 0.26188,-4.60744 0.61187,-6.88809 0.46855,-2.77853 0.90964,-5.56122 1.41883,-8.33145 0.16272,-1.64832 0.003,-3.30212 -0.0597,-4.95425 -0.23521,-4.61727 -0.70429,-9.2169 -1.12863,-13.81966 -0.61026,-7.47956 -1.30749,-14.99313 -0.93882,-22.50288 0,0 -14.20119,7.23587 -14.20119,7.23587 z" />
  </g>
</svg>
