<?xml version="1.0" encoding="UTF-8" standalone="no"?>
<svg
   xmlns:dc="http://purl.org/dc/elements/1.1/"
   xmlns:cc="http://creativecommons.org/ns#"
   xmlns:rdf="http://www.w3.org/1999/02/22-rdf-syntax-ns#"
   xmlns:svg="http://www.w3.org/2000/svg"
   xmlns="http://www.w3.org/2000/svg"
   xmlns:sodipodi="http://sodipodi.sourceforge.net/DTD/sodipodi-0.dtd"
   xmlns:inkscape="http://www.inkscape.org/namespaces/inkscape"
   width="683.46124mm"
   height="210.33932mm"
   viewBox="0 0 683.46124 210.33932"
   version="1.1"
   id="svg76"
   sodipodi:docname="cohort_with_pill_arrow.svg"
   inkscape:version="1.0.1 (c497b03c, 2020-09-10)">
  <defs
     id="defs70" />
  <sodipodi:namedview
     id="base"
     pagecolor="#ffffff"
     bordercolor="#666666"
     borderopacity="1.0"
     inkscape:pageopacity="0.0"
     inkscape:pageshadow="2"
     inkscape:zoom="0.42467356"
     inkscape:cx="1291.5803"
     inkscape:cy="397.49164"
     inkscape:document-units="mm"
     inkscape:current-layer="layer1"
     inkscape:document-rotation="0"
     showgrid="false"
     inkscape:window-width="1252"
     inkscape:window-height="806"
     inkscape:window-x="188"
     inkscape:window-y="23"
     inkscape:window-maximized="0" />
  <metadata
     id="metadata73">
    <rdf:RDF>
      <cc:Work
         rdf:about="">
        <dc:format>image/svg+xml</dc:format>
        <dc:type
           rdf:resource="http://purl.org/dc/dcmitype/StillImage" />
        <dc:title></dc:title>
      </cc:Work>
    </rdf:RDF>
  </metadata>
  <g
     inkscape:label="Layer 1"
     inkscape:groupmode="layer"
     id="layer1"
     transform="translate(264.47928,-78.691663)">
    <g
       inkscape:label="Layer 1"
       id="layer1-7"
       transform="matrix(0.57372791,0,0,0.67301504,-25.811243,22.678438)">
      <ellipse
         style="fill:#000000;stroke-width:0.264583"
         id="path10"
         cx="105.45536"
         cy="106.58929"
         rx="19.276785"
         ry="20.410715" />
      <path
         style="fill:#000000;stroke-width:0.264583"
         id="path24"
         d="m 100.45587,131.36465 c -1.70958,5.14519 -1.914066,10.61982 -2.29075,15.98583 -0.415396,6.58239 -0.778367,13.16926 -0.962303,19.76254 -0.06397,2.47955 -0.113549,4.95965 -0.140073,7.43989 -0.03357,0.65724 -5.29e-4,1.31902 -0.05108,1.97525 0.105852,1.61433 0.122415,3.23484 0.147468,4.8527 0.0021,3.19659 -0.07095,6.3824 0.209675,9.56881 0.139358,1.37956 0.288787,2.75762 0.380142,4.14136 0,0 9.951041,-5.19312 9.951041,-5.19312 v 0 c -0.17612,-1.35266 -0.34244,-2.70654 -0.53113,-4.05756 -0.31294,-3.1412 -0.23085,-6.29371 -0.22056,-9.44731 0.0255,-1.6709 0.0462,-3.34464 0.14575,-5.01212 -0.0654,-0.63226 -0.0271,-1.27412 -0.074,-1.90787 -0.0512,-2.42746 -0.11437,-4.85482 -0.1231,-7.28302 -0.008,-6.4984 0.0614,-13.00195 0.57282,-19.48399 0.51465,-5.38717 0.87359,-10.98524 3.19846,-15.96179 0,0 -10.21237,4.6204 -10.21237,4.6204 z" />
      <path
         style="fill:#000000;stroke-width:0.264583"
         id="path26"
         d="m 92.140396,148.75156 c -2.244693,4.72837 -4.590857,9.40717 -6.987527,14.06069 -2.229019,4.51211 -4.580644,8.96328 -7.065512,13.3395 -0.628502,0.97998 -1.149816,2.02041 -1.672815,3.05832 0,0 10.159907,-4.60362 10.159907,-4.60362 v 0 c 0.477523,-0.99232 0.980808,-1.97122 1.515136,-2.93447 2.318256,-4.38584 4.580697,-8.80127 6.784266,-13.24591 2.444938,-4.78909 4.816306,-9.62151 7.478919,-14.29491 0,0 -10.212374,4.6204 -10.212374,4.6204 z" />
      <path
         style="fill:#000000;stroke-width:0.264583"
         id="path28"
         d="m 101.92217,155.33722 c 5.28796,2.52566 9.7576,6.8257 13.95029,10.85517 2.09684,1.91501 3.87681,4.10934 5.70419,6.26724 0,0 9.51591,-5.76923 9.51591,-5.76923 v 0 c -2.01657,-2.06328 -3.90989,-4.24874 -6.13437,-6.10448 -3.99849,-3.67709 -8.05335,-7.41695 -12.43386,-10.64217 -0.42373,-0.31198 -0.88869,-0.56371 -1.33303,-0.84556 0,0 -9.26913,6.23903 -9.26913,6.23903 z" />
      <path
         style="fill:#000000;stroke-width:0.264583"
         id="path30"
         d="m 94.382877,179.61936 c -2.517653,5.82719 -5.137581,11.61982 -7.765653,17.40086 -3.627435,8.20735 -7.281394,16.40306 -10.921367,24.60519 -0.733134,1.89976 -1.630725,3.72698 -2.473987,5.57829 0,0 10.013328,-4.59917 10.013328,-4.59917 v 0 c 0.730547,-1.80259 1.465123,-3.60387 2.138413,-5.42898 3.353417,-8.22793 6.923167,-16.36335 10.627365,-24.43939 2.747248,-5.95097 5.473204,-11.92575 8.645024,-17.66556 0,0 -10.263123,4.54876 -10.263123,4.54876 z" />
      <path
         style="fill:#000000;stroke-width:0.264583"
         id="path32"
         d="m 100.49238,187.71917 c 2.51004,2.99894 5.26313,5.79508 7.95319,8.63369 5.38659,5.47977 10.42521,11.28122 15.30536,17.21249 2.60802,3.18 5.00809,6.52046 7.54427,9.75585 0,0 9.316,-5.59338 9.316,-5.59338 v 0 c -2.73845,-3.09167 -5.29242,-6.33747 -7.90235,-9.53744 -4.92173,-5.89716 -9.82879,-11.82422 -15.11645,-17.39886 -2.57171,-2.80316 -5.14982,-5.61949 -7.38747,-8.70169 0,0 -9.71255,5.62934 -9.71255,5.62934 z" />
    </g>
    <g
       inkscape:label="Layer 1"
       id="layer1-7-0"
       transform="matrix(0.5737279,0,0,0.67301504,28.617334,26.080223)">
      <ellipse
         style="fill:#000000;stroke-width:0.264583"
         id="path10-3"
         cx="105.45536"
         cy="106.58929"
         rx="19.276785"
         ry="20.410715" />
      <path
         style="fill:#000000;stroke-width:0.264583"
         id="path24-9"
         d="m 100.45587,131.36465 c -1.70958,5.14519 -1.914066,10.61982 -2.29075,15.98583 -0.415396,6.58239 -0.778367,13.16926 -0.962303,19.76254 -0.06397,2.47955 -0.113549,4.95965 -0.140073,7.43989 -0.03357,0.65724 -5.29e-4,1.31902 -0.05108,1.97525 0.105852,1.61433 0.122415,3.23484 0.147468,4.8527 0.0021,3.19659 -0.07095,6.3824 0.209675,9.56881 0.139358,1.37956 0.288787,2.75762 0.380142,4.14136 0,0 9.951041,-5.19312 9.951041,-5.19312 v 0 c -0.17612,-1.35266 -0.34244,-2.70654 -0.53113,-4.05756 -0.31294,-3.1412 -0.23085,-6.29371 -0.22056,-9.44731 0.0255,-1.6709 0.0462,-3.34464 0.14575,-5.01212 -0.0654,-0.63226 -0.0271,-1.27412 -0.074,-1.90787 -0.0512,-2.42746 -0.11437,-4.85482 -0.1231,-7.28302 -0.008,-6.4984 0.0614,-13.00195 0.57282,-19.48399 0.51465,-5.38717 0.87359,-10.98524 3.19846,-15.96179 0,0 -10.21237,4.6204 -10.21237,4.6204 z" />
      <path
         style="fill:#000000;stroke-width:0.264583"
         id="path26-8"
         d="m 92.140396,148.75156 c -2.244693,4.72837 -4.590857,9.40717 -6.987527,14.06069 -2.229019,4.51211 -4.580644,8.96328 -7.065512,13.3395 -0.628502,0.97998 -1.149816,2.02041 -1.672815,3.05832 0,0 10.159907,-4.60362 10.159907,-4.60362 v 0 c 0.477523,-0.99232 0.980808,-1.97122 1.515136,-2.93447 2.318256,-4.38584 4.580697,-8.80127 6.784266,-13.24591 2.444938,-4.78909 4.816306,-9.62151 7.478919,-14.29491 0,0 -10.212374,4.6204 -10.212374,4.6204 z" />
      <path
         style="fill:#000000;stroke-width:0.264583"
         id="path28-6"
         d="m 101.92217,155.33722 c 5.28796,2.52566 9.7576,6.8257 13.95029,10.85517 2.09684,1.91501 3.87681,4.10934 5.70419,6.26724 0,0 9.51591,-5.76923 9.51591,-5.76923 v 0 c -2.01657,-2.06328 -3.90989,-4.24874 -6.13437,-6.10448 -3.99849,-3.67709 -8.05335,-7.41695 -12.43386,-10.64217 -0.42373,-0.31198 -0.88869,-0.56371 -1.33303,-0.84556 0,0 -9.26913,6.23903 -9.26913,6.23903 z" />
      <path
         style="fill:#000000;stroke-width:0.264583"
         id="path30-5"
         d="m 94.382877,179.61936 c -2.517653,5.82719 -5.137581,11.61982 -7.765653,17.40086 -3.627435,8.20735 -7.281394,16.40306 -10.921367,24.60519 -0.733134,1.89976 -1.630725,3.72698 -2.473987,5.57829 0,0 10.013328,-4.59917 10.013328,-4.59917 v 0 c 0.730547,-1.80259 1.465123,-3.60387 2.138413,-5.42898 3.353417,-8.22793 6.923167,-16.36335 10.627365,-24.43939 2.747248,-5.95097 5.473204,-11.92575 8.645024,-17.66556 0,0 -10.263123,4.54876 -10.263123,4.54876 z" />
      <path
         style="fill:#000000;stroke-width:0.264583"
         id="path32-7"
         d="m 100.49238,187.71917 c 2.51004,2.99894 5.26313,5.79508 7.95319,8.63369 5.38659,5.47977 10.42521,11.28122 15.30536,17.21249 2.60802,3.18 5.00809,6.52046 7.54427,9.75585 0,0 9.316,-5.59338 9.316,-5.59338 v 0 c -2.73845,-3.09167 -5.29242,-6.33747 -7.90235,-9.53744 -4.92173,-5.89716 -9.82879,-11.82422 -15.11645,-17.39886 -2.57171,-2.80316 -5.14982,-5.61949 -7.38747,-8.70169 0,0 -9.71255,5.62934 -9.71255,5.62934 z" />
    </g>
    <g
       inkscape:label="Layer 1"
       id="layer1-7-6"
       transform="matrix(0.5737279,0,0,0.67301504,87.58162,23.056413)">
      <ellipse
         style="fill:#000000;stroke-width:0.264583"
         id="path10-2"
         cx="105.45536"
         cy="106.58929"
         rx="19.276785"
         ry="20.410715" />
      <path
         style="fill:#000000;stroke-width:0.264583"
         id="path24-7"
         d="m 100.45587,131.36465 c -1.70958,5.14519 -1.914066,10.61982 -2.29075,15.98583 -0.415396,6.58239 -0.778367,13.16926 -0.962303,19.76254 -0.06397,2.47955 -0.113549,4.95965 -0.140073,7.43989 -0.03357,0.65724 -5.29e-4,1.31902 -0.05108,1.97525 0.105852,1.61433 0.122415,3.23484 0.147468,4.8527 0.0021,3.19659 -0.07095,6.3824 0.209675,9.56881 0.139358,1.37956 0.288787,2.75762 0.380142,4.14136 0,0 9.951041,-5.19312 9.951041,-5.19312 v 0 c -0.17612,-1.35266 -0.34244,-2.70654 -0.53113,-4.05756 -0.31294,-3.1412 -0.23085,-6.29371 -0.22056,-9.44731 0.0255,-1.6709 0.0462,-3.34464 0.14575,-5.01212 -0.0654,-0.63226 -0.0271,-1.27412 -0.074,-1.90787 -0.0512,-2.42746 -0.11437,-4.85482 -0.1231,-7.28302 -0.008,-6.4984 0.0614,-13.00195 0.57282,-19.48399 0.51465,-5.38717 0.87359,-10.98524 3.19846,-15.96179 0,0 -10.21237,4.6204 -10.21237,4.6204 z" />
      <path
         style="fill:#000000;stroke-width:0.264583"
         id="path26-0"
         d="m 92.140396,148.75156 c -2.244693,4.72837 -4.590857,9.40717 -6.987527,14.06069 -2.229019,4.51211 -4.580644,8.96328 -7.065512,13.3395 -0.628502,0.97998 -1.149816,2.02041 -1.672815,3.05832 0,0 10.159907,-4.60362 10.159907,-4.60362 v 0 c 0.477523,-0.99232 0.980808,-1.97122 1.515136,-2.93447 2.318256,-4.38584 4.580697,-8.80127 6.784266,-13.24591 2.444938,-4.78909 4.816306,-9.62151 7.478919,-14.29491 0,0 -10.212374,4.6204 -10.212374,4.6204 z" />
      <path
         style="fill:#000000;stroke-width:0.264583"
         id="path28-3"
         d="m 101.92217,155.33722 c 5.28796,2.52566 9.7576,6.8257 13.95029,10.85517 2.09684,1.91501 3.87681,4.10934 5.70419,6.26724 0,0 9.51591,-5.76923 9.51591,-5.76923 v 0 c -2.01657,-2.06328 -3.90989,-4.24874 -6.13437,-6.10448 -3.99849,-3.67709 -8.05335,-7.41695 -12.43386,-10.64217 -0.42373,-0.31198 -0.88869,-0.56371 -1.33303,-0.84556 0,0 -9.26913,6.23903 -9.26913,6.23903 z" />
      <path
         style="fill:#000000;stroke-width:0.264583"
         id="path30-9"
         d="m 94.382877,179.61936 c -2.517653,5.82719 -5.137581,11.61982 -7.765653,17.40086 -3.627435,8.20735 -7.281394,16.40306 -10.921367,24.60519 -0.733134,1.89976 -1.630725,3.72698 -2.473987,5.57829 0,0 10.013328,-4.59917 10.013328,-4.59917 v 0 c 0.730547,-1.80259 1.465123,-3.60387 2.138413,-5.42898 3.353417,-8.22793 6.923167,-16.36335 10.627365,-24.43939 2.747248,-5.95097 5.473204,-11.92575 8.645024,-17.66556 0,0 -10.263123,4.54876 -10.263123,4.54876 z" />
      <path
         style="fill:#000000;stroke-width:0.264583"
         id="path32-9"
         d="m 100.49238,187.71917 c 2.51004,2.99894 5.26313,5.79508 7.95319,8.63369 5.38659,5.47977 10.42521,11.28122 15.30536,17.21249 2.60802,3.18 5.00809,6.52046 7.54427,9.75585 0,0 9.316,-5.59338 9.316,-5.59338 v 0 c -2.73845,-3.09167 -5.29242,-6.33747 -7.90235,-9.53744 -4.92173,-5.89716 -9.82879,-11.82422 -15.11645,-17.39886 -2.57171,-2.80316 -5.14982,-5.61949 -7.38747,-8.70169 0,0 -9.71255,5.62934 -9.71255,5.62934 z" />
    </g>
    <g
       inkscape:label="Layer 1"
       id="layer1-7-9"
       transform="matrix(0.5737279,0,0,0.67301504,142.76614,25.324271)">
      <ellipse
         style="fill:#000000;stroke-width:0.264583"
         id="path10-1"
         cx="105.45536"
         cy="106.58929"
         rx="19.276785"
         ry="20.410715" />
      <path
         style="fill:#000000;stroke-width:0.264583"
         id="path24-72"
         d="m 100.45587,131.36465 c -1.70958,5.14519 -1.914066,10.61982 -2.29075,15.98583 -0.415396,6.58239 -0.778367,13.16926 -0.962303,19.76254 -0.06397,2.47955 -0.113549,4.95965 -0.140073,7.43989 -0.03357,0.65724 -5.29e-4,1.31902 -0.05108,1.97525 0.105852,1.61433 0.122415,3.23484 0.147468,4.8527 0.0021,3.19659 -0.07095,6.3824 0.209675,9.56881 0.139358,1.37956 0.288787,2.75762 0.380142,4.14136 0,0 9.951041,-5.19312 9.951041,-5.19312 v 0 c -0.17612,-1.35266 -0.34244,-2.70654 -0.53113,-4.05756 -0.31294,-3.1412 -0.23085,-6.29371 -0.22056,-9.44731 0.0255,-1.6709 0.0462,-3.34464 0.14575,-5.01212 -0.0654,-0.63226 -0.0271,-1.27412 -0.074,-1.90787 -0.0512,-2.42746 -0.11437,-4.85482 -0.1231,-7.28302 -0.008,-6.4984 0.0614,-13.00195 0.57282,-19.48399 0.51465,-5.38717 0.87359,-10.98524 3.19846,-15.96179 0,0 -10.21237,4.6204 -10.21237,4.6204 z" />
      <path
         style="fill:#000000;stroke-width:0.264583"
         id="path26-3"
         d="m 92.140396,148.75156 c -2.244693,4.72837 -4.590857,9.40717 -6.987527,14.06069 -2.229019,4.51211 -4.580644,8.96328 -7.065512,13.3395 -0.628502,0.97998 -1.149816,2.02041 -1.672815,3.05832 0,0 10.159907,-4.60362 10.159907,-4.60362 v 0 c 0.477523,-0.99232 0.980808,-1.97122 1.515136,-2.93447 2.318256,-4.38584 4.580697,-8.80127 6.784266,-13.24591 2.444938,-4.78909 4.816306,-9.62151 7.478919,-14.29491 0,0 -10.212374,4.6204 -10.212374,4.6204 z" />
      <path
         style="fill:#000000;stroke-width:0.264583"
         id="path28-65"
         d="m 101.92217,155.33722 c 5.28796,2.52566 9.7576,6.8257 13.95029,10.85517 2.09684,1.91501 3.87681,4.10934 5.70419,6.26724 0,0 9.51591,-5.76923 9.51591,-5.76923 v 0 c -2.01657,-2.06328 -3.90989,-4.24874 -6.13437,-6.10448 -3.99849,-3.67709 -8.05335,-7.41695 -12.43386,-10.64217 -0.42373,-0.31198 -0.88869,-0.56371 -1.33303,-0.84556 0,0 -9.26913,6.23903 -9.26913,6.23903 z" />
      <path
         style="fill:#000000;stroke-width:0.264583"
         id="path30-58"
         d="m 94.382877,179.61936 c -2.517653,5.82719 -5.137581,11.61982 -7.765653,17.40086 -3.627435,8.20735 -7.281394,16.40306 -10.921367,24.60519 -0.733134,1.89976 -1.630725,3.72698 -2.473987,5.57829 0,0 10.013328,-4.59917 10.013328,-4.59917 v 0 c 0.730547,-1.80259 1.465123,-3.60387 2.138413,-5.42898 3.353417,-8.22793 6.923167,-16.36335 10.627365,-24.43939 2.747248,-5.95097 5.473204,-11.92575 8.645024,-17.66556 0,0 -10.263123,4.54876 -10.263123,4.54876 z" />
      <path
         style="fill:#000000;stroke-width:0.264583"
         id="path32-1"
         d="m 100.49238,187.71917 c 2.51004,2.99894 5.26313,5.79508 7.95319,8.63369 5.38659,5.47977 10.42521,11.28122 15.30536,17.21249 2.60802,3.18 5.00809,6.52046 7.54427,9.75585 0,0 9.316,-5.59338 9.316,-5.59338 v 0 c -2.73845,-3.09167 -5.29242,-6.33747 -7.90235,-9.53744 -4.92173,-5.89716 -9.82879,-11.82422 -15.11645,-17.39886 -2.57171,-2.80316 -5.14982,-5.61949 -7.38747,-8.70169 0,0 -9.71255,5.62934 -9.71255,5.62934 z" />
    </g>
    <g
       inkscape:label="Layer 1"
       id="layer1-7-4"
       transform="matrix(0.5737279,0,0,0.67301504,196.54833,25.750432)">
      <ellipse
         style="fill:#000000;stroke-width:0.264583"
         id="path10-7"
         cx="105.45536"
         cy="106.58929"
         rx="19.276785"
         ry="20.410715" />
      <path
         style="fill:#000000;stroke-width:0.264583"
         id="path24-1"
         d="m 100.45587,131.36465 c -1.70958,5.14519 -1.914066,10.61982 -2.29075,15.98583 -0.415396,6.58239 -0.778367,13.16926 -0.962303,19.76254 -0.06397,2.47955 -0.113549,4.95965 -0.140073,7.43989 -0.03357,0.65724 -5.29e-4,1.31902 -0.05108,1.97525 0.105852,1.61433 0.122415,3.23484 0.147468,4.8527 0.0021,3.19659 -0.07095,6.3824 0.209675,9.56881 0.139358,1.37956 0.288787,2.75762 0.380142,4.14136 0,0 9.951041,-5.19312 9.951041,-5.19312 v 0 c -0.17612,-1.35266 -0.34244,-2.70654 -0.53113,-4.05756 -0.31294,-3.1412 -0.23085,-6.29371 -0.22056,-9.44731 0.0255,-1.6709 0.0462,-3.34464 0.14575,-5.01212 -0.0654,-0.63226 -0.0271,-1.27412 -0.074,-1.90787 -0.0512,-2.42746 -0.11437,-4.85482 -0.1231,-7.28302 -0.008,-6.4984 0.0614,-13.00195 0.57282,-19.48399 0.51465,-5.38717 0.87359,-10.98524 3.19846,-15.96179 0,0 -10.21237,4.6204 -10.21237,4.6204 z" />
      <path
         style="fill:#000000;stroke-width:0.264583"
         id="path26-38"
         d="m 92.140396,148.75156 c -2.244693,4.72837 -4.590857,9.40717 -6.987527,14.06069 -2.229019,4.51211 -4.580644,8.96328 -7.065512,13.3395 -0.628502,0.97998 -1.149816,2.02041 -1.672815,3.05832 0,0 10.159907,-4.60362 10.159907,-4.60362 v 0 c 0.477523,-0.99232 0.980808,-1.97122 1.515136,-2.93447 2.318256,-4.38584 4.580697,-8.80127 6.784266,-13.24591 2.444938,-4.78909 4.816306,-9.62151 7.478919,-14.29491 0,0 -10.212374,4.6204 -10.212374,4.6204 z" />
      <path
         style="fill:#000000;stroke-width:0.264583"
         id="path28-4"
         d="m 101.92217,155.33722 c 5.28796,2.52566 9.7576,6.8257 13.95029,10.85517 2.09684,1.91501 3.87681,4.10934 5.70419,6.26724 0,0 9.51591,-5.76923 9.51591,-5.76923 v 0 c -2.01657,-2.06328 -3.90989,-4.24874 -6.13437,-6.10448 -3.99849,-3.67709 -8.05335,-7.41695 -12.43386,-10.64217 -0.42373,-0.31198 -0.88869,-0.56371 -1.33303,-0.84556 0,0 -9.26913,6.23903 -9.26913,6.23903 z" />
      <path
         style="fill:#000000;stroke-width:0.264583"
         id="path30-8"
         d="m 94.382877,179.61936 c -2.517653,5.82719 -5.137581,11.61982 -7.765653,17.40086 -3.627435,8.20735 -7.281394,16.40306 -10.921367,24.60519 -0.733134,1.89976 -1.630725,3.72698 -2.473987,5.57829 0,0 10.013328,-4.59917 10.013328,-4.59917 v 0 c 0.730547,-1.80259 1.465123,-3.60387 2.138413,-5.42898 3.353417,-8.22793 6.923167,-16.36335 10.627365,-24.43939 2.747248,-5.95097 5.473204,-11.92575 8.645024,-17.66556 0,0 -10.263123,4.54876 -10.263123,4.54876 z" />
      <path
         style="fill:#000000;stroke-width:0.264583"
         id="path32-0"
         d="m 100.49238,187.71917 c 2.51004,2.99894 5.26313,5.79508 7.95319,8.63369 5.38659,5.47977 10.42521,11.28122 15.30536,17.21249 2.60802,3.18 5.00809,6.52046 7.54427,9.75585 0,0 9.316,-5.59338 9.316,-5.59338 v 0 c -2.73845,-3.09167 -5.29242,-6.33747 -7.90235,-9.53744 -4.92173,-5.89716 -9.82879,-11.82422 -15.11645,-17.39886 -2.57171,-2.80316 -5.14982,-5.61949 -7.38747,-8.70169 0,0 -9.71255,5.62934 -9.71255,5.62934 z" />
    </g>
    <g
       inkscape:label="Layer 1"
       id="layer1-7-46"
       transform="matrix(0.5737279,0,0,0.67301504,-306.48871,20.692188)">
      <ellipse
         style="fill:#000000;stroke-width:0.264583"
         id="path10-0"
         cx="105.45536"
         cy="106.58929"
         rx="19.276785"
         ry="20.410715" />
      <path
         style="fill:#000000;stroke-width:0.264583"
         id="path24-3"
         d="m 100.45587,131.36465 c -1.70958,5.14519 -1.914066,10.61982 -2.29075,15.98583 -0.415396,6.58239 -0.778367,13.16926 -0.962303,19.76254 -0.06397,2.47955 -0.113549,4.95965 -0.140073,7.43989 -0.03357,0.65724 -5.29e-4,1.31902 -0.05108,1.97525 0.105852,1.61433 0.122415,3.23484 0.147468,4.8527 0.0021,3.19659 -0.07095,6.3824 0.209675,9.56881 0.139358,1.37956 0.288787,2.75762 0.380142,4.14136 0,0 9.951041,-5.19312 9.951041,-5.19312 v 0 c -0.17612,-1.35266 -0.34244,-2.70654 -0.53113,-4.05756 -0.31294,-3.1412 -0.23085,-6.29371 -0.22056,-9.44731 0.0255,-1.6709 0.0462,-3.34464 0.14575,-5.01212 -0.0654,-0.63226 -0.0271,-1.27412 -0.074,-1.90787 -0.0512,-2.42746 -0.11437,-4.85482 -0.1231,-7.28302 -0.008,-6.4984 0.0614,-13.00195 0.57282,-19.48399 0.51465,-5.38717 0.87359,-10.98524 3.19846,-15.96179 0,0 -10.21237,4.6204 -10.21237,4.6204 z" />
      <path
         style="fill:#000000;stroke-width:0.264583"
         id="path26-2"
         d="m 92.140396,148.75156 c -2.244693,4.72837 -4.590857,9.40717 -6.987527,14.06069 -2.229019,4.51211 -4.580644,8.96328 -7.065512,13.3395 -0.628502,0.97998 -1.149816,2.02041 -1.672815,3.05832 0,0 10.159907,-4.60362 10.159907,-4.60362 v 0 c 0.477523,-0.99232 0.980808,-1.97122 1.515136,-2.93447 2.318256,-4.38584 4.580697,-8.80127 6.784266,-13.24591 2.444938,-4.78909 4.816306,-9.62151 7.478919,-14.29491 0,0 -10.212374,4.6204 -10.212374,4.6204 z" />
      <path
         style="fill:#000000;stroke-width:0.264583"
         id="path28-69"
         d="m 101.92217,155.33722 c 5.28796,2.52566 9.7576,6.8257 13.95029,10.85517 2.09684,1.91501 3.87681,4.10934 5.70419,6.26724 0,0 9.51591,-5.76923 9.51591,-5.76923 v 0 c -2.01657,-2.06328 -3.90989,-4.24874 -6.13437,-6.10448 -3.99849,-3.67709 -8.05335,-7.41695 -12.43386,-10.64217 -0.42373,-0.31198 -0.88869,-0.56371 -1.33303,-0.84556 0,0 -9.26913,6.23903 -9.26913,6.23903 z" />
      <path
         style="fill:#000000;stroke-width:0.264583"
         id="path30-4"
         d="m 94.382877,179.61936 c -2.517653,5.82719 -5.137581,11.61982 -7.765653,17.40086 -3.627435,8.20735 -7.281394,16.40306 -10.921367,24.60519 -0.733134,1.89976 -1.630725,3.72698 -2.473987,5.57829 0,0 10.013328,-4.59917 10.013328,-4.59917 v 0 c 0.730547,-1.80259 1.465123,-3.60387 2.138413,-5.42898 3.353417,-8.22793 6.923167,-16.36335 10.627365,-24.43939 2.747248,-5.95097 5.473204,-11.92575 8.645024,-17.66556 0,0 -10.263123,4.54876 -10.263123,4.54876 z" />
      <path
         style="fill:#000000;stroke-width:0.264583"
         id="path32-13"
         d="m 100.49238,187.71917 c 2.51004,2.99894 5.26313,5.79508 7.95319,8.63369 5.38659,5.47977 10.42521,11.28122 15.30536,17.21249 2.60802,3.18 5.00809,6.52046 7.54427,9.75585 0,0 9.316,-5.59338 9.316,-5.59338 v 0 c -2.73845,-3.09167 -5.29242,-6.33747 -7.90235,-9.53744 -4.92173,-5.89716 -9.82879,-11.82422 -15.11645,-17.39886 -2.57171,-2.80316 -5.14982,-5.61949 -7.38747,-8.70169 0,0 -9.71255,5.62934 -9.71255,5.62934 z" />
    </g>
    <g
       inkscape:label="Layer 1"
       id="layer1-7-0-7"
       transform="matrix(0.5737279,0,0,0.67301504,-252.06013,24.093973)">
      <ellipse
         style="fill:#000000;stroke-width:0.264583"
         id="path10-3-8"
         cx="105.45536"
         cy="106.58929"
         rx="19.276785"
         ry="20.410715" />
      <path
         style="fill:#000000;stroke-width:0.264583"
         id="path24-9-8"
         d="m 100.45587,131.36465 c -1.70958,5.14519 -1.914066,10.61982 -2.29075,15.98583 -0.415396,6.58239 -0.778367,13.16926 -0.962303,19.76254 -0.06397,2.47955 -0.113549,4.95965 -0.140073,7.43989 -0.03357,0.65724 -5.29e-4,1.31902 -0.05108,1.97525 0.105852,1.61433 0.122415,3.23484 0.147468,4.8527 0.0021,3.19659 -0.07095,6.3824 0.209675,9.56881 0.139358,1.37956 0.288787,2.75762 0.380142,4.14136 0,0 9.951041,-5.19312 9.951041,-5.19312 v 0 c -0.17612,-1.35266 -0.34244,-2.70654 -0.53113,-4.05756 -0.31294,-3.1412 -0.23085,-6.29371 -0.22056,-9.44731 0.0255,-1.6709 0.0462,-3.34464 0.14575,-5.01212 -0.0654,-0.63226 -0.0271,-1.27412 -0.074,-1.90787 -0.0512,-2.42746 -0.11437,-4.85482 -0.1231,-7.28302 -0.008,-6.4984 0.0614,-13.00195 0.57282,-19.48399 0.51465,-5.38717 0.87359,-10.98524 3.19846,-15.96179 0,0 -10.21237,4.6204 -10.21237,4.6204 z" />
      <path
         style="fill:#000000;stroke-width:0.264583"
         id="path26-8-3"
         d="m 92.140396,148.75156 c -2.244693,4.72837 -4.590857,9.40717 -6.987527,14.06069 -2.229019,4.51211 -4.580644,8.96328 -7.065512,13.3395 -0.628502,0.97998 -1.149816,2.02041 -1.672815,3.05832 0,0 10.159907,-4.60362 10.159907,-4.60362 v 0 c 0.477523,-0.99232 0.980808,-1.97122 1.515136,-2.93447 2.318256,-4.38584 4.580697,-8.80127 6.784266,-13.24591 2.444938,-4.78909 4.816306,-9.62151 7.478919,-14.29491 0,0 -10.212374,4.6204 -10.212374,4.6204 z" />
      <path
         style="fill:#000000;stroke-width:0.264583"
         id="path28-6-8"
         d="m 101.92217,155.33722 c 5.28796,2.52566 9.7576,6.8257 13.95029,10.85517 2.09684,1.91501 3.87681,4.10934 5.70419,6.26724 0,0 9.51591,-5.76923 9.51591,-5.76923 v 0 c -2.01657,-2.06328 -3.90989,-4.24874 -6.13437,-6.10448 -3.99849,-3.67709 -8.05335,-7.41695 -12.43386,-10.64217 -0.42373,-0.31198 -0.88869,-0.56371 -1.33303,-0.84556 0,0 -9.26913,6.23903 -9.26913,6.23903 z" />
      <path
         style="fill:#000000;stroke-width:0.264583"
         id="path30-5-1"
         d="m 94.382877,179.61936 c -2.517653,5.82719 -5.137581,11.61982 -7.765653,17.40086 -3.627435,8.20735 -7.281394,16.40306 -10.921367,24.60519 -0.733134,1.89976 -1.630725,3.72698 -2.473987,5.57829 0,0 10.013328,-4.59917 10.013328,-4.59917 v 0 c 0.730547,-1.80259 1.465123,-3.60387 2.138413,-5.42898 3.353417,-8.22793 6.923167,-16.36335 10.627365,-24.43939 2.747248,-5.95097 5.473204,-11.92575 8.645024,-17.66556 0,0 -10.263123,4.54876 -10.263123,4.54876 z" />
      <path
         style="fill:#000000;stroke-width:0.264583"
         id="path32-7-5"
         d="m 100.49238,187.71917 c 2.51004,2.99894 5.26313,5.79508 7.95319,8.63369 5.38659,5.47977 10.42521,11.28122 15.30536,17.21249 2.60802,3.18 5.00809,6.52046 7.54427,9.75585 0,0 9.316,-5.59338 9.316,-5.59338 v 0 c -2.73845,-3.09167 -5.29242,-6.33747 -7.90235,-9.53744 -4.92173,-5.89716 -9.82879,-11.82422 -15.11645,-17.39886 -2.57171,-2.80316 -5.14982,-5.61949 -7.38747,-8.70169 0,0 -9.71255,5.62934 -9.71255,5.62934 z" />
    </g>
    <g
       inkscape:label="Layer 1"
       id="layer1-7-6-3"
       transform="matrix(0.5737279,0,0,0.67301504,-193.09584,21.070161)">
      <ellipse
         style="fill:#000000;stroke-width:0.264583"
         id="path10-2-5"
         cx="105.45536"
         cy="106.58929"
         rx="19.276785"
         ry="20.410715" />
      <path
         style="fill:#000000;stroke-width:0.264583"
         id="path24-7-4"
         d="m 100.45587,131.36465 c -1.70958,5.14519 -1.914066,10.61982 -2.29075,15.98583 -0.415396,6.58239 -0.778367,13.16926 -0.962303,19.76254 -0.06397,2.47955 -0.113549,4.95965 -0.140073,7.43989 -0.03357,0.65724 -5.29e-4,1.31902 -0.05108,1.97525 0.105852,1.61433 0.122415,3.23484 0.147468,4.8527 0.0021,3.19659 -0.07095,6.3824 0.209675,9.56881 0.139358,1.37956 0.288787,2.75762 0.380142,4.14136 0,0 9.951041,-5.19312 9.951041,-5.19312 v 0 c -0.17612,-1.35266 -0.34244,-2.70654 -0.53113,-4.05756 -0.31294,-3.1412 -0.23085,-6.29371 -0.22056,-9.44731 0.0255,-1.6709 0.0462,-3.34464 0.14575,-5.01212 -0.0654,-0.63226 -0.0271,-1.27412 -0.074,-1.90787 -0.0512,-2.42746 -0.11437,-4.85482 -0.1231,-7.28302 -0.008,-6.4984 0.0614,-13.00195 0.57282,-19.48399 0.51465,-5.38717 0.87359,-10.98524 3.19846,-15.96179 0,0 -10.21237,4.6204 -10.21237,4.6204 z" />
      <path
         style="fill:#000000;stroke-width:0.264583"
         id="path26-0-3"
         d="m 92.140396,148.75156 c -2.244693,4.72837 -4.590857,9.40717 -6.987527,14.06069 -2.229019,4.51211 -4.580644,8.96328 -7.065512,13.3395 -0.628502,0.97998 -1.149816,2.02041 -1.672815,3.05832 0,0 10.159907,-4.60362 10.159907,-4.60362 v 0 c 0.477523,-0.99232 0.980808,-1.97122 1.515136,-2.93447 2.318256,-4.38584 4.580697,-8.80127 6.784266,-13.24591 2.444938,-4.78909 4.816306,-9.62151 7.478919,-14.29491 0,0 -10.212374,4.6204 -10.212374,4.6204 z" />
      <path
         style="fill:#000000;stroke-width:0.264583"
         id="path28-3-6"
         d="m 101.92217,155.33722 c 5.28796,2.52566 9.7576,6.8257 13.95029,10.85517 2.09684,1.91501 3.87681,4.10934 5.70419,6.26724 0,0 9.51591,-5.76923 9.51591,-5.76923 v 0 c -2.01657,-2.06328 -3.90989,-4.24874 -6.13437,-6.10448 -3.99849,-3.67709 -8.05335,-7.41695 -12.43386,-10.64217 -0.42373,-0.31198 -0.88869,-0.56371 -1.33303,-0.84556 0,0 -9.26913,6.23903 -9.26913,6.23903 z" />
      <path
         style="fill:#000000;stroke-width:0.264583"
         id="path30-9-5"
         d="m 94.382877,179.61936 c -2.517653,5.82719 -5.137581,11.61982 -7.765653,17.40086 -3.627435,8.20735 -7.281394,16.40306 -10.921367,24.60519 -0.733134,1.89976 -1.630725,3.72698 -2.473987,5.57829 0,0 10.013328,-4.59917 10.013328,-4.59917 v 0 c 0.730547,-1.80259 1.465123,-3.60387 2.138413,-5.42898 3.353417,-8.22793 6.923167,-16.36335 10.627365,-24.43939 2.747248,-5.95097 5.473204,-11.92575 8.645024,-17.66556 0,0 -10.263123,4.54876 -10.263123,4.54876 z" />
      <path
         style="fill:#000000;stroke-width:0.264583"
         id="path32-9-9"
         d="m 100.49238,187.71917 c 2.51004,2.99894 5.26313,5.79508 7.95319,8.63369 5.38659,5.47977 10.42521,11.28122 15.30536,17.21249 2.60802,3.18 5.00809,6.52046 7.54427,9.75585 0,0 9.316,-5.59338 9.316,-5.59338 v 0 c -2.73845,-3.09167 -5.29242,-6.33747 -7.90235,-9.53744 -4.92173,-5.89716 -9.82879,-11.82422 -15.11645,-17.39886 -2.57171,-2.80316 -5.14982,-5.61949 -7.38747,-8.70169 0,0 -9.71255,5.62934 -9.71255,5.62934 z" />
    </g>
    <g
       inkscape:label="Layer 1"
       id="layer1-7-9-5"
       transform="matrix(0.5737279,0,0,0.67301504,-137.91132,23.338019)">
      <ellipse
         style="fill:#000000;stroke-width:0.264583"
         id="path10-1-4"
         cx="105.45536"
         cy="106.58929"
         rx="19.276785"
         ry="20.410715" />
      <path
         style="fill:#000000;stroke-width:0.264583"
         id="path24-72-9"
         d="m 100.45587,131.36465 c -1.70958,5.14519 -1.914066,10.61982 -2.29075,15.98583 -0.415396,6.58239 -0.778367,13.16926 -0.962303,19.76254 -0.06397,2.47955 -0.113549,4.95965 -0.140073,7.43989 -0.03357,0.65724 -5.29e-4,1.31902 -0.05108,1.97525 0.105852,1.61433 0.122415,3.23484 0.147468,4.8527 0.0021,3.19659 -0.07095,6.3824 0.209675,9.56881 0.139358,1.37956 0.288787,2.75762 0.380142,4.14136 0,0 9.951041,-5.19312 9.951041,-5.19312 v 0 c -0.17612,-1.35266 -0.34244,-2.70654 -0.53113,-4.05756 -0.31294,-3.1412 -0.23085,-6.29371 -0.22056,-9.44731 0.0255,-1.6709 0.0462,-3.34464 0.14575,-5.01212 -0.0654,-0.63226 -0.0271,-1.27412 -0.074,-1.90787 -0.0512,-2.42746 -0.11437,-4.85482 -0.1231,-7.28302 -0.008,-6.4984 0.0614,-13.00195 0.57282,-19.48399 0.51465,-5.38717 0.87359,-10.98524 3.19846,-15.96179 0,0 -10.21237,4.6204 -10.21237,4.6204 z" />
      <path
         style="fill:#000000;stroke-width:0.264583"
         id="path26-3-1"
         d="m 92.140396,148.75156 c -2.244693,4.72837 -4.590857,9.40717 -6.987527,14.06069 -2.229019,4.51211 -4.580644,8.96328 -7.065512,13.3395 -0.628502,0.97998 -1.149816,2.02041 -1.672815,3.05832 0,0 10.159907,-4.60362 10.159907,-4.60362 v 0 c 0.477523,-0.99232 0.980808,-1.97122 1.515136,-2.93447 2.318256,-4.38584 4.580697,-8.80127 6.784266,-13.24591 2.444938,-4.78909 4.816306,-9.62151 7.478919,-14.29491 0,0 -10.212374,4.6204 -10.212374,4.6204 z" />
      <path
         style="fill:#000000;stroke-width:0.264583"
         id="path28-65-7"
         d="m 101.92217,155.33722 c 5.28796,2.52566 9.7576,6.8257 13.95029,10.85517 2.09684,1.91501 3.87681,4.10934 5.70419,6.26724 0,0 9.51591,-5.76923 9.51591,-5.76923 v 0 c -2.01657,-2.06328 -3.90989,-4.24874 -6.13437,-6.10448 -3.99849,-3.67709 -8.05335,-7.41695 -12.43386,-10.64217 -0.42373,-0.31198 -0.88869,-0.56371 -1.33303,-0.84556 0,0 -9.26913,6.23903 -9.26913,6.23903 z" />
      <path
         style="fill:#000000;stroke-width:0.264583"
         id="path30-58-5"
         d="m 94.382877,179.61936 c -2.517653,5.82719 -5.137581,11.61982 -7.765653,17.40086 -3.627435,8.20735 -7.281394,16.40306 -10.921367,24.60519 -0.733134,1.89976 -1.630725,3.72698 -2.473987,5.57829 0,0 10.013328,-4.59917 10.013328,-4.59917 v 0 c 0.730547,-1.80259 1.465123,-3.60387 2.138413,-5.42898 3.353417,-8.22793 6.923167,-16.36335 10.627365,-24.43939 2.747248,-5.95097 5.473204,-11.92575 8.645024,-17.66556 0,0 -10.263123,4.54876 -10.263123,4.54876 z" />
      <path
         style="fill:#000000;stroke-width:0.264583"
         id="path32-1-5"
         d="m 100.49238,187.71917 c 2.51004,2.99894 5.26313,5.79508 7.95319,8.63369 5.38659,5.47977 10.42521,11.28122 15.30536,17.21249 2.60802,3.18 5.00809,6.52046 7.54427,9.75585 0,0 9.316,-5.59338 9.316,-5.59338 v 0 c -2.73845,-3.09167 -5.29242,-6.33747 -7.90235,-9.53744 -4.92173,-5.89716 -9.82879,-11.82422 -15.11645,-17.39886 -2.57171,-2.80316 -5.14982,-5.61949 -7.38747,-8.70169 0,0 -9.71255,5.62934 -9.71255,5.62934 z" />
    </g>
    <g
       inkscape:label="Layer 1"
       id="layer1-7-4-4"
       transform="matrix(0.5737279,0,0,0.67301504,-84.129143,23.764181)">
      <ellipse
         style="fill:#000000;stroke-width:0.264583"
         id="path10-7-1"
         cx="105.45536"
         cy="106.58929"
         rx="19.276785"
         ry="20.410715" />
      <path
         style="fill:#000000;stroke-width:0.264583"
         id="path24-1-8"
         d="m 100.45587,131.36465 c -1.70958,5.14519 -1.914066,10.61982 -2.29075,15.98583 -0.415396,6.58239 -0.778367,13.16926 -0.962303,19.76254 -0.06397,2.47955 -0.113549,4.95965 -0.140073,7.43989 -0.03357,0.65724 -5.29e-4,1.31902 -0.05108,1.97525 0.105852,1.61433 0.122415,3.23484 0.147468,4.8527 0.0021,3.19659 -0.07095,6.3824 0.209675,9.56881 0.139358,1.37956 0.288787,2.75762 0.380142,4.14136 0,0 9.951041,-5.19312 9.951041,-5.19312 v 0 c -0.17612,-1.35266 -0.34244,-2.70654 -0.53113,-4.05756 -0.31294,-3.1412 -0.23085,-6.29371 -0.22056,-9.44731 0.0255,-1.6709 0.0462,-3.34464 0.14575,-5.01212 -0.0654,-0.63226 -0.0271,-1.27412 -0.074,-1.90787 -0.0512,-2.42746 -0.11437,-4.85482 -0.1231,-7.28302 -0.008,-6.4984 0.0614,-13.00195 0.57282,-19.48399 0.51465,-5.38717 0.87359,-10.98524 3.19846,-15.96179 0,0 -10.21237,4.6204 -10.21237,4.6204 z" />
      <path
         style="fill:#000000;stroke-width:0.264583"
         id="path26-38-8"
         d="m 92.140396,148.75156 c -2.244693,4.72837 -4.590857,9.40717 -6.987527,14.06069 -2.229019,4.51211 -4.580644,8.96328 -7.065512,13.3395 -0.628502,0.97998 -1.149816,2.02041 -1.672815,3.05832 0,0 10.159907,-4.60362 10.159907,-4.60362 v 0 c 0.477523,-0.99232 0.980808,-1.97122 1.515136,-2.93447 2.318256,-4.38584 4.580697,-8.80127 6.784266,-13.24591 2.444938,-4.78909 4.816306,-9.62151 7.478919,-14.29491 0,0 -10.212374,4.6204 -10.212374,4.6204 z" />
      <path
         style="fill:#000000;stroke-width:0.264583"
         id="path28-4-3"
         d="m 101.92217,155.33722 c 5.28796,2.52566 9.7576,6.8257 13.95029,10.85517 2.09684,1.91501 3.87681,4.10934 5.70419,6.26724 0,0 9.51591,-5.76923 9.51591,-5.76923 v 0 c -2.01657,-2.06328 -3.90989,-4.24874 -6.13437,-6.10448 -3.99849,-3.67709 -8.05335,-7.41695 -12.43386,-10.64217 -0.42373,-0.31198 -0.88869,-0.56371 -1.33303,-0.84556 0,0 -9.26913,6.23903 -9.26913,6.23903 z" />
      <path
         style="fill:#000000;stroke-width:0.264583"
         id="path30-8-5"
         d="m 94.382877,179.61936 c -2.517653,5.82719 -5.137581,11.61982 -7.765653,17.40086 -3.627435,8.20735 -7.281394,16.40306 -10.921367,24.60519 -0.733134,1.89976 -1.630725,3.72698 -2.473987,5.57829 0,0 10.013328,-4.59917 10.013328,-4.59917 v 0 c 0.730547,-1.80259 1.465123,-3.60387 2.138413,-5.42898 3.353417,-8.22793 6.923167,-16.36335 10.627365,-24.43939 2.747248,-5.95097 5.473204,-11.92575 8.645024,-17.66556 0,0 -10.263123,4.54876 -10.263123,4.54876 z" />
      <path
         style="fill:#000000;stroke-width:0.264583"
         id="path32-0-2"
         d="m 100.49238,187.71917 c 2.51004,2.99894 5.26313,5.79508 7.95319,8.63369 5.38659,5.47977 10.42521,11.28122 15.30536,17.21249 2.60802,3.18 5.00809,6.52046 7.54427,9.75585 0,0 9.316,-5.59338 9.316,-5.59338 v 0 c -2.73845,-3.09167 -5.29242,-6.33747 -7.90235,-9.53744 -4.92173,-5.89716 -9.82879,-11.82422 -15.11645,-17.39886 -2.57171,-2.80316 -5.14982,-5.61949 -7.38747,-8.70169 0,0 -9.71255,5.62934 -9.71255,5.62934 z" />
    </g>
    <g
       inkscape:label="Layer 1"
       id="layer1-7-2"
       transform="matrix(0.5737279,0,0,0.67301504,-23.866571,132.71769)">
      <ellipse
         style="fill:#000000;stroke-width:0.264583"
         id="path10-6"
         cx="105.45536"
         cy="106.58929"
         rx="19.276785"
         ry="20.410715" />
      <path
         style="fill:#000000;stroke-width:0.264583"
         id="path24-6"
         d="m 100.45587,131.36465 c -1.70958,5.14519 -1.914066,10.61982 -2.29075,15.98583 -0.415396,6.58239 -0.778367,13.16926 -0.962303,19.76254 -0.06397,2.47955 -0.113549,4.95965 -0.140073,7.43989 -0.03357,0.65724 -5.29e-4,1.31902 -0.05108,1.97525 0.105852,1.61433 0.122415,3.23484 0.147468,4.8527 0.0021,3.19659 -0.07095,6.3824 0.209675,9.56881 0.139358,1.37956 0.288787,2.75762 0.380142,4.14136 0,0 9.951041,-5.19312 9.951041,-5.19312 v 0 c -0.17612,-1.35266 -0.34244,-2.70654 -0.53113,-4.05756 -0.31294,-3.1412 -0.23085,-6.29371 -0.22056,-9.44731 0.0255,-1.6709 0.0462,-3.34464 0.14575,-5.01212 -0.0654,-0.63226 -0.0271,-1.27412 -0.074,-1.90787 -0.0512,-2.42746 -0.11437,-4.85482 -0.1231,-7.28302 -0.008,-6.4984 0.0614,-13.00195 0.57282,-19.48399 0.51465,-5.38717 0.87359,-10.98524 3.19846,-15.96179 0,0 -10.21237,4.6204 -10.21237,4.6204 z" />
      <path
         style="fill:#000000;stroke-width:0.264583"
         id="path26-7"
         d="m 92.140396,148.75156 c -2.244693,4.72837 -4.590857,9.40717 -6.987527,14.06069 -2.229019,4.51211 -4.580644,8.96328 -7.065512,13.3395 -0.628502,0.97998 -1.149816,2.02041 -1.672815,3.05832 0,0 10.159907,-4.60362 10.159907,-4.60362 v 0 c 0.477523,-0.99232 0.980808,-1.97122 1.515136,-2.93447 2.318256,-4.38584 4.580697,-8.80127 6.784266,-13.24591 2.444938,-4.78909 4.816306,-9.62151 7.478919,-14.29491 0,0 -10.212374,4.6204 -10.212374,4.6204 z" />
      <path
         style="fill:#000000;stroke-width:0.264583"
         id="path28-8"
         d="m 101.92217,155.33722 c 5.28796,2.52566 9.7576,6.8257 13.95029,10.85517 2.09684,1.91501 3.87681,4.10934 5.70419,6.26724 0,0 9.51591,-5.76923 9.51591,-5.76923 v 0 c -2.01657,-2.06328 -3.90989,-4.24874 -6.13437,-6.10448 -3.99849,-3.67709 -8.05335,-7.41695 -12.43386,-10.64217 -0.42373,-0.31198 -0.88869,-0.56371 -1.33303,-0.84556 0,0 -9.26913,6.23903 -9.26913,6.23903 z" />
      <path
         style="fill:#000000;stroke-width:0.264583"
         id="path30-41"
         d="m 94.382877,179.61936 c -2.517653,5.82719 -5.137581,11.61982 -7.765653,17.40086 -3.627435,8.20735 -7.281394,16.40306 -10.921367,24.60519 -0.733134,1.89976 -1.630725,3.72698 -2.473987,5.57829 0,0 10.013328,-4.59917 10.013328,-4.59917 v 0 c 0.730547,-1.80259 1.465123,-3.60387 2.138413,-5.42898 3.353417,-8.22793 6.923167,-16.36335 10.627365,-24.43939 2.747248,-5.95097 5.473204,-11.92575 8.645024,-17.66556 0,0 -10.263123,4.54876 -10.263123,4.54876 z" />
      <path
         style="fill:#000000;stroke-width:0.264583"
         id="path32-71"
         d="m 100.49238,187.71917 c 2.51004,2.99894 5.26313,5.79508 7.95319,8.63369 5.38659,5.47977 10.42521,11.28122 15.30536,17.21249 2.60802,3.18 5.00809,6.52046 7.54427,9.75585 0,0 9.316,-5.59338 9.316,-5.59338 v 0 c -2.73845,-3.09167 -5.29242,-6.33747 -7.90235,-9.53744 -4.92173,-5.89716 -9.82879,-11.82422 -15.11645,-17.39886 -2.57171,-2.80316 -5.14982,-5.61949 -7.38747,-8.70169 0,0 -9.71255,5.62934 -9.71255,5.62934 z" />
    </g>
    <g
       inkscape:label="Layer 1"
       id="layer1-7-0-8"
       transform="matrix(0.5737279,0,0,0.67301504,30.562009,136.11948)">
      <ellipse
         style="fill:#000000;stroke-width:0.264583"
         id="path10-3-7"
         cx="105.45536"
         cy="106.58929"
         rx="19.276785"
         ry="20.410715" />
      <path
         style="fill:#000000;stroke-width:0.264583"
         id="path24-9-87"
         d="m 100.45587,131.36465 c -1.70958,5.14519 -1.914066,10.61982 -2.29075,15.98583 -0.415396,6.58239 -0.778367,13.16926 -0.962303,19.76254 -0.06397,2.47955 -0.113549,4.95965 -0.140073,7.43989 -0.03357,0.65724 -5.29e-4,1.31902 -0.05108,1.97525 0.105852,1.61433 0.122415,3.23484 0.147468,4.8527 0.0021,3.19659 -0.07095,6.3824 0.209675,9.56881 0.139358,1.37956 0.288787,2.75762 0.380142,4.14136 0,0 9.951041,-5.19312 9.951041,-5.19312 v 0 c -0.17612,-1.35266 -0.34244,-2.70654 -0.53113,-4.05756 -0.31294,-3.1412 -0.23085,-6.29371 -0.22056,-9.44731 0.0255,-1.6709 0.0462,-3.34464 0.14575,-5.01212 -0.0654,-0.63226 -0.0271,-1.27412 -0.074,-1.90787 -0.0512,-2.42746 -0.11437,-4.85482 -0.1231,-7.28302 -0.008,-6.4984 0.0614,-13.00195 0.57282,-19.48399 0.51465,-5.38717 0.87359,-10.98524 3.19846,-15.96179 0,0 -10.21237,4.6204 -10.21237,4.6204 z" />
      <path
         style="fill:#000000;stroke-width:0.264583"
         id="path26-8-7"
         d="m 92.140396,148.75156 c -2.244693,4.72837 -4.590857,9.40717 -6.987527,14.06069 -2.229019,4.51211 -4.580644,8.96328 -7.065512,13.3395 -0.628502,0.97998 -1.149816,2.02041 -1.672815,3.05832 0,0 10.159907,-4.60362 10.159907,-4.60362 v 0 c 0.477523,-0.99232 0.980808,-1.97122 1.515136,-2.93447 2.318256,-4.38584 4.580697,-8.80127 6.784266,-13.24591 2.444938,-4.78909 4.816306,-9.62151 7.478919,-14.29491 0,0 -10.212374,4.6204 -10.212374,4.6204 z" />
      <path
         style="fill:#000000;stroke-width:0.264583"
         id="path28-6-4"
         d="m 101.92217,155.33722 c 5.28796,2.52566 9.7576,6.8257 13.95029,10.85517 2.09684,1.91501 3.87681,4.10934 5.70419,6.26724 0,0 9.51591,-5.76923 9.51591,-5.76923 v 0 c -2.01657,-2.06328 -3.90989,-4.24874 -6.13437,-6.10448 -3.99849,-3.67709 -8.05335,-7.41695 -12.43386,-10.64217 -0.42373,-0.31198 -0.88869,-0.56371 -1.33303,-0.84556 0,0 -9.26913,6.23903 -9.26913,6.23903 z" />
      <path
         style="fill:#000000;stroke-width:0.264583"
         id="path30-5-4"
         d="m 94.382877,179.61936 c -2.517653,5.82719 -5.137581,11.61982 -7.765653,17.40086 -3.627435,8.20735 -7.281394,16.40306 -10.921367,24.60519 -0.733134,1.89976 -1.630725,3.72698 -2.473987,5.57829 0,0 10.013328,-4.59917 10.013328,-4.59917 v 0 c 0.730547,-1.80259 1.465123,-3.60387 2.138413,-5.42898 3.353417,-8.22793 6.923167,-16.36335 10.627365,-24.43939 2.747248,-5.95097 5.473204,-11.92575 8.645024,-17.66556 0,0 -10.263123,4.54876 -10.263123,4.54876 z" />
      <path
         style="fill:#000000;stroke-width:0.264583"
         id="path32-7-9"
         d="m 100.49238,187.71917 c 2.51004,2.99894 5.26313,5.79508 7.95319,8.63369 5.38659,5.47977 10.42521,11.28122 15.30536,17.21249 2.60802,3.18 5.00809,6.52046 7.54427,9.75585 0,0 9.316,-5.59338 9.316,-5.59338 v 0 c -2.73845,-3.09167 -5.29242,-6.33747 -7.90235,-9.53744 -4.92173,-5.89716 -9.82879,-11.82422 -15.11645,-17.39886 -2.57171,-2.80316 -5.14982,-5.61949 -7.38747,-8.70169 0,0 -9.71255,5.62934 -9.71255,5.62934 z" />
    </g>
    <g
       inkscape:label="Layer 1"
       id="layer1-7-6-1"
       transform="matrix(0.5737279,0,0,0.67301504,89.526309,133.09567)">
      <ellipse
         style="fill:#000000;stroke-width:0.264583"
         id="path10-2-55"
         cx="105.45536"
         cy="106.58929"
         rx="19.276785"
         ry="20.410715" />
      <path
         style="fill:#000000;stroke-width:0.264583"
         id="path24-7-5"
         d="m 100.45587,131.36465 c -1.70958,5.14519 -1.914066,10.61982 -2.29075,15.98583 -0.415396,6.58239 -0.778367,13.16926 -0.962303,19.76254 -0.06397,2.47955 -0.113549,4.95965 -0.140073,7.43989 -0.03357,0.65724 -5.29e-4,1.31902 -0.05108,1.97525 0.105852,1.61433 0.122415,3.23484 0.147468,4.8527 0.0021,3.19659 -0.07095,6.3824 0.209675,9.56881 0.139358,1.37956 0.288787,2.75762 0.380142,4.14136 0,0 9.951041,-5.19312 9.951041,-5.19312 v 0 c -0.17612,-1.35266 -0.34244,-2.70654 -0.53113,-4.05756 -0.31294,-3.1412 -0.23085,-6.29371 -0.22056,-9.44731 0.0255,-1.6709 0.0462,-3.34464 0.14575,-5.01212 -0.0654,-0.63226 -0.0271,-1.27412 -0.074,-1.90787 -0.0512,-2.42746 -0.11437,-4.85482 -0.1231,-7.28302 -0.008,-6.4984 0.0614,-13.00195 0.57282,-19.48399 0.51465,-5.38717 0.87359,-10.98524 3.19846,-15.96179 0,0 -10.21237,4.6204 -10.21237,4.6204 z" />
      <path
         style="fill:#000000;stroke-width:0.264583"
         id="path26-0-8"
         d="m 92.140396,148.75156 c -2.244693,4.72837 -4.590857,9.40717 -6.987527,14.06069 -2.229019,4.51211 -4.580644,8.96328 -7.065512,13.3395 -0.628502,0.97998 -1.149816,2.02041 -1.672815,3.05832 0,0 10.159907,-4.60362 10.159907,-4.60362 v 0 c 0.477523,-0.99232 0.980808,-1.97122 1.515136,-2.93447 2.318256,-4.38584 4.580697,-8.80127 6.784266,-13.24591 2.444938,-4.78909 4.816306,-9.62151 7.478919,-14.29491 0,0 -10.212374,4.6204 -10.212374,4.6204 z" />
      <path
         style="fill:#000000;stroke-width:0.264583"
         id="path28-3-2"
         d="m 101.92217,155.33722 c 5.28796,2.52566 9.7576,6.8257 13.95029,10.85517 2.09684,1.91501 3.87681,4.10934 5.70419,6.26724 0,0 9.51591,-5.76923 9.51591,-5.76923 v 0 c -2.01657,-2.06328 -3.90989,-4.24874 -6.13437,-6.10448 -3.99849,-3.67709 -8.05335,-7.41695 -12.43386,-10.64217 -0.42373,-0.31198 -0.88869,-0.56371 -1.33303,-0.84556 0,0 -9.26913,6.23903 -9.26913,6.23903 z" />
      <path
         style="fill:#000000;stroke-width:0.264583"
         id="path30-9-9"
         d="m 94.382877,179.61936 c -2.517653,5.82719 -5.137581,11.61982 -7.765653,17.40086 -3.627435,8.20735 -7.281394,16.40306 -10.921367,24.60519 -0.733134,1.89976 -1.630725,3.72698 -2.473987,5.57829 0,0 10.013328,-4.59917 10.013328,-4.59917 v 0 c 0.730547,-1.80259 1.465123,-3.60387 2.138413,-5.42898 3.353417,-8.22793 6.923167,-16.36335 10.627365,-24.43939 2.747248,-5.95097 5.473204,-11.92575 8.645024,-17.66556 0,0 -10.263123,4.54876 -10.263123,4.54876 z" />
      <path
         style="fill:#000000;stroke-width:0.264583"
         id="path32-9-8"
         d="m 100.49238,187.71917 c 2.51004,2.99894 5.26313,5.79508 7.95319,8.63369 5.38659,5.47977 10.42521,11.28122 15.30536,17.21249 2.60802,3.18 5.00809,6.52046 7.54427,9.75585 0,0 9.316,-5.59338 9.316,-5.59338 v 0 c -2.73845,-3.09167 -5.29242,-6.33747 -7.90235,-9.53744 -4.92173,-5.89716 -9.82879,-11.82422 -15.11645,-17.39886 -2.57171,-2.80316 -5.14982,-5.61949 -7.38747,-8.70169 0,0 -9.71255,5.62934 -9.71255,5.62934 z" />
    </g>
    <g
       inkscape:label="Layer 1"
       id="layer1-7-9-2"
       transform="matrix(0.5737279,0,0,0.67301504,144.71082,135.36353)">
      <ellipse
         style="fill:#000000;stroke-width:0.264583"
         id="path10-1-0"
         cx="105.45536"
         cy="106.58929"
         rx="19.276785"
         ry="20.410715" />
      <path
         style="fill:#000000;stroke-width:0.264583"
         id="path24-72-7"
         d="m 100.45587,131.36465 c -1.70958,5.14519 -1.914066,10.61982 -2.29075,15.98583 -0.415396,6.58239 -0.778367,13.16926 -0.962303,19.76254 -0.06397,2.47955 -0.113549,4.95965 -0.140073,7.43989 -0.03357,0.65724 -5.29e-4,1.31902 -0.05108,1.97525 0.105852,1.61433 0.122415,3.23484 0.147468,4.8527 0.0021,3.19659 -0.07095,6.3824 0.209675,9.56881 0.139358,1.37956 0.288787,2.75762 0.380142,4.14136 0,0 9.951041,-5.19312 9.951041,-5.19312 v 0 c -0.17612,-1.35266 -0.34244,-2.70654 -0.53113,-4.05756 -0.31294,-3.1412 -0.23085,-6.29371 -0.22056,-9.44731 0.0255,-1.6709 0.0462,-3.34464 0.14575,-5.01212 -0.0654,-0.63226 -0.0271,-1.27412 -0.074,-1.90787 -0.0512,-2.42746 -0.11437,-4.85482 -0.1231,-7.28302 -0.008,-6.4984 0.0614,-13.00195 0.57282,-19.48399 0.51465,-5.38717 0.87359,-10.98524 3.19846,-15.96179 0,0 -10.21237,4.6204 -10.21237,4.6204 z" />
      <path
         style="fill:#000000;stroke-width:0.264583"
         id="path26-3-4"
         d="m 92.140396,148.75156 c -2.244693,4.72837 -4.590857,9.40717 -6.987527,14.06069 -2.229019,4.51211 -4.580644,8.96328 -7.065512,13.3395 -0.628502,0.97998 -1.149816,2.02041 -1.672815,3.05832 0,0 10.159907,-4.60362 10.159907,-4.60362 v 0 c 0.477523,-0.99232 0.980808,-1.97122 1.515136,-2.93447 2.318256,-4.38584 4.580697,-8.80127 6.784266,-13.24591 2.444938,-4.78909 4.816306,-9.62151 7.478919,-14.29491 0,0 -10.212374,4.6204 -10.212374,4.6204 z" />
      <path
         style="fill:#000000;stroke-width:0.264583"
         id="path28-65-8"
         d="m 101.92217,155.33722 c 5.28796,2.52566 9.7576,6.8257 13.95029,10.85517 2.09684,1.91501 3.87681,4.10934 5.70419,6.26724 0,0 9.51591,-5.76923 9.51591,-5.76923 v 0 c -2.01657,-2.06328 -3.90989,-4.24874 -6.13437,-6.10448 -3.99849,-3.67709 -8.05335,-7.41695 -12.43386,-10.64217 -0.42373,-0.31198 -0.88869,-0.56371 -1.33303,-0.84556 0,0 -9.26913,6.23903 -9.26913,6.23903 z" />
      <path
         style="fill:#000000;stroke-width:0.264583"
         id="path30-58-58"
         d="m 94.382877,179.61936 c -2.517653,5.82719 -5.137581,11.61982 -7.765653,17.40086 -3.627435,8.20735 -7.281394,16.40306 -10.921367,24.60519 -0.733134,1.89976 -1.630725,3.72698 -2.473987,5.57829 0,0 10.013328,-4.59917 10.013328,-4.59917 v 0 c 0.730547,-1.80259 1.465123,-3.60387 2.138413,-5.42898 3.353417,-8.22793 6.923167,-16.36335 10.627365,-24.43939 2.747248,-5.95097 5.473204,-11.92575 8.645024,-17.66556 0,0 -10.263123,4.54876 -10.263123,4.54876 z" />
      <path
         style="fill:#000000;stroke-width:0.264583"
         id="path32-1-3"
         d="m 100.49238,187.71917 c 2.51004,2.99894 5.26313,5.79508 7.95319,8.63369 5.38659,5.47977 10.42521,11.28122 15.30536,17.21249 2.60802,3.18 5.00809,6.52046 7.54427,9.75585 0,0 9.316,-5.59338 9.316,-5.59338 v 0 c -2.73845,-3.09167 -5.29242,-6.33747 -7.90235,-9.53744 -4.92173,-5.89716 -9.82879,-11.82422 -15.11645,-17.39886 -2.57171,-2.80316 -5.14982,-5.61949 -7.38747,-8.70169 0,0 -9.71255,5.62934 -9.71255,5.62934 z" />
    </g>
    <g
       inkscape:label="Layer 1"
       id="layer1-7-4-0"
       transform="matrix(0.5737279,0,0,0.67301504,198.49299,135.78969)">
      <ellipse
         style="fill:#000000;stroke-width:0.264583"
         id="path10-7-6"
         cx="105.45536"
         cy="106.58929"
         rx="19.276785"
         ry="20.410715" />
      <path
         style="fill:#000000;stroke-width:0.264583"
         id="path24-1-2"
         d="m 100.45587,131.36465 c -1.70958,5.14519 -1.914066,10.61982 -2.29075,15.98583 -0.415396,6.58239 -0.778367,13.16926 -0.962303,19.76254 -0.06397,2.47955 -0.113549,4.95965 -0.140073,7.43989 -0.03357,0.65724 -5.29e-4,1.31902 -0.05108,1.97525 0.105852,1.61433 0.122415,3.23484 0.147468,4.8527 0.0021,3.19659 -0.07095,6.3824 0.209675,9.56881 0.139358,1.37956 0.288787,2.75762 0.380142,4.14136 0,0 9.951041,-5.19312 9.951041,-5.19312 v 0 c -0.17612,-1.35266 -0.34244,-2.70654 -0.53113,-4.05756 -0.31294,-3.1412 -0.23085,-6.29371 -0.22056,-9.44731 0.0255,-1.6709 0.0462,-3.34464 0.14575,-5.01212 -0.0654,-0.63226 -0.0271,-1.27412 -0.074,-1.90787 -0.0512,-2.42746 -0.11437,-4.85482 -0.1231,-7.28302 -0.008,-6.4984 0.0614,-13.00195 0.57282,-19.48399 0.51465,-5.38717 0.87359,-10.98524 3.19846,-15.96179 0,0 -10.21237,4.6204 -10.21237,4.6204 z" />
      <path
         style="fill:#000000;stroke-width:0.264583"
         id="path26-38-2"
         d="m 92.140396,148.75156 c -2.244693,4.72837 -4.590857,9.40717 -6.987527,14.06069 -2.229019,4.51211 -4.580644,8.96328 -7.065512,13.3395 -0.628502,0.97998 -1.149816,2.02041 -1.672815,3.05832 0,0 10.159907,-4.60362 10.159907,-4.60362 v 0 c 0.477523,-0.99232 0.980808,-1.97122 1.515136,-2.93447 2.318256,-4.38584 4.580697,-8.80127 6.784266,-13.24591 2.444938,-4.78909 4.816306,-9.62151 7.478919,-14.29491 0,0 -10.212374,4.6204 -10.212374,4.6204 z" />
      <path
         style="fill:#000000;stroke-width:0.264583"
         id="path28-4-5"
         d="m 101.92217,155.33722 c 5.28796,2.52566 9.7576,6.8257 13.95029,10.85517 2.09684,1.91501 3.87681,4.10934 5.70419,6.26724 0,0 9.51591,-5.76923 9.51591,-5.76923 v 0 c -2.01657,-2.06328 -3.90989,-4.24874 -6.13437,-6.10448 -3.99849,-3.67709 -8.05335,-7.41695 -12.43386,-10.64217 -0.42373,-0.31198 -0.88869,-0.56371 -1.33303,-0.84556 0,0 -9.26913,6.23903 -9.26913,6.23903 z" />
      <path
         style="fill:#000000;stroke-width:0.264583"
         id="path30-8-2"
         d="m 94.382877,179.61936 c -2.517653,5.82719 -5.137581,11.61982 -7.765653,17.40086 -3.627435,8.20735 -7.281394,16.40306 -10.921367,24.60519 -0.733134,1.89976 -1.630725,3.72698 -2.473987,5.57829 0,0 10.013328,-4.59917 10.013328,-4.59917 v 0 c 0.730547,-1.80259 1.465123,-3.60387 2.138413,-5.42898 3.353417,-8.22793 6.923167,-16.36335 10.627365,-24.43939 2.747248,-5.95097 5.473204,-11.92575 8.645024,-17.66556 0,0 -10.263123,4.54876 -10.263123,4.54876 z" />
      <path
         style="fill:#000000;stroke-width:0.264583"
         id="path32-0-27"
         d="m 100.49238,187.71917 c 2.51004,2.99894 5.26313,5.79508 7.95319,8.63369 5.38659,5.47977 10.42521,11.28122 15.30536,17.21249 2.60802,3.18 5.00809,6.52046 7.54427,9.75585 0,0 9.316,-5.59338 9.316,-5.59338 v 0 c -2.73845,-3.09167 -5.29242,-6.33747 -7.90235,-9.53744 -4.92173,-5.89716 -9.82879,-11.82422 -15.11645,-17.39886 -2.57171,-2.80316 -5.14982,-5.61949 -7.38747,-8.70169 0,0 -9.71255,5.62934 -9.71255,5.62934 z" />
    </g>
    <g
       inkscape:label="Layer 1"
       id="layer1-7-46-1"
       transform="matrix(0.5737279,0,0,0.67301504,-304.54403,130.73145)">
      <ellipse
         style="fill:#000000;stroke-width:0.264583"
         id="path10-0-5"
         cx="105.45536"
         cy="106.58929"
         rx="19.276785"
         ry="20.410715" />
      <path
         style="fill:#000000;stroke-width:0.264583"
         id="path24-3-2"
         d="m 100.45587,131.36465 c -1.70958,5.14519 -1.914066,10.61982 -2.29075,15.98583 -0.415396,6.58239 -0.778367,13.16926 -0.962303,19.76254 -0.06397,2.47955 -0.113549,4.95965 -0.140073,7.43989 -0.03357,0.65724 -5.29e-4,1.31902 -0.05108,1.97525 0.105852,1.61433 0.122415,3.23484 0.147468,4.8527 0.0021,3.19659 -0.07095,6.3824 0.209675,9.56881 0.139358,1.37956 0.288787,2.75762 0.380142,4.14136 0,0 9.951041,-5.19312 9.951041,-5.19312 v 0 c -0.17612,-1.35266 -0.34244,-2.70654 -0.53113,-4.05756 -0.31294,-3.1412 -0.23085,-6.29371 -0.22056,-9.44731 0.0255,-1.6709 0.0462,-3.34464 0.14575,-5.01212 -0.0654,-0.63226 -0.0271,-1.27412 -0.074,-1.90787 -0.0512,-2.42746 -0.11437,-4.85482 -0.1231,-7.28302 -0.008,-6.4984 0.0614,-13.00195 0.57282,-19.48399 0.51465,-5.38717 0.87359,-10.98524 3.19846,-15.96179 0,0 -10.21237,4.6204 -10.21237,4.6204 z" />
      <path
         style="fill:#000000;stroke-width:0.264583"
         id="path26-2-1"
         d="m 92.140396,148.75156 c -2.244693,4.72837 -4.590857,9.40717 -6.987527,14.06069 -2.229019,4.51211 -4.580644,8.96328 -7.065512,13.3395 -0.628502,0.97998 -1.149816,2.02041 -1.672815,3.05832 0,0 10.159907,-4.60362 10.159907,-4.60362 v 0 c 0.477523,-0.99232 0.980808,-1.97122 1.515136,-2.93447 2.318256,-4.38584 4.580697,-8.80127 6.784266,-13.24591 2.444938,-4.78909 4.816306,-9.62151 7.478919,-14.29491 0,0 -10.212374,4.6204 -10.212374,4.6204 z" />
      <path
         style="fill:#000000;stroke-width:0.264583"
         id="path28-69-1"
         d="m 101.92217,155.33722 c 5.28796,2.52566 9.7576,6.8257 13.95029,10.85517 2.09684,1.91501 3.87681,4.10934 5.70419,6.26724 0,0 9.51591,-5.76923 9.51591,-5.76923 v 0 c -2.01657,-2.06328 -3.90989,-4.24874 -6.13437,-6.10448 -3.99849,-3.67709 -8.05335,-7.41695 -12.43386,-10.64217 -0.42373,-0.31198 -0.88869,-0.56371 -1.33303,-0.84556 0,0 -9.26913,6.23903 -9.26913,6.23903 z" />
      <path
         style="fill:#000000;stroke-width:0.264583"
         id="path30-4-0"
         d="m 94.382877,179.61936 c -2.517653,5.82719 -5.137581,11.61982 -7.765653,17.40086 -3.627435,8.20735 -7.281394,16.40306 -10.921367,24.60519 -0.733134,1.89976 -1.630725,3.72698 -2.473987,5.57829 0,0 10.013328,-4.59917 10.013328,-4.59917 v 0 c 0.730547,-1.80259 1.465123,-3.60387 2.138413,-5.42898 3.353417,-8.22793 6.923167,-16.36335 10.627365,-24.43939 2.747248,-5.95097 5.473204,-11.92575 8.645024,-17.66556 0,0 -10.263123,4.54876 -10.263123,4.54876 z" />
      <path
         style="fill:#000000;stroke-width:0.264583"
         id="path32-13-1"
         d="m 100.49238,187.71917 c 2.51004,2.99894 5.26313,5.79508 7.95319,8.63369 5.38659,5.47977 10.42521,11.28122 15.30536,17.21249 2.60802,3.18 5.00809,6.52046 7.54427,9.75585 0,0 9.316,-5.59338 9.316,-5.59338 v 0 c -2.73845,-3.09167 -5.29242,-6.33747 -7.90235,-9.53744 -4.92173,-5.89716 -9.82879,-11.82422 -15.11645,-17.39886 -2.57171,-2.80316 -5.14982,-5.61949 -7.38747,-8.70169 0,0 -9.71255,5.62934 -9.71255,5.62934 z" />
    </g>
    <g
       inkscape:label="Layer 1"
       id="layer1-7-0-7-8"
       transform="matrix(0.5737279,0,0,0.67301504,-250.11546,134.13323)">
      <ellipse
         style="fill:#000000;stroke-width:0.264583"
         id="path10-3-8-7"
         cx="105.45536"
         cy="106.58929"
         rx="19.276785"
         ry="20.410715" />
      <path
         style="fill:#000000;stroke-width:0.264583"
         id="path24-9-8-6"
         d="m 100.45587,131.36465 c -1.70958,5.14519 -1.914066,10.61982 -2.29075,15.98583 -0.415396,6.58239 -0.778367,13.16926 -0.962303,19.76254 -0.06397,2.47955 -0.113549,4.95965 -0.140073,7.43989 -0.03357,0.65724 -5.29e-4,1.31902 -0.05108,1.97525 0.105852,1.61433 0.122415,3.23484 0.147468,4.8527 0.0021,3.19659 -0.07095,6.3824 0.209675,9.56881 0.139358,1.37956 0.288787,2.75762 0.380142,4.14136 0,0 9.951041,-5.19312 9.951041,-5.19312 v 0 c -0.17612,-1.35266 -0.34244,-2.70654 -0.53113,-4.05756 -0.31294,-3.1412 -0.23085,-6.29371 -0.22056,-9.44731 0.0255,-1.6709 0.0462,-3.34464 0.14575,-5.01212 -0.0654,-0.63226 -0.0271,-1.27412 -0.074,-1.90787 -0.0512,-2.42746 -0.11437,-4.85482 -0.1231,-7.28302 -0.008,-6.4984 0.0614,-13.00195 0.57282,-19.48399 0.51465,-5.38717 0.87359,-10.98524 3.19846,-15.96179 0,0 -10.21237,4.6204 -10.21237,4.6204 z" />
      <path
         style="fill:#000000;stroke-width:0.264583"
         id="path26-8-3-0"
         d="m 92.140396,148.75156 c -2.244693,4.72837 -4.590857,9.40717 -6.987527,14.06069 -2.229019,4.51211 -4.580644,8.96328 -7.065512,13.3395 -0.628502,0.97998 -1.149816,2.02041 -1.672815,3.05832 0,0 10.159907,-4.60362 10.159907,-4.60362 v 0 c 0.477523,-0.99232 0.980808,-1.97122 1.515136,-2.93447 2.318256,-4.38584 4.580697,-8.80127 6.784266,-13.24591 2.444938,-4.78909 4.816306,-9.62151 7.478919,-14.29491 0,0 -10.212374,4.6204 -10.212374,4.6204 z" />
      <path
         style="fill:#000000;stroke-width:0.264583"
         id="path28-6-8-0"
         d="m 101.92217,155.33722 c 5.28796,2.52566 9.7576,6.8257 13.95029,10.85517 2.09684,1.91501 3.87681,4.10934 5.70419,6.26724 0,0 9.51591,-5.76923 9.51591,-5.76923 v 0 c -2.01657,-2.06328 -3.90989,-4.24874 -6.13437,-6.10448 -3.99849,-3.67709 -8.05335,-7.41695 -12.43386,-10.64217 -0.42373,-0.31198 -0.88869,-0.56371 -1.33303,-0.84556 0,0 -9.26913,6.23903 -9.26913,6.23903 z" />
      <path
         style="fill:#000000;stroke-width:0.264583"
         id="path30-5-1-9"
         d="m 94.382877,179.61936 c -2.517653,5.82719 -5.137581,11.61982 -7.765653,17.40086 -3.627435,8.20735 -7.281394,16.40306 -10.921367,24.60519 -0.733134,1.89976 -1.630725,3.72698 -2.473987,5.57829 0,0 10.013328,-4.59917 10.013328,-4.59917 v 0 c 0.730547,-1.80259 1.465123,-3.60387 2.138413,-5.42898 3.353417,-8.22793 6.923167,-16.36335 10.627365,-24.43939 2.747248,-5.95097 5.473204,-11.92575 8.645024,-17.66556 0,0 -10.263123,4.54876 -10.263123,4.54876 z" />
      <path
         style="fill:#000000;stroke-width:0.264583"
         id="path32-7-5-5"
         d="m 100.49238,187.71917 c 2.51004,2.99894 5.26313,5.79508 7.95319,8.63369 5.38659,5.47977 10.42521,11.28122 15.30536,17.21249 2.60802,3.18 5.00809,6.52046 7.54427,9.75585 0,0 9.316,-5.59338 9.316,-5.59338 v 0 c -2.73845,-3.09167 -5.29242,-6.33747 -7.90235,-9.53744 -4.92173,-5.89716 -9.82879,-11.82422 -15.11645,-17.39886 -2.57171,-2.80316 -5.14982,-5.61949 -7.38747,-8.70169 0,0 -9.71255,5.62934 -9.71255,5.62934 z" />
    </g>
    <g
       inkscape:label="Layer 1"
       id="layer1-7-6-3-6"
       transform="matrix(0.5737279,0,0,0.67301504,-191.15117,131.10942)">
      <ellipse
         style="fill:#000000;stroke-width:0.264583"
         id="path10-2-5-2"
         cx="105.45536"
         cy="106.58929"
         rx="19.276785"
         ry="20.410715" />
      <path
         style="fill:#000000;stroke-width:0.264583"
         id="path24-7-4-8"
         d="m 100.45587,131.36465 c -1.70958,5.14519 -1.914066,10.61982 -2.29075,15.98583 -0.415396,6.58239 -0.778367,13.16926 -0.962303,19.76254 -0.06397,2.47955 -0.113549,4.95965 -0.140073,7.43989 -0.03357,0.65724 -5.29e-4,1.31902 -0.05108,1.97525 0.105852,1.61433 0.122415,3.23484 0.147468,4.8527 0.0021,3.19659 -0.07095,6.3824 0.209675,9.56881 0.139358,1.37956 0.288787,2.75762 0.380142,4.14136 0,0 9.951041,-5.19312 9.951041,-5.19312 v 0 c -0.17612,-1.35266 -0.34244,-2.70654 -0.53113,-4.05756 -0.31294,-3.1412 -0.23085,-6.29371 -0.22056,-9.44731 0.0255,-1.6709 0.0462,-3.34464 0.14575,-5.01212 -0.0654,-0.63226 -0.0271,-1.27412 -0.074,-1.90787 -0.0512,-2.42746 -0.11437,-4.85482 -0.1231,-7.28302 -0.008,-6.4984 0.0614,-13.00195 0.57282,-19.48399 0.51465,-5.38717 0.87359,-10.98524 3.19846,-15.96179 0,0 -10.21237,4.6204 -10.21237,4.6204 z" />
      <path
         style="fill:#000000;stroke-width:0.264583"
         id="path26-0-3-5"
         d="m 92.140396,148.75156 c -2.244693,4.72837 -4.590857,9.40717 -6.987527,14.06069 -2.229019,4.51211 -4.580644,8.96328 -7.065512,13.3395 -0.628502,0.97998 -1.149816,2.02041 -1.672815,3.05832 0,0 10.159907,-4.60362 10.159907,-4.60362 v 0 c 0.477523,-0.99232 0.980808,-1.97122 1.515136,-2.93447 2.318256,-4.38584 4.580697,-8.80127 6.784266,-13.24591 2.444938,-4.78909 4.816306,-9.62151 7.478919,-14.29491 0,0 -10.212374,4.6204 -10.212374,4.6204 z" />
      <path
         style="fill:#000000;stroke-width:0.264583"
         id="path28-3-6-9"
         d="m 101.92217,155.33722 c 5.28796,2.52566 9.7576,6.8257 13.95029,10.85517 2.09684,1.91501 3.87681,4.10934 5.70419,6.26724 0,0 9.51591,-5.76923 9.51591,-5.76923 v 0 c -2.01657,-2.06328 -3.90989,-4.24874 -6.13437,-6.10448 -3.99849,-3.67709 -8.05335,-7.41695 -12.43386,-10.64217 -0.42373,-0.31198 -0.88869,-0.56371 -1.33303,-0.84556 0,0 -9.26913,6.23903 -9.26913,6.23903 z" />
      <path
         style="fill:#000000;stroke-width:0.264583"
         id="path30-9-5-4"
         d="m 94.382877,179.61936 c -2.517653,5.82719 -5.137581,11.61982 -7.765653,17.40086 -3.627435,8.20735 -7.281394,16.40306 -10.921367,24.60519 -0.733134,1.89976 -1.630725,3.72698 -2.473987,5.57829 0,0 10.013328,-4.59917 10.013328,-4.59917 v 0 c 0.730547,-1.80259 1.465123,-3.60387 2.138413,-5.42898 3.353417,-8.22793 6.923167,-16.36335 10.627365,-24.43939 2.747248,-5.95097 5.473204,-11.92575 8.645024,-17.66556 0,0 -10.263123,4.54876 -10.263123,4.54876 z" />
      <path
         style="fill:#000000;stroke-width:0.264583"
         id="path32-9-9-3"
         d="m 100.49238,187.71917 c 2.51004,2.99894 5.26313,5.79508 7.95319,8.63369 5.38659,5.47977 10.42521,11.28122 15.30536,17.21249 2.60802,3.18 5.00809,6.52046 7.54427,9.75585 0,0 9.316,-5.59338 9.316,-5.59338 v 0 c -2.73845,-3.09167 -5.29242,-6.33747 -7.90235,-9.53744 -4.92173,-5.89716 -9.82879,-11.82422 -15.11645,-17.39886 -2.57171,-2.80316 -5.14982,-5.61949 -7.38747,-8.70169 0,0 -9.71255,5.62934 -9.71255,5.62934 z" />
    </g>
    <g
       inkscape:label="Layer 1"
       id="layer1-7-9-5-9"
       transform="matrix(0.5737279,0,0,0.67301504,-135.96665,133.37728)">
      <ellipse
         style="fill:#000000;stroke-width:0.264583"
         id="path10-1-4-0"
         cx="105.45536"
         cy="106.58929"
         rx="19.276785"
         ry="20.410715" />
      <path
         style="fill:#000000;stroke-width:0.264583"
         id="path24-72-9-5"
         d="m 100.45587,131.36465 c -1.70958,5.14519 -1.914066,10.61982 -2.29075,15.98583 -0.415396,6.58239 -0.778367,13.16926 -0.962303,19.76254 -0.06397,2.47955 -0.113549,4.95965 -0.140073,7.43989 -0.03357,0.65724 -5.29e-4,1.31902 -0.05108,1.97525 0.105852,1.61433 0.122415,3.23484 0.147468,4.8527 0.0021,3.19659 -0.07095,6.3824 0.209675,9.56881 0.139358,1.37956 0.288787,2.75762 0.380142,4.14136 0,0 9.951041,-5.19312 9.951041,-5.19312 v 0 c -0.17612,-1.35266 -0.34244,-2.70654 -0.53113,-4.05756 -0.31294,-3.1412 -0.23085,-6.29371 -0.22056,-9.44731 0.0255,-1.6709 0.0462,-3.34464 0.14575,-5.01212 -0.0654,-0.63226 -0.0271,-1.27412 -0.074,-1.90787 -0.0512,-2.42746 -0.11437,-4.85482 -0.1231,-7.28302 -0.008,-6.4984 0.0614,-13.00195 0.57282,-19.48399 0.51465,-5.38717 0.87359,-10.98524 3.19846,-15.96179 0,0 -10.21237,4.6204 -10.21237,4.6204 z" />
      <path
         style="fill:#000000;stroke-width:0.264583"
         id="path26-3-1-6"
         d="m 92.140396,148.75156 c -2.244693,4.72837 -4.590857,9.40717 -6.987527,14.06069 -2.229019,4.51211 -4.580644,8.96328 -7.065512,13.3395 -0.628502,0.97998 -1.149816,2.02041 -1.672815,3.05832 0,0 10.159907,-4.60362 10.159907,-4.60362 v 0 c 0.477523,-0.99232 0.980808,-1.97122 1.515136,-2.93447 2.318256,-4.38584 4.580697,-8.80127 6.784266,-13.24591 2.444938,-4.78909 4.816306,-9.62151 7.478919,-14.29491 0,0 -10.212374,4.6204 -10.212374,4.6204 z" />
      <path
         style="fill:#000000;stroke-width:0.264583"
         id="path28-65-7-3"
         d="m 101.92217,155.33722 c 5.28796,2.52566 9.7576,6.8257 13.95029,10.85517 2.09684,1.91501 3.87681,4.10934 5.70419,6.26724 0,0 9.51591,-5.76923 9.51591,-5.76923 v 0 c -2.01657,-2.06328 -3.90989,-4.24874 -6.13437,-6.10448 -3.99849,-3.67709 -8.05335,-7.41695 -12.43386,-10.64217 -0.42373,-0.31198 -0.88869,-0.56371 -1.33303,-0.84556 0,0 -9.26913,6.23903 -9.26913,6.23903 z" />
      <path
         style="fill:#000000;stroke-width:0.264583"
         id="path30-58-5-6"
         d="m 94.382877,179.61936 c -2.517653,5.82719 -5.137581,11.61982 -7.765653,17.40086 -3.627435,8.20735 -7.281394,16.40306 -10.921367,24.60519 -0.733134,1.89976 -1.630725,3.72698 -2.473987,5.57829 0,0 10.013328,-4.59917 10.013328,-4.59917 v 0 c 0.730547,-1.80259 1.465123,-3.60387 2.138413,-5.42898 3.353417,-8.22793 6.923167,-16.36335 10.627365,-24.43939 2.747248,-5.95097 5.473204,-11.92575 8.645024,-17.66556 0,0 -10.263123,4.54876 -10.263123,4.54876 z" />
      <path
         style="fill:#000000;stroke-width:0.264583"
         id="path32-1-5-3"
         d="m 100.49238,187.71917 c 2.51004,2.99894 5.26313,5.79508 7.95319,8.63369 5.38659,5.47977 10.42521,11.28122 15.30536,17.21249 2.60802,3.18 5.00809,6.52046 7.54427,9.75585 0,0 9.316,-5.59338 9.316,-5.59338 v 0 c -2.73845,-3.09167 -5.29242,-6.33747 -7.90235,-9.53744 -4.92173,-5.89716 -9.82879,-11.82422 -15.11645,-17.39886 -2.57171,-2.80316 -5.14982,-5.61949 -7.38747,-8.70169 0,0 -9.71255,5.62934 -9.71255,5.62934 z" />
    </g>
    <g
       inkscape:label="Layer 1"
       id="layer1-7-4-4-0"
       transform="matrix(0.5737279,0,0,0.67301504,-82.184471,133.80344)">
      <ellipse
         style="fill:#000000;stroke-width:0.264583"
         id="path10-7-1-8"
         cx="105.45536"
         cy="106.58929"
         rx="19.276785"
         ry="20.410715" />
      <path
         style="fill:#000000;stroke-width:0.264583"
         id="path24-1-8-4"
         d="m 100.45587,131.36465 c -1.70958,5.14519 -1.914066,10.61982 -2.29075,15.98583 -0.415396,6.58239 -0.778367,13.16926 -0.962303,19.76254 -0.06397,2.47955 -0.113549,4.95965 -0.140073,7.43989 -0.03357,0.65724 -5.29e-4,1.31902 -0.05108,1.97525 0.105852,1.61433 0.122415,3.23484 0.147468,4.8527 0.0021,3.19659 -0.07095,6.3824 0.209675,9.56881 0.139358,1.37956 0.288787,2.75762 0.380142,4.14136 0,0 9.951041,-5.19312 9.951041,-5.19312 v 0 c -0.17612,-1.35266 -0.34244,-2.70654 -0.53113,-4.05756 -0.31294,-3.1412 -0.23085,-6.29371 -0.22056,-9.44731 0.0255,-1.6709 0.0462,-3.34464 0.14575,-5.01212 -0.0654,-0.63226 -0.0271,-1.27412 -0.074,-1.90787 -0.0512,-2.42746 -0.11437,-4.85482 -0.1231,-7.28302 -0.008,-6.4984 0.0614,-13.00195 0.57282,-19.48399 0.51465,-5.38717 0.87359,-10.98524 3.19846,-15.96179 0,0 -10.21237,4.6204 -10.21237,4.6204 z" />
      <path
         style="fill:#000000;stroke-width:0.264583"
         id="path26-38-8-0"
         d="m 92.140396,148.75156 c -2.244693,4.72837 -4.590857,9.40717 -6.987527,14.06069 -2.229019,4.51211 -4.580644,8.96328 -7.065512,13.3395 -0.628502,0.97998 -1.149816,2.02041 -1.672815,3.05832 0,0 10.159907,-4.60362 10.159907,-4.60362 v 0 c 0.477523,-0.99232 0.980808,-1.97122 1.515136,-2.93447 2.318256,-4.38584 4.580697,-8.80127 6.784266,-13.24591 2.444938,-4.78909 4.816306,-9.62151 7.478919,-14.29491 0,0 -10.212374,4.6204 -10.212374,4.6204 z" />
      <path
         style="fill:#000000;stroke-width:0.264583"
         id="path28-4-3-4"
         d="m 101.92217,155.33722 c 5.28796,2.52566 9.7576,6.8257 13.95029,10.85517 2.09684,1.91501 3.87681,4.10934 5.70419,6.26724 0,0 9.51591,-5.76923 9.51591,-5.76923 v 0 c -2.01657,-2.06328 -3.90989,-4.24874 -6.13437,-6.10448 -3.99849,-3.67709 -8.05335,-7.41695 -12.43386,-10.64217 -0.42373,-0.31198 -0.88869,-0.56371 -1.33303,-0.84556 0,0 -9.26913,6.23903 -9.26913,6.23903 z" />
      <path
         style="fill:#000000;stroke-width:0.264583"
         id="path30-8-5-6"
         d="m 94.382877,179.61936 c -2.517653,5.82719 -5.137581,11.61982 -7.765653,17.40086 -3.627435,8.20735 -7.281394,16.40306 -10.921367,24.60519 -0.733134,1.89976 -1.630725,3.72698 -2.473987,5.57829 0,0 10.013328,-4.59917 10.013328,-4.59917 v 0 c 0.730547,-1.80259 1.465123,-3.60387 2.138413,-5.42898 3.353417,-8.22793 6.923167,-16.36335 10.627365,-24.43939 2.747248,-5.95097 5.473204,-11.92575 8.645024,-17.66556 0,0 -10.263123,4.54876 -10.263123,4.54876 z" />
      <path
         style="fill:#000000;stroke-width:0.264583"
         id="path32-0-2-4"
         d="m 100.49238,187.71917 c 2.51004,2.99894 5.26313,5.79508 7.95319,8.63369 5.38659,5.47977 10.42521,11.28122 15.30536,17.21249 2.60802,3.18 5.00809,6.52046 7.54427,9.75585 0,0 9.316,-5.59338 9.316,-5.59338 v 0 c -2.73845,-3.09167 -5.29242,-6.33747 -7.90235,-9.53744 -4.92173,-5.89716 -9.82879,-11.82422 -15.11645,-17.39886 -2.57171,-2.80316 -5.14982,-5.61949 -7.38747,-8.70169 0,0 -9.71255,5.62934 -9.71255,5.62934 z" />
    </g>
    <path
       style="fill:#0000ff;stroke-width:0.128914"
       id="path613"
       sodipodi:type="arc"
       sodipodi:cx="-177.11333"
       sodipodi:cy="192.08707"
       sodipodi:rx="10.918899"
       sodipodi:ry="24.942432"
       sodipodi:start="0"
       sodipodi:end="3.1591124"
       sodipodi:open="true"
       sodipodi:arc-type="arc"
       d="m -166.19443,192.08707 a 10.918899,24.942432 0 0 1 -5.51476,21.67324 10.918899,24.942432 0 0 1 -10.97366,-0.21959 10.918899,24.942432 0 0 1 -5.3477,-21.89062"
       transform="matrix(0.96103077,0.27644141,-0.26388771,0.96455341,0,0)" />
    <path
       style="fill:#ffff00;stroke-width:0.126554"
       id="path613-8"
       sodipodi:type="arc"
       sodipodi:cx="-167.40846"
       sodipodi:cy="-197.54076"
       sodipodi:rx="10.948407"
       sodipodi:ry="23.97304"
       sodipodi:start="0"
       sodipodi:end="3.1591124"
       sodipodi:open="true"
       sodipodi:arc-type="arc"
       d="m -156.46006,-197.54076 a 10.948407,23.97304 0 0 1 -5.52966,20.83091 10.948407,23.97304 0 0 1 -11.00331,-0.21106 10.948407,23.97304 0 0 1 -5.36216,-21.03983"
       transform="matrix(0.95014812,0.31179889,0.31176331,-0.9501598,0,0)" />
    <path
       style="fill:#0000ff;stroke-width:0.128914"
       id="path613-2"
       sodipodi:type="arc"
       sodipodi:cx="-67.619934"
       sodipodi:cy="161.50652"
       sodipodi:rx="10.918899"
       sodipodi:ry="24.942434"
       sodipodi:start="0"
       sodipodi:end="3.1591124"
       sodipodi:open="true"
       sodipodi:arc-type="arc"
       d="m -56.701035,161.50652 a 10.918899,24.942434 0 0 1 -5.514765,21.67324 10.918899,24.942434 0 0 1 -10.973653,-0.21959 10.918899,24.942434 0 0 1 -5.347704,-21.89062"
       transform="matrix(0.96103078,0.2764414,-0.26388771,0.96455341,0,0)" />
    <path
       style="fill:#ffff00;stroke-width:0.126554"
       id="path613-8-0"
       sodipodi:type="arc"
       sodipodi:cx="-59.518158"
       sodipodi:cy="-162.94852"
       sodipodi:rx="10.948407"
       sodipodi:ry="23.97304"
       sodipodi:start="0"
       sodipodi:end="3.1591124"
       sodipodi:open="true"
       sodipodi:arc-type="arc"
       d="m -48.569751,-162.94852 a 10.948407,23.97304 0 0 1 -5.529668,20.83091 10.948407,23.97304 0 0 1 -11.00331,-0.21106 10.948407,23.97304 0 0 1 -5.362156,-21.03983"
       transform="matrix(0.95014812,0.31179889,0.31176331,-0.9501598,0,0)" />
    <path
       style="fill:#0000ff;stroke-width:0.128914"
       id="path613-4"
       sodipodi:type="arc"
       sodipodi:cx="38.204185"
       sodipodi:cy="133.97031"
       sodipodi:rx="10.918899"
       sodipodi:ry="24.942434"
       sodipodi:start="0"
       sodipodi:end="3.1591124"
       sodipodi:open="true"
       sodipodi:arc-type="arc"
       d="m 49.123084,133.97031 a 10.918899,24.942434 0 0 1 -5.514765,21.67324 10.918899,24.942434 0 0 1 -10.973653,-0.21959 10.918899,24.942434 0 0 1 -5.347703,-21.89062"
       transform="matrix(0.96103078,0.2764414,-0.26388771,0.96455341,0,0)" />
    <path
       style="fill:#ffff00;stroke-width:0.126554"
       id="path613-8-4"
       sodipodi:type="arc"
       sodipodi:cx="44.857513"
       sodipodi:cy="-131.53255"
       sodipodi:rx="10.948407"
       sodipodi:ry="23.97304"
       sodipodi:start="0"
       sodipodi:end="3.1591124"
       sodipodi:open="true"
       sodipodi:arc-type="arc"
       d="m 55.805921,-131.53255 a 10.948407,23.97304 0 0 1 -5.529669,20.83091 10.948407,23.97304 0 0 1 -11.00331,-0.21106 10.948407,23.97304 0 0 1 -5.362156,-21.03983"
       transform="matrix(0.95014812,0.31179889,0.31176331,-0.9501598,0,0)" />
    <path
       style="fill:#0000ff;stroke-width:0.128914"
       id="path613-5"
       sodipodi:type="arc"
       sodipodi:cx="-146.18607"
       sodipodi:cy="297.71484"
       sodipodi:rx="10.918899"
       sodipodi:ry="24.942434"
       sodipodi:start="0"
       sodipodi:end="3.1591124"
       sodipodi:open="true"
       sodipodi:arc-type="arc"
       d="m -135.26717,297.71484 a 10.918899,24.942434 0 0 1 -5.51476,21.67325 10.918899,24.942434 0 0 1 -10.97366,-0.2196 10.918899,24.942434 0 0 1 -5.3477,-21.89061"
       transform="matrix(0.96103078,0.2764414,-0.26388771,0.96455341,0,0)" />
    <path
       style="fill:#ffff00;stroke-width:0.126554"
       id="path613-8-9"
       sodipodi:type="arc"
       sodipodi:cx="-131.22337"
       sodipodi:cy="-301.8924"
       sodipodi:rx="10.948407"
       sodipodi:ry="23.97304"
       sodipodi:start="0"
       sodipodi:end="3.1591124"
       sodipodi:open="true"
       sodipodi:arc-type="arc"
       d="m -120.27497,-301.8924 a 10.948407,23.97304 0 0 1 -5.52966,20.83091 10.948407,23.97304 0 0 1 -11.00331,-0.21106 10.948407,23.97304 0 0 1 -5.36216,-21.03983"
       transform="matrix(0.95014812,0.31179889,0.31176331,-0.9501598,0,0)" />
    <path
       style="fill:#0000ff;stroke-width:0.128914"
       id="path613-7"
       sodipodi:type="arc"
       sodipodi:cx="-36.703552"
       sodipodi:cy="266.729"
       sodipodi:rx="10.918899"
       sodipodi:ry="24.942434"
       sodipodi:start="0"
       sodipodi:end="3.1591124"
       sodipodi:open="true"
       sodipodi:arc-type="arc"
       d="m -25.784654,266.729 a 10.918899,24.942434 0 0 1 -5.514764,21.67325 10.918899,24.942434 0 0 1 -10.973654,-0.2196 10.918899,24.942434 0 0 1 -5.347703,-21.89061"
       transform="matrix(0.96103078,0.2764414,-0.26388771,0.96455341,0,0)" />
    <path
       style="fill:#ffff00;stroke-width:0.126554"
       id="path613-8-5"
       sodipodi:type="arc"
       sodipodi:cx="-23.364206"
       sodipodi:cy="-266.89578"
       sodipodi:rx="10.948407"
       sodipodi:ry="23.97304"
       sodipodi:start="0"
       sodipodi:end="3.1591124"
       sodipodi:open="true"
       sodipodi:arc-type="arc"
       d="m -12.415799,-266.89578 a 10.948407,23.97304 0 0 1 -5.529668,20.8309 10.948407,23.97304 0 0 1 -11.00331,-0.21105 10.948407,23.97304 0 0 1 -5.362156,-21.03983"
       transform="matrix(0.95014812,0.31179889,0.31176331,-0.9501598,0,0)" />
    <path
       style="fill:#0000ff;stroke-width:0.128914"
       id="path613-3"
       sodipodi:type="arc"
       sodipodi:cx="69.109688"
       sodipodi:cy="238.78746"
       sodipodi:rx="10.918899"
       sodipodi:ry="24.942434"
       sodipodi:start="0"
       sodipodi:end="3.1591124"
       sodipodi:open="true"
       sodipodi:arc-type="arc"
       d="M 80.028586,238.78746 A 10.918899,24.942434 0 0 1 74.513822,260.4607 10.918899,24.942434 0 0 1 63.540168,260.24111 10.918899,24.942434 0 0 1 58.192465,238.3505"
       transform="matrix(0.96103078,0.2764414,-0.26388771,0.96455341,0,0)" />
    <path
       style="fill:#ffff00;stroke-width:0.126554"
       id="path613-8-90"
       sodipodi:type="arc"
       sodipodi:cx="80.980362"
       sodipodi:cy="-235.07536"
       sodipodi:rx="10.948407"
       sodipodi:ry="23.97304"
       sodipodi:start="0"
       sodipodi:end="3.1591124"
       sodipodi:open="true"
       sodipodi:arc-type="arc"
       d="m 91.928769,-235.07536 a 10.948407,23.97304 0 0 1 -5.529668,20.8309 10.948407,23.97304 0 0 1 -11.00331,-0.21106 10.948407,23.97304 0 0 1 -5.362156,-21.03982"
       transform="matrix(0.95014812,0.31179889,0.31176331,-0.9501598,0,0)" />
    <path
       style="fill:#0000ff;stroke-width:0.128914"
       id="path613-55"
       sodipodi:type="arc"
       sodipodi:cx="178.48016"
       sodipodi:cy="209.84299"
       sodipodi:rx="10.918899"
       sodipodi:ry="24.942434"
       sodipodi:start="0"
       sodipodi:end="3.1591124"
       sodipodi:open="true"
       sodipodi:arc-type="arc"
       d="m 189.39906,209.84299 a 10.918899,24.942434 0 0 1 -5.51476,21.67324 10.918899,24.942434 0 0 1 -10.97366,-0.21959 10.918899,24.942434 0 0 1 -5.3477,-21.89062"
       transform="matrix(0.96103078,0.2764414,-0.26388771,0.96455341,0,0)" />
    <path
       style="fill:#ffff00;stroke-width:0.126554"
       id="path613-8-6"
       sodipodi:type="arc"
       sodipodi:cx="188.82959"
       sodipodi:cy="-202.12172"
       sodipodi:rx="10.948407"
       sodipodi:ry="23.97304"
       sodipodi:start="0"
       sodipodi:end="3.1591124"
       sodipodi:open="true"
       sodipodi:arc-type="arc"
       d="m 199.778,-202.12172 a 10.948407,23.97304 0 0 1 -5.52967,20.83091 10.948407,23.97304 0 0 1 -11.00331,-0.21106 10.948407,23.97304 0 0 1 -5.36216,-21.03983"
       transform="matrix(0.95014812,0.31179889,0.31176331,-0.9501598,0,0)" />
    <path
       style="fill:#0000ff;stroke-width:0.128914"
       id="path613-32"
       sodipodi:type="arc"
       sodipodi:cx="147.56378"
       sodipodi:cy="104.62051"
       sodipodi:rx="10.918899"
       sodipodi:ry="24.942434"
       sodipodi:start="0"
       sodipodi:end="3.1591124"
       sodipodi:open="true"
       sodipodi:arc-type="arc"
       d="m 158.48268,104.62051 a 10.918899,24.942434 0 0 1 -5.51476,21.67324 10.918899,24.942434 0 0 1 -10.97366,-0.21959 10.918899,24.942434 0 0 1 -5.3477,-21.89062"
       transform="matrix(0.96103078,0.2764414,-0.26388771,0.96455341,0,0)" />
    <path
       style="fill:#ffff00;stroke-width:0.126554"
       id="path613-8-68"
       sodipodi:type="arc"
       sodipodi:cx="152.67563"
       sodipodi:cy="-98.174484"
       sodipodi:rx="10.948407"
       sodipodi:ry="23.97304"
       sodipodi:start="0"
       sodipodi:end="3.1591124"
       sodipodi:open="true"
       sodipodi:arc-type="arc"
       d="m 163.62404,-98.174484 a 10.948407,23.97304 0 0 1 -5.52967,20.830907 10.948407,23.97304 0 0 1 -11.00331,-0.211059 10.948407,23.97304 0 0 1 -5.36216,-21.039828"
       transform="matrix(0.95014812,0.31179889,0.31176331,-0.9501598,0,0)" />
    <path
       style="fill:#0000ff;stroke-width:0.128914"
       id="path613-9"
       sodipodi:type="arc"
       sodipodi:cx="257.48712"
       sodipodi:cy="72.74115"
       sodipodi:rx="10.918899"
       sodipodi:ry="24.942434"
       sodipodi:start="0"
       sodipodi:end="3.1591124"
       sodipodi:open="true"
       sodipodi:arc-type="arc"
       d="M 268.40602,72.74115 A 10.918899,24.942434 0 0 1 262.89126,94.414394 10.918899,24.942434 0 0 1 251.9176,94.1948 10.918899,24.942434 0 0 1 246.5699,72.304187"
       transform="matrix(0.96103078,0.2764414,-0.26388771,0.96455341,0,0)" />
    <path
       style="fill:#ffff00;stroke-width:0.126554"
       id="path613-8-1"
       sodipodi:type="arc"
       sodipodi:cx="260.93066"
       sodipodi:cy="-62.269161"
       sodipodi:rx="10.948407"
       sodipodi:ry="23.97304"
       sodipodi:start="0"
       sodipodi:end="3.1591124"
       sodipodi:open="true"
       sodipodi:arc-type="arc"
       d="m 271.87907,-62.269161 a 10.948407,23.97304 0 0 1 -5.52967,20.830907 10.948407,23.97304 0 0 1 -11.00331,-0.211059 10.948407,23.97304 0 0 1 -5.36215,-21.039828"
       transform="matrix(0.95014812,0.31179889,0.31176331,-0.9501598,0,0)" />
    <path
       style="fill:#0000ff;stroke-width:0.128914"
       id="path613-55-9"
       sodipodi:type="arc"
       sodipodi:cx="288.4035"
       sodipodi:cy="177.96364"
       sodipodi:rx="10.918899"
       sodipodi:ry="24.942434"
       sodipodi:start="0"
       sodipodi:end="3.1591124"
       sodipodi:open="true"
       sodipodi:arc-type="arc"
       d="m 299.3224,177.96364 a 10.918899,24.942434 0 0 1 -5.51476,21.67324 10.918899,24.942434 0 0 1 -10.97366,-0.21959 10.918899,24.942434 0 0 1 -5.3477,-21.89061"
       transform="matrix(0.96103078,0.2764414,-0.26388771,0.96455341,0,0)" />
    <path
       style="fill:#ffff00;stroke-width:0.126554"
       id="path613-8-6-3"
       sodipodi:type="arc"
       sodipodi:cx="297.08463"
       sodipodi:cy="-166.2164"
       sodipodi:rx="10.948407"
       sodipodi:ry="23.97304"
       sodipodi:start="0"
       sodipodi:end="3.1591124"
       sodipodi:open="true"
       sodipodi:arc-type="arc"
       d="m 308.03303,-166.2164 a 10.948407,23.97304 0 0 1 -5.52967,20.83091 10.948407,23.97304 0 0 1 -11.00331,-0.21106 10.948407,23.97304 0 0 1 -5.36215,-21.03983"
       transform="matrix(0.95014812,0.31179889,0.31176331,-0.9501598,0,0)" />
    <path
       style="fill:#000000;stroke-width:0.264583"
       id="path1353"
       d="m 279.88391,183.27042 c 7.4549,-0.25082 14.91731,-0.22517 22.37576,-0.23624 7.06242,2.7e-4 14.12459,0.0398 21.18638,0.13347 2.78376,0.0288 5.56736,0.0722 8.35117,0.0952 3.41228,-0.11408 6.80215,0.11338 10.19397,0.47403 6.06767,0.63051 12.14774,1.12683 18.23432,1.53211 1.9285,0.11137 3.85675,0.26936 5.78892,0.30102 0.79584,0.012 1.59195,0.009 2.38782,8e-4 0.11707,1.4e-4 0.23413,2.6e-4 0.35118,5.3e-4 0,0 9.10979,-6.6235 9.10979,-6.6235 v 0 c -0.11909,10e-4 -0.23818,0.002 -0.35727,0.003 -0.80264,-0.002 -1.60531,0.01 -2.40781,0.0243 -2.01706,0.0197 -4.03413,0.0275 -6.05052,-0.0473 -6.1172,-0.21727 -12.23296,-0.59393 -18.30539,-1.38973 -3.29501,-0.44421 -6.59852,-0.953 -9.93378,-0.82198 -2.87112,0.0231 -5.74201,0.0663 -8.61308,0.0952 -7.18429,0.0919 -14.36894,0.13329 -21.55381,0.13347 -7.24154,-0.0108 -14.48784,0.0221 -21.72544,-0.23624 0,0 -9.03221,6.56228 -9.03221,6.56228 z" />
    <path
       style="fill:#000000;stroke-width:0.264583"
       id="path1355"
       d="m 346.50599,163.60995 c 0.90376,0.0641 1.81552,0.0563 2.71127,0.19232 11.26085,1.71009 21.57894,6.723 31.7247,11.6307 9.16718,4.53222 18.13227,9.4494 26.93355,14.65287 -1.45166,-0.93635 2.00292,1.01411 1.43415,1.33523 -0.31274,0.17656 -1.36131,0.26035 -1.07659,0.0415 1.95403,-1.50234 5.52281,-1.633 6.22117,-3.99681 0.59508,-2.01409 -3.83992,1.70329 -5.78069,2.50587 -2.47888,1.02512 -4.98449,1.98442 -7.47673,2.97663 -13.81919,5.34586 -27.99829,9.66528 -42.09076,14.21509 -1.04352,0.33408 -2.08704,0.66816 -3.13053,1.00224 0,0 -8.37506,6.5083 -8.37506,6.5083 v 0 c 1.11228,-0.38763 2.22456,-0.77525 3.33684,-1.16288 14.20892,-4.91104 28.5491,-9.43594 42.66793,-14.60544 0.0993,-0.0375 11.46781,-4.29402 12.54106,-4.83631 4.20225,-2.12325 8.40327,-4.28397 12.36173,-6.83301 0.42132,-0.2713 0.49848,-0.92846 0.468,-1.42866 -0.0468,-0.76877 -1.77544,-1.46164 -2.0668,-1.62282 -9.3278,-4.63343 -18.56491,-9.44646 -27.89414,-14.07734 -10.7719,-5.24308 -21.66962,-10.63141 -33.4926,-13.04829 0,0 -9.0165,6.55086 -9.0165,6.55086 z" />
  </g>
</svg>
