<?xml version="1.0" encoding="UTF-8" standalone="no"?>
<svg
   xmlns:dc="http://purl.org/dc/elements/1.1/"
   xmlns:cc="http://creativecommons.org/ns#"
   xmlns:rdf="http://www.w3.org/1999/02/22-rdf-syntax-ns#"
   xmlns:svg="http://www.w3.org/2000/svg"
   xmlns="http://www.w3.org/2000/svg"
   xmlns:sodipodi="http://sodipodi.sourceforge.net/DTD/sodipodi-0.dtd"
   xmlns:inkscape="http://www.inkscape.org/namespaces/inkscape"
   width="543.64484mm"
   height="210.33932mm"
   viewBox="0 0 543.64484 210.33932"
   version="1.1"
   id="svg76"
   sodipodi:docname="cohort_randomized.svg"
   inkscape:version="1.0.1 (c497b03c, 2020-09-10)">
  <defs
     id="defs70" />
  <sodipodi:namedview
     id="base"
     pagecolor="#ffffff"
     bordercolor="#666666"
     borderopacity="1.0"
     inkscape:pageopacity="0.0"
     inkscape:pageshadow="2"
     inkscape:zoom="0.35"
     inkscape:cx="1399.6067"
     inkscape:cy="262.58269"
     inkscape:document-units="mm"
     inkscape:current-layer="layer1"
     inkscape:document-rotation="0"
     showgrid="false"
     inkscape:window-width="1252"
     inkscape:window-height="806"
     inkscape:window-x="113"
     inkscape:window-y="45"
     inkscape:window-maximized="0" />
  <metadata
     id="metadata73">
    <rdf:RDF>
      <cc:Work
         rdf:about="">
        <dc:format>image/svg+xml</dc:format>
        <dc:type
           rdf:resource="http://purl.org/dc/dcmitype/StillImage" />
        <dc:title></dc:title>
      </cc:Work>
    </rdf:RDF>
  </metadata>
  <g
     inkscape:label="Layer 1"
     inkscape:groupmode="layer"
     id="layer1"
     transform="translate(264.47928,-78.691663)">
    <g
       inkscape:label="Layer 1"
       id="layer1-7"
       transform="matrix(0.57372791,0,0,0.67301504,-25.811243,22.678438)"
       style="fill:#000080">
      <ellipse
         style="fill:#000080;stroke-width:0.264583"
         id="path10"
         cx="105.45536"
         cy="106.58929"
         rx="19.276785"
         ry="20.410715" />
      <path
         style="fill:#000080;stroke-width:0.264583"
         id="path24"
         d="m 100.45587,131.36465 c -1.70958,5.14519 -1.914066,10.61982 -2.29075,15.98583 -0.415396,6.58239 -0.778367,13.16926 -0.962303,19.76254 -0.06397,2.47955 -0.113549,4.95965 -0.140073,7.43989 -0.03357,0.65724 -5.29e-4,1.31902 -0.05108,1.97525 0.105852,1.61433 0.122415,3.23484 0.147468,4.8527 0.0021,3.19659 -0.07095,6.3824 0.209675,9.56881 0.139358,1.37956 0.288787,2.75762 0.380142,4.14136 0,0 9.951041,-5.19312 9.951041,-5.19312 v 0 c -0.17612,-1.35266 -0.34244,-2.70654 -0.53113,-4.05756 -0.31294,-3.1412 -0.23085,-6.29371 -0.22056,-9.44731 0.0255,-1.6709 0.0462,-3.34464 0.14575,-5.01212 -0.0654,-0.63226 -0.0271,-1.27412 -0.074,-1.90787 -0.0512,-2.42746 -0.11437,-4.85482 -0.1231,-7.28302 -0.008,-6.4984 0.0614,-13.00195 0.57282,-19.48399 0.51465,-5.38717 0.87359,-10.98524 3.19846,-15.96179 0,0 -10.21237,4.6204 -10.21237,4.6204 z" />
      <path
         style="fill:#000080;stroke-width:0.264583"
         id="path26"
         d="m 92.140396,148.75156 c -2.244693,4.72837 -4.590857,9.40717 -6.987527,14.06069 -2.229019,4.51211 -4.580644,8.96328 -7.065512,13.3395 -0.628502,0.97998 -1.149816,2.02041 -1.672815,3.05832 0,0 10.159907,-4.60362 10.159907,-4.60362 v 0 c 0.477523,-0.99232 0.980808,-1.97122 1.515136,-2.93447 2.318256,-4.38584 4.580697,-8.80127 6.784266,-13.24591 2.444938,-4.78909 4.816306,-9.62151 7.478919,-14.29491 0,0 -10.212374,4.6204 -10.212374,4.6204 z" />
      <path
         style="fill:#000080;stroke-width:0.264583"
         id="path28"
         d="m 101.92217,155.33722 c 5.28796,2.52566 9.7576,6.8257 13.95029,10.85517 2.09684,1.91501 3.87681,4.10934 5.70419,6.26724 0,0 9.51591,-5.76923 9.51591,-5.76923 v 0 c -2.01657,-2.06328 -3.90989,-4.24874 -6.13437,-6.10448 -3.99849,-3.67709 -8.05335,-7.41695 -12.43386,-10.64217 -0.42373,-0.31198 -0.88869,-0.56371 -1.33303,-0.84556 0,0 -9.26913,6.23903 -9.26913,6.23903 z" />
      <path
         style="fill:#000080;stroke-width:0.264583"
         id="path30"
         d="m 94.382877,179.61936 c -2.517653,5.82719 -5.137581,11.61982 -7.765653,17.40086 -3.627435,8.20735 -7.281394,16.40306 -10.921367,24.60519 -0.733134,1.89976 -1.630725,3.72698 -2.473987,5.57829 0,0 10.013328,-4.59917 10.013328,-4.59917 v 0 c 0.730547,-1.80259 1.465123,-3.60387 2.138413,-5.42898 3.353417,-8.22793 6.923167,-16.36335 10.627365,-24.43939 2.747248,-5.95097 5.473204,-11.92575 8.645024,-17.66556 0,0 -10.263123,4.54876 -10.263123,4.54876 z" />
      <path
         style="fill:#000080;stroke-width:0.264583"
         id="path32"
         d="m 100.49238,187.71917 c 2.51004,2.99894 5.26313,5.79508 7.95319,8.63369 5.38659,5.47977 10.42521,11.28122 15.30536,17.21249 2.60802,3.18 5.00809,6.52046 7.54427,9.75585 0,0 9.316,-5.59338 9.316,-5.59338 v 0 c -2.73845,-3.09167 -5.29242,-6.33747 -7.90235,-9.53744 -4.92173,-5.89716 -9.82879,-11.82422 -15.11645,-17.39886 -2.57171,-2.80316 -5.14982,-5.61949 -7.38747,-8.70169 0,0 -9.71255,5.62934 -9.71255,5.62934 z" />
    </g>
    <g
       inkscape:label="Layer 1"
       id="layer1-7-0"
       transform="matrix(0.5737279,0,0,0.67301504,28.617334,26.080223)"
       style="fill:#000080">
      <ellipse
         style="fill:#000080;stroke-width:0.264583"
         id="path10-3"
         cx="105.45536"
         cy="106.58929"
         rx="19.276785"
         ry="20.410715" />
      <path
         style="fill:#000080;stroke-width:0.264583"
         id="path24-9"
         d="m 100.45587,131.36465 c -1.70958,5.14519 -1.914066,10.61982 -2.29075,15.98583 -0.415396,6.58239 -0.778367,13.16926 -0.962303,19.76254 -0.06397,2.47955 -0.113549,4.95965 -0.140073,7.43989 -0.03357,0.65724 -5.29e-4,1.31902 -0.05108,1.97525 0.105852,1.61433 0.122415,3.23484 0.147468,4.8527 0.0021,3.19659 -0.07095,6.3824 0.209675,9.56881 0.139358,1.37956 0.288787,2.75762 0.380142,4.14136 0,0 9.951041,-5.19312 9.951041,-5.19312 v 0 c -0.17612,-1.35266 -0.34244,-2.70654 -0.53113,-4.05756 -0.31294,-3.1412 -0.23085,-6.29371 -0.22056,-9.44731 0.0255,-1.6709 0.0462,-3.34464 0.14575,-5.01212 -0.0654,-0.63226 -0.0271,-1.27412 -0.074,-1.90787 -0.0512,-2.42746 -0.11437,-4.85482 -0.1231,-7.28302 -0.008,-6.4984 0.0614,-13.00195 0.57282,-19.48399 0.51465,-5.38717 0.87359,-10.98524 3.19846,-15.96179 0,0 -10.21237,4.6204 -10.21237,4.6204 z" />
      <path
         style="fill:#000080;stroke-width:0.264583"
         id="path26-8"
         d="m 92.140396,148.75156 c -2.244693,4.72837 -4.590857,9.40717 -6.987527,14.06069 -2.229019,4.51211 -4.580644,8.96328 -7.065512,13.3395 -0.628502,0.97998 -1.149816,2.02041 -1.672815,3.05832 0,0 10.159907,-4.60362 10.159907,-4.60362 v 0 c 0.477523,-0.99232 0.980808,-1.97122 1.515136,-2.93447 2.318256,-4.38584 4.580697,-8.80127 6.784266,-13.24591 2.444938,-4.78909 4.816306,-9.62151 7.478919,-14.29491 0,0 -10.212374,4.6204 -10.212374,4.6204 z" />
      <path
         style="fill:#000080;stroke-width:0.264583"
         id="path28-6"
         d="m 101.92217,155.33722 c 5.28796,2.52566 9.7576,6.8257 13.95029,10.85517 2.09684,1.91501 3.87681,4.10934 5.70419,6.26724 0,0 9.51591,-5.76923 9.51591,-5.76923 v 0 c -2.01657,-2.06328 -3.90989,-4.24874 -6.13437,-6.10448 -3.99849,-3.67709 -8.05335,-7.41695 -12.43386,-10.64217 -0.42373,-0.31198 -0.88869,-0.56371 -1.33303,-0.84556 0,0 -9.26913,6.23903 -9.26913,6.23903 z" />
      <path
         style="fill:#000080;stroke-width:0.264583"
         id="path30-5"
         d="m 94.382877,179.61936 c -2.517653,5.82719 -5.137581,11.61982 -7.765653,17.40086 -3.627435,8.20735 -7.281394,16.40306 -10.921367,24.60519 -0.733134,1.89976 -1.630725,3.72698 -2.473987,5.57829 0,0 10.013328,-4.59917 10.013328,-4.59917 v 0 c 0.730547,-1.80259 1.465123,-3.60387 2.138413,-5.42898 3.353417,-8.22793 6.923167,-16.36335 10.627365,-24.43939 2.747248,-5.95097 5.473204,-11.92575 8.645024,-17.66556 0,0 -10.263123,4.54876 -10.263123,4.54876 z" />
      <path
         style="fill:#000080;stroke-width:0.264583"
         id="path32-7"
         d="m 100.49238,187.71917 c 2.51004,2.99894 5.26313,5.79508 7.95319,8.63369 5.38659,5.47977 10.42521,11.28122 15.30536,17.21249 2.60802,3.18 5.00809,6.52046 7.54427,9.75585 0,0 9.316,-5.59338 9.316,-5.59338 v 0 c -2.73845,-3.09167 -5.29242,-6.33747 -7.90235,-9.53744 -4.92173,-5.89716 -9.82879,-11.82422 -15.11645,-17.39886 -2.57171,-2.80316 -5.14982,-5.61949 -7.38747,-8.70169 0,0 -9.71255,5.62934 -9.71255,5.62934 z" />
    </g>
    <g
       inkscape:label="Layer 1"
       id="layer1-7-6"
       transform="matrix(0.5737279,0,0,0.67301504,87.58162,23.056413)"
       style="fill:#000080">
      <ellipse
         style="fill:#000080;stroke-width:0.264583"
         id="path10-2"
         cx="105.45536"
         cy="106.58929"
         rx="19.276785"
         ry="20.410715" />
      <path
         style="fill:#000080;stroke-width:0.264583"
         id="path24-7"
         d="m 100.45587,131.36465 c -1.70958,5.14519 -1.914066,10.61982 -2.29075,15.98583 -0.415396,6.58239 -0.778367,13.16926 -0.962303,19.76254 -0.06397,2.47955 -0.113549,4.95965 -0.140073,7.43989 -0.03357,0.65724 -5.29e-4,1.31902 -0.05108,1.97525 0.105852,1.61433 0.122415,3.23484 0.147468,4.8527 0.0021,3.19659 -0.07095,6.3824 0.209675,9.56881 0.139358,1.37956 0.288787,2.75762 0.380142,4.14136 0,0 9.951041,-5.19312 9.951041,-5.19312 v 0 c -0.17612,-1.35266 -0.34244,-2.70654 -0.53113,-4.05756 -0.31294,-3.1412 -0.23085,-6.29371 -0.22056,-9.44731 0.0255,-1.6709 0.0462,-3.34464 0.14575,-5.01212 -0.0654,-0.63226 -0.0271,-1.27412 -0.074,-1.90787 -0.0512,-2.42746 -0.11437,-4.85482 -0.1231,-7.28302 -0.008,-6.4984 0.0614,-13.00195 0.57282,-19.48399 0.51465,-5.38717 0.87359,-10.98524 3.19846,-15.96179 0,0 -10.21237,4.6204 -10.21237,4.6204 z" />
      <path
         style="fill:#000080;stroke-width:0.264583"
         id="path26-0"
         d="m 92.140396,148.75156 c -2.244693,4.72837 -4.590857,9.40717 -6.987527,14.06069 -2.229019,4.51211 -4.580644,8.96328 -7.065512,13.3395 -0.628502,0.97998 -1.149816,2.02041 -1.672815,3.05832 0,0 10.159907,-4.60362 10.159907,-4.60362 v 0 c 0.477523,-0.99232 0.980808,-1.97122 1.515136,-2.93447 2.318256,-4.38584 4.580697,-8.80127 6.784266,-13.24591 2.444938,-4.78909 4.816306,-9.62151 7.478919,-14.29491 0,0 -10.212374,4.6204 -10.212374,4.6204 z" />
      <path
         style="fill:#000080;stroke-width:0.264583"
         id="path28-3"
         d="m 101.92217,155.33722 c 5.28796,2.52566 9.7576,6.8257 13.95029,10.85517 2.09684,1.91501 3.87681,4.10934 5.70419,6.26724 0,0 9.51591,-5.76923 9.51591,-5.76923 v 0 c -2.01657,-2.06328 -3.90989,-4.24874 -6.13437,-6.10448 -3.99849,-3.67709 -8.05335,-7.41695 -12.43386,-10.64217 -0.42373,-0.31198 -0.88869,-0.56371 -1.33303,-0.84556 0,0 -9.26913,6.23903 -9.26913,6.23903 z" />
      <path
         style="fill:#000080;stroke-width:0.264583"
         id="path30-9"
         d="m 94.382877,179.61936 c -2.517653,5.82719 -5.137581,11.61982 -7.765653,17.40086 -3.627435,8.20735 -7.281394,16.40306 -10.921367,24.60519 -0.733134,1.89976 -1.630725,3.72698 -2.473987,5.57829 0,0 10.013328,-4.59917 10.013328,-4.59917 v 0 c 0.730547,-1.80259 1.465123,-3.60387 2.138413,-5.42898 3.353417,-8.22793 6.923167,-16.36335 10.627365,-24.43939 2.747248,-5.95097 5.473204,-11.92575 8.645024,-17.66556 0,0 -10.263123,4.54876 -10.263123,4.54876 z" />
      <path
         style="fill:#000080;stroke-width:0.264583"
         id="path32-9"
         d="m 100.49238,187.71917 c 2.51004,2.99894 5.26313,5.79508 7.95319,8.63369 5.38659,5.47977 10.42521,11.28122 15.30536,17.21249 2.60802,3.18 5.00809,6.52046 7.54427,9.75585 0,0 9.316,-5.59338 9.316,-5.59338 v 0 c -2.73845,-3.09167 -5.29242,-6.33747 -7.90235,-9.53744 -4.92173,-5.89716 -9.82879,-11.82422 -15.11645,-17.39886 -2.57171,-2.80316 -5.14982,-5.61949 -7.38747,-8.70169 0,0 -9.71255,5.62934 -9.71255,5.62934 z" />
    </g>
    <g
       inkscape:label="Layer 1"
       id="layer1-7-9"
       transform="matrix(0.5737279,0,0,0.67301504,142.76614,25.324271)"
       style="fill:#000080">
      <ellipse
         style="fill:#000080;stroke-width:0.264583"
         id="path10-1"
         cx="105.45536"
         cy="106.58929"
         rx="19.276785"
         ry="20.410715" />
      <path
         style="fill:#000080;stroke-width:0.264583"
         id="path24-72"
         d="m 100.45587,131.36465 c -1.70958,5.14519 -1.914066,10.61982 -2.29075,15.98583 -0.415396,6.58239 -0.778367,13.16926 -0.962303,19.76254 -0.06397,2.47955 -0.113549,4.95965 -0.140073,7.43989 -0.03357,0.65724 -5.29e-4,1.31902 -0.05108,1.97525 0.105852,1.61433 0.122415,3.23484 0.147468,4.8527 0.0021,3.19659 -0.07095,6.3824 0.209675,9.56881 0.139358,1.37956 0.288787,2.75762 0.380142,4.14136 0,0 9.951041,-5.19312 9.951041,-5.19312 v 0 c -0.17612,-1.35266 -0.34244,-2.70654 -0.53113,-4.05756 -0.31294,-3.1412 -0.23085,-6.29371 -0.22056,-9.44731 0.0255,-1.6709 0.0462,-3.34464 0.14575,-5.01212 -0.0654,-0.63226 -0.0271,-1.27412 -0.074,-1.90787 -0.0512,-2.42746 -0.11437,-4.85482 -0.1231,-7.28302 -0.008,-6.4984 0.0614,-13.00195 0.57282,-19.48399 0.51465,-5.38717 0.87359,-10.98524 3.19846,-15.96179 0,0 -10.21237,4.6204 -10.21237,4.6204 z" />
      <path
         style="fill:#000080;stroke-width:0.264583"
         id="path26-3"
         d="m 92.140396,148.75156 c -2.244693,4.72837 -4.590857,9.40717 -6.987527,14.06069 -2.229019,4.51211 -4.580644,8.96328 -7.065512,13.3395 -0.628502,0.97998 -1.149816,2.02041 -1.672815,3.05832 0,0 10.159907,-4.60362 10.159907,-4.60362 v 0 c 0.477523,-0.99232 0.980808,-1.97122 1.515136,-2.93447 2.318256,-4.38584 4.580697,-8.80127 6.784266,-13.24591 2.444938,-4.78909 4.816306,-9.62151 7.478919,-14.29491 0,0 -10.212374,4.6204 -10.212374,4.6204 z" />
      <path
         style="fill:#000080;stroke-width:0.264583"
         id="path28-65"
         d="m 101.92217,155.33722 c 5.28796,2.52566 9.7576,6.8257 13.95029,10.85517 2.09684,1.91501 3.87681,4.10934 5.70419,6.26724 0,0 9.51591,-5.76923 9.51591,-5.76923 v 0 c -2.01657,-2.06328 -3.90989,-4.24874 -6.13437,-6.10448 -3.99849,-3.67709 -8.05335,-7.41695 -12.43386,-10.64217 -0.42373,-0.31198 -0.88869,-0.56371 -1.33303,-0.84556 0,0 -9.26913,6.23903 -9.26913,6.23903 z" />
      <path
         style="fill:#000080;stroke-width:0.264583"
         id="path30-58"
         d="m 94.382877,179.61936 c -2.517653,5.82719 -5.137581,11.61982 -7.765653,17.40086 -3.627435,8.20735 -7.281394,16.40306 -10.921367,24.60519 -0.733134,1.89976 -1.630725,3.72698 -2.473987,5.57829 0,0 10.013328,-4.59917 10.013328,-4.59917 v 0 c 0.730547,-1.80259 1.465123,-3.60387 2.138413,-5.42898 3.353417,-8.22793 6.923167,-16.36335 10.627365,-24.43939 2.747248,-5.95097 5.473204,-11.92575 8.645024,-17.66556 0,0 -10.263123,4.54876 -10.263123,4.54876 z" />
      <path
         style="fill:#000080;stroke-width:0.264583"
         id="path32-1"
         d="m 100.49238,187.71917 c 2.51004,2.99894 5.26313,5.79508 7.95319,8.63369 5.38659,5.47977 10.42521,11.28122 15.30536,17.21249 2.60802,3.18 5.00809,6.52046 7.54427,9.75585 0,0 9.316,-5.59338 9.316,-5.59338 v 0 c -2.73845,-3.09167 -5.29242,-6.33747 -7.90235,-9.53744 -4.92173,-5.89716 -9.82879,-11.82422 -15.11645,-17.39886 -2.57171,-2.80316 -5.14982,-5.61949 -7.38747,-8.70169 0,0 -9.71255,5.62934 -9.71255,5.62934 z" />
    </g>
    <g
       inkscape:label="Layer 1"
       id="layer1-7-4"
       transform="matrix(0.5737279,0,0,0.67301504,196.54833,25.750432)"
       style="fill:#000080">
      <ellipse
         style="fill:#000080;stroke-width:0.264583"
         id="path10-7"
         cx="105.45536"
         cy="106.58929"
         rx="19.276785"
         ry="20.410715" />
      <path
         style="fill:#000080;stroke-width:0.264583"
         id="path24-1"
         d="m 100.45587,131.36465 c -1.70958,5.14519 -1.914066,10.61982 -2.29075,15.98583 -0.415396,6.58239 -0.778367,13.16926 -0.962303,19.76254 -0.06397,2.47955 -0.113549,4.95965 -0.140073,7.43989 -0.03357,0.65724 -5.29e-4,1.31902 -0.05108,1.97525 0.105852,1.61433 0.122415,3.23484 0.147468,4.8527 0.0021,3.19659 -0.07095,6.3824 0.209675,9.56881 0.139358,1.37956 0.288787,2.75762 0.380142,4.14136 0,0 9.951041,-5.19312 9.951041,-5.19312 v 0 c -0.17612,-1.35266 -0.34244,-2.70654 -0.53113,-4.05756 -0.31294,-3.1412 -0.23085,-6.29371 -0.22056,-9.44731 0.0255,-1.6709 0.0462,-3.34464 0.14575,-5.01212 -0.0654,-0.63226 -0.0271,-1.27412 -0.074,-1.90787 -0.0512,-2.42746 -0.11437,-4.85482 -0.1231,-7.28302 -0.008,-6.4984 0.0614,-13.00195 0.57282,-19.48399 0.51465,-5.38717 0.87359,-10.98524 3.19846,-15.96179 0,0 -10.21237,4.6204 -10.21237,4.6204 z" />
      <path
         style="fill:#000080;stroke-width:0.264583"
         id="path26-38"
         d="m 92.140396,148.75156 c -2.244693,4.72837 -4.590857,9.40717 -6.987527,14.06069 -2.229019,4.51211 -4.580644,8.96328 -7.065512,13.3395 -0.628502,0.97998 -1.149816,2.02041 -1.672815,3.05832 0,0 10.159907,-4.60362 10.159907,-4.60362 v 0 c 0.477523,-0.99232 0.980808,-1.97122 1.515136,-2.93447 2.318256,-4.38584 4.580697,-8.80127 6.784266,-13.24591 2.444938,-4.78909 4.816306,-9.62151 7.478919,-14.29491 0,0 -10.212374,4.6204 -10.212374,4.6204 z" />
      <path
         style="fill:#000080;stroke-width:0.264583"
         id="path28-4"
         d="m 101.92217,155.33722 c 5.28796,2.52566 9.7576,6.8257 13.95029,10.85517 2.09684,1.91501 3.87681,4.10934 5.70419,6.26724 0,0 9.51591,-5.76923 9.51591,-5.76923 v 0 c -2.01657,-2.06328 -3.90989,-4.24874 -6.13437,-6.10448 -3.99849,-3.67709 -8.05335,-7.41695 -12.43386,-10.64217 -0.42373,-0.31198 -0.88869,-0.56371 -1.33303,-0.84556 0,0 -9.26913,6.23903 -9.26913,6.23903 z" />
      <path
         style="fill:#000080;stroke-width:0.264583"
         id="path30-8"
         d="m 94.382877,179.61936 c -2.517653,5.82719 -5.137581,11.61982 -7.765653,17.40086 -3.627435,8.20735 -7.281394,16.40306 -10.921367,24.60519 -0.733134,1.89976 -1.630725,3.72698 -2.473987,5.57829 0,0 10.013328,-4.59917 10.013328,-4.59917 v 0 c 0.730547,-1.80259 1.465123,-3.60387 2.138413,-5.42898 3.353417,-8.22793 6.923167,-16.36335 10.627365,-24.43939 2.747248,-5.95097 5.473204,-11.92575 8.645024,-17.66556 0,0 -10.263123,4.54876 -10.263123,4.54876 z" />
      <path
         style="fill:#000080;stroke-width:0.264583"
         id="path32-0"
         d="m 100.49238,187.71917 c 2.51004,2.99894 5.26313,5.79508 7.95319,8.63369 5.38659,5.47977 10.42521,11.28122 15.30536,17.21249 2.60802,3.18 5.00809,6.52046 7.54427,9.75585 0,0 9.316,-5.59338 9.316,-5.59338 v 0 c -2.73845,-3.09167 -5.29242,-6.33747 -7.90235,-9.53744 -4.92173,-5.89716 -9.82879,-11.82422 -15.11645,-17.39886 -2.57171,-2.80316 -5.14982,-5.61949 -7.38747,-8.70169 0,0 -9.71255,5.62934 -9.71255,5.62934 z" />
    </g>
    <g
       inkscape:label="Layer 1"
       id="layer1-7-46"
       transform="matrix(0.5737279,0,0,0.67301504,-306.48871,20.692188)"
       style="fill:#000080">
      <ellipse
         style="fill:#000080;stroke-width:0.264583"
         id="path10-0"
         cx="105.45536"
         cy="106.58929"
         rx="19.276785"
         ry="20.410715" />
      <path
         style="fill:#000080;stroke-width:0.264583"
         id="path24-3"
         d="m 100.45587,131.36465 c -1.70958,5.14519 -1.914066,10.61982 -2.29075,15.98583 -0.415396,6.58239 -0.778367,13.16926 -0.962303,19.76254 -0.06397,2.47955 -0.113549,4.95965 -0.140073,7.43989 -0.03357,0.65724 -5.29e-4,1.31902 -0.05108,1.97525 0.105852,1.61433 0.122415,3.23484 0.147468,4.8527 0.0021,3.19659 -0.07095,6.3824 0.209675,9.56881 0.139358,1.37956 0.288787,2.75762 0.380142,4.14136 0,0 9.951041,-5.19312 9.951041,-5.19312 v 0 c -0.17612,-1.35266 -0.34244,-2.70654 -0.53113,-4.05756 -0.31294,-3.1412 -0.23085,-6.29371 -0.22056,-9.44731 0.0255,-1.6709 0.0462,-3.34464 0.14575,-5.01212 -0.0654,-0.63226 -0.0271,-1.27412 -0.074,-1.90787 -0.0512,-2.42746 -0.11437,-4.85482 -0.1231,-7.28302 -0.008,-6.4984 0.0614,-13.00195 0.57282,-19.48399 0.51465,-5.38717 0.87359,-10.98524 3.19846,-15.96179 0,0 -10.21237,4.6204 -10.21237,4.6204 z" />
      <path
         style="fill:#000080;stroke-width:0.264583"
         id="path26-2"
         d="m 92.140396,148.75156 c -2.244693,4.72837 -4.590857,9.40717 -6.987527,14.06069 -2.229019,4.51211 -4.580644,8.96328 -7.065512,13.3395 -0.628502,0.97998 -1.149816,2.02041 -1.672815,3.05832 0,0 10.159907,-4.60362 10.159907,-4.60362 v 0 c 0.477523,-0.99232 0.980808,-1.97122 1.515136,-2.93447 2.318256,-4.38584 4.580697,-8.80127 6.784266,-13.24591 2.444938,-4.78909 4.816306,-9.62151 7.478919,-14.29491 0,0 -10.212374,4.6204 -10.212374,4.6204 z" />
      <path
         style="fill:#000080;stroke-width:0.264583"
         id="path28-69"
         d="m 101.92217,155.33722 c 5.28796,2.52566 9.7576,6.8257 13.95029,10.85517 2.09684,1.91501 3.87681,4.10934 5.70419,6.26724 0,0 9.51591,-5.76923 9.51591,-5.76923 v 0 c -2.01657,-2.06328 -3.90989,-4.24874 -6.13437,-6.10448 -3.99849,-3.67709 -8.05335,-7.41695 -12.43386,-10.64217 -0.42373,-0.31198 -0.88869,-0.56371 -1.33303,-0.84556 0,0 -9.26913,6.23903 -9.26913,6.23903 z" />
      <path
         style="fill:#000080;stroke-width:0.264583"
         id="path30-4"
         d="m 94.382877,179.61936 c -2.517653,5.82719 -5.137581,11.61982 -7.765653,17.40086 -3.627435,8.20735 -7.281394,16.40306 -10.921367,24.60519 -0.733134,1.89976 -1.630725,3.72698 -2.473987,5.57829 0,0 10.013328,-4.59917 10.013328,-4.59917 v 0 c 0.730547,-1.80259 1.465123,-3.60387 2.138413,-5.42898 3.353417,-8.22793 6.923167,-16.36335 10.627365,-24.43939 2.747248,-5.95097 5.473204,-11.92575 8.645024,-17.66556 0,0 -10.263123,4.54876 -10.263123,4.54876 z" />
      <path
         style="fill:#000080;stroke-width:0.264583"
         id="path32-13"
         d="m 100.49238,187.71917 c 2.51004,2.99894 5.26313,5.79508 7.95319,8.63369 5.38659,5.47977 10.42521,11.28122 15.30536,17.21249 2.60802,3.18 5.00809,6.52046 7.54427,9.75585 0,0 9.316,-5.59338 9.316,-5.59338 v 0 c -2.73845,-3.09167 -5.29242,-6.33747 -7.90235,-9.53744 -4.92173,-5.89716 -9.82879,-11.82422 -15.11645,-17.39886 -2.57171,-2.80316 -5.14982,-5.61949 -7.38747,-8.70169 0,0 -9.71255,5.62934 -9.71255,5.62934 z" />
    </g>
    <g
       inkscape:label="Layer 1"
       id="layer1-7-0-7"
       transform="matrix(0.5737279,0,0,0.67301504,-252.06013,24.093973)"
       style="fill:#000080">
      <ellipse
         style="fill:#000080;stroke-width:0.264583"
         id="path10-3-8"
         cx="105.45536"
         cy="106.58929"
         rx="19.276785"
         ry="20.410715" />
      <path
         style="fill:#000080;stroke-width:0.264583"
         id="path24-9-8"
         d="m 100.45587,131.36465 c -1.70958,5.14519 -1.914066,10.61982 -2.29075,15.98583 -0.415396,6.58239 -0.778367,13.16926 -0.962303,19.76254 -0.06397,2.47955 -0.113549,4.95965 -0.140073,7.43989 -0.03357,0.65724 -5.29e-4,1.31902 -0.05108,1.97525 0.105852,1.61433 0.122415,3.23484 0.147468,4.8527 0.0021,3.19659 -0.07095,6.3824 0.209675,9.56881 0.139358,1.37956 0.288787,2.75762 0.380142,4.14136 0,0 9.951041,-5.19312 9.951041,-5.19312 v 0 c -0.17612,-1.35266 -0.34244,-2.70654 -0.53113,-4.05756 -0.31294,-3.1412 -0.23085,-6.29371 -0.22056,-9.44731 0.0255,-1.6709 0.0462,-3.34464 0.14575,-5.01212 -0.0654,-0.63226 -0.0271,-1.27412 -0.074,-1.90787 -0.0512,-2.42746 -0.11437,-4.85482 -0.1231,-7.28302 -0.008,-6.4984 0.0614,-13.00195 0.57282,-19.48399 0.51465,-5.38717 0.87359,-10.98524 3.19846,-15.96179 0,0 -10.21237,4.6204 -10.21237,4.6204 z" />
      <path
         style="fill:#000080;stroke-width:0.264583"
         id="path26-8-3"
         d="m 92.140396,148.75156 c -2.244693,4.72837 -4.590857,9.40717 -6.987527,14.06069 -2.229019,4.51211 -4.580644,8.96328 -7.065512,13.3395 -0.628502,0.97998 -1.149816,2.02041 -1.672815,3.05832 0,0 10.159907,-4.60362 10.159907,-4.60362 v 0 c 0.477523,-0.99232 0.980808,-1.97122 1.515136,-2.93447 2.318256,-4.38584 4.580697,-8.80127 6.784266,-13.24591 2.444938,-4.78909 4.816306,-9.62151 7.478919,-14.29491 0,0 -10.212374,4.6204 -10.212374,4.6204 z" />
      <path
         style="fill:#000080;stroke-width:0.264583"
         id="path28-6-8"
         d="m 101.92217,155.33722 c 5.28796,2.52566 9.7576,6.8257 13.95029,10.85517 2.09684,1.91501 3.87681,4.10934 5.70419,6.26724 0,0 9.51591,-5.76923 9.51591,-5.76923 v 0 c -2.01657,-2.06328 -3.90989,-4.24874 -6.13437,-6.10448 -3.99849,-3.67709 -8.05335,-7.41695 -12.43386,-10.64217 -0.42373,-0.31198 -0.88869,-0.56371 -1.33303,-0.84556 0,0 -9.26913,6.23903 -9.26913,6.23903 z" />
      <path
         style="fill:#000080;stroke-width:0.264583"
         id="path30-5-1"
         d="m 94.382877,179.61936 c -2.517653,5.82719 -5.137581,11.61982 -7.765653,17.40086 -3.627435,8.20735 -7.281394,16.40306 -10.921367,24.60519 -0.733134,1.89976 -1.630725,3.72698 -2.473987,5.57829 0,0 10.013328,-4.59917 10.013328,-4.59917 v 0 c 0.730547,-1.80259 1.465123,-3.60387 2.138413,-5.42898 3.353417,-8.22793 6.923167,-16.36335 10.627365,-24.43939 2.747248,-5.95097 5.473204,-11.92575 8.645024,-17.66556 0,0 -10.263123,4.54876 -10.263123,4.54876 z" />
      <path
         style="fill:#000080;stroke-width:0.264583"
         id="path32-7-5"
         d="m 100.49238,187.71917 c 2.51004,2.99894 5.26313,5.79508 7.95319,8.63369 5.38659,5.47977 10.42521,11.28122 15.30536,17.21249 2.60802,3.18 5.00809,6.52046 7.54427,9.75585 0,0 9.316,-5.59338 9.316,-5.59338 v 0 c -2.73845,-3.09167 -5.29242,-6.33747 -7.90235,-9.53744 -4.92173,-5.89716 -9.82879,-11.82422 -15.11645,-17.39886 -2.57171,-2.80316 -5.14982,-5.61949 -7.38747,-8.70169 0,0 -9.71255,5.62934 -9.71255,5.62934 z" />
    </g>
    <g
       inkscape:label="Layer 1"
       id="layer1-7-6-3"
       transform="matrix(0.5737279,0,0,0.67301504,-193.09584,21.070161)"
       style="fill:#000080">
      <ellipse
         style="fill:#000080;stroke-width:0.264583"
         id="path10-2-5"
         cx="105.45536"
         cy="106.58929"
         rx="19.276785"
         ry="20.410715" />
      <path
         style="fill:#000080;stroke-width:0.264583"
         id="path24-7-4"
         d="m 100.45587,131.36465 c -1.70958,5.14519 -1.914066,10.61982 -2.29075,15.98583 -0.415396,6.58239 -0.778367,13.16926 -0.962303,19.76254 -0.06397,2.47955 -0.113549,4.95965 -0.140073,7.43989 -0.03357,0.65724 -5.29e-4,1.31902 -0.05108,1.97525 0.105852,1.61433 0.122415,3.23484 0.147468,4.8527 0.0021,3.19659 -0.07095,6.3824 0.209675,9.56881 0.139358,1.37956 0.288787,2.75762 0.380142,4.14136 0,0 9.951041,-5.19312 9.951041,-5.19312 v 0 c -0.17612,-1.35266 -0.34244,-2.70654 -0.53113,-4.05756 -0.31294,-3.1412 -0.23085,-6.29371 -0.22056,-9.44731 0.0255,-1.6709 0.0462,-3.34464 0.14575,-5.01212 -0.0654,-0.63226 -0.0271,-1.27412 -0.074,-1.90787 -0.0512,-2.42746 -0.11437,-4.85482 -0.1231,-7.28302 -0.008,-6.4984 0.0614,-13.00195 0.57282,-19.48399 0.51465,-5.38717 0.87359,-10.98524 3.19846,-15.96179 0,0 -10.21237,4.6204 -10.21237,4.6204 z" />
      <path
         style="fill:#000080;stroke-width:0.264583"
         id="path26-0-3"
         d="m 92.140396,148.75156 c -2.244693,4.72837 -4.590857,9.40717 -6.987527,14.06069 -2.229019,4.51211 -4.580644,8.96328 -7.065512,13.3395 -0.628502,0.97998 -1.149816,2.02041 -1.672815,3.05832 0,0 10.159907,-4.60362 10.159907,-4.60362 v 0 c 0.477523,-0.99232 0.980808,-1.97122 1.515136,-2.93447 2.318256,-4.38584 4.580697,-8.80127 6.784266,-13.24591 2.444938,-4.78909 4.816306,-9.62151 7.478919,-14.29491 0,0 -10.212374,4.6204 -10.212374,4.6204 z" />
      <path
         style="fill:#000080;stroke-width:0.264583"
         id="path28-3-6"
         d="m 101.92217,155.33722 c 5.28796,2.52566 9.7576,6.8257 13.95029,10.85517 2.09684,1.91501 3.87681,4.10934 5.70419,6.26724 0,0 9.51591,-5.76923 9.51591,-5.76923 v 0 c -2.01657,-2.06328 -3.90989,-4.24874 -6.13437,-6.10448 -3.99849,-3.67709 -8.05335,-7.41695 -12.43386,-10.64217 -0.42373,-0.31198 -0.88869,-0.56371 -1.33303,-0.84556 0,0 -9.26913,6.23903 -9.26913,6.23903 z" />
      <path
         style="fill:#000080;stroke-width:0.264583"
         id="path30-9-5"
         d="m 94.382877,179.61936 c -2.517653,5.82719 -5.137581,11.61982 -7.765653,17.40086 -3.627435,8.20735 -7.281394,16.40306 -10.921367,24.60519 -0.733134,1.89976 -1.630725,3.72698 -2.473987,5.57829 0,0 10.013328,-4.59917 10.013328,-4.59917 v 0 c 0.730547,-1.80259 1.465123,-3.60387 2.138413,-5.42898 3.353417,-8.22793 6.923167,-16.36335 10.627365,-24.43939 2.747248,-5.95097 5.473204,-11.92575 8.645024,-17.66556 0,0 -10.263123,4.54876 -10.263123,4.54876 z" />
      <path
         style="fill:#000080;stroke-width:0.264583"
         id="path32-9-9"
         d="m 100.49238,187.71917 c 2.51004,2.99894 5.26313,5.79508 7.95319,8.63369 5.38659,5.47977 10.42521,11.28122 15.30536,17.21249 2.60802,3.18 5.00809,6.52046 7.54427,9.75585 0,0 9.316,-5.59338 9.316,-5.59338 v 0 c -2.73845,-3.09167 -5.29242,-6.33747 -7.90235,-9.53744 -4.92173,-5.89716 -9.82879,-11.82422 -15.11645,-17.39886 -2.57171,-2.80316 -5.14982,-5.61949 -7.38747,-8.70169 0,0 -9.71255,5.62934 -9.71255,5.62934 z" />
    </g>
    <g
       inkscape:label="Layer 1"
       id="layer1-7-9-5"
       transform="matrix(0.5737279,0,0,0.67301504,-137.91132,23.338019)"
       style="fill:#000080">
      <ellipse
         style="fill:#000080;stroke-width:0.264583"
         id="path10-1-4"
         cx="105.45536"
         cy="106.58929"
         rx="19.276785"
         ry="20.410715" />
      <path
         style="fill:#000080;stroke-width:0.264583"
         id="path24-72-9"
         d="m 100.45587,131.36465 c -1.70958,5.14519 -1.914066,10.61982 -2.29075,15.98583 -0.415396,6.58239 -0.778367,13.16926 -0.962303,19.76254 -0.06397,2.47955 -0.113549,4.95965 -0.140073,7.43989 -0.03357,0.65724 -5.29e-4,1.31902 -0.05108,1.97525 0.105852,1.61433 0.122415,3.23484 0.147468,4.8527 0.0021,3.19659 -0.07095,6.3824 0.209675,9.56881 0.139358,1.37956 0.288787,2.75762 0.380142,4.14136 0,0 9.951041,-5.19312 9.951041,-5.19312 v 0 c -0.17612,-1.35266 -0.34244,-2.70654 -0.53113,-4.05756 -0.31294,-3.1412 -0.23085,-6.29371 -0.22056,-9.44731 0.0255,-1.6709 0.0462,-3.34464 0.14575,-5.01212 -0.0654,-0.63226 -0.0271,-1.27412 -0.074,-1.90787 -0.0512,-2.42746 -0.11437,-4.85482 -0.1231,-7.28302 -0.008,-6.4984 0.0614,-13.00195 0.57282,-19.48399 0.51465,-5.38717 0.87359,-10.98524 3.19846,-15.96179 0,0 -10.21237,4.6204 -10.21237,4.6204 z" />
      <path
         style="fill:#000080;stroke-width:0.264583"
         id="path26-3-1"
         d="m 92.140396,148.75156 c -2.244693,4.72837 -4.590857,9.40717 -6.987527,14.06069 -2.229019,4.51211 -4.580644,8.96328 -7.065512,13.3395 -0.628502,0.97998 -1.149816,2.02041 -1.672815,3.05832 0,0 10.159907,-4.60362 10.159907,-4.60362 v 0 c 0.477523,-0.99232 0.980808,-1.97122 1.515136,-2.93447 2.318256,-4.38584 4.580697,-8.80127 6.784266,-13.24591 2.444938,-4.78909 4.816306,-9.62151 7.478919,-14.29491 0,0 -10.212374,4.6204 -10.212374,4.6204 z" />
      <path
         style="fill:#000080;stroke-width:0.264583"
         id="path28-65-7"
         d="m 101.92217,155.33722 c 5.28796,2.52566 9.7576,6.8257 13.95029,10.85517 2.09684,1.91501 3.87681,4.10934 5.70419,6.26724 0,0 9.51591,-5.76923 9.51591,-5.76923 v 0 c -2.01657,-2.06328 -3.90989,-4.24874 -6.13437,-6.10448 -3.99849,-3.67709 -8.05335,-7.41695 -12.43386,-10.64217 -0.42373,-0.31198 -0.88869,-0.56371 -1.33303,-0.84556 0,0 -9.26913,6.23903 -9.26913,6.23903 z" />
      <path
         style="fill:#000080;stroke-width:0.264583"
         id="path30-58-5"
         d="m 94.382877,179.61936 c -2.517653,5.82719 -5.137581,11.61982 -7.765653,17.40086 -3.627435,8.20735 -7.281394,16.40306 -10.921367,24.60519 -0.733134,1.89976 -1.630725,3.72698 -2.473987,5.57829 0,0 10.013328,-4.59917 10.013328,-4.59917 v 0 c 0.730547,-1.80259 1.465123,-3.60387 2.138413,-5.42898 3.353417,-8.22793 6.923167,-16.36335 10.627365,-24.43939 2.747248,-5.95097 5.473204,-11.92575 8.645024,-17.66556 0,0 -10.263123,4.54876 -10.263123,4.54876 z" />
      <path
         style="fill:#000080;stroke-width:0.264583"
         id="path32-1-5"
         d="m 100.49238,187.71917 c 2.51004,2.99894 5.26313,5.79508 7.95319,8.63369 5.38659,5.47977 10.42521,11.28122 15.30536,17.21249 2.60802,3.18 5.00809,6.52046 7.54427,9.75585 0,0 9.316,-5.59338 9.316,-5.59338 v 0 c -2.73845,-3.09167 -5.29242,-6.33747 -7.90235,-9.53744 -4.92173,-5.89716 -9.82879,-11.82422 -15.11645,-17.39886 -2.57171,-2.80316 -5.14982,-5.61949 -7.38747,-8.70169 0,0 -9.71255,5.62934 -9.71255,5.62934 z" />
    </g>
    <g
       inkscape:label="Layer 1"
       id="layer1-7-4-4"
       transform="matrix(0.5737279,0,0,0.67301504,-84.129143,23.764181)"
       style="fill:#000080">
      <ellipse
         style="fill:#000080;stroke-width:0.264583"
         id="path10-7-1"
         cx="105.45536"
         cy="106.58929"
         rx="19.276785"
         ry="20.410715" />
      <path
         style="fill:#000080;stroke-width:0.264583"
         id="path24-1-8"
         d="m 100.45587,131.36465 c -1.70958,5.14519 -1.914066,10.61982 -2.29075,15.98583 -0.415396,6.58239 -0.778367,13.16926 -0.962303,19.76254 -0.06397,2.47955 -0.113549,4.95965 -0.140073,7.43989 -0.03357,0.65724 -5.29e-4,1.31902 -0.05108,1.97525 0.105852,1.61433 0.122415,3.23484 0.147468,4.8527 0.0021,3.19659 -0.07095,6.3824 0.209675,9.56881 0.139358,1.37956 0.288787,2.75762 0.380142,4.14136 0,0 9.951041,-5.19312 9.951041,-5.19312 v 0 c -0.17612,-1.35266 -0.34244,-2.70654 -0.53113,-4.05756 -0.31294,-3.1412 -0.23085,-6.29371 -0.22056,-9.44731 0.0255,-1.6709 0.0462,-3.34464 0.14575,-5.01212 -0.0654,-0.63226 -0.0271,-1.27412 -0.074,-1.90787 -0.0512,-2.42746 -0.11437,-4.85482 -0.1231,-7.28302 -0.008,-6.4984 0.0614,-13.00195 0.57282,-19.48399 0.51465,-5.38717 0.87359,-10.98524 3.19846,-15.96179 0,0 -10.21237,4.6204 -10.21237,4.6204 z" />
      <path
         style="fill:#000080;stroke-width:0.264583"
         id="path26-38-8"
         d="m 92.140396,148.75156 c -2.244693,4.72837 -4.590857,9.40717 -6.987527,14.06069 -2.229019,4.51211 -4.580644,8.96328 -7.065512,13.3395 -0.628502,0.97998 -1.149816,2.02041 -1.672815,3.05832 0,0 10.159907,-4.60362 10.159907,-4.60362 v 0 c 0.477523,-0.99232 0.980808,-1.97122 1.515136,-2.93447 2.318256,-4.38584 4.580697,-8.80127 6.784266,-13.24591 2.444938,-4.78909 4.816306,-9.62151 7.478919,-14.29491 0,0 -10.212374,4.6204 -10.212374,4.6204 z" />
      <path
         style="fill:#000080;stroke-width:0.264583"
         id="path28-4-3"
         d="m 101.92217,155.33722 c 5.28796,2.52566 9.7576,6.8257 13.95029,10.85517 2.09684,1.91501 3.87681,4.10934 5.70419,6.26724 0,0 9.51591,-5.76923 9.51591,-5.76923 v 0 c -2.01657,-2.06328 -3.90989,-4.24874 -6.13437,-6.10448 -3.99849,-3.67709 -8.05335,-7.41695 -12.43386,-10.64217 -0.42373,-0.31198 -0.88869,-0.56371 -1.33303,-0.84556 0,0 -9.26913,6.23903 -9.26913,6.23903 z" />
      <path
         style="fill:#000080;stroke-width:0.264583"
         id="path30-8-5"
         d="m 94.382877,179.61936 c -2.517653,5.82719 -5.137581,11.61982 -7.765653,17.40086 -3.627435,8.20735 -7.281394,16.40306 -10.921367,24.60519 -0.733134,1.89976 -1.630725,3.72698 -2.473987,5.57829 0,0 10.013328,-4.59917 10.013328,-4.59917 v 0 c 0.730547,-1.80259 1.465123,-3.60387 2.138413,-5.42898 3.353417,-8.22793 6.923167,-16.36335 10.627365,-24.43939 2.747248,-5.95097 5.473204,-11.92575 8.645024,-17.66556 0,0 -10.263123,4.54876 -10.263123,4.54876 z" />
      <path
         style="fill:#000080;stroke-width:0.264583"
         id="path32-0-2"
         d="m 100.49238,187.71917 c 2.51004,2.99894 5.26313,5.79508 7.95319,8.63369 5.38659,5.47977 10.42521,11.28122 15.30536,17.21249 2.60802,3.18 5.00809,6.52046 7.54427,9.75585 0,0 9.316,-5.59338 9.316,-5.59338 v 0 c -2.73845,-3.09167 -5.29242,-6.33747 -7.90235,-9.53744 -4.92173,-5.89716 -9.82879,-11.82422 -15.11645,-17.39886 -2.57171,-2.80316 -5.14982,-5.61949 -7.38747,-8.70169 0,0 -9.71255,5.62934 -9.71255,5.62934 z" />
    </g>
    <g
       inkscape:label="Layer 1"
       id="layer1-7-2"
       transform="matrix(0.5737279,0,0,0.67301504,-23.866571,132.71769)"
       style="fill:#008000">
      <ellipse
         style="fill:#008000;stroke-width:0.264583"
         id="path10-6"
         cx="105.45536"
         cy="106.58929"
         rx="19.276785"
         ry="20.410715" />
      <path
         style="fill:#008000;stroke-width:0.264583"
         id="path24-6"
         d="m 100.45587,131.36465 c -1.70958,5.14519 -1.914066,10.61982 -2.29075,15.98583 -0.415396,6.58239 -0.778367,13.16926 -0.962303,19.76254 -0.06397,2.47955 -0.113549,4.95965 -0.140073,7.43989 -0.03357,0.65724 -5.29e-4,1.31902 -0.05108,1.97525 0.105852,1.61433 0.122415,3.23484 0.147468,4.8527 0.0021,3.19659 -0.07095,6.3824 0.209675,9.56881 0.139358,1.37956 0.288787,2.75762 0.380142,4.14136 0,0 9.951041,-5.19312 9.951041,-5.19312 v 0 c -0.17612,-1.35266 -0.34244,-2.70654 -0.53113,-4.05756 -0.31294,-3.1412 -0.23085,-6.29371 -0.22056,-9.44731 0.0255,-1.6709 0.0462,-3.34464 0.14575,-5.01212 -0.0654,-0.63226 -0.0271,-1.27412 -0.074,-1.90787 -0.0512,-2.42746 -0.11437,-4.85482 -0.1231,-7.28302 -0.008,-6.4984 0.0614,-13.00195 0.57282,-19.48399 0.51465,-5.38717 0.87359,-10.98524 3.19846,-15.96179 0,0 -10.21237,4.6204 -10.21237,4.6204 z" />
      <path
         style="fill:#008000;stroke-width:0.264583"
         id="path26-7"
         d="m 92.140396,148.75156 c -2.244693,4.72837 -4.590857,9.40717 -6.987527,14.06069 -2.229019,4.51211 -4.580644,8.96328 -7.065512,13.3395 -0.628502,0.97998 -1.149816,2.02041 -1.672815,3.05832 0,0 10.159907,-4.60362 10.159907,-4.60362 v 0 c 0.477523,-0.99232 0.980808,-1.97122 1.515136,-2.93447 2.318256,-4.38584 4.580697,-8.80127 6.784266,-13.24591 2.444938,-4.78909 4.816306,-9.62151 7.478919,-14.29491 0,0 -10.212374,4.6204 -10.212374,4.6204 z" />
      <path
         style="fill:#008000;stroke-width:0.264583"
         id="path28-8"
         d="m 101.92217,155.33722 c 5.28796,2.52566 9.7576,6.8257 13.95029,10.85517 2.09684,1.91501 3.87681,4.10934 5.70419,6.26724 0,0 9.51591,-5.76923 9.51591,-5.76923 v 0 c -2.01657,-2.06328 -3.90989,-4.24874 -6.13437,-6.10448 -3.99849,-3.67709 -8.05335,-7.41695 -12.43386,-10.64217 -0.42373,-0.31198 -0.88869,-0.56371 -1.33303,-0.84556 0,0 -9.26913,6.23903 -9.26913,6.23903 z" />
      <path
         style="fill:#008000;stroke-width:0.264583"
         id="path30-41"
         d="m 94.382877,179.61936 c -2.517653,5.82719 -5.137581,11.61982 -7.765653,17.40086 -3.627435,8.20735 -7.281394,16.40306 -10.921367,24.60519 -0.733134,1.89976 -1.630725,3.72698 -2.473987,5.57829 0,0 10.013328,-4.59917 10.013328,-4.59917 v 0 c 0.730547,-1.80259 1.465123,-3.60387 2.138413,-5.42898 3.353417,-8.22793 6.923167,-16.36335 10.627365,-24.43939 2.747248,-5.95097 5.473204,-11.92575 8.645024,-17.66556 0,0 -10.263123,4.54876 -10.263123,4.54876 z" />
      <path
         style="fill:#008000;stroke-width:0.264583"
         id="path32-71"
         d="m 100.49238,187.71917 c 2.51004,2.99894 5.26313,5.79508 7.95319,8.63369 5.38659,5.47977 10.42521,11.28122 15.30536,17.21249 2.60802,3.18 5.00809,6.52046 7.54427,9.75585 0,0 9.316,-5.59338 9.316,-5.59338 v 0 c -2.73845,-3.09167 -5.29242,-6.33747 -7.90235,-9.53744 -4.92173,-5.89716 -9.82879,-11.82422 -15.11645,-17.39886 -2.57171,-2.80316 -5.14982,-5.61949 -7.38747,-8.70169 0,0 -9.71255,5.62934 -9.71255,5.62934 z" />
    </g>
    <g
       inkscape:label="Layer 1"
       id="layer1-7-0-8"
       transform="matrix(0.5737279,0,0,0.67301504,30.562009,136.11948)"
       style="fill:#008000">
      <ellipse
         style="fill:#008000;stroke-width:0.264583"
         id="path10-3-7"
         cx="105.45536"
         cy="106.58929"
         rx="19.276785"
         ry="20.410715" />
      <path
         style="fill:#008000;stroke-width:0.264583"
         id="path24-9-87"
         d="m 100.45587,131.36465 c -1.70958,5.14519 -1.914066,10.61982 -2.29075,15.98583 -0.415396,6.58239 -0.778367,13.16926 -0.962303,19.76254 -0.06397,2.47955 -0.113549,4.95965 -0.140073,7.43989 -0.03357,0.65724 -5.29e-4,1.31902 -0.05108,1.97525 0.105852,1.61433 0.122415,3.23484 0.147468,4.8527 0.0021,3.19659 -0.07095,6.3824 0.209675,9.56881 0.139358,1.37956 0.288787,2.75762 0.380142,4.14136 0,0 9.951041,-5.19312 9.951041,-5.19312 v 0 c -0.17612,-1.35266 -0.34244,-2.70654 -0.53113,-4.05756 -0.31294,-3.1412 -0.23085,-6.29371 -0.22056,-9.44731 0.0255,-1.6709 0.0462,-3.34464 0.14575,-5.01212 -0.0654,-0.63226 -0.0271,-1.27412 -0.074,-1.90787 -0.0512,-2.42746 -0.11437,-4.85482 -0.1231,-7.28302 -0.008,-6.4984 0.0614,-13.00195 0.57282,-19.48399 0.51465,-5.38717 0.87359,-10.98524 3.19846,-15.96179 0,0 -10.21237,4.6204 -10.21237,4.6204 z" />
      <path
         style="fill:#008000;stroke-width:0.264583"
         id="path26-8-7"
         d="m 92.140396,148.75156 c -2.244693,4.72837 -4.590857,9.40717 -6.987527,14.06069 -2.229019,4.51211 -4.580644,8.96328 -7.065512,13.3395 -0.628502,0.97998 -1.149816,2.02041 -1.672815,3.05832 0,0 10.159907,-4.60362 10.159907,-4.60362 v 0 c 0.477523,-0.99232 0.980808,-1.97122 1.515136,-2.93447 2.318256,-4.38584 4.580697,-8.80127 6.784266,-13.24591 2.444938,-4.78909 4.816306,-9.62151 7.478919,-14.29491 0,0 -10.212374,4.6204 -10.212374,4.6204 z" />
      <path
         style="fill:#008000;stroke-width:0.264583"
         id="path28-6-4"
         d="m 101.92217,155.33722 c 5.28796,2.52566 9.7576,6.8257 13.95029,10.85517 2.09684,1.91501 3.87681,4.10934 5.70419,6.26724 0,0 9.51591,-5.76923 9.51591,-5.76923 v 0 c -2.01657,-2.06328 -3.90989,-4.24874 -6.13437,-6.10448 -3.99849,-3.67709 -8.05335,-7.41695 -12.43386,-10.64217 -0.42373,-0.31198 -0.88869,-0.56371 -1.33303,-0.84556 0,0 -9.26913,6.23903 -9.26913,6.23903 z" />
      <path
         style="fill:#008000;stroke-width:0.264583"
         id="path30-5-4"
         d="m 94.382877,179.61936 c -2.517653,5.82719 -5.137581,11.61982 -7.765653,17.40086 -3.627435,8.20735 -7.281394,16.40306 -10.921367,24.60519 -0.733134,1.89976 -1.630725,3.72698 -2.473987,5.57829 0,0 10.013328,-4.59917 10.013328,-4.59917 v 0 c 0.730547,-1.80259 1.465123,-3.60387 2.138413,-5.42898 3.353417,-8.22793 6.923167,-16.36335 10.627365,-24.43939 2.747248,-5.95097 5.473204,-11.92575 8.645024,-17.66556 0,0 -10.263123,4.54876 -10.263123,4.54876 z" />
      <path
         style="fill:#008000;stroke-width:0.264583"
         id="path32-7-9"
         d="m 100.49238,187.71917 c 2.51004,2.99894 5.26313,5.79508 7.95319,8.63369 5.38659,5.47977 10.42521,11.28122 15.30536,17.21249 2.60802,3.18 5.00809,6.52046 7.54427,9.75585 0,0 9.316,-5.59338 9.316,-5.59338 v 0 c -2.73845,-3.09167 -5.29242,-6.33747 -7.90235,-9.53744 -4.92173,-5.89716 -9.82879,-11.82422 -15.11645,-17.39886 -2.57171,-2.80316 -5.14982,-5.61949 -7.38747,-8.70169 0,0 -9.71255,5.62934 -9.71255,5.62934 z" />
    </g>
    <g
       inkscape:label="Layer 1"
       id="layer1-7-6-1"
       transform="matrix(0.5737279,0,0,0.67301504,89.526309,133.09567)"
       style="fill:#008000">
      <ellipse
         style="fill:#008000;stroke-width:0.264583"
         id="path10-2-55"
         cx="105.45536"
         cy="106.58929"
         rx="19.276785"
         ry="20.410715" />
      <path
         style="fill:#008000;stroke-width:0.264583"
         id="path24-7-5"
         d="m 100.45587,131.36465 c -1.70958,5.14519 -1.914066,10.61982 -2.29075,15.98583 -0.415396,6.58239 -0.778367,13.16926 -0.962303,19.76254 -0.06397,2.47955 -0.113549,4.95965 -0.140073,7.43989 -0.03357,0.65724 -5.29e-4,1.31902 -0.05108,1.97525 0.105852,1.61433 0.122415,3.23484 0.147468,4.8527 0.0021,3.19659 -0.07095,6.3824 0.209675,9.56881 0.139358,1.37956 0.288787,2.75762 0.380142,4.14136 0,0 9.951041,-5.19312 9.951041,-5.19312 v 0 c -0.17612,-1.35266 -0.34244,-2.70654 -0.53113,-4.05756 -0.31294,-3.1412 -0.23085,-6.29371 -0.22056,-9.44731 0.0255,-1.6709 0.0462,-3.34464 0.14575,-5.01212 -0.0654,-0.63226 -0.0271,-1.27412 -0.074,-1.90787 -0.0512,-2.42746 -0.11437,-4.85482 -0.1231,-7.28302 -0.008,-6.4984 0.0614,-13.00195 0.57282,-19.48399 0.51465,-5.38717 0.87359,-10.98524 3.19846,-15.96179 0,0 -10.21237,4.6204 -10.21237,4.6204 z" />
      <path
         style="fill:#008000;stroke-width:0.264583"
         id="path26-0-8"
         d="m 92.140396,148.75156 c -2.244693,4.72837 -4.590857,9.40717 -6.987527,14.06069 -2.229019,4.51211 -4.580644,8.96328 -7.065512,13.3395 -0.628502,0.97998 -1.149816,2.02041 -1.672815,3.05832 0,0 10.159907,-4.60362 10.159907,-4.60362 v 0 c 0.477523,-0.99232 0.980808,-1.97122 1.515136,-2.93447 2.318256,-4.38584 4.580697,-8.80127 6.784266,-13.24591 2.444938,-4.78909 4.816306,-9.62151 7.478919,-14.29491 0,0 -10.212374,4.6204 -10.212374,4.6204 z" />
      <path
         style="fill:#008000;stroke-width:0.264583"
         id="path28-3-2"
         d="m 101.92217,155.33722 c 5.28796,2.52566 9.7576,6.8257 13.95029,10.85517 2.09684,1.91501 3.87681,4.10934 5.70419,6.26724 0,0 9.51591,-5.76923 9.51591,-5.76923 v 0 c -2.01657,-2.06328 -3.90989,-4.24874 -6.13437,-6.10448 -3.99849,-3.67709 -8.05335,-7.41695 -12.43386,-10.64217 -0.42373,-0.31198 -0.88869,-0.56371 -1.33303,-0.84556 0,0 -9.26913,6.23903 -9.26913,6.23903 z" />
      <path
         style="fill:#008000;stroke-width:0.264583"
         id="path30-9-9"
         d="m 94.382877,179.61936 c -2.517653,5.82719 -5.137581,11.61982 -7.765653,17.40086 -3.627435,8.20735 -7.281394,16.40306 -10.921367,24.60519 -0.733134,1.89976 -1.630725,3.72698 -2.473987,5.57829 0,0 10.013328,-4.59917 10.013328,-4.59917 v 0 c 0.730547,-1.80259 1.465123,-3.60387 2.138413,-5.42898 3.353417,-8.22793 6.923167,-16.36335 10.627365,-24.43939 2.747248,-5.95097 5.473204,-11.92575 8.645024,-17.66556 0,0 -10.263123,4.54876 -10.263123,4.54876 z" />
      <path
         style="fill:#008000;stroke-width:0.264583"
         id="path32-9-8"
         d="m 100.49238,187.71917 c 2.51004,2.99894 5.26313,5.79508 7.95319,8.63369 5.38659,5.47977 10.42521,11.28122 15.30536,17.21249 2.60802,3.18 5.00809,6.52046 7.54427,9.75585 0,0 9.316,-5.59338 9.316,-5.59338 v 0 c -2.73845,-3.09167 -5.29242,-6.33747 -7.90235,-9.53744 -4.92173,-5.89716 -9.82879,-11.82422 -15.11645,-17.39886 -2.57171,-2.80316 -5.14982,-5.61949 -7.38747,-8.70169 0,0 -9.71255,5.62934 -9.71255,5.62934 z" />
    </g>
    <g
       inkscape:label="Layer 1"
       id="layer1-7-9-2"
       transform="matrix(0.5737279,0,0,0.67301504,144.71082,135.36353)"
       style="fill:#008000">
      <ellipse
         style="fill:#008000;stroke-width:0.264583"
         id="path10-1-0"
         cx="105.45536"
         cy="106.58929"
         rx="19.276785"
         ry="20.410715" />
      <path
         style="fill:#008000;stroke-width:0.264583"
         id="path24-72-7"
         d="m 100.45587,131.36465 c -1.70958,5.14519 -1.914066,10.61982 -2.29075,15.98583 -0.415396,6.58239 -0.778367,13.16926 -0.962303,19.76254 -0.06397,2.47955 -0.113549,4.95965 -0.140073,7.43989 -0.03357,0.65724 -5.29e-4,1.31902 -0.05108,1.97525 0.105852,1.61433 0.122415,3.23484 0.147468,4.8527 0.0021,3.19659 -0.07095,6.3824 0.209675,9.56881 0.139358,1.37956 0.288787,2.75762 0.380142,4.14136 0,0 9.951041,-5.19312 9.951041,-5.19312 v 0 c -0.17612,-1.35266 -0.34244,-2.70654 -0.53113,-4.05756 -0.31294,-3.1412 -0.23085,-6.29371 -0.22056,-9.44731 0.0255,-1.6709 0.0462,-3.34464 0.14575,-5.01212 -0.0654,-0.63226 -0.0271,-1.27412 -0.074,-1.90787 -0.0512,-2.42746 -0.11437,-4.85482 -0.1231,-7.28302 -0.008,-6.4984 0.0614,-13.00195 0.57282,-19.48399 0.51465,-5.38717 0.87359,-10.98524 3.19846,-15.96179 0,0 -10.21237,4.6204 -10.21237,4.6204 z" />
      <path
         style="fill:#008000;stroke-width:0.264583"
         id="path26-3-4"
         d="m 92.140396,148.75156 c -2.244693,4.72837 -4.590857,9.40717 -6.987527,14.06069 -2.229019,4.51211 -4.580644,8.96328 -7.065512,13.3395 -0.628502,0.97998 -1.149816,2.02041 -1.672815,3.05832 0,0 10.159907,-4.60362 10.159907,-4.60362 v 0 c 0.477523,-0.99232 0.980808,-1.97122 1.515136,-2.93447 2.318256,-4.38584 4.580697,-8.80127 6.784266,-13.24591 2.444938,-4.78909 4.816306,-9.62151 7.478919,-14.29491 0,0 -10.212374,4.6204 -10.212374,4.6204 z" />
      <path
         style="fill:#008000;stroke-width:0.264583"
         id="path28-65-8"
         d="m 101.92217,155.33722 c 5.28796,2.52566 9.7576,6.8257 13.95029,10.85517 2.09684,1.91501 3.87681,4.10934 5.70419,6.26724 0,0 9.51591,-5.76923 9.51591,-5.76923 v 0 c -2.01657,-2.06328 -3.90989,-4.24874 -6.13437,-6.10448 -3.99849,-3.67709 -8.05335,-7.41695 -12.43386,-10.64217 -0.42373,-0.31198 -0.88869,-0.56371 -1.33303,-0.84556 0,0 -9.26913,6.23903 -9.26913,6.23903 z" />
      <path
         style="fill:#008000;stroke-width:0.264583"
         id="path30-58-58"
         d="m 94.382877,179.61936 c -2.517653,5.82719 -5.137581,11.61982 -7.765653,17.40086 -3.627435,8.20735 -7.281394,16.40306 -10.921367,24.60519 -0.733134,1.89976 -1.630725,3.72698 -2.473987,5.57829 0,0 10.013328,-4.59917 10.013328,-4.59917 v 0 c 0.730547,-1.80259 1.465123,-3.60387 2.138413,-5.42898 3.353417,-8.22793 6.923167,-16.36335 10.627365,-24.43939 2.747248,-5.95097 5.473204,-11.92575 8.645024,-17.66556 0,0 -10.263123,4.54876 -10.263123,4.54876 z" />
      <path
         style="fill:#008000;stroke-width:0.264583"
         id="path32-1-3"
         d="m 100.49238,187.71917 c 2.51004,2.99894 5.26313,5.79508 7.95319,8.63369 5.38659,5.47977 10.42521,11.28122 15.30536,17.21249 2.60802,3.18 5.00809,6.52046 7.54427,9.75585 0,0 9.316,-5.59338 9.316,-5.59338 v 0 c -2.73845,-3.09167 -5.29242,-6.33747 -7.90235,-9.53744 -4.92173,-5.89716 -9.82879,-11.82422 -15.11645,-17.39886 -2.57171,-2.80316 -5.14982,-5.61949 -7.38747,-8.70169 0,0 -9.71255,5.62934 -9.71255,5.62934 z" />
    </g>
    <g
       inkscape:label="Layer 1"
       id="layer1-7-4-0"
       transform="matrix(0.5737279,0,0,0.67301504,198.49299,135.78969)"
       style="fill:#008000">
      <ellipse
         style="fill:#008000;stroke-width:0.264583"
         id="path10-7-6"
         cx="105.45536"
         cy="106.58929"
         rx="19.276785"
         ry="20.410715" />
      <path
         style="fill:#008000;stroke-width:0.264583"
         id="path24-1-2"
         d="m 100.45587,131.36465 c -1.70958,5.14519 -1.914066,10.61982 -2.29075,15.98583 -0.415396,6.58239 -0.778367,13.16926 -0.962303,19.76254 -0.06397,2.47955 -0.113549,4.95965 -0.140073,7.43989 -0.03357,0.65724 -5.29e-4,1.31902 -0.05108,1.97525 0.105852,1.61433 0.122415,3.23484 0.147468,4.8527 0.0021,3.19659 -0.07095,6.3824 0.209675,9.56881 0.139358,1.37956 0.288787,2.75762 0.380142,4.14136 0,0 9.951041,-5.19312 9.951041,-5.19312 v 0 c -0.17612,-1.35266 -0.34244,-2.70654 -0.53113,-4.05756 -0.31294,-3.1412 -0.23085,-6.29371 -0.22056,-9.44731 0.0255,-1.6709 0.0462,-3.34464 0.14575,-5.01212 -0.0654,-0.63226 -0.0271,-1.27412 -0.074,-1.90787 -0.0512,-2.42746 -0.11437,-4.85482 -0.1231,-7.28302 -0.008,-6.4984 0.0614,-13.00195 0.57282,-19.48399 0.51465,-5.38717 0.87359,-10.98524 3.19846,-15.96179 0,0 -10.21237,4.6204 -10.21237,4.6204 z" />
      <path
         style="fill:#008000;stroke-width:0.264583"
         id="path26-38-2"
         d="m 92.140396,148.75156 c -2.244693,4.72837 -4.590857,9.40717 -6.987527,14.06069 -2.229019,4.51211 -4.580644,8.96328 -7.065512,13.3395 -0.628502,0.97998 -1.149816,2.02041 -1.672815,3.05832 0,0 10.159907,-4.60362 10.159907,-4.60362 v 0 c 0.477523,-0.99232 0.980808,-1.97122 1.515136,-2.93447 2.318256,-4.38584 4.580697,-8.80127 6.784266,-13.24591 2.444938,-4.78909 4.816306,-9.62151 7.478919,-14.29491 0,0 -10.212374,4.6204 -10.212374,4.6204 z" />
      <path
         style="fill:#008000;stroke-width:0.264583"
         id="path28-4-5"
         d="m 101.92217,155.33722 c 5.28796,2.52566 9.7576,6.8257 13.95029,10.85517 2.09684,1.91501 3.87681,4.10934 5.70419,6.26724 0,0 9.51591,-5.76923 9.51591,-5.76923 v 0 c -2.01657,-2.06328 -3.90989,-4.24874 -6.13437,-6.10448 -3.99849,-3.67709 -8.05335,-7.41695 -12.43386,-10.64217 -0.42373,-0.31198 -0.88869,-0.56371 -1.33303,-0.84556 0,0 -9.26913,6.23903 -9.26913,6.23903 z" />
      <path
         style="fill:#008000;stroke-width:0.264583"
         id="path30-8-2"
         d="m 94.382877,179.61936 c -2.517653,5.82719 -5.137581,11.61982 -7.765653,17.40086 -3.627435,8.20735 -7.281394,16.40306 -10.921367,24.60519 -0.733134,1.89976 -1.630725,3.72698 -2.473987,5.57829 0,0 10.013328,-4.59917 10.013328,-4.59917 v 0 c 0.730547,-1.80259 1.465123,-3.60387 2.138413,-5.42898 3.353417,-8.22793 6.923167,-16.36335 10.627365,-24.43939 2.747248,-5.95097 5.473204,-11.92575 8.645024,-17.66556 0,0 -10.263123,4.54876 -10.263123,4.54876 z" />
      <path
         style="fill:#008000;stroke-width:0.264583"
         id="path32-0-27"
         d="m 100.49238,187.71917 c 2.51004,2.99894 5.26313,5.79508 7.95319,8.63369 5.38659,5.47977 10.42521,11.28122 15.30536,17.21249 2.60802,3.18 5.00809,6.52046 7.54427,9.75585 0,0 9.316,-5.59338 9.316,-5.59338 v 0 c -2.73845,-3.09167 -5.29242,-6.33747 -7.90235,-9.53744 -4.92173,-5.89716 -9.82879,-11.82422 -15.11645,-17.39886 -2.57171,-2.80316 -5.14982,-5.61949 -7.38747,-8.70169 0,0 -9.71255,5.62934 -9.71255,5.62934 z" />
    </g>
    <g
       inkscape:label="Layer 1"
       id="layer1-7-46-1"
       transform="matrix(0.5737279,0,0,0.67301504,-304.54403,130.73145)"
       style="fill:#008000">
      <ellipse
         style="fill:#008000;stroke-width:0.264583"
         id="path10-0-5"
         cx="105.45536"
         cy="106.58929"
         rx="19.276785"
         ry="20.410715" />
      <path
         style="fill:#008000;stroke-width:0.264583"
         id="path24-3-2"
         d="m 100.45587,131.36465 c -1.70958,5.14519 -1.914066,10.61982 -2.29075,15.98583 -0.415396,6.58239 -0.778367,13.16926 -0.962303,19.76254 -0.06397,2.47955 -0.113549,4.95965 -0.140073,7.43989 -0.03357,0.65724 -5.29e-4,1.31902 -0.05108,1.97525 0.105852,1.61433 0.122415,3.23484 0.147468,4.8527 0.0021,3.19659 -0.07095,6.3824 0.209675,9.56881 0.139358,1.37956 0.288787,2.75762 0.380142,4.14136 0,0 9.951041,-5.19312 9.951041,-5.19312 v 0 c -0.17612,-1.35266 -0.34244,-2.70654 -0.53113,-4.05756 -0.31294,-3.1412 -0.23085,-6.29371 -0.22056,-9.44731 0.0255,-1.6709 0.0462,-3.34464 0.14575,-5.01212 -0.0654,-0.63226 -0.0271,-1.27412 -0.074,-1.90787 -0.0512,-2.42746 -0.11437,-4.85482 -0.1231,-7.28302 -0.008,-6.4984 0.0614,-13.00195 0.57282,-19.48399 0.51465,-5.38717 0.87359,-10.98524 3.19846,-15.96179 0,0 -10.21237,4.6204 -10.21237,4.6204 z" />
      <path
         style="fill:#008000;stroke-width:0.264583"
         id="path26-2-1"
         d="m 92.140396,148.75156 c -2.244693,4.72837 -4.590857,9.40717 -6.987527,14.06069 -2.229019,4.51211 -4.580644,8.96328 -7.065512,13.3395 -0.628502,0.97998 -1.149816,2.02041 -1.672815,3.05832 0,0 10.159907,-4.60362 10.159907,-4.60362 v 0 c 0.477523,-0.99232 0.980808,-1.97122 1.515136,-2.93447 2.318256,-4.38584 4.580697,-8.80127 6.784266,-13.24591 2.444938,-4.78909 4.816306,-9.62151 7.478919,-14.29491 0,0 -10.212374,4.6204 -10.212374,4.6204 z" />
      <path
         style="fill:#008000;stroke-width:0.264583"
         id="path28-69-1"
         d="m 101.92217,155.33722 c 5.28796,2.52566 9.7576,6.8257 13.95029,10.85517 2.09684,1.91501 3.87681,4.10934 5.70419,6.26724 0,0 9.51591,-5.76923 9.51591,-5.76923 v 0 c -2.01657,-2.06328 -3.90989,-4.24874 -6.13437,-6.10448 -3.99849,-3.67709 -8.05335,-7.41695 -12.43386,-10.64217 -0.42373,-0.31198 -0.88869,-0.56371 -1.33303,-0.84556 0,0 -9.26913,6.23903 -9.26913,6.23903 z" />
      <path
         style="fill:#008000;stroke-width:0.264583"
         id="path30-4-0"
         d="m 94.382877,179.61936 c -2.517653,5.82719 -5.137581,11.61982 -7.765653,17.40086 -3.627435,8.20735 -7.281394,16.40306 -10.921367,24.60519 -0.733134,1.89976 -1.630725,3.72698 -2.473987,5.57829 0,0 10.013328,-4.59917 10.013328,-4.59917 v 0 c 0.730547,-1.80259 1.465123,-3.60387 2.138413,-5.42898 3.353417,-8.22793 6.923167,-16.36335 10.627365,-24.43939 2.747248,-5.95097 5.473204,-11.92575 8.645024,-17.66556 0,0 -10.263123,4.54876 -10.263123,4.54876 z" />
      <path
         style="fill:#008000;stroke-width:0.264583"
         id="path32-13-1"
         d="m 100.49238,187.71917 c 2.51004,2.99894 5.26313,5.79508 7.95319,8.63369 5.38659,5.47977 10.42521,11.28122 15.30536,17.21249 2.60802,3.18 5.00809,6.52046 7.54427,9.75585 0,0 9.316,-5.59338 9.316,-5.59338 v 0 c -2.73845,-3.09167 -5.29242,-6.33747 -7.90235,-9.53744 -4.92173,-5.89716 -9.82879,-11.82422 -15.11645,-17.39886 -2.57171,-2.80316 -5.14982,-5.61949 -7.38747,-8.70169 0,0 -9.71255,5.62934 -9.71255,5.62934 z" />
    </g>
    <g
       inkscape:label="Layer 1"
       id="layer1-7-0-7-8"
       transform="matrix(0.5737279,0,0,0.67301504,-250.11546,134.13323)"
       style="fill:#008000">
      <ellipse
         style="fill:#008000;stroke-width:0.264583"
         id="path10-3-8-7"
         cx="105.45536"
         cy="106.58929"
         rx="19.276785"
         ry="20.410715" />
      <path
         style="fill:#008000;stroke-width:0.264583"
         id="path24-9-8-6"
         d="m 100.45587,131.36465 c -1.70958,5.14519 -1.914066,10.61982 -2.29075,15.98583 -0.415396,6.58239 -0.778367,13.16926 -0.962303,19.76254 -0.06397,2.47955 -0.113549,4.95965 -0.140073,7.43989 -0.03357,0.65724 -5.29e-4,1.31902 -0.05108,1.97525 0.105852,1.61433 0.122415,3.23484 0.147468,4.8527 0.0021,3.19659 -0.07095,6.3824 0.209675,9.56881 0.139358,1.37956 0.288787,2.75762 0.380142,4.14136 0,0 9.951041,-5.19312 9.951041,-5.19312 v 0 c -0.17612,-1.35266 -0.34244,-2.70654 -0.53113,-4.05756 -0.31294,-3.1412 -0.23085,-6.29371 -0.22056,-9.44731 0.0255,-1.6709 0.0462,-3.34464 0.14575,-5.01212 -0.0654,-0.63226 -0.0271,-1.27412 -0.074,-1.90787 -0.0512,-2.42746 -0.11437,-4.85482 -0.1231,-7.28302 -0.008,-6.4984 0.0614,-13.00195 0.57282,-19.48399 0.51465,-5.38717 0.87359,-10.98524 3.19846,-15.96179 0,0 -10.21237,4.6204 -10.21237,4.6204 z" />
      <path
         style="fill:#008000;stroke-width:0.264583"
         id="path26-8-3-0"
         d="m 92.140396,148.75156 c -2.244693,4.72837 -4.590857,9.40717 -6.987527,14.06069 -2.229019,4.51211 -4.580644,8.96328 -7.065512,13.3395 -0.628502,0.97998 -1.149816,2.02041 -1.672815,3.05832 0,0 10.159907,-4.60362 10.159907,-4.60362 v 0 c 0.477523,-0.99232 0.980808,-1.97122 1.515136,-2.93447 2.318256,-4.38584 4.580697,-8.80127 6.784266,-13.24591 2.444938,-4.78909 4.816306,-9.62151 7.478919,-14.29491 0,0 -10.212374,4.6204 -10.212374,4.6204 z" />
      <path
         style="fill:#008000;stroke-width:0.264583"
         id="path28-6-8-0"
         d="m 101.92217,155.33722 c 5.28796,2.52566 9.7576,6.8257 13.95029,10.85517 2.09684,1.91501 3.87681,4.10934 5.70419,6.26724 0,0 9.51591,-5.76923 9.51591,-5.76923 v 0 c -2.01657,-2.06328 -3.90989,-4.24874 -6.13437,-6.10448 -3.99849,-3.67709 -8.05335,-7.41695 -12.43386,-10.64217 -0.42373,-0.31198 -0.88869,-0.56371 -1.33303,-0.84556 0,0 -9.26913,6.23903 -9.26913,6.23903 z" />
      <path
         style="fill:#008000;stroke-width:0.264583"
         id="path30-5-1-9"
         d="m 94.382877,179.61936 c -2.517653,5.82719 -5.137581,11.61982 -7.765653,17.40086 -3.627435,8.20735 -7.281394,16.40306 -10.921367,24.60519 -0.733134,1.89976 -1.630725,3.72698 -2.473987,5.57829 0,0 10.013328,-4.59917 10.013328,-4.59917 v 0 c 0.730547,-1.80259 1.465123,-3.60387 2.138413,-5.42898 3.353417,-8.22793 6.923167,-16.36335 10.627365,-24.43939 2.747248,-5.95097 5.473204,-11.92575 8.645024,-17.66556 0,0 -10.263123,4.54876 -10.263123,4.54876 z" />
      <path
         style="fill:#008000;stroke-width:0.264583"
         id="path32-7-5-5"
         d="m 100.49238,187.71917 c 2.51004,2.99894 5.26313,5.79508 7.95319,8.63369 5.38659,5.47977 10.42521,11.28122 15.30536,17.21249 2.60802,3.18 5.00809,6.52046 7.54427,9.75585 0,0 9.316,-5.59338 9.316,-5.59338 v 0 c -2.73845,-3.09167 -5.29242,-6.33747 -7.90235,-9.53744 -4.92173,-5.89716 -9.82879,-11.82422 -15.11645,-17.39886 -2.57171,-2.80316 -5.14982,-5.61949 -7.38747,-8.70169 0,0 -9.71255,5.62934 -9.71255,5.62934 z" />
    </g>
    <g
       inkscape:label="Layer 1"
       id="layer1-7-6-3-6"
       transform="matrix(0.5737279,0,0,0.67301504,-191.15117,131.10942)"
       style="fill:#008000">
      <ellipse
         style="fill:#008000;stroke-width:0.264583"
         id="path10-2-5-2"
         cx="105.45536"
         cy="106.58929"
         rx="19.276785"
         ry="20.410715" />
      <path
         style="fill:#008000;stroke-width:0.264583"
         id="path24-7-4-8"
         d="m 100.45587,131.36465 c -1.70958,5.14519 -1.914066,10.61982 -2.29075,15.98583 -0.415396,6.58239 -0.778367,13.16926 -0.962303,19.76254 -0.06397,2.47955 -0.113549,4.95965 -0.140073,7.43989 -0.03357,0.65724 -5.29e-4,1.31902 -0.05108,1.97525 0.105852,1.61433 0.122415,3.23484 0.147468,4.8527 0.0021,3.19659 -0.07095,6.3824 0.209675,9.56881 0.139358,1.37956 0.288787,2.75762 0.380142,4.14136 0,0 9.951041,-5.19312 9.951041,-5.19312 v 0 c -0.17612,-1.35266 -0.34244,-2.70654 -0.53113,-4.05756 -0.31294,-3.1412 -0.23085,-6.29371 -0.22056,-9.44731 0.0255,-1.6709 0.0462,-3.34464 0.14575,-5.01212 -0.0654,-0.63226 -0.0271,-1.27412 -0.074,-1.90787 -0.0512,-2.42746 -0.11437,-4.85482 -0.1231,-7.28302 -0.008,-6.4984 0.0614,-13.00195 0.57282,-19.48399 0.51465,-5.38717 0.87359,-10.98524 3.19846,-15.96179 0,0 -10.21237,4.6204 -10.21237,4.6204 z" />
      <path
         style="fill:#008000;stroke-width:0.264583"
         id="path26-0-3-5"
         d="m 92.140396,148.75156 c -2.244693,4.72837 -4.590857,9.40717 -6.987527,14.06069 -2.229019,4.51211 -4.580644,8.96328 -7.065512,13.3395 -0.628502,0.97998 -1.149816,2.02041 -1.672815,3.05832 0,0 10.159907,-4.60362 10.159907,-4.60362 v 0 c 0.477523,-0.99232 0.980808,-1.97122 1.515136,-2.93447 2.318256,-4.38584 4.580697,-8.80127 6.784266,-13.24591 2.444938,-4.78909 4.816306,-9.62151 7.478919,-14.29491 0,0 -10.212374,4.6204 -10.212374,4.6204 z" />
      <path
         style="fill:#008000;stroke-width:0.264583"
         id="path28-3-6-9"
         d="m 101.92217,155.33722 c 5.28796,2.52566 9.7576,6.8257 13.95029,10.85517 2.09684,1.91501 3.87681,4.10934 5.70419,6.26724 0,0 9.51591,-5.76923 9.51591,-5.76923 v 0 c -2.01657,-2.06328 -3.90989,-4.24874 -6.13437,-6.10448 -3.99849,-3.67709 -8.05335,-7.41695 -12.43386,-10.64217 -0.42373,-0.31198 -0.88869,-0.56371 -1.33303,-0.84556 0,0 -9.26913,6.23903 -9.26913,6.23903 z" />
      <path
         style="fill:#008000;stroke-width:0.264583"
         id="path30-9-5-4"
         d="m 94.382877,179.61936 c -2.517653,5.82719 -5.137581,11.61982 -7.765653,17.40086 -3.627435,8.20735 -7.281394,16.40306 -10.921367,24.60519 -0.733134,1.89976 -1.630725,3.72698 -2.473987,5.57829 0,0 10.013328,-4.59917 10.013328,-4.59917 v 0 c 0.730547,-1.80259 1.465123,-3.60387 2.138413,-5.42898 3.353417,-8.22793 6.923167,-16.36335 10.627365,-24.43939 2.747248,-5.95097 5.473204,-11.92575 8.645024,-17.66556 0,0 -10.263123,4.54876 -10.263123,4.54876 z" />
      <path
         style="fill:#008000;stroke-width:0.264583"
         id="path32-9-9-3"
         d="m 100.49238,187.71917 c 2.51004,2.99894 5.26313,5.79508 7.95319,8.63369 5.38659,5.47977 10.42521,11.28122 15.30536,17.21249 2.60802,3.18 5.00809,6.52046 7.54427,9.75585 0,0 9.316,-5.59338 9.316,-5.59338 v 0 c -2.73845,-3.09167 -5.29242,-6.33747 -7.90235,-9.53744 -4.92173,-5.89716 -9.82879,-11.82422 -15.11645,-17.39886 -2.57171,-2.80316 -5.14982,-5.61949 -7.38747,-8.70169 0,0 -9.71255,5.62934 -9.71255,5.62934 z" />
    </g>
    <g
       inkscape:label="Layer 1"
       id="layer1-7-9-5-9"
       transform="matrix(0.5737279,0,0,0.67301504,-135.96665,133.37728)"
       style="fill:#008000">
      <ellipse
         style="fill:#008000;stroke-width:0.264583"
         id="path10-1-4-0"
         cx="105.45536"
         cy="106.58929"
         rx="19.276785"
         ry="20.410715" />
      <path
         style="fill:#008000;stroke-width:0.264583"
         id="path24-72-9-5"
         d="m 100.45587,131.36465 c -1.70958,5.14519 -1.914066,10.61982 -2.29075,15.98583 -0.415396,6.58239 -0.778367,13.16926 -0.962303,19.76254 -0.06397,2.47955 -0.113549,4.95965 -0.140073,7.43989 -0.03357,0.65724 -5.29e-4,1.31902 -0.05108,1.97525 0.105852,1.61433 0.122415,3.23484 0.147468,4.8527 0.0021,3.19659 -0.07095,6.3824 0.209675,9.56881 0.139358,1.37956 0.288787,2.75762 0.380142,4.14136 0,0 9.951041,-5.19312 9.951041,-5.19312 v 0 c -0.17612,-1.35266 -0.34244,-2.70654 -0.53113,-4.05756 -0.31294,-3.1412 -0.23085,-6.29371 -0.22056,-9.44731 0.0255,-1.6709 0.0462,-3.34464 0.14575,-5.01212 -0.0654,-0.63226 -0.0271,-1.27412 -0.074,-1.90787 -0.0512,-2.42746 -0.11437,-4.85482 -0.1231,-7.28302 -0.008,-6.4984 0.0614,-13.00195 0.57282,-19.48399 0.51465,-5.38717 0.87359,-10.98524 3.19846,-15.96179 0,0 -10.21237,4.6204 -10.21237,4.6204 z" />
      <path
         style="fill:#008000;stroke-width:0.264583"
         id="path26-3-1-6"
         d="m 92.140396,148.75156 c -2.244693,4.72837 -4.590857,9.40717 -6.987527,14.06069 -2.229019,4.51211 -4.580644,8.96328 -7.065512,13.3395 -0.628502,0.97998 -1.149816,2.02041 -1.672815,3.05832 0,0 10.159907,-4.60362 10.159907,-4.60362 v 0 c 0.477523,-0.99232 0.980808,-1.97122 1.515136,-2.93447 2.318256,-4.38584 4.580697,-8.80127 6.784266,-13.24591 2.444938,-4.78909 4.816306,-9.62151 7.478919,-14.29491 0,0 -10.212374,4.6204 -10.212374,4.6204 z" />
      <path
         style="fill:#008000;stroke-width:0.264583"
         id="path28-65-7-3"
         d="m 101.92217,155.33722 c 5.28796,2.52566 9.7576,6.8257 13.95029,10.85517 2.09684,1.91501 3.87681,4.10934 5.70419,6.26724 0,0 9.51591,-5.76923 9.51591,-5.76923 v 0 c -2.01657,-2.06328 -3.90989,-4.24874 -6.13437,-6.10448 -3.99849,-3.67709 -8.05335,-7.41695 -12.43386,-10.64217 -0.42373,-0.31198 -0.88869,-0.56371 -1.33303,-0.84556 0,0 -9.26913,6.23903 -9.26913,6.23903 z" />
      <path
         style="fill:#008000;stroke-width:0.264583"
         id="path30-58-5-6"
         d="m 94.382877,179.61936 c -2.517653,5.82719 -5.137581,11.61982 -7.765653,17.40086 -3.627435,8.20735 -7.281394,16.40306 -10.921367,24.60519 -0.733134,1.89976 -1.630725,3.72698 -2.473987,5.57829 0,0 10.013328,-4.59917 10.013328,-4.59917 v 0 c 0.730547,-1.80259 1.465123,-3.60387 2.138413,-5.42898 3.353417,-8.22793 6.923167,-16.36335 10.627365,-24.43939 2.747248,-5.95097 5.473204,-11.92575 8.645024,-17.66556 0,0 -10.263123,4.54876 -10.263123,4.54876 z" />
      <path
         style="fill:#008000;stroke-width:0.264583"
         id="path32-1-5-3"
         d="m 100.49238,187.71917 c 2.51004,2.99894 5.26313,5.79508 7.95319,8.63369 5.38659,5.47977 10.42521,11.28122 15.30536,17.21249 2.60802,3.18 5.00809,6.52046 7.54427,9.75585 0,0 9.316,-5.59338 9.316,-5.59338 v 0 c -2.73845,-3.09167 -5.29242,-6.33747 -7.90235,-9.53744 -4.92173,-5.89716 -9.82879,-11.82422 -15.11645,-17.39886 -2.57171,-2.80316 -5.14982,-5.61949 -7.38747,-8.70169 0,0 -9.71255,5.62934 -9.71255,5.62934 z" />
    </g>
    <g
       inkscape:label="Layer 1"
       id="layer1-7-4-4-0"
       transform="matrix(0.5737279,0,0,0.67301504,-82.184471,133.80344)"
       style="fill:#008000">
      <ellipse
         style="fill:#008000;stroke-width:0.264583"
         id="path10-7-1-8"
         cx="105.45536"
         cy="106.58929"
         rx="19.276785"
         ry="20.410715" />
      <path
         style="fill:#008000;stroke-width:0.264583"
         id="path24-1-8-4"
         d="m 100.45587,131.36465 c -1.70958,5.14519 -1.914066,10.61982 -2.29075,15.98583 -0.415396,6.58239 -0.778367,13.16926 -0.962303,19.76254 -0.06397,2.47955 -0.113549,4.95965 -0.140073,7.43989 -0.03357,0.65724 -5.29e-4,1.31902 -0.05108,1.97525 0.105852,1.61433 0.122415,3.23484 0.147468,4.8527 0.0021,3.19659 -0.07095,6.3824 0.209675,9.56881 0.139358,1.37956 0.288787,2.75762 0.380142,4.14136 0,0 9.951041,-5.19312 9.951041,-5.19312 v 0 c -0.17612,-1.35266 -0.34244,-2.70654 -0.53113,-4.05756 -0.31294,-3.1412 -0.23085,-6.29371 -0.22056,-9.44731 0.0255,-1.6709 0.0462,-3.34464 0.14575,-5.01212 -0.0654,-0.63226 -0.0271,-1.27412 -0.074,-1.90787 -0.0512,-2.42746 -0.11437,-4.85482 -0.1231,-7.28302 -0.008,-6.4984 0.0614,-13.00195 0.57282,-19.48399 0.51465,-5.38717 0.87359,-10.98524 3.19846,-15.96179 0,0 -10.21237,4.6204 -10.21237,4.6204 z" />
      <path
         style="fill:#008000;stroke-width:0.264583"
         id="path26-38-8-0"
         d="m 92.140396,148.75156 c -2.244693,4.72837 -4.590857,9.40717 -6.987527,14.06069 -2.229019,4.51211 -4.580644,8.96328 -7.065512,13.3395 -0.628502,0.97998 -1.149816,2.02041 -1.672815,3.05832 0,0 10.159907,-4.60362 10.159907,-4.60362 v 0 c 0.477523,-0.99232 0.980808,-1.97122 1.515136,-2.93447 2.318256,-4.38584 4.580697,-8.80127 6.784266,-13.24591 2.444938,-4.78909 4.816306,-9.62151 7.478919,-14.29491 0,0 -10.212374,4.6204 -10.212374,4.6204 z" />
      <path
         style="fill:#008000;stroke-width:0.264583"
         id="path28-4-3-4"
         d="m 101.92217,155.33722 c 5.28796,2.52566 9.7576,6.8257 13.95029,10.85517 2.09684,1.91501 3.87681,4.10934 5.70419,6.26724 0,0 9.51591,-5.76923 9.51591,-5.76923 v 0 c -2.01657,-2.06328 -3.90989,-4.24874 -6.13437,-6.10448 -3.99849,-3.67709 -8.05335,-7.41695 -12.43386,-10.64217 -0.42373,-0.31198 -0.88869,-0.56371 -1.33303,-0.84556 0,0 -9.26913,6.23903 -9.26913,6.23903 z" />
      <path
         style="fill:#008000;stroke-width:0.264583"
         id="path30-8-5-6"
         d="m 94.382877,179.61936 c -2.517653,5.82719 -5.137581,11.61982 -7.765653,17.40086 -3.627435,8.20735 -7.281394,16.40306 -10.921367,24.60519 -0.733134,1.89976 -1.630725,3.72698 -2.473987,5.57829 0,0 10.013328,-4.59917 10.013328,-4.59917 v 0 c 0.730547,-1.80259 1.465123,-3.60387 2.138413,-5.42898 3.353417,-8.22793 6.923167,-16.36335 10.627365,-24.43939 2.747248,-5.95097 5.473204,-11.92575 8.645024,-17.66556 0,0 -10.263123,4.54876 -10.263123,4.54876 z" />
      <path
         style="fill:#008000;stroke-width:0.264583"
         id="path32-0-2-4"
         d="m 100.49238,187.71917 c 2.51004,2.99894 5.26313,5.79508 7.95319,8.63369 5.38659,5.47977 10.42521,11.28122 15.30536,17.21249 2.60802,3.18 5.00809,6.52046 7.54427,9.75585 0,0 9.316,-5.59338 9.316,-5.59338 v 0 c -2.73845,-3.09167 -5.29242,-6.33747 -7.90235,-9.53744 -4.92173,-5.89716 -9.82879,-11.82422 -15.11645,-17.39886 -2.57171,-2.80316 -5.14982,-5.61949 -7.38747,-8.70169 0,0 -9.71255,5.62934 -9.71255,5.62934 z" />
    </g>
  </g>
</svg>
