<?xml version="1.0" encoding="UTF-8" standalone="no"?>
<svg
   xmlns:dc="http://purl.org/dc/elements/1.1/"
   xmlns:cc="http://creativecommons.org/ns#"
   xmlns:rdf="http://www.w3.org/1999/02/22-rdf-syntax-ns#"
   xmlns:svg="http://www.w3.org/2000/svg"
   xmlns="http://www.w3.org/2000/svg"
   xmlns:xlink="http://www.w3.org/1999/xlink"
   xmlns:sodipodi="http://sodipodi.sourceforge.net/DTD/sodipodi-0.dtd"
   xmlns:inkscape="http://www.inkscape.org/namespaces/inkscape"
   width="1173.121mm"
   height="329.59521mm"
   viewBox="0 0 1173.121 329.59521"
   version="1.1"
   id="svg61"
   inkscape:version="1.0.1 (c497b03c, 2020-09-10)"
   sodipodi:docname="dice_solarsystem.svg">
  <defs
     id="defs55">
    <linearGradient
       inkscape:collect="always"
       xlink:href="#linearGradient44"
       id="linearGradient46"
       x1="140.60715"
       y1="-6.0476184"
       x2="-61.232143"
       y2="-103.56548"
       gradientUnits="userSpaceOnUse"
       gradientTransform="translate(735.22442,55.346279)" />
    <linearGradient
       inkscape:collect="always"
       id="linearGradient44">
      <stop
         style="stop-color:#00ccff;stop-opacity:1;"
         offset="0"
         id="stop40" />
      <stop
         style="stop-color:#00ccff;stop-opacity:0;"
         offset="1"
         id="stop42" />
    </linearGradient>
  </defs>
  <sodipodi:namedview
     id="base"
     pagecolor="#ffffff"
     bordercolor="#666666"
     borderopacity="1.0"
     inkscape:pageopacity="0.0"
     inkscape:pageshadow="2"
     inkscape:zoom="0.19467309"
     inkscape:cx="2060.3518"
     inkscape:cy="610.82435"
     inkscape:document-units="mm"
     inkscape:current-layer="layer1"
     inkscape:document-rotation="0"
     showgrid="false"
     inkscape:window-width="1252"
     inkscape:window-height="806"
     inkscape:window-x="26"
     inkscape:window-y="37"
     inkscape:window-maximized="0" />
  <metadata
     id="metadata58">
    <rdf:RDF>
      <cc:Work
         rdf:about="">
        <dc:format>image/svg+xml</dc:format>
        <dc:type
           rdf:resource="http://purl.org/dc/dcmitype/StillImage" />
        <dc:title></dc:title>
      </cc:Work>
    </rdf:RDF>
  </metadata>
  <g
     inkscape:label="Layer 1"
     inkscape:groupmode="layer"
     id="layer1"
     transform="translate(346.4263,45.195391)">
    <path
       style="fill:#000000;stroke-width:26.4583"
       id="path313"
       d="m -147.08907,81.401461 c 0.54069,11.261249 0.64066,22.540209 0.76441,33.812209 0.1343,18.31676 0.12719,36.63582 -0.13,54.95144 -0.0945,8.33856 -0.29056,16.67536 -0.53364,25.01074 -0.028,1.79944 -0.15773,3.59585 -0.13606,5.39579 0.0654,2.34046 0.0791,4.68096 0.0608,7.0221 0.0514,0.99285 0.18855,1.97678 0.33748,2.95848 0,0 9.87156,-5.24182 9.87156,-5.24182 v 0 c -0.17322,-0.90605 -0.3304,-1.81562 -0.34719,-2.74153 -0.0186,-2.3618 -0.003,-4.72295 0.0609,-7.0841 0.0208,-1.75384 -0.10568,-3.50385 -0.13606,-5.25713 -0.24508,-8.15402 -0.44042,-16.30959 -0.53364,-24.46693 -0.26029,-18.27143 -0.26219,-36.54638 -0.13001,-54.81897 0.12521,-11.531722 0.23232,-23.069627 0.76442,-34.591183 0,0 -9.91296,5.050904 -9.91296,5.050904 z" />
    <path
       style="fill:#000000;stroke-width:26.4583"
       id="path315"
       d="m -140.0821,84.959368 c 7.77427,-0.108148 15.53191,-0.626909 23.29726,-0.980162 15.02089,-0.835112 30.073366,-0.454385 45.101256,-0.927375 1.52837,-0.1328 3.06126,-0.220882 4.58508,-0.398402 1.27891,-0.148986 8.75209,-1.290243 9.96296,-1.460759 4.78734,-0.674161 9.57953,-1.187008 14.39251,-1.631627 3.40204,-0.342601 6.82215,-0.415954 10.22872,-0.686059 0,0 8.82131,-6.566419 8.82131,-6.566419 v 0 c -3.54454,0.537059 -7.13796,0.640083 -10.69798,1.0576 -4.85478,0.511263 -9.70812,1.02316 -14.54552,1.684222 -3.29089,0.449717 -6.56632,1.009411 -9.85949,1.441886 -1.55702,0.204473 -3.12004,0.36022 -4.68005,0.54033 -15.12917,0.868738 -30.30395,0.755687 -45.448766,1.195223 -7.35636,0.160509 -14.72142,0.403566 -22.07793,0.134998 0,0 -9.07936,6.596544 -9.07936,6.596544 z" />
    <path
       style="fill:#000000;stroke-width:26.4583"
       id="path317"
       d="m -31.428364,81.401461 c 0.50104,10.394757 0.5587,20.805929 0.68466,31.210289 0.34962,18.97662 0.29864,37.96005 -0.0722,56.93575 -0.13923,6.57604 -0.35648,13.14979 -0.57931,19.72335 -0.0771,2.79965 0.0282,5.60002 0.0733,8.39944 0.0388,3.28134 0.0356,6.56365 -0.0772,9.84349 0,0 9.85452,-5.02112 9.85452,-5.02112 v 0 c -0.11602,-3.25351 -0.11417,-6.5097 -0.0772,-9.76479 0.0448,-2.82431 0.14991,-5.64964 0.0733,-8.47416 -0.22392,-6.37671 -0.44159,-12.75365 -0.5793,-19.133 -0.37788,-18.95111 -0.41567,-37.91003 -0.0722,-56.86215 0.12727,-10.636987 0.19121,-21.280106 0.68469,-31.908003 0,0 -9.91296,5.050904 -9.91296,5.050904 z" />
    <path
       style="fill:#000000;stroke-width:26.4583"
       id="path319"
       d="m -144.1264,209.66296 c 11.19019,-0.72558 22.39768,-1.11464 33.60157,-1.55573 13.472976,-0.57623 26.931656,-1.42859 40.406446,-1.95989 6.86821,-0.28236 13.74219,-0.35034 20.6153,-0.33591 3.11364,0.21957 6.16617,-0.18618 9.22713,-0.68817 1.61195,-0.2768 3.16471,-0.79772 4.74845,-1.19203 0,0 8.93083,-6.82816 8.93083,-6.82816 v 0 c -1.63756,0.40891 -3.24011,0.92777 -4.86368,1.38812 -3.0671,0.52834 -6.11103,1.09663 -9.24414,0.91524 -7.07774,0.14322 -14.15201,0.41702 -21.22398,0.73224 -13.57865,0.72582 -27.14548,1.66698 -40.733316,2.21112 -10.8169,0.3753 -21.64027,0.7256 -32.46383,0.77372 0,0 -9.00078,6.53945 -9.00078,6.53945 z" />
    <path
       style="fill:#000000;stroke-width:26.4583"
       id="path321"
       d="m -128.88414,74.077823 c 3.92435,-2.76267 8.11948,-5.109281 12.25035,-7.54313 6.28686,-3.66108 12.11818,-7.995566 17.793766,-12.528299 5.32215,-4.498991 10.74596,-8.875332 16.06176,-13.381763 1.35786,-1.173652 2.72983,-2.329447 4.10281,-3.484308 0.71474,-0.601194 1.46269,-1.09088 2.11182,-1.762136 0.57198,-0.529915 1.03997,-1.073873 1.42774,-1.761642 0,0 -10.34605,4.532451 -10.34605,4.532451 v 0 c -0.42798,0.542997 -0.96497,0.97386 -1.43733,1.476447 -1.9849,1.64978 -3.92495,3.352736 -5.86639,5.053301 -5.18674,4.475318 -10.482166,8.822735 -15.743246,13.209884 -5.76069,4.516673 -11.69627,8.799449 -18.04132,12.469167 -4.30212,2.522569 -8.59746,5.054491 -12.7875,7.760689 0,0 10.47359,-4.040661 10.47359,-4.040661 z" />
    <path
       style="fill:#000000;stroke-width:26.4583"
       id="path323"
       d="m -83.090824,38.829142 c 5.45166,-0.13191 10.90552,-0.138917 16.35826,-0.206306 8.21534,-0.07283 16.43073,-0.0016 24.64599,0.04005 6.42662,0.02863 12.57345,-1.909193 18.71218,-3.558598 5.72188,-1.820141 11.63487,-2.833686 17.5251843,-3.917136 2.13823,-0.35084 4.26741,-0.751983 6.39465999,-1.16318 0,0 8.71850001,-6.61108 8.71850001,-6.61108 v 0 c -2.15842,0.477676 -4.318,0.958951 -6.50864,1.269963 -5.91889,1.182143 -11.91112,2.071135 -17.6724343,3.931224 -6.11362,1.640721 -12.20618,3.656754 -18.59489,3.819025 -8.25201,0.04112 -16.50417,0.112803 -24.75626,0.04005 -5.26344,-0.06734 -10.52809,-0.07202 -15.79034,-0.206306 0,0 -9.03221,6.562284 -9.03221,6.562284 z" />
    <path
       style="fill:#000000;stroke-width:26.4583"
       id="path325"
       d="m 1.2717903,37.447242 c -4.31779,4.859213 -9.00663,9.376069 -13.4792543,14.094706 -6.70817,7.101605 -13.17395,14.446639 -19.31922,22.041705 -2.30269,2.934319 -1.24007,1.558827 -3.19582,4.120298 0,0 9.98619,-4.310758 9.98619,-4.310758 v 0 c 1.75798,-2.454879 0.79497,-1.134581 2.90143,-3.951812 5.98402,-7.612769 12.3970743,-14.892615 19.1230743,-21.857459 4.72178,-4.893297 9.68926,-9.543399 14.2966797,-14.542819 0,0 -10.3130797,4.406139 -10.3130797,4.406139 z" />
    <path
       style="fill:#000000;stroke-width:26.4583"
       id="path327"
       d="m 3.3541103,40.666046 c 0.60306,11.249478 0.57899,22.524448 0.63222,33.787025 0.0453,13.214652 -0.006,26.429019 -0.30072,39.640649 -0.12573,4.28747 -0.20273,8.5764 -0.33735,12.8636 0.11724,0.99955 0.0316,0.54283 0.23053,1.3748 0,0 9.8767897,-5.34271 9.8767897,-5.34271 v 0 c -0.17063,-0.63748 -0.0945,-0.27932 -0.19997,-1.08014 -0.13536,-4.17257 -0.21111,-8.34698 -0.33734,-12.51984 -0.29901,-13.109382 -0.3442,-26.22168 -0.30075,-39.334165 0.054,-11.477533 0.0397,-22.966165 0.63224,-34.431301 0,0 -9.8956497,5.042082 -9.8956497,5.042082 z" />
    <path
       style="fill:#000000;stroke-width:26.4583"
       id="path329"
       d="m 5.9229003,133.52451 c -5.16274001,7.99392 -9.7825,16.33309 -14.6667,24.50094 -5.6636743,9.47096 -11.5963743,18.81928 -16.0621243,28.93272 -1.21679,2.83595 -2.07425,5.79905 -3.09732,8.70492 0,0 10.07285,-4.739 10.07285,-4.739 v 0 c 0.83936,-2.81023 1.48929,-5.6812 2.65245,-8.38688 4.200444,-9.95028 9.7155043,-19.25414 15.33858429,-28.4567 C 5.3054103,145.59352 10.2808,136.96677 16.18603,128.97574 c 0,0 -10.2631297,4.54877 -10.2631297,4.54877 z" />
    <path
       style="fill:#000000;stroke-width:26.4583"
       id="path331"
       d="m -114.27245,100.28835 c -0.65985,-0.867039 -2.2573,-2.595618 -1.16298,-3.682555 0.19713,-0.195802 0.46616,-0.30249 0.69924,-0.453737 4.24013,-1.596977 -0.58461,0.157052 -7.61998,4.735942 -0.27652,0.17997 0.64791,-0.15606 0.97782,-0.15343 1.17136,0.009 1.52395,0.84019 2.0011,1.74355 0.40025,1.93054 0.16563,4.36355 -1.88484,5.19101 3.07811,-1.78698 6.15621,-3.57396 9.23432,-5.36094 -0.77561,0.12814 -0.35997,-0.54668 -0.12489,-0.85955 3.96992,0.97205 0.52549,0.008 -8.79782,5.47346 -0.11168,0.0655 0.23962,-0.11044 0.36849,-0.12272 0.46227,-0.044 0.68193,0.28706 0.91077,0.61513 0.2836,0.8508 0.90597,2.27925 0.0923,2.96873 -3.64352,1.29712 -5.76859,3.02195 8.72189,-5.14507 0.0499,-0.0281 -0.0554,0.11332 -0.10929,0.13262 -0.12569,0.045 -0.16296,-0.21562 -0.21197,-0.3398 -0.31996,-0.83823 -0.17714,-1.50166 0.17704,-2.28209 0,0 -10.1901,4.79025 -10.1901,4.79025 v 0 c -0.23366,1.0196 -0.17329,2.0171 0.21464,2.99807 2.21919,4.93514 9.69988,-0.63008 11.62567,-4.82022 0.22641,-1.34761 -0.0815,-2.73444 -0.6413,-3.97016 -2.93629,-4.575387 -10.56452,-0.60371 -12.35426,4.46468 -0.78917,5.31906 11.12575,5.066 11.4966,-2.66717 1.58698,-1.84266 1.69821,-4.266816 1.0753,-6.547842 -0.49674,-0.987478 -0.6664,-1.624269 -1.56784,-2.312006 -0.42041,-0.320741 -1.62156,-0.85793 -2.21068,-0.575593 -9.16993,4.394689 -7.67801,3.255444 -11.45145,6.372421 -0.16805,0.30385 -0.40138,0.57988 -0.50413,0.91155 -0.53876,1.73906 0.8058,3.39439 1.6617,4.7628 0,0 9.57462,-5.86733 9.57462,-5.86733 z" />
    <path
       style="fill:#000000;stroke-width:26.4583"
       id="path333"
       d="m -122.04039,143.19903 c 1.91649,0.55547 2.73198,2.14153 3.25129,3.9282 0.17823,1.0002 0.74025,3.0995 -0.24739,3.91127 -0.13798,0.11341 -0.33655,0.11974 -0.50483,0.17961 3.02431,-1.79832 6.07494,-3.5531 9.07292,-5.39498 0.0246,-0.0151 -0.31469,0.32615 -0.97681,-0.0912 -0.57092,-0.35986 -0.81621,-0.96457 -1.06863,-1.55233 -0.34342,-0.97035 -0.61576,-2.25939 0.48762,-2.78351 3.95672,-0.815 0.24562,-0.10457 -8.64548,5.18872 -0.1693,0.10079 0.37079,-0.13518 0.56151,-0.18466 0.51779,-0.13434 1.06017,-0.16809 1.59126,-0.20302 0.005,-0.10929 1.26099,-0.0727 0.69395,0.18466 -4.38621,0.90095 2.62668,-1.75341 8.2872,-5.17023 0.21907,-0.13223 -0.47756,0.18861 -0.72642,0.24817 -0.72341,0.17315 -0.82843,0.11712 -1.54065,0.0756 -0.61668,-0.11213 -1.2053,-0.27185 -1.67685,-0.69328 0,0 -9.58827,5.89156 -9.58827,5.89156 v 0 c 0.61303,0.63173 1.25211,1.02431 2.12886,1.2182 4.73912,1.18035 12.1302,-1.8381 13.19833,-6.6096 -0.16361,-0.91309 -0.64793,-1.86004 -1.72013,-1.78588 -4.85743,0.11594 -9.72676,2.02261 -12.91429,6.21315 -0.55925,1.28378 -0.42821,2.61975 0.12704,3.8946 2.98417,6.55897 7.05909,0.89497 13.08185,-2.71582 0.85599,-1.64468 0.57893,-3.40775 0.12402,-5.15159 -0.64289,-2.06361 -1.65474,-3.9541 -3.71445,-4.89514 0,0 -9.28165,6.29752 -9.28165,6.29752 z" />
    <path
       style="fill:#000000;stroke-width:26.4583"
       id="path335"
       d="m -109.22938,179.91116 c -16.6429,10.16191 -9.87552,4.82486 -5.76462,3.95103 0.0495,-8e-4 0.10667,-0.0288 0.1484,-0.002 0.10989,0.07 -0.16439,0.20287 -0.25717,0.29435 -0.59248,0.58419 -1.24222,0.98043 -1.9673,1.38006 15.2829,-8.60721 9.22971,-4.92766 5.32211,-3.84505 -1.15411,0.31975 -2.3267,0.53463 -3.5059,0.73321 -1.44355,0.23081 -1.71198,-0.34179 -0.46706,-1.13155 3.80459,-1.66488 0.0718,-0.0594 -8.33046,4.97903 -0.20753,0.12444 0.43869,-0.2063 0.66694,-0.28663 0.68946,-0.24265 1.40829,-0.32892 2.12938,-0.41072 0.60899,-0.0658 1.42918,-0.15344 1.80853,0.26328 -3.84083,-1.7636 7.0355,-4.56406 9.04316,-5.75163 0.0662,-0.0391 -0.34955,0.0998 -0.38123,0.0671 -0.0795,-0.0819 -0.10274,-0.2038 -0.15411,-0.30569 -0.12428,-0.7525 -0.82094,-2.0044 -0.15249,-2.62575 3.8632,0.83768 0.45908,0.0255 -9.07906,5.61099 -0.0614,0.0359 0.10368,-0.0983 0.1622,-0.13876 0.2178,-0.15066 0.42787,-0.17531 0.68329,-0.2059 0.36823,-0.0333 0.7383,-0.0194 1.10705,-0.004 0,0 9.17193,-6.62284 9.17193,-6.62284 v 0 c -0.39058,-0.007 -0.78105,-0.0159 -1.17094,-0.0416 -4.20947,-0.14592 -10.34883,1.62132 -11.09783,6.16662 -0.0985,1.16178 0.31009,2.30845 0.62721,3.40988 0.25981,0.52494 0.34975,0.86626 0.82043,1.2362 0.10831,0.0851 0.26357,0.21141 0.38588,0.148 3.9541,-2.04987 11.16245,-2.13808 9.87907,-6.46377 -0.53485,-1.00193 -1.51445,-1.52992 -2.66005,-1.40262 -5.18096,0.37223 -10.27232,2.50553 -13.75866,6.78808 -0.10259,0.23008 -0.2523,0.44451 -0.30775,0.69024 -0.22906,1.01496 0.33523,2.3537 1.38857,2.692 0.25184,0.0809 0.52858,0.0213 0.79288,0.032 7.02956,-1.1942 10.58488,-2.89991 17.4192,-7.64574 1.35558,-1.13508 2.62075,-2.56088 0.92774,-4.08508 -4.89036,-1.73265 -10.58485,10.47069 -13.90293,6.56838 0,0 10.47359,-4.04065 10.47359,-4.04065 z" />
    <path
       style="fill:#000000;stroke-width:26.4583"
       id="path337"
       d="m -57.195364,96.491135 c -2.44015,-0.395279 -4.20796,-1.843717 -5.53569,-3.848568 -0.39651,-0.801537 -0.81198,-1.661467 -0.92951,-2.562625 -0.0241,-0.183941 -0.0624,-0.388702 0.0172,-0.556228 0.0613,-0.128826 0.47961,-0.30906 0.35837,-0.23386 -2.99169,1.856005 -5.97995,3.717555 -8.96993,5.576329 1.46577,-0.753456 2.60483,0.874345 3.33296,1.929866 0.49377,1.093258 1.36678,2.571499 1.01677,3.818851 -0.0489,0.084 -0.0639,0.20083 -0.14658,0.25189 -0.16923,0.10457 -0.76499,0.15801 -0.59418,0.056 3.07637,-1.836313 10.13659,-8.664746 9.43314,-5.151744 0.13388,0.163095 -0.0831,-0.231134 -0.0238,-0.267528 0.0589,-0.03621 0.13073,0.04598 0.19293,0.07614 0.11269,0.05461 0.4372,0.111509 0.33094,0.177755 -3.03778,1.893875 -6.1877,3.601622 -9.28155,5.402437 1.30907,-0.37591 2.68925,-0.34805 3.95819,0.1444 0.41479,0.25702 0.24352,0.0995 0.52448,0.46069 0,0 9.66989,-5.716638 9.66989,-5.716638 v 0 c -0.49631,-0.711174 -0.21005,-0.394015 -0.85537,-0.954546 -1.39407,-0.674997 -2.82549,-0.906867 -4.37454,-0.778766 -3.55558,1.976294 -12.35605,2.933835 -9.63012,7.59559 3.31298,3.30542 10.50903,-2.018737 10.8396,-6.343103 -0.12935,-1.559796 -0.6917,-3.054683 -1.45933,-4.410887 -1.04558,-1.547218 -2.21763,-3.001016 -4.17679,-3.298667 -8.42532,5.135272 -12.25349,3.76468 -8.79502,10.392029 1.49281,2.196518 3.35492,3.831098 5.9122,4.685928 0,0 9.18575,-6.444785 9.18575,-6.444785 z" />
    <path
       style="fill:#000000;stroke-width:26.4583"
       id="path339"
       d="m -71.794464,140.52812 c -0.3597,0.68772 -0.75089,1.48909 -1.32953,2.02922 -0.16516,0.15416 -0.77195,0.46979 -0.5774,0.35493 10.37936,-6.12805 12.11984,-7.13304 8.78803,-5.20642 -1.03664,-0.20385 -1.05421,-2.08014 -0.98933,-2.9153 -0.95608,-0.17443 1.661,-1.1721 1.23065,-0.90745 -2.92327,1.79767 -5.96095,3.40531 -8.8769,5.21482 -0.24471,0.15186 0.55226,-0.16644 0.83444,-0.22402 0.3257,-0.0665 0.65752,-0.0983 0.98629,-0.14749 1.87664,-0.2559 3.66641,-0.0314 5.1584,1.18124 0.1439,0.16053 0.30644,0.30616 0.43174,0.4816 0.10025,0.14038 0.22482,0.51381 0.0523,0.51488 -0.16697,0.001 -0.61767,-0.0598 -0.47773,-0.15087 8.02728,-5.22496 12.43568,-6.23409 8.11538,-5.15973 -2.25271,0.38049 -4.44555,0.37203 -6.45483,-0.78394 -0.48154,-0.37358 -2.36786,-2.08474 -1.35479,-2.72385 3.79838,1.22198 0.32721,0.021 -9.23843,5.5227 -0.0435,0.025 0.10723,-0.0428 0.14964,-0.016 0.0849,0.0537 0.14169,0.14525 0.19217,0.23207 0.1465,0.25189 0.2422,0.60107 0.33023,0.87264 0.0365,0.14194 0.073,0.28388 0.10953,0.42583 0,0 9.86576,-5.38389 9.86576,-5.38389 v 0 c -0.0503,-0.15631 -0.10051,-0.31262 -0.15076,-0.46892 -1.76585,-4.80843 -9.01149,-7.05249 -11.4482,3.60692 -0.005,1.67108 0.97475,2.89816 2.21221,3.94853 2.37251,1.57788 4.08299,1.67659 6.87096,1.46146 4.5584,-0.3299 14.48231,-3.7766 10.26647,-8.27745 -1.59417,-1.44955 -3.53005,-2.12778 -5.69886,-1.91242 -5.20941,0.29643 -4.69921,1.46056 -12.31247,5.85828 -0.62478,0.3609 -0.68918,1.30941 -0.7567,1.91588 0.10908,1.60524 0.42227,3.39468 1.82218,4.38077 4.87839,1.83871 10.55248,-4.05849 12.40208,-8.49199 0,0 -10.15254,4.768 -10.15254,4.768 z" />
    <path
       style="fill:#000000;stroke-width:26.4583"
       id="path341"
       d="m -59.476444,178.18051 c 3.05456,-2.46407 7.63233,-4.79863 -7.64739,4.28359 -1.04997,0.62409 0.72692,-0.38708 1.20854,-0.52634 0.41693,0.18335 0.4952,1.11987 0.0164,1.33237 -0.18733,0.0831 -0.40553,0.0595 -0.60831,0.0893 14.68425,-8.75517 9.39702,-3.65886 3.4902,-5.07236 -1.10887,-0.39949 -1.9594,-1.04575 -2.27311,-2.19656 0.0966,-0.41508 0.40775,-0.46922 0.77231,-0.58702 -3.03691,1.80871 -6.08139,3.6048 -9.11076,5.42613 -0.18463,0.111 0.37319,-0.21989 0.57533,-0.29443 0.23284,-0.0859 0.48099,-0.12251 0.72149,-0.18377 1.33628,-0.16317 2.73625,-0.40532 4.0771,-0.16174 0.61047,0.14719 0.50877,0.83161 0.5216,1.33766 -3.96417,0.73192 2.56127,-1.67896 8.85219,-5.42766 0.088,-0.0525 -0.19219,0.0776 -0.2939,0.0904 -0.40674,0.051 -0.3271,-0.0664 -0.57319,-0.42873 -0.83428,-1.99888 -0.76943,-4.00908 -0.13756,-6.03555 0.0743,-0.12712 0.14865,-0.25424 0.22297,-0.38136 0,0 -10.19472,4.7326 -10.19472,4.7326 v 0 c -0.0364,0.16153 -0.0728,0.32307 -0.10914,0.4846 -0.41963,2.30334 -0.28252,4.59008 0.55436,6.79887 0.1779,0.31632 0.31038,0.6629 0.53374,0.94895 0.033,0.0423 0.747,0.71993 1.01135,0.58145 3.33343,-1.74644 10.30366,-2.18001 10.12941,-6.55656 -0.12703,-1.00792 -0.35311,-1.9128 -1.25423,-2.50775 -1.43455,-0.48924 -2.91888,-0.28797 -4.4118,-0.19694 -4.70146,0.44741 -12.16324,2.64545 -11.73689,7.78542 0.54613,1.44209 1.52956,2.41361 2.94852,3.0507 6.51227,2.17994 9.75008,-1.58891 16.08841,-5.36526 0.7806,-1.38813 0.50401,-2.42255 -0.51622,-3.60171 -0.60294,-0.34669 -1.12655,-0.52392 -1.79893,-0.14314 -4.26824,2.41713 -8.12618,3.89736 -11.43233,7.02218 0,0 10.37458,-4.2973 10.37458,-4.2973 z" />
    <path
       style="fill:#000000;stroke-width:26.4583"
       id="path343"
       d="m -67.035984,46.644796 c -1.0463,0.330854 3.6518,-2.348828 2.52997,-1.697442 -9.52167,5.528567 -12.09569,7.153119 -8.88008,5.128985 0.0338,-0.02339 0.0629,-0.08457 0.10134,-0.07017 0.58491,0.218953 -0.94385,1.584222 -1.09533,1.702102 -4.07601,2.451571 5.3575,-3.105999 8.00421,-4.712594 0.27056,-0.164234 -0.57341,0.269923 -0.87014,0.380061 -0.74988,0.278336 -1.52109,0.432337 -2.30955,0.540412 -0.99803,0.134807 -0.97901,-0.62951 -0.52901,-1.300853 3.45562,-1.659885 6.65256,-4.00648 -8.23481,4.924463 -0.19764,0.118565 0.42111,-0.190457 0.64135,-0.258389 0.40196,-0.123973 0.94033,-0.184883 1.35353,-0.244401 0.75084,-0.01656 1.80255,-0.402013 2.32222,0.322363 -0.0825,0.206502 -0.0238,0.139467 -0.28593,0.27913 -0.28821,0.153567 -1.21555,0.457152 -0.93652,0.287499 8.29328,-5.042558 12.32141,-6.354997 8.27159,-4.983021 -1.41182,0.359084 -2.57543,-0.03658 -3.25848,-1.31799 -0.4998,-1.035262 0.11332,-1.588691 1.02018,-1.94386 -3.08814,1.800397 -6.1763,3.600794 -9.26446,5.401191 0,0 8.82573,-6.977422 8.82573,-6.977422 v 0 c -3.34068,1.909106 -6.68136,3.81821 -10.02205,5.727313 -0.82465,0.985198 -0.84116,2.231318 -0.26521,3.362221 0.87942,1.600806 2.18865,2.576881 4.08646,2.536301 4.60221,-0.77275 1.15901,-0.106005 11.06384,-5.844308 0.77658,-0.449901 0.76835,-1.512758 0.47279,-2.218108 -0.73912,-1.13646 -1.70628,-1.505564 -3.04711,-1.299184 -4.88727,0.309227 -10.89043,2.380946 -12.90436,7.031547 -0.17036,1.280756 0.12496,2.913738 1.65275,3.119419 4.97781,0.30775 11.81446,-4.714802 14.51345,-7.140148 0.87215,-1.305761 1.14779,-2.780104 -0.18841,-3.90185 -2.93044,-0.93777 -9.72008,4.516348 -13.14254,7.464027 0,0 10.37458,-4.297298 10.37458,-4.297298 z" />
    <path
       style="fill:#000000;stroke-width:26.4583"
       id="path345"
       d="m -91.257214,67.666617 c -1.10602,0.18541 4.08439,-2.801093 2.88435,-2.102083 -8.99625,5.240219 -11.927336,6.638245 -8.27461,4.873292 0.35086,-0.107543 1.37955,-0.754608 1.60011,-0.162415 0.0179,0.08416 0.10718,0.455422 0.0727,0.525796 -0.14809,0.302358 -1.73158,1.522632 -2.02716,1.77591 -3.438156,2.322952 -2.14175,1.423538 7.85349,-4.55177 0.25441,-0.15209 -0.52657,0.273048 -0.79726,0.393809 -0.70074,0.312615 -1.41312,0.504277 -2.15941,0.666189 -0.74334,0.178329 -1.25108,0.004 -1.03946,-0.826318 0.46648,-0.619471 0.98522,-1.232786 1.64653,-1.653577 0.20813,-0.132432 0.8661,-0.47249 0.65336,-0.347599 -2.98429,1.751939 -5.97901,3.486036 -8.96852,5.229053 0.69272,-0.437631 1.46549,-0.674277 2.26589,-0.810265 0,0 9.02942,-6.728889 9.02942,-6.728889 v 0 c -0.88331,0.06992 -1.7581,0.172755 -2.59056,0.500362 -0.50443,0.293229 -11.425036,4.375192 -12.050976,8.892048 0.13192,1.269042 0.72033,2.369751 2.12123,2.486956 5.378326,-0.824783 10.212416,-4.011623 14.343346,-7.4671 1.03057,-1.007621 2.13311,-2.116347 1.45023,-3.640368 -0.53787,-1.062357 -1.40944,-1.603227 -2.61696,-1.222883 -4.57914,1.718734 -10.12134,4.707427 -13.708826,8.57599 0,0 10.313076,-4.406138 10.313076,-4.406138 z" />
    <path
       style="fill:#000000;stroke-width:26.4583"
       id="path347"
       d="m -24.742604,42.833061 c -1.36046,-0.02347 -2.74058,0.124245 -4.09641,-0.03641 2.60064,3.173404 0.34861,0.188592 -8.85394,6.3565 -0.13774,0.09232 0.30102,-0.142687 0.46043,-0.188266 0.53133,-0.151903 1.12053,-0.170265 1.66796,-0.21331 0.73593,0.02705 1.42084,-0.422937 1.71442,0.38219 0.73223,0.06131 -1.57737,0.940399 -1.21232,0.721768 8.55585,-5.124 12.45319,-6.486514 8.52958,-5.075492 -0.74663,0.123672 -1.56771,0.422162 -2.32735,0.236882 -0.18733,-0.36612 -0.12703,-0.633651 0.25505,-0.833303 0.12521,-0.06543 0.51711,-0.223382 0.39632,-0.150095 -2.99775,1.819076 -6.02207,3.59401 -9.03311,5.391015 0.78819,-0.366501 1.71225,-0.75256 2.59644,-0.56623 0.30779,0.17626 -0.18497,0.04682 -0.31621,0.138412 -0.10707,0.07473 -0.15375,0.211066 -0.23063,0.316598 -0.11835,0.07928 -0.23673,0.158554 -0.35508,0.237831 -0.1162,0.08144 -0.23241,0.162875 -0.34861,0.244311 0,0 10.41598,-4.238951 10.41598,-4.238951 v 0 c 0.10192,-0.111159 0.20381,-0.222318 0.3057,-0.333478 0.66773,-1.024985 0.7918,-1.688533 -0.11057,-2.651921 -1.05791,-0.535615 -2.06475,-0.472639 -3.19539,-0.140486 -1.78602,1.045112 -12.60711,3.59723 -9.96239,8.520243 0.82265,0.918403 1.85674,0.812305 3.00252,0.623464 4.48977,-0.583213 0.92231,-0.03704 10.84644,-5.779257 0.73204,-0.423574 0.71969,-1.47089 0.56168,-2.162916 -0.53068,-1.180425 -1.16663,-1.728094 -2.49822,-1.535168 -4.09962,0.217408 -14.97936,1.195935 -11.69824,6.938536 1.30331,0.774504 2.96543,0.206312 4.40659,0.394081 0,0 9.07936,-6.596546 9.07936,-6.596546 z" />
    <path
       style="fill:#000000;stroke-width:26.4583"
       id="path349"
       d="m -42.906944,67.073757 c -0.55089,-1.4258 -0.89913,-2.853065 -0.71506,-4.378015 0.10343,-0.10251 0.28149,-0.318588 0.45037,-0.342249 0.11523,-0.01614 0.44562,-0.01315 0.34592,0.04688 -3.10274,1.868763 -6.28137,3.608554 -9.41914,5.417868 -0.17788,0.102555 0.37738,-0.168773 0.57777,-0.213408 0.12409,-0.12759 0.34623,0.0437 0.47887,-0.04647 0.0607,-0.04128 0.005,-0.529886 0.0309,0.170156 -0.12046,1.471952 -1.02655,1.961648 -2.27298,2.51495 3.04633,-1.759196 6.09717,-3.510659 9.13903,-5.277589 0.19791,-0.114956 -0.4544,0.135671 -0.6213,0.292267 -0.0909,0.08532 0.0306,0.565507 0.0429,0.225872 0.0422,-0.05739 0.0691,-0.130299 0.12679,-0.172161 0.20071,-0.145685 0.41862,-0.268714 0.64318,-0.373986 0.1856,-0.08701 0.75943,-0.298866 0.58393,-0.192924 -8.49654,5.129194 -12.14575,6.285479 -8.00658,4.901028 1.466,-0.392128 2.98355,-0.493369 4.49294,-0.555741 0,0 9.05283,-6.618124 9.05283,-6.618124 v 0 c -1.5729,0.02844 -3.14598,0.142613 -4.69998,0.393811 -4.74247,0.922983 -1.20439,0.137644 -11.27866,5.940645 -0.74457,0.428889 -0.9493,1.303213 -0.80304,2.076124 0.16812,0.450628 0.38762,1.177417 0.9498,1.298895 4.00347,0.865045 6.81742,-34.436153 10.83583,-5.954913 1.26225,-0.925185 1.8606,-2.15133 1.76831,-3.736491 -0.14755,-0.796073 -0.46529,-1.664652 -1.40848,-1.593125 -4.40947,-0.06848 -10.56105,2.301076 -11.04122,6.851367 0.0308,1.632622 0.46273,3.177545 0.9222,4.73633 0,0 9.82491,-5.411004 9.82491,-5.411004 z" />
    <path
       style="fill:#000000;stroke-width:26.4583"
       id="path351"
       d="m -2.9880597,110.90025 c -0.94295,-1.4854 -1.37694,-3.18548 -1.67336,-4.89881 0.10806,-1.02487 0.68782,-1.63432 1.56594,-2.09387 0.18756,-0.0981 0.75613,-0.37955 0.57372,-0.27217 -3.00958,1.77163 -6.03819,3.51075 -9.0572743,5.26612 0.947744,-0.57405 1.112024,0.75653 1.208754,1.42234 0.13282,1.07986 -0.17613,2.2491 -1.05606,2.93232 -3.792824,1.3467 -0.903974,0.35326 8.7373703,-5.21889 0.0873,-0.0504 -0.14388,0.14323 -0.22813,0.19862 -0.28432,0.18697 -0.47048,0.0277 -0.6999,-0.15289 -0.36981,-0.60024 -0.42817,-1.31637 -0.4613,-2.00475 -0.003,-0.0465 0.0329,-0.16278 -0.007,-0.13949 -12.4247343,7.17762 -9.9809643,2.13866 -9.3322043,7.5226 0.0143,0.18338 0.0288,0.36676 0.0432,0.55014 0,0 9.9463843,-5.18156 9.9463843,-5.18156 v 0 c -0.0204,-0.20023 -0.0407,-0.40046 -0.061,-0.60069 -0.6518,-4.21886 -5.05719,-10.692126 -10.5849743,3.07341 0.14303,0.92354 0.33083,1.84255 0.85193,2.63855 3.3728843,3.98067 9.5075443,-1.61721 12.1206743,-5.10539 0.60112999,-1.18466 0.88216999,-2.4341 0.62152999,-3.76278 -0.25855,-1.36668 -0.81903999,-2.75521 -2.30501999,-3.12132 -3.3922,1.91526 -6.80241,3.7989 -10.1765643,5.74577 -1.24032,0.71565 -1.6174,2.24959 -1.54829,3.56671 0.40372,1.82116 0.92035,3.61266 1.80951,5.26538 0,0 9.7125443,-5.62935 9.7125443,-5.62935 z" />
    <path
       style="fill:#000000;stroke-width:26.4583"
       id="path367"
       d="m -346.42624,112.95963 c 0.43987,8.78157 0.57471,17.57421 0.69386,26.36488 0.47317,17.03483 0.16705,34.07611 -0.20547,51.10908 -0.29992,9.44204 -0.0437,18.88368 -0.0279,28.32711 0.0211,7.56785 -0.0666,15.13579 -0.33153,22.69916 0,0 10.47677,-5.33818 10.47677,-5.33818 v 0 c -0.27061,-7.45057 -0.35116,-14.90608 -0.33154,-22.36132 0.0158,-9.43394 0.27256,-18.86622 -0.0279,-28.2987 -0.37945,-16.96317 -0.67482,-33.93449 -0.20547,-50.8997 0.12068,-9.02632 0.26141,-18.05419 0.69386,-27.07195 0,0 -10.73474,5.46962 -10.73474,5.46962 z" />
    <path
       style="fill:#000000;stroke-width:26.4583"
       id="path369"
       d="m -334.97841,114.76946 c 11.20958,-0.34473 22.42693,-0.36693 33.6409,-0.41318 14.4621,-0.0589 28.92356,0.0981 43.38464,-0.10635 6.95618,0.0275 13.88925,-0.42072 20.79638,-1.20093 2.01392,-0.24559 4.03212,-0.44694 6.05356,-0.61675 0.65764,0.007 1.26192,-0.037 1.83849,-0.36821 0,0 9.52216,-7.46782 9.52216,-7.46782 v 0 c -0.61159,0.14005 -0.99983,0.71782 -1.65068,0.67825 -2.14105,0.11867 -4.2568,0.52857 -6.38365,0.77814 -7.08648,0.98433 -14.20407,1.68415 -21.36682,1.76622 -14.55871,0.45392 -29.12099,0.40923 -43.68576,0.35579 -10.83474,-0.0452 -21.6736,-0.0582 -32.50352,-0.41318 0,0 -9.6457,7.00802 -9.6457,7.00802 z" />
    <path
       style="fill:#000000;stroke-width:26.4583"
       id="path371"
       d="m -228.75362,112.1481 c 0.9575,14.83521 0.94692,29.71734 1.03997,44.57735 -0.0142,18.98266 -0.06,37.96674 -0.45169,56.94589 -0.19334,6.57337 -0.41418,13.14615 -0.42478,19.72291 0.0621,3.60137 -0.22411,7.19716 -0.56745,10.77894 0,0 10.56499,-5.28679 10.56499,-5.28679 v 0 c 0.17723,-3.59619 0.44948,-7.19288 0.41021,-10.79517 -0.0104,-6.43256 -0.22742,-12.86104 -0.42477,-19.29004 -0.39688,-18.8256 -0.43547,-37.65639 -0.4517,-56.48558 0.0947,-15.21371 0.10316,-30.44664 1.03997,-45.63714 0,0 -10.73475,5.46963 -10.73475,5.46963 z" />
    <path
       style="fill:#000000;stroke-width:26.4583"
       id="path373"
       d="m -341.78723,244.6335 c 17.63349,-0.71564 35.28767,-0.68818 52.93255,-0.72005 16.17298,-0.0549 32.34784,0.18561 48.47641,1.43361 3.18012,0.25561 6.35319,0.58894 9.53101,0.86942 0.13838,0.0123 0.27674,0.0246 0.41511,0.0369 0,0 9.80756,-7.05325 9.80756,-7.05325 v 0 c -0.14865,-0.002 -0.29731,-0.003 -0.44596,-0.005 -3.39285,-0.082 -6.78068,-0.31079 -10.17304,-0.40899 -16.62625,-0.55614 -33.26295,-0.56466 -49.8969,-0.4776 -16.98377,-0.0308 -33.97941,0.0243 -50.95041,-0.72005 0,0 -9.69633,7.04478 -9.69633,7.04478 z" />
    <path
       style="fill:#000000;stroke-width:26.4583"
       id="path383"
       d="m -327.60285,104.47427 c 5.5521,-4.509595 11.69912,-8.257675 17.76217,-12.034057 7.7494,-4.741248 15.62202,-9.277006 23.4321,-13.917033 4.53394,-2.700446 9.032,-5.465561 13.34174,-8.514125 1.91214,-1.416343 3.81521,-2.876383 5.91174,-4.010935 0.42735,-0.400658 1.09826,-0.568285 1.5068,-0.991394 1.0792,-1.117695 -0.50166,0.181513 0.57412,-0.662384 0,0 -11.18825,4.569524 -11.18825,4.569524 v 0 c -0.58436,0.605599 -1.41853,0.921348 -2.10923,1.397066 -1.95001,1.232323 -3.77018,2.657882 -5.6369,4.00976 -4.23626,2.951104 -8.62753,5.666571 -13.06028,8.311356 -7.70423,4.603203 -15.45547,9.128454 -23.10861,13.816402 -6.32852,3.95048 -12.71668,7.87346 -18.56492,12.52209 0,0 11.13952,-4.49627 11.13952,-4.49627 z" />
    <path
       style="fill:#000000;stroke-width:26.4583"
       id="path389"
       d="m -262.5741,65.30316 c 5.65804,-0.169357 11.3204,-0.17898 16.98065,-0.205073 9.31594,0.02175 18.6373,-0.280913 27.94654,0.140862 6.15692,0.322193 12.17316,1.669161 18.10687,3.257624 3.85471,0.940985 7.58407,2.280584 11.23027,3.831352 1.48711,0.657936 0.7942,0.34585 2.08024,0.93287 0,0 9.95102,-6.637049 9.95102,-6.637049 v 0 c -1.36809,-0.538512 -0.63453,-0.249261 -2.20051,-0.868161 -3.73886,-1.486432 -7.49705,-2.957685 -11.41705,-3.902702 -6.12532,-1.501297 -12.30922,-2.850661 -18.62944,-3.179951 -9.28683,-0.396547 -18.59046,-0.0799 -27.88391,-0.247433 -5.47201,-0.02556 -10.94656,-0.03102 -16.41613,-0.205073 0,0 -9.74855,7.082734 -9.74855,7.082734 z" />
    <path
       style="fill:#000000;stroke-width:26.4583"
       id="path391"
       d="m -185.60486,73.475486 c -5.54031,6.659049 -11.45899,12.98529 -17.36542,19.317523 -7.29582,7.883671 -14.71357,15.671891 -22.48451,23.090921 -2.36121,2.13137 -4.63468,4.35674 -6.8757,6.61317 0,0 10.96516,-4.56088 10.96516,-4.56088 v 0 c 2.06822,-2.18325 4.19828,-4.30613 6.3828,-6.37339 7.52173,-7.46678 14.81148,-15.165043 22.00503,-22.947441 6.17525,-6.568869 12.29088,-13.194808 18.48496,-19.742775 0,0 -11.11232,4.602872 -11.11232,4.602872 z" />
    <path
       style="fill:#000000;stroke-width:26.4583"
       id="path393"
       d="m -183.29023,74.191216 c 0.27782,6.949905 0.35187,13.906955 0.48169,20.860845 0.40501,16.208769 0.31505,32.420929 0.11505,48.631519 -0.10103,7.65808 -0.26375,15.31502 -0.49808,22.97009 -0.0601,1.63271 -0.0298,0.88653 -0.0881,2.23862 0,0 10.67875,-5.44109 10.67875,-5.44109 v 0 c -0.0584,-1.29556 -0.0281,-0.57931 -0.0881,-2.14888 -0.23653,-7.48579 -0.39783,-14.97358 -0.49808,-22.46252 -0.20303,-16.24969 -0.2851,-32.50081 0.11505,-48.748756 0.1304,-7.117524 0.20686,-14.237967 0.48169,-21.351719 0,0 -10.69993,5.451891 -10.69993,5.451891 z" />
    <path
       style="fill:#000000;stroke-width:26.4583"
       id="path395"
       d="m -184.06545,170.95125 c -7.93031,8.04481 -14.96725,16.86555 -21.9925,25.69172 -8.65599,11.15988 -16.9781,22.57464 -25.15607,34.08785 -1.47615,2.00807 -2.7503,4.14583 -3.97629,6.31085 0,0 10.78317,-4.83026 10.78317,-4.83026 v 0 c 1.08401,-2.05486 2.23493,-4.07217 3.54778,-5.99263 7.66117,-11.50203 15.6605,-22.78263 24.25472,-33.61093 7.43789,-9.12796 14.99089,-18.20853 23.62468,-26.24837 0,0 -11.08549,4.59177 -11.08549,4.59177 z" />
    <path
       style="fill:#000000;stroke-width:26.4583"
       id="path397"
       d="m -317.10508,145.54599 c -3.50037,2.85035 -1.11083,0.85067 8.92053,-5.11179 0.15695,-0.0933 -0.32204,0.17347 -0.49068,0.24348 -0.50497,0.20965 -0.56492,-0.24029 -0.71319,-0.63532 -0.28562,-2.35822 1.43565,-3.52237 3.25664,-4.5494 -3.09523,1.81291 -6.21252,3.58868 -9.28572,5.43871 -0.27115,0.16324 0.5719,-0.2757 0.8727,-0.37416 0.98909,-0.32378 1.67602,-0.13212 2.35163,0.61253 0.10427,0.22929 0.82613,1.08567 0.29738,1.32168 -0.19423,0.0867 -0.81498,0.16493 -0.63614,0.0498 8.90704,-5.73486 13.07951,-6.27312 8.45006,-5.54034 -0.91202,0.35946 -3.56046,-1.21988 -2.22829,-0.35627 4.2722,-0.0392 0.57992,-0.0807 -9.42805,5.78822 -0.15058,0.0883 0.29565,-0.18709 0.45287,-0.26293 0.41064,-0.19808 0.86828,-0.30477 1.30774,-0.41611 1.05513,0.0142 0.58495,1.70579 0.42151,2.2879 -0.28548,1.41661 -1.03125,2.46044 -2.25353,3.18424 -4.17631,2.07526 8.32901,-9.55489 9.98175,-5.45476 0,0 -9.97063,6.9293 -9.97063,6.9293 v 0 c 3.39066,3.08454 8.03552,-3.03103 11.20046,-5.97864 1.01909,-1.08935 1.54905,-2.46189 1.8262,-3.9183 0.19778,-1.57008 0.0646,-3.16848 -1.39777,-4.09178 -0.61084,-0.15894 -1.58959,-0.19158 -2.17593,0.13986 -10.77055,6.08833 -8.9584,2.5365 -10.98623,6.80417 0.0484,0.27612 0.049,0.5651 0.14532,0.82839 0.37661,1.0298 2.55234,1.4473 3.4511,1.57006 5.27958,0.45069 1.77822,0.35876 12.3296,-6.10353 0.83821,-0.51337 -0.10854,-2.45881 -0.4873,-2.96992 -0.9606,-1.2034 -2.56892,-2.3899 -4.18514,-1.50683 -3.7596,2.05419 -7.44575,4.24005 -11.16863,6.36007 -2.08857,1.58717 -3.21284,3.36441 -2.63121,6.06531 0.28312,0.68417 1.17259,2.67449 2.32341,2.04858 9.51674,-5.17607 7.73717,-3.82868 11.62484,-6.88694 0,0 -11.1753,4.48473 -11.1753,4.48473 z" />
    <path
       style="fill:#000000;stroke-width:26.4583"
       id="path399"
       d="m -285.02679,170.40357 c -0.35571,0.94721 -1.03452,1.53069 -1.88771,2.03523 -0.31948,0.18892 -1.30974,0.69776 -0.99084,0.50789 9.2649,-5.51659 12.83665,-6.59042 8.70697,-5.28662 -1.38558,0.14211 -1.24557,-1.95465 -1.32376,-2.91363 0.61253,-4.02169 11.8654,-8.17904 -9.04224,4.49788 -0.0966,0.0586 0.13757,-0.20732 0.24805,-0.23117 0.10635,-0.023 0.20455,0.0743 0.30682,0.11138 1.3459,2.00413 0.57754,4.50505 -0.17911,6.56801 -0.64975,1.32582 -1.24328,2.71651 -2.23302,3.83716 -0.23834,0.26985 -0.48475,0.54548 -0.78964,0.73696 -0.2235,0.14036 -0.98338,0.36861 -0.75638,0.23398 3.29753,-1.95568 6.65699,-3.80501 9.98549,-5.70752 -1.23227,-0.79298 -10e-5,-4.29114 0.46273,-5.29192 0.49725,-0.79119 1.16921,-1.48232 1.98703,-1.94935 0.21221,-0.12117 0.88445,-0.41256 0.67403,-0.28832 -2.63692,1.55697 -13.27281,7.6735 -9.42974,5.46325 0.0832,-0.0259 0.16647,-0.0519 0.2497,-0.0778 0,0 9.86455,-7.00544 9.86455,-7.00544 v 0 c -0.14884,-0.0511 -0.29769,-0.10223 -0.44653,-0.15334 -4.70612,-0.51343 -0.60432,-0.1788 -11.44868,6.10347 -1.07873,0.62492 -1.7463,1.84712 -2.26558,2.91826 -0.78719,2.37746 -1.23045,5.18817 0.514,7.2531 9.35688,-4.71913 11.25405,-3.49243 14.32421,-11.09672 0.79313,-2.65452 1.29265,-5.51109 -0.32147,-7.97645 -4.31179,-4.17859 -12.62258,2.2828 -12.33472,7.60588 0.2052,1.74016 0.4233,3.90883 2.33403,4.55148 5.11394,0.005 0.89664,0.14259 12.04105,-6.2159 1.29769,-0.7404 2.1549,-1.97044 2.65167,-3.34921 0,0 -10.90091,5.11948 -10.90091,5.11948 z" />
    <path
       style="fill:#000000;stroke-width:26.4583"
       id="path401"
       d="m -260.11655,217.00628 c 0.24171,0.82997 0.20668,1.73244 -0.37913,2.43596 -0.20164,0.24215 -1.02182,0.73494 -0.75025,0.57513 10.18455,-5.99321 12.69556,-6.86742 8.58819,-5.35081 -2.15331,-0.24278 -3.20315,-2.37217 -3.86023,-4.2033 -0.12239,-0.66666 -0.6342,-1.52033 -0.18,-2.18256 0.26719,-0.38956 1.59322,-1.01544 1.18811,-0.77247 -3.1303,1.87744 -6.27637,3.72848 -9.41455,5.59272 1.79886,-0.80777 3.7361,-0.90076 5.6178,-0.37697 0.55275,0.19822 2.00309,1.2966 0.37617,0.97978 3.3044,-1.93562 6.60879,-3.87124 9.91318,-5.80686 -0.27558,0.021 -0.65212,0.40595 -0.9543,0.3236 -0.17533,-0.0478 -0.23153,-0.34368 -0.27342,-0.45136 -0.16568,-0.58833 -0.11648,-1.18249 0.37458,-1.56923 0,0 -11.00651,4.97757 -11.00651,4.97757 v 0 c -0.16726,0.84841 -0.20113,1.67083 0.11356,2.49931 0.31758,0.7065 1.18126,2.2503 2.24515,1.66694 3.63482,-1.99304 7.20637,-4.09935 10.80955,-6.14902 0.40547,-1.41094 -0.46889,-2.53805 -1.67335,-3.22985 -2.02941,-0.70155 -4.06667,-0.85986 -6.17378,-0.32785 -3.69235,2.12788 -7.43825,4.16544 -11.07706,6.38363 -1.36577,0.83256 -0.75739,3.10612 -0.32956,4.24965 0.92012,2.32201 2.2842,4.48155 4.66583,5.5107 5.23978,0.67266 1.55386,0.42454 12.06237,-6.42747 1.03845,-0.67712 0.93997,-3.14082 0.66679,-4.15711 0,0 -10.54914,5.80987 -10.54914,5.80987 z" />
    <path
       style="fill:#000000;stroke-width:26.4583"
       id="path403"
       d="m -243.59708,131.29346 c -2.50777,0.40492 -5.04786,0.56513 -7.58292,0.68425 -0.71836,-0.009 -0.56864,0.0314 -1.16454,-0.0897 -0.11849,-0.0241 0.24175,0.0479 0.36144,0.0307 0.18514,-0.0266 0.69724,-0.2569 0.53836,-0.1582 -3.0743,1.90972 -6.20068,3.7343 -9.30102,5.60146 1.72671,-0.77646 3.79977,-0.99969 5.36204,0.23085 0.30595,0.44626 1.13102,2.137 0.52064,2.52857 -4.10544,1.18971 1.39925,-0.38868 10.35069,-5.80249 0.012,-0.007 -0.18837,-0.69761 -0.1923,-1.12199 -0.005,-0.54621 0.11433,-0.68869 0.32066,-1.18226 -0.54802,-0.20719 2.22366,-1.49308 1.57491,-1.10644 -22.70426,13.53097 -12.18568,5.88381 -8.727,5.36456 1.20957,0.61423 0.0213,2.37622 -0.42895,3.10896 -0.52085,0.80958 -1.17758,1.49674 -2.01203,1.98646 -0.2546,0.14943 -1.05243,0.53369 -0.79846,0.38319 9.22337,-5.4658 12.93505,-6.92711 8.83577,-5.27215 0.027,0.25773 -1.28838,0.3218 -0.95635,0.13102 0.10588,-0.0608 0.23791,-0.0552 0.35686,-0.0828 0.19023,-0.10944 0.38046,-0.21888 0.57068,-0.32832 4.33928,-1.95309 -0.15967,0.0281 -7.97557,4.82144 -0.38748,0.23763 0.8315,-0.3682 1.25457,-0.53441 0.86078,-0.33818 1.7067,-0.59095 2.61635,-0.73892 0.30143,-0.16475 0.24789,-0.071 -0.21439,-0.52364 -0.14587,-0.14283 -0.27681,-0.34301 -0.47669,-0.38453 -0.15396,-0.032 -0.56459,0.27587 -0.42889,0.19644 9.41574,-5.5108 13.18352,-7.29931 9.20715,-5.39297 0,0 -9.44529,7.46843 -9.44529,7.46843 v 0 c 4.46636,-1.72454 0.87517,-0.30437 11.48972,-6.43623 0.9228,-0.53309 0.33992,-1.78588 -0.47741,-2.11332 -1.40112,0.10776 -2.97886,0.36949 -4.23058,1.0484 -10.81951,5.86829 -8.11904,3.77022 -12.39925,7.23752 -0.14425,0.25663 -0.35802,0.48513 -0.43274,0.76987 -0.31219,1.1897 0.82542,2.65049 2.05368,2.23356 4.80934,-1.30311 0.98623,-0.20164 11.82885,-6.42523 1.15049,-0.66037 1.90492,-1.85757 2.54824,-2.96851 0.783,-1.82022 0.97397,-3.61102 -0.59507,-5.08336 -4.37252,-1.76454 -10.19473,4.64875 -12.36351,5.9122 -0.6704,0.39056 -0.9855,1.22675 -1.22152,1.90706 -0.13178,0.84429 -0.1591,1.56471 0.0311,2.40699 1.06538,4.7192 4.33991,-0.95189 11.20316,-4.34014 0.11355,-0.0561 0.0319,-0.25125 0.0478,-0.37687 -0.0858,-1.29276 -0.44942,-2.57871 -1.2248,-3.63241 -1.65672,-1.58119 -4.03147,-1.97013 -6.21043,-1.32359 -3.72579,2.15311 -7.5292,4.17717 -11.17737,6.45934 -0.73342,0.45881 -0.21541,1.8279 0.23166,2.23889 0.4218,0.38775 0.99509,0.37089 1.51196,0.43758 2.53214,-0.16339 5.06305,-0.34689 7.59137,-0.56207 0,0 9.62947,-7.20717 9.62947,-7.20717 z" />
    <path
       style="fill:#000000;stroke-width:26.4583"
       id="path405"
       d="m -321.27135,213.66338 c -3.46467,2.4081 -8.93918,5.41897 7.9236,-4.48058 0.16073,-0.0944 -0.33471,0.16451 -0.49737,0.25554 -0.0628,0.0351 -0.11567,0.15857 -0.17785,0.12235 -0.10612,-0.0618 -0.11448,-0.21733 -0.17172,-0.32599 0.059,-2.90236 1.86624,-5.12212 4.12167,-6.72661 -21.42814,13.05858 -8.99478,3.7897 -5.90179,4.5961 0.75963,0.19805 1.08844,0.70678 1.63113,1.24584 1.17636,1.87042 2.70691,4.17201 2.29483,6.48724 -2.85498,2.45117 -10.49408,6.53083 8.43969,-4.88209 0.22483,-0.13552 -0.4616,0.25417 -0.70774,0.34544 -0.62247,0.2308 -0.7824,0.1903 -1.42018,0.21828 -1.15819,-0.11047 -1.86452,-0.86655 -2.23449,-1.90878 0.0232,-0.0593 0.18231,-0.47119 0.20028,-0.49139 0.14823,-0.16647 0.75364,-0.47632 0.56251,-0.36162 -10.09393,6.05758 -11.20089,9.78809 -9.98368,5.85617 -0.0458,-0.0649 -0.42537,-0.75067 -0.69701,-0.7113 -0.31524,0.0457 -1.66232,1.53615 -1.94966,1.78101 -3.78769,2.34261 -9.86794,5.72607 7.96791,-4.54444 0.0767,-0.0441 -0.19351,0.0498 -0.23158,0.12963 -0.0323,0.0678 0.0448,0.14345 0.0672,0.21517 5.25204,-2.06952 -12.99578,8.02688 -8.67133,5.34706 0,0 9.54212,-7.4046 9.54212,-7.4046 v 0 c -4.55782,0.4956 -0.99083,0.0406 -11.16616,6.27184 -0.62554,0.38306 -0.20729,1.67905 -0.0151,2.12984 0.17467,0.21854 0.30203,0.48535 0.52402,0.65562 0.11055,0.0848 0.29006,0.12848 0.41317,0.0633 3.87092,-2.05108 8.98752,-4.27707 12.66104,-7.41203 1.21086,-1.22875 2.56516,-2.06083 1.25289,-3.80876 -3.6581,-1.44955 -11.99218,3.40985 -11.01468,8.16929 0.6171,1.4182 1.57123,2.44534 3.02544,3.05135 5.45037,0.58065 12.60255,-2.70101 14.15493,-8.09298 -0.0837,-2.65404 -1.48581,-5.06067 -2.85488,-7.26697 -0.60001,-0.70966 -1.13559,-1.50477 -1.99463,-1.94533 -4.98322,-2.55569 -13.27264,9.50211 -14.91176,6.70305 -2.29709,2.15016 -4.01083,5.00491 -3.53706,8.26436 0.33219,0.62469 0.90939,2.05408 1.92983,1.49398 4.36254,-2.3945 8.56717,-4.67974 12.62473,-7.42053 0,0 -11.19833,4.38159 -11.19833,4.38159 z" />
    <path
       style="fill:#000000;stroke-width:26.4583"
       id="path407"
       d="m -304.92395,143.70102 c -18.1471,9.17361 -10.31807,5.8784 -6.08416,4.02029 0.85665,-0.3067 -0.53954,-0.1493 -0.72631,-0.14449 17.10064,-9.4181 11.28571,-5.31942 6.26994,-4.99658 -1.22286,0.11422 -2.38509,0.0876 -3.12414,-0.99807 -0.002,-0.0879 -0.0526,-0.18935 -0.006,-0.26383 0.0657,-0.10459 1.72922,-0.86244 1.09689,-0.48434 -8.69983,5.20199 -13.13811,7.50228 -9.06801,5.37978 1.27664,-0.69137 2.68361,-1.03376 4.10974,-1.23808 0.80317,-0.1763 0.97136,0.0753 0.77764,0.86147 -0.0889,0.13074 -0.15625,0.27916 -0.2668,0.39221 -0.21705,0.22198 -1.71202,1.11739 -0.8478,0.60659 19.12006,-11.30088 12.37105,-6.80367 8.79158,-5.35214 -0.83904,0.23338 -0.78016,-0.83224 -0.83406,-1.39059 -0.0373,-0.49962 -0.0339,-1.00085 -0.0371,-1.50144 0,0 -10.74041,5.49628 -10.74041,5.49628 v 0 c 0.0152,0.54157 0.0381,1.08252 0.10333,1.62098 0.20683,1.27692 0.54398,2.37614 1.81069,2.95258 0.4401,0.0533 0.80706,0.16922 1.23147,-0.0723 2.34713,-1.33557 10.78724,-3.35122 11.55605,-8.17008 -0.0775,-1.29382 -0.47814,-2.39776 -1.88406,-2.64331 -1.48885,0.1524 -2.98817,0.36239 -4.38385,0.93193 -4.31174,2.04658 -2.55262,1.1893 -11.50275,6.62043 -0.8012,0.48619 -0.61603,1.66855 -0.30907,2.35005 0.89155,1.35165 2.17525,2.17029 3.84798,2.00796 6.10511,-0.22106 7.68657,-1.67315 14.64708,-6.4901 0.66,-1.06507 0.45735,-2.34743 -0.85265,-2.72187 -0.73629,-0.0247 -1.2534,0.24484 -1.93999,0.5143 -4.65674,1.82763 -8.2772,3.64538 -12.88087,7.0508 0,0 11.24548,-4.33846 11.24548,-4.33846 z" />
    <path
       style="fill:#000000;stroke-width:26.4583"
       id="path409"
       d="m -259.95908,78.253837 c 0.44378,0.687449 0.74503,2.397546 -0.52191,2.210866 27.7748,-17.124066 8.63232,-1.373015 10.20237,-6.597951 2.75409,-2.777093 10.99794,-6.587051 -9.02534,5.123989 -0.11689,0.06836 0.2147,-0.181935 0.2655,-0.307453 0.35607,0.353417 -1.70865,1.442222 -1.25404,1.168712 3.16774,-1.905778 6.3644,-3.76306 9.5466,-5.644592 -0.90094,0.353899 -2.43076,1.286357 -3.41269,0.725435 -0.42199,-0.251693 1.21645,-1.201105 0.77977,-0.935652 -9.43805,5.737339 -13.15265,7.577871 -9.13738,5.567315 1.0524,-0.310954 2.18206,-0.573958 3.26281,-0.268517 0.0662,0.06231 0.37511,0.316552 0.31984,0.440028 -0.0351,0.07834 -0.17157,-0.0087 -0.25682,-0.01865 -0.14284,-0.01667 -0.54886,0.01537 -0.42708,-0.06112 7.27538,-4.569878 13.37417,-7.63728 9.40862,-5.634572 -0.38773,0.187934 -0.96099,0.137118 -1.12285,0.510257 0,0 -10.42706,6.213951 -10.42706,6.213951 v 0 c 0.65346,0.918382 0.9587,0.925267 2.02012,0.67436 4.02262,-0.745173 14.28853,-3.995137 10.60812,-8.709112 -1.1529,-0.845172 -2.51211,-0.745591 -3.86782,-0.498684 -3.97005,0.553529 -13.58847,3.846012 -11.42474,9.068366 1.33023,1.437568 2.61305,0.895022 4.32775,0.457168 3.64768,-2.134267 7.34979,-4.178125 10.94304,-6.402795 0.57018,-0.353012 0.81848,-1.482093 0.76148,-2.08742 -0.0585,-0.620971 -0.22184,-0.749517 -0.54047,-1.241612 -3.77861,-3.307279 -11.23927,2.619425 -12.1363,7.265572 0.38425,6.682404 8.15262,0.180321 11.85275,-3.235524 0.472,-1.316656 0.3492,-2.580738 -0.31592,-3.826573 0,0 -10.42835,6.044218 -10.42835,6.044218 z" />
    <path
       style="fill:#000000;stroke-width:26.4583"
       id="path411"
       d="m -250.34125,92.877792 c 1.33608,-0.255397 2.78047,-0.492601 4.06798,0.07138 0.79398,0.232233 -1.15023,0.512038 -1.0496,0.449821 8.62936,-5.334892 12.92,-6.704822 8.32934,-5.1542 -0.91796,0.08035 -3.094,1.045721 -3.94728,0.501058 -0.60085,-0.934453 0.37101,-1.419183 1.13802,-1.686949 -3.2435,1.8957 -6.50373,3.763065 -9.73051,5.687099 -0.19284,0.114986 0.41015,-0.184509 0.62283,-0.256455 0.54844,-0.185526 1.18228,-0.163002 1.70224,-0.402013 0.29799,0.245528 0.10064,0.939882 -0.14329,1.360522 -0.42001,0.137266 -0.21256,0.06503 -0.62243,0.216453 0,0 11.21278,-4.551482 11.21278,-4.551482 v 0 c 0.29605,-0.474768 0.17062,-0.20624 0.34681,-0.818711 0.17695,-1.133213 -0.0506,-2.251715 -0.85046,-3.109436 -0.5542,-0.282847 -0.83336,-0.200914 -1.44907,-0.119208 -4.92281,0.653272 -5.88148,2.019752 -12.29554,6.414802 -0.92137,1.074965 -1.06011,2.36079 -0.2345,3.560305 1.4181,1.669306 2.88619,0.739396 4.78871,0.482584 5.19182,-1.178282 1.71035,-0.280763 12.33546,-6.476601 1.05003,-0.612309 0.60908,-1.919912 -0.007,-2.623047 -1.29959,-0.994503 -3.01665,-1.041734 -4.58613,-0.787659 0,0 -9.62891,7.241738 -9.62891,7.241738 z" />
    <path
       style="fill:#000000;stroke-width:26.4583"
       id="path413"
       d="m -226.55484,97.208976 c -1.95616,0.451496 -3.95775,0.722154 -5.90732,1.200782 4.01629,7.377412 -15.4264,7.677072 -7.16218,6.733182 4.27745,-1.26205 11.2618,-2.57572 11.9235,-7.061484 0.10972,-0.447493 -0.16491,-1.053759 -0.006,-1.485395 0.0523,-0.142034 0.24247,-0.181208 0.36325,-0.27242 4.18636,0.54932 0.48168,-0.0038 -9.77219,5.951979 -0.0924,0.0537 0.16073,-0.14393 0.25487,-0.19452 0.15153,-0.0814 0.42144,-0.22529 0.59435,-0.2322 0.14429,0.1 0.16345,0.33571 0.17749,0.52436 0,0 10.67849,-5.709672 10.67849,-5.709672 v 0 c -0.14692,-0.551085 -0.36692,-1.046814 -0.74167,-1.488792 -0.17039,-0.124005 -0.55984,-0.424804 -0.74916,-0.480102 -0.11602,-0.03388 -0.24138,0.01585 -0.36225,0.01598 -0.13472,1.46e-4 -0.28631,-0.08093 -0.40388,-0.01513 -10.61746,5.940396 -9.27779,2.313472 -10.73596,6.574126 -0.13885,0.57387 0.0369,1.32009 -0.35705,1.78809 -2.95507,1.22666 14.94156,-8.376879 8.71042,-5.247461 -3.14054,1.370938 -21.75369,-1.271154 -12.12884,7.786171 1.82511,0.0392 4.12393,-1.03717 5.99466,-1.18031 0,0 9.62947,-7.207167 9.62947,-7.207167 z" />
    <path
       style="fill:#000000;stroke-width:26.4583"
       id="path415"
       d="m -216.17554,134.61679 c -0.67069,0.73265 -1.24067,1.55697 -2.04789,2.15519 -0.22545,0.16707 -0.96802,0.56814 -0.72614,0.4259 9.78312,-5.75293 13.18997,-6.8942 9.2333,-5.53218 -1.03632,-0.15851 -0.94008,-1.88633 -1.00083,-2.68595 -0.0274,-0.45305 -0.0667,-1.17334 0.28967,-1.55498 0.17831,-0.19094 0.98791,-0.3087 0.76424,-0.17372 -3.27166,1.97435 -6.61409,3.82897 -9.92113,5.74346 0.30129,-0.0357 1.18764,-0.6208 1.28701,-0.15455 0.0926,0.55158 0.12807,1.12166 0.0685,1.67751 3.59759,-1.94923 7.18563,-3.91617 10.79276,-5.84768 0.0712,-0.0382 1.06104,-0.34869 0.5888,-0.0684 -12.2606,7.27724 -13.4478,8.04586 -10.001,5.82521 0,0 9.66272,-7.32093 9.66272,-7.32093 v 0 c -4.34675,-0.33101 -0.47612,-0.0899 -10.8997,6.07472 -0.0686,0.0405 -0.1397,0.54979 -0.14017,0.55846 -0.008,0.14946 -0.12163,0.50894 0.0154,0.44875 3.66018,-1.6076 7.20412,-3.46782 10.80618,-5.20173 -0.1345,-0.66549 -0.0644,-1.37007 -0.31942,-2.01381 -0.45977,-1.09284 -1.11845,-1.61642 -2.33067,-1.38078 -5.59632,3.12021 -11.85849,3.03132 -11.31318,8.93763 0.1673,1.58936 0.41519,3.22355 1.86095,4.16453 4.69853,1.37347 11.41881,-4.68347 14.29587,-9.03769 0,0 -10.96527,4.96103 -10.96527,4.96103 z" />
    <path
       style="fill:#000000;stroke-width:26.4583"
       id="path417"
       d="m -189.0676,152.35852 c -1.58395,0.0154 -3.17054,0.0577 -4.7537,-0.0133 -0.96448,-0.16317 0.071,-1.21277 0.42028,-1.55872 4.13591,-1.46664 0.27935,-0.14194 -9.01157,5.43833 -0.22149,0.13303 0.46931,-0.21792 0.71242,-0.3054 0.60915,-0.21917 1.2468,-0.32722 1.88592,-0.40543 1.0361,0.0224 1.07233,1.30084 0.94043,2.08525 1.25798,0.0671 -1.59481,1.25374 -1.13582,0.983 8.23441,-4.85705 13.65807,-7.52916 9.90085,-5.67411 -0.5809,-0.65794 -1.13047,-1.98881 -0.90089,-2.87331 0,0 -10.76518,5.47662 -10.76518,5.47662 v 0 c 0.2057,1.50092 0.75983,2.95566 1.66241,4.17751 4.14285,2.80684 11.5651,-2.74279 11.98563,-7.51891 -0.0863,-1.48445 -0.45344,-3.00369 -1.91379,-3.69355 -4.62592,-0.78425 -12.87686,5.01402 -14.39522,7.15142 -0.59096,1.35475 -0.66922,2.75281 0.7416,3.63253 1.5678,0.43016 3.268,0.007 4.87808,0.18083 0,0 9.74855,-7.08274 9.74855,-7.08274 z" />
    <ellipse
       style="fill:#ffff00;stroke-width:26.4583"
       id="path16"
       cx="531.11725"
       cy="136.61115"
       rx="147.41072"
       ry="147.78868" />
    <ellipse
       style="fill:#ffeeaa;stroke-width:27.2809"
       id="path20"
       cx="745.05182"
       cy="208.42664"
       rx="42.333332"
       ry="38.175594" />
    <circle
       style="fill:#ff9955;stroke-width:25.6975"
       id="path22"
       cx="371.23337"
       cy="35.313541"
       r="15.497025" />
    <path
       style="fill:#e3dbdb;stroke-width:26.4583"
       id="path28"
       d="m 691.77727,194.41744 c -17.86707,9.94652 -6.80392,4.03798 -2.55421,2.04475 3.26113,-1.47589 6.7178,-2.3355 10.23927,-2.89016 1.74504,-0.34029 3.45409,-0.32761 5.19065,-0.0218 1.58724,0.29433 3.20638,0.32331 4.81539,0.35994 2.38969,0.0216 4.77949,0.005 7.16926,0.0135 1.50056,0.016 3.00103,0.0339 4.5017,0.0326 1.38528,-0.003 2.77058,-0.006 4.15586,-0.008 1.76983,0.0196 3.53925,-0.0162 5.30892,-0.0383 3.07718,-0.007 6.15437,-0.0155 9.23158,-0.018 2.96235,0.0147 5.92783,-0.10177 8.87907,0.19594 1.72879,0.18428 3.44072,0.44677 5.12858,0.86275 1.86097,0.55579 3.7855,0.80765 5.6905,1.15041 1.38668,0.37655 2.78556,0.63738 4.21587,0.76414 1.4628,0.11207 2.92335,0.0814 4.38118,0.25584 1.95651,0.40259 3.87355,1.03065 5.77173,1.65469 1.20676,0.52139 2.47568,0.84264 3.72758,1.22679 1.61967,0.53318 3.20701,1.15176 4.77832,1.81211 1.5607,0.62711 3.05472,1.40482 4.59965,2.0664 1.04328,0.5483 2.11037,1.08895 3.0906,1.7466 0.89476,0.57226 1.66822,1.29669 2.48523,1.96883 0.29755,0.24594 0.37872,0.53353 0.38248,0.89208 -0.003,0.61734 0,1.23467 -0.009,1.85195 0.14269,0.61188 0.55362,1.14729 0.67871,1.76031 0.0836,0.45399 0.0712,0.91971 0.0719,1.3797 -0.004,0.66366 -0.004,1.32556 0.0106,1.98905 -0.10639,0.44574 0.25742,1.73284 -0.19492,1.94375 -0.51871,0.19871 -0.29916,1.00629 -0.71437,1.24187 -0.34867,0.37123 -0.2417,0.99223 -0.47932,1.39411 -0.0471,0.0796 -0.14827,0.11062 -0.22241,0.16592 -0.0573,0.10779 -0.11451,0.2156 -0.17177,0.32342 -0.3512,0.41442 -0.24291,1.00534 -0.41362,1.47299 -0.0817,0.22392 -0.25802,0.40373 -0.34978,0.62376 -0.22309,0.71191 -0.57735,1.25126 -0.90368,1.91082 -0.21212,0.52488 -0.42566,1.20094 -1.10969,1.16686 -0.006,0.20167 -0.89379,0.57904 -0.82047,0.53668 31.16762,-18.00574 -22.42069,12.90164 8.58443,-5.00877 -0.57976,0.33591 -1.14501,0.65654 -1.80758,0.78637 -4.16367,-0.12206 -0.45339,-0.0772 -10.26875,5.66658 -0.0706,0.0413 -0.21275,0.24101 -0.14187,0.20018 14.8971,-8.57723 12.37851,-7.23458 9.09215,-5.32291 -0.11057,0.33179 -0.66308,0.0837 -0.78108,0.14999 -12.4646,7.00225 -6.36439,4.21812 -10.20508,5.96355 3.14613,-1.8206 6.29226,-3.64122 9.4384,-5.46182 -0.27657,0.28848 -0.66958,0.36139 -1.05246,0.40029 -0.0692,0.004 -0.13846,0.007 -0.2077,0.0106 0,0 -9.12619,6.65218 -9.12619,6.65218 v 0 c 0.0757,0 0.15134,0.003 0.22698,0.004 4.66138,0.11044 4.1402,-0.63071 11.23429,-5.67698 3.06721,-2.47951 -0.71221,0.59621 -9.08794,5.21422 -0.0846,0.0467 -0.0269,-0.21666 0.0391,-0.2872 0.12782,-0.13655 0.4934,0.18161 0.63767,0.0127 4.01566,-1.00301 2.28894,-1.22777 10.267,-5.88222 3.56862,-2.08195 -11.86447,8.4868 -9.10262,5.09024 0.73411,-0.0388 1.44156,-0.0541 2.08317,-0.46561 33.24185,-19.10739 -22.58907,12.75866 10.69515,-6.08838 0.29985,-0.16981 0.48352,-0.47445 0.821,-0.57703 0.31258,-0.56843 0.58809,-1.13194 0.85582,-1.72133 0.33261,-0.64303 0.5855,-1.3023 0.8631,-1.97299 0.28763,-0.66015 0.36909,-1.39903 0.8241,-1.98813 0.35335,-0.5915 0.43703,-1.32409 0.89802,-1.87154 0.12319,-0.53227 0.49255,-0.91719 0.6277,-1.43767 0.004,-0.75683 -0.009,-1.51332 -0.0101,-2.27014 0.0164,-0.67438 0.0249,-1.34731 0.0119,-2.02199 -0.0159,-0.55871 -0.0266,-1.12141 -0.20699,-1.65723 -0.16888,-0.48786 -0.46532,-0.94016 -0.5411,-1.45437 0,-0.66361 0.0338,-1.32948 -0.0304,-1.9912 -0.12094,-0.63851 -0.42322,-1.17323 -0.85934,-1.65755 -0.88,-0.62556 -1.63777,-1.38708 -2.56201,-1.95198 -1.00544,-0.7843 -2.16374,-1.322 -3.24353,-1.99734 -1.59443,-0.54272 -3.0762,-1.36985 -4.62708,-2.01647 -1.5975,-0.64607 -3.18532,-1.3139 -4.79301,-1.92963 -1.25254,-0.38128 -2.51642,-0.69444 -3.74311,-1.16376 -1.92921,-0.70786 -3.96375,-1.14903 -5.90415,-1.83185 -1.46471,-0.22948 -2.90597,-0.37606 -4.39352,-0.33744 -1.39779,-0.0748 -2.7832,-0.22254 -4.13041,-0.62817 -1.86557,-0.47198 -3.8413,-0.44308 -5.67975,-1.07719 -1.72337,-0.54351 -3.47578,-0.85165 -5.27926,-0.98639 -3.00241,-0.33174 -6.00686,-0.23491 -9.0247,-0.23455 -3.06067,-0.003 -6.12127,-0.0109 -9.18189,-0.0181 -1.73453,-0.0224 -3.46882,-0.0583 -5.20353,-0.0383 -1.3792,-0.001 -2.75839,-0.004 -4.13756,-0.006 -1.53379,2.6e-4 -3.06728,0.022 -4.60094,0.0396 -2.37001,0.0104 -4.74007,0.006 -7.10986,-0.0292 -1.55514,-0.0251 -3.11893,-0.0395 -4.66132,-0.25871 -1.86592,-0.32456 -3.67189,-0.59619 -5.56236,-0.15362 -3.57339,0.52527 -7.09444,1.28646 -10.44933,2.66245 -5.69589,2.57515 -11.14263,5.62855 -16.52016,8.82997 0,0 10.47528,-4.0413 10.47528,-4.0413 z" />
    <path
       style="fill:#e3dbdb;stroke-width:26.4583"
       id="path30"
       d="m 709.74015,218.35698 c -1.6229,0.0438 -3.2467,0.0246 -4.86981,0.004 -0.90657,-0.004 -1.79695,0.0603 -2.67161,-0.20348 -0.67773,-0.14446 -1.23632,-0.45191 -1.823,-0.80294 -0.79751,-0.4457 -1.55946,-0.94674 -2.33937,-1.42086 -0.90778,-0.41993 -1.75823,-0.94308 -2.61922,-1.44852 -0.47916,-0.33893 -0.91701,-0.7324 -1.39961,-1.06779 -0.40429,-0.27417 -0.66681,-0.67357 -0.99296,-1.02491 -0.48464,-0.61359 -0.84362,-1.29977 -1.31932,-1.91987 -0.26876,-0.32573 -0.59433,-0.72648 -0.59613,-1.17267 -0.0994,-0.49158 -0.44688,-0.95623 -0.67739,-1.41544 -0.0751,-0.32436 -0.077,-0.65318 -0.078,-0.98353 0.004,-0.45965 2.6e-4,-0.91927 0.003,-1.37893 0.0159,-0.47244 0,-0.9449 -2.7e-4,-1.41746 -0.007,-0.49162 0.0135,-0.98361 0.005,-1.47514 0.006,-0.53367 -0.004,-1.06723 -0.0145,-1.60081 -0.0143,-0.80146 -0.15938,-1.1872 0.49609,-1.70957 0.0474,-0.0285 0.11846,-0.0355 0.14235,-0.0854 0.14891,-0.31084 -0.0587,-0.25035 0.0892,-0.53137 0.10879,-0.20681 0.35459,-0.43102 0.49723,-0.62512 0.29181,-0.93982 0.78954,-1.82822 1.3616,-2.63576 0.37454,-0.27411 1.06026,-1.6509 1.34408,-1.81916 0.34695,-0.54073 0.72075,-1.51139 1.38316,-1.67542 0.57028,-0.15186 -0.0233,0.0748 0.42212,-0.36455 0.14173,-0.13984 0.70424,-0.37146 0.53205,-0.27152 -9.4247,5.46915 -15.93678,9.21188 0.60333,-0.31958 -18.18521,13.54716 -11.35155,5.8163 -7.90231,4.6833 4.75982,-1.06323 -6.72746,4.33472 10.6403,-5.80804 0,0 -10.49624,4.16922 -10.49624,4.16922 v 0 c 3.16167,-1.8281 6.28891,-3.71709 9.48502,-5.48431 0.0811,-0.0448 0.0119,0.21131 -0.0582,0.27193 -0.0839,0.0725 -0.48598,-0.11675 -0.59565,0.0103 -4.39608,0.67128 -7.17286,5.09546 -11.5669,6.25045 3.12121,-1.78371 12.49569,-7.11564 9.3636,-5.35114 -3.52395,1.98526 -7.75176,3.76655 -10.87956,6.43976 -0.37187,0.66818 -0.83722,1.29207 -1.29333,1.90244 -0.27578,0.68149 -0.93922,1.1887 -1.23989,1.88107 -0.49946,0.87115 -0.89287,1.81102 -1.43656,2.64767 -0.25511,0.43019 -0.41076,0.90868 -0.73324,1.25311 -0.25773,0.73933 -0.18309,1.51028 -0.18857,2.28248 -0.0108,0.53853 -0.0206,1.07705 -0.0145,1.61567 -0.009,0.48975 0.0122,0.97992 0.004,1.46977 3e-5,0.47239 -0.0172,0.94459 -0.006,1.41694 0,0.47475 -0.0138,0.95015 0.01,1.42451 0.0334,0.49336 0.12227,0.97757 0.31899,1.43495 0.20349,0.35919 0.46823,0.71468 0.52374,1.12519 0.1701,0.59364 0.46164,1.17786 0.89479,1.62241 0.53351,0.62659 0.87823,1.37236 1.3565,2.04146 0.3883,0.34731 0.59705,0.82989 1.05595,1.11615 0.48114,0.44543 1.1013,0.71816 1.53286,1.22508 0.90014,0.46619 1.74194,1.01296 2.63589,1.48119 0.80893,0.31641 1.44123,0.97329 2.25657,1.29164 0.59963,0.47011 1.24103,0.92435 1.99459,1.06593 0.97123,0.36623 1.86738,0.61502 2.91997,0.4812 1.61983,-0.0201 3.24041,-0.0412 4.85997,0.004 0,0 9.08087,-6.59762 9.08087,-6.59762 z" />
    <path
       style="fill:#c8b7b7;stroke-width:26.4583"
       id="path34"
       d="m 709.79336,226.65793 c -1.88026,-0.16415 -3.71237,-0.59476 -5.54958,-1.00246 -1.45815,-0.34157 -2.8638,-0.88058 -4.24651,-1.44912 -0.82492,-0.30078 -1.56242,-0.83936 -2.40581,-1.08929 -0.67831,-0.35454 -1.24793,-0.8695 -1.90108,-1.266 -0.64871,-0.39281 -1.27138,-0.83373 -1.92797,-1.22145 -0.65026,-0.39143 -1.28042,-0.81521 -1.94373,-1.18518 -0.74253,-0.46572 -1.44807,-0.97318 -2.21946,-1.392 -0.18865,-0.0607 -0.86828,-0.73221 -0.79076,-0.66096 -0.0206,-0.46479 -0.36854,-0.89123 -0.53194,-1.3395 -0.18161,-0.56804 -0.74639,-1.0106 -0.89403,-1.58496 -0.0786,-0.27111 -0.0566,-0.5461 -0.0523,-0.82277 -0.003,-0.58719 -0.45161,-1.04256 -0.64431,-1.57882 -0.12869,-0.57855 -0.0932,-1.14443 -0.27485,-1.71622 -0.20211,-0.64589 -0.45786,-1.27387 -0.55676,-1.94529 -0.0514,-0.66484 -0.0499,-1.33266 -0.0441,-1.99906 -0.003,-0.50603 0.023,-1.01245 0.0148,-1.51838 -0.0138,-0.64185 -0.006,-1.2838 -0.0109,-1.92573 -0.003,-0.86364 -0.0101,-1.72723 -0.0135,-2.59091 -0.0188,-0.70864 0.50189,-1.27597 0.63876,-1.97171 0.11961,-0.52143 0.5072,-0.98134 0.83089,-1.41112 0.008,-0.104 -0.0306,-0.22256 0.023,-0.312 0.0702,-0.11702 0.47107,-0.1266 0.55991,-0.28708 0.0976,-0.1762 0.0902,-0.39282 0.14627,-0.58626 0.66841,-0.0227 0.66783,-0.43803 0.82841,-0.97756 0.11027,-0.3135 -0.10385,-0.81736 0.0285,-1.11767 0.0556,-0.1262 0.23511,-0.14619 0.34015,-0.23556 0.43482,-0.3162 0.26546,-0.16641 0.38468,-0.63032 0.0474,-0.18431 0.21195,-0.31626 0.31096,-0.47879 0.19,-0.43249 0.48842,-0.70756 0.81158,-1.01843 0.52351,-0.8483 -0.0159,-0.59332 0.92708,-1.02213 0.0251,-0.1076 0.0114,-0.23301 0.0758,-0.32279 0.0959,-0.13357 0.49855,-0.23889 0.64333,-0.35368 0.16412,-0.13009 0.30623,-0.28582 0.463,-0.42468 3.00656,-3.10036 7.28212,-4.76245 -8.19037,4.40333 3.27848,-1.93766 6.57527,-3.84466 9.83539,-5.81299 0.0784,-0.0473 0.0846,-0.17215 0.16113,-0.22249 0.0773,-0.0508 0.18719,-0.0215 0.27056,-0.0616 0.11512,-0.0554 0.42471,-0.28357 0.31409,-0.21964 -3.07033,1.77422 -12.19854,7.23544 -9.19443,5.35124 3.28033,-2.05747 6.68239,-3.9142 10.02358,-5.8713 3.6722,-2.09964 -2.57617,1.47167 -8.63304,5.01337 -0.14684,0.0859 0.30316,-0.15463 0.45728,-0.22663 0.3596,-0.16798 0.72163,-0.31282 1.10146,-0.42607 0.58635,-0.17612 1.18843,-0.20403 1.7956,-0.18928 0.75768,-0.20737 1.49172,-0.47162 2.26467,-0.6295 0.59891,-0.096 1.20417,-0.11525 1.80898,-0.13403 0.47543,-0.002 0.95081,-0.004 1.42619,0.006 0.98226,-0.012 1.96424,-0.03 2.94661,-0.0273 0.9048,-0.002 1.80946,0.014 2.71415,0.0227 0.67921,0.004 1.35818,-0.001 2.03734,-0.009 1.12371,-0.005 2.24748,-0.008 3.37122,-0.0118 1.07857,-0.002 2.12696,-0.28353 3.17688,-0.49908 0.75599,-0.0758 1.39393,-0.31934 2.09203,-0.60547 1.57737,-0.30696 3.15296,-0.62798 4.73964,-0.88692 1.36001,-0.21277 2.73764,-0.26013 4.11181,-0.27362 0.96695,-0.006 1.93408,-0.003 2.901,0.008 1.21637,7e-5 2.43258,-0.0169 3.64892,-0.0205 1.52564,-0.006 3.05123,0.003 4.57684,0.009 1.13356,-0.005 2.26703,0.01 3.40056,0.0107 0.81251,0.0173 1.62502,-5.3e-4 2.43755,0.002 0.81508,0.005 1.63015,2.4e-4 2.44523,0.003 1.08005,0.0133 2.15971,-0.0214 3.23977,-0.0298 1.96273,-0.0216 3.92575,-0.0167 5.88846,0.006 1.48619,-0.0564 2.94344,0.26599 4.40343,0.49201 1.04921,0.0883 2.03515,0.45832 3.0448,0.72667 0.91377,0.45809 1.80152,0.73817 2.83517,0.86813 1.86015,0.0772 3.69983,0.33283 5.5435,0.57685 1.44875,0.25217 2.88785,0.59749 4.28786,1.04917 0.88035,0.40705 1.88167,0.45968 2.77321,0.81239 0.83703,0.40756 1.74865,0.58894 2.61601,0.92201 1.04145,0.48886 2.20028,0.52286 3.31721,0.71282 1.69918,0.19952 3.35955,0.58156 5.02346,0.96514 0.82608,0.2913 1.74956,0.21541 2.57252,0.48291 0.29599,0.29268 0.942,0.27373 1.20288,0.50184 0.50321,0.62339 1.23018,0.76014 1.94889,0.99605 0.96274,0.23238 1.86073,0.5927 2.76619,0.98337 0.51022,0.23363 0.9956,0.53944 1.29948,1.0176 0.47805,0.47166 0.64659,1.06547 0.93297,1.64056 0.82092,1.19559 1.88336,2.20895 2.8983,3.23897 0.63905,0.77215 1.53577,1.25305 2.17622,2.01909 0.22635,0.4489 0.41148,0.95092 0.58767,1.4404 0.12417,0.93006 0.42653,1.79119 0.7167,2.67914 0.18939,0.53711 0.3016,1.08045 0.33195,1.64704 0.003,0.40211 0.003,0.8043 0,1.20641 0.005,0.5163 -0.003,1.03254 -0.004,1.54882 -0.009,0.38146 -1.6e-4,0.76266 -0.008,1.14419 0.16825,0.48636 0.57693,0.83819 0.712,1.33025 0.0807,0.30902 0.0615,0.63174 0.0547,0.94864 0,0.3847 -0.003,0.76909 -0.004,1.15373 -0.0119,0.43611 0.005,0.87212 0.005,1.30831 -0.4885,0.12139 -0.55567,0.66265 -0.72937,1.08238 0.009,0.51816 -0.32565,1.20663 -0.70337,1.54953 -0.52052,0.58852 -0.52258,1.43143 -0.92829,2.05338 -0.34973,0.69959 -0.77338,1.32432 -1.15946,2.02277 -0.36137,0.65818 0.13174,-0.0773 -0.38801,0.25649 -0.0864,0.0555 -0.0888,0.19304 -0.16843,0.25786 -0.24728,0.20135 -0.61987,0.29472 -0.88723,0.50617 0.89852,-0.45026 -1.7921,1.18809 -0.8209,0.62537 3.13494,-1.81641 12.47984,-7.367 9.38684,-5.4801 -8.25749,5.03753 -6.47962,4.19685 -10.20115,5.93198 -0.10035,0.0504 -0.39814,0.20736 -0.30101,0.15106 19.44568,-11.26699 5.05277,-3.11164 -1.12469,0.93297 24.95108,-14.49443 -0.33573,0.18089 -0.4998,0.278 -0.28345,0.1678 -0.56478,0.66654 -0.78793,0.91141 -0.54904,0.0405 -0.61233,0.69815 -1.00478,0.95485 -0.15801,0.10335 -0.36518,0.0966 -0.54594,0.15116 19.38012,-11.38354 5.33154,-2.83734 -1.17526,0.89791 24.72402,-14.26325 -0.572,0.2493 -0.9794,0.38333 -3.31714,1.09144 12.03846,-7.08427 9.04237,-5.29034 -3.99063,1.48939 -7.74928,3.74446 -11.11623,6.37545 -0.005,0.12465 0.0376,0.26059 -0.0143,0.37396 -0.0442,0.0964 -0.56716,0.33624 -0.68723,0.41582 3.12563,-1.82147 6.25126,-3.64297 9.37686,-5.46446 -0.28466,0.2254 -0.66127,0.0729 -0.96443,0.24741 -0.20775,0.11954 -25.56788,14.98417 -0.50493,0.36938 -3.56492,1.91694 -6.78087,3.81022 -10.59267,5.97064 -2.86208,2.65031 -0.2076,0.16595 9.18863,-5.32852 0.12764,-0.0746 -0.24709,0.16293 -0.37629,0.23482 -0.31284,0.17399 -0.11388,0.11634 -0.54695,0.12123 -31.96574,17.9229 5.9412,-2.62617 -1.12011,0.67307 -3.90641,0.71941 -2.02681,0.89266 -10.31862,5.83536 -0.065,0.0387 -0.20217,0.21916 -0.13671,0.18122 8.91379,-5.16893 12.32496,-7.77849 9.23804,-5.42682 -0.32801,0.23625 -0.65752,0.32507 -1.05223,0.37732 -0.45182,0.0249 -0.90447,0.0246 -1.35678,0.0164 -0.45117,0 -0.90236,0.003 -1.35355,-0.003 -0.4335,-0.004 -0.86707,0.003 -1.30062,0 -0.11633,-0.0302 -0.23264,-0.0604 -0.34898,-0.0907 0,0 -8.86077,6.99693 -8.86077,6.99693 v 0 c 0.0259,-0.0905 0.0519,-0.181 0.0778,-0.27149 0.43164,0 0.86326,0.005 1.29485,0.003 0.44823,-0.004 0.89648,5e-5 1.34469,0.003 0.46445,-0.003 0.92863,0.004 1.393,0.0106 0.43956,0.0259 0.88937,0.0869 1.31525,-0.0276 3.95882,-0.86739 0.14404,-0.005 10.07155,-5.84793 0.0544,-0.032 0.2219,-0.12002 0.16735,-0.0883 -3.15127,1.82993 -6.27579,3.70699 -9.45764,5.48322 -0.12105,0.0676 0.23852,-0.65402 0.35248,-0.22069 0.18023,-0.0386 0.48043,-0.0559 0.6364,-0.14554 3.29917,-1.89728 6.57124,-3.84136 9.86015,-5.75639 0.0602,-0.035 0.24704,-0.12837 0.18671,-0.0936 -3.14634,1.8149 -6.29676,3.62275 -9.44515,5.43411 0.26543,-0.4173 0.55423,-0.0982 0.94819,-0.32469 9.17572,-5.27627 6.76815,-3.59373 10.07303,-5.91482 -11.52519,6.41798 -12.91817,5.61039 -8.71947,5.23037 2.66504,-1.54192 23.27931,-13.28743 0.57324,-0.31105 -0.1788,0.10218 0.26004,-0.34851 0.45321,-0.41992 0.11861,-0.0439 0.25289,-0.005 0.3793,-0.008 3.44189,-1.95045 7.74587,-2.90261 10.26962,-5.94915 0.11671,-0.14092 0.131,-0.36536 0.2793,-0.47252 0.0532,-0.0384 0.12821,0.028 0.19229,0.042 4.39635,-2.74638 -12.75976,6.99384 -8.24452,4.75094 3.83699,-1.05709 6.60022,-1.78771 10.27269,-5.87151 2.4239,-2.69538 -6.34849,3.50153 -9.49997,5.29276 -0.13952,0.0793 0.72586,-0.12711 0.4794,-0.0432 3.34698,-1.86931 6.69393,-3.73859 10.04091,-5.6079 3.83156,-3.41317 -12.21005,6.84509 -8.6849,4.85437 3.30285,-1.86521 6.58855,-3.76061 9.8828,-5.64089 0.48749,-0.44958 0.89858,-0.99304 1.42108,-1.40251 0.17698,-0.17862 0.26601,-0.27712 0.46008,-0.43823 0.12673,-0.10522 0.55705,-0.35147 0.41418,-0.26953 -11.32491,6.49507 -14.02136,8.05106 0.5016,-0.30265 5.98297,-4.94001 -29.43625,18.15779 1.43552,-0.99955 2.72105,-2.19194 -12.07019,7.04184 -9.109,5.18711 3.71211,-2.32506 7.37862,-3.81911 10.70846,-6.32831 0.5816,-0.38452 1.01473,-0.83481 1.26447,-1.47902 0.38888,-0.69477 0.81902,-1.35832 1.11604,-2.10079 0.22431,-0.69038 0.5802,-1.30675 0.99303,-1.90504 0.23072,-0.57975 0.47802,-1.15718 0.66842,-1.73359 0.23177,-0.50383 0.60185,-0.89295 0.50879,-1.49028 2.7e-4,-0.43717 0.0175,-0.87407 0.009,-1.3112 0.003,-0.39773 0.008,-0.79519 -0.003,-1.193 -0.032,-0.4203 -0.0663,-0.84318 -0.22558,-1.23854 -0.13423,-0.35245 -0.37214,-0.73537 -0.52597,-1.01046 -0.008,-0.37823 0,-0.75608 -0.007,-1.13425 0,-0.51562 -0.004,-1.03134 0.005,-1.54691 0,-0.44013 0.014,-0.88356 -0.052,-1.32024 -0.0981,-0.62964 -0.26947,-1.23495 -0.49276,-1.83236 -0.30077,-0.89598 -0.51133,-1.79591 -0.7181,-2.71747 -0.22466,-0.60577 -0.3882,-1.27892 -0.77446,-1.80015 -0.6916,-0.78742 -1.54901,-1.31346 -2.30243,-2.03172 -0.92562,-0.93996 -1.90164,-1.85888 -2.63761,-2.96059 -0.28376,-0.63418 -0.49599,-1.26768 -0.98518,-1.78754 -0.45812,-0.67957 -1.01205,-1.13556 -1.69164,-1.58398 -0.9422,-0.34131 -1.79985,-0.86485 -2.80463,-1.01007 -0.56928,-0.21436 -1.0463,-0.29225 -1.57433,-0.51711 -0.54104,-0.71282 -0.77488,-0.57215 -1.50976,-0.93051 -0.98586,-0.51432 -1.67553,-0.45289 -2.76437,-0.62669 -1.6909,-0.32283 -3.34457,-0.81593 -5.06367,-0.97797 -1.05156,-0.19933 -2.10773,-0.32372 -3.13563,-0.58964 -0.85154,-0.31441 -1.66368,-0.64224 -2.54371,-0.84569 -0.92141,-0.51335 -1.91315,-0.58075 -2.91216,-0.90525 -1.46582,-0.48116 -2.94566,-0.87083 -4.45897,-1.19235 -1.84391,-0.20804 -3.66472,-0.58855 -5.52297,-0.6173 -1.05386,-0.0836 -1.87031,-0.0793 -2.69946,-0.79237 -1.06646,-0.21071 -2.0742,-0.63142 -3.14338,-0.78253 -1.50717,-0.18114 -2.99789,-0.55796 -4.51017,-0.60363 -1.96808,0.022 -3.9365,0.028 -5.90463,0.006 -1.05267,-0.008 -2.10491,-0.0436 -3.15764,-0.0298 -0.81817,0.003 -1.63634,-0.002 -2.45449,0.003 -0.81441,0.002 -1.6288,-0.0153 -2.44316,0.002 -1.14334,7.9e-4 -2.28669,0.0156 -3.43006,0.0107 -1.53363,0.006 -3.06723,0.0156 -4.60092,0.009 -1.19271,-0.004 -2.38527,-0.0209 -3.57798,-0.0272 -0.98433,0.005 -1.96871,-1.7e-4 -2.95304,0.009 -1.40632,0.0201 -2.81655,0.01 -4.21667,0.16364 -1.59726,0.21256 -3.16328,0.62577 -4.75914,0.78825 -1.0169,0.0793 -1.14414,0.5354 -2.05478,0.58553 -1.02656,0.25071 -2.05896,0.47453 -3.08208,0.73883 -1.11291,-0.004 -2.22583,-0.007 -3.33869,-0.0118 -0.67096,-0.008 -1.34168,-0.0126 -2.01266,-0.009 -0.92544,0.009 -1.85084,0.0246 -2.77636,0.0226 -0.95355,0.002 -1.90672,-0.0139 -2.86012,-0.0304 -0.48389,0.005 -0.96763,-5.3e-4 -1.45153,-0.001 -0.63629,-0.0118 -1.27383,-0.008 -1.90857,0.0412 -0.79684,0.0426 -1.627,0.14051 -2.34294,0.51167 -0.50683,0.36411 -1.17263,0.0937 -1.77138,0.22293 -4.63913,0.67635 -8.46151,4.15757 -12.34308,6.56414 3.06097,-1.76214 12.20531,-7.11378 9.18284,-5.28643 -3.308,1.99997 -6.69703,3.8628 -10.03961,5.80443 -0.62193,0.36126 -0.0989,0.0547 -0.53782,0.47884 -0.0562,0.0543 -0.26432,0.1673 -0.19664,0.12807 3.14452,-1.82287 6.28497,-3.65276 9.42745,-5.47915 -5.67851,3.35081 -7.62156,3.80415 -11.05525,6.9021 -0.22328,0.18051 -0.46992,0.33468 -0.67058,0.5409 -0.13933,0.1432 -0.20325,0.35183 -0.35219,0.48504 -0.05,0.0447 -0.13086,0.0299 -0.19632,0.0449 -0.32938,0.40092 -0.3851,0.92353 -0.841,1.21109 -0.28266,0.37505 -0.45326,0.82378 -0.70612,1.22033 -0.10544,0.1953 -0.13745,0.43878 -0.29134,0.59869 -0.0346,0.036 -0.10472,-0.0354 -0.14925,-0.0128 -0.14197,0.072 -0.16848,0.42369 -0.26995,0.52405 -0.1405,0.47002 -0.0327,1.04349 -0.34475,1.44361 -0.28496,0.36584 -0.79717,0.33816 -0.82622,0.95998 -0.41767,0.49136 0.19227,-0.18027 -0.30853,0.22116 -0.24373,0.19538 -0.22958,0.50777 -0.35227,0.75625 -0.0235,0.0476 -0.0855,0.0631 -0.12824,0.0946 -0.29019,0.53648 -0.54872,1.07959 -0.67831,1.68015 -0.32486,0.71401 -0.52703,1.46266 -0.45683,2.25463 -0.003,0.86822 -0.0106,1.73636 -0.0138,2.60455 -0.005,0.64497 0.003,1.28993 -0.014,1.9348 -0.0111,0.50548 0.009,1.01174 0.008,1.51727 0.0138,0.73101 0.0169,1.46714 0.13023,2.19095 0.15814,0.67986 0.43873,1.31671 0.61304,1.99254 0.0936,0.61954 0.0408,1.26855 0.31422,1.8526 0.17568,0.41891 0.49329,0.76531 0.44259,1.23268 0.0206,0.40535 0.10343,0.79607 0.25279,1.17514 0.24635,0.55163 0.66947,0.99936 0.90106,1.56266 0.1783,0.44926 0.40889,0.86161 0.49562,1.339 0.26397,0.55295 0.72588,0.89516 1.21682,1.25955 0.69019,0.50144 1.52307,0.82164 2.18149,1.37475 0.63127,0.50347 1.44026,0.73329 2.04086,1.28913 0.7122,0.30948 1.33736,0.78949 1.93606,1.27529 0.73147,0.1968 1.20349,0.83547 1.84386,1.18676 0.7257,0.542 1.75574,0.63495 2.53349,1.13541 1.40419,0.68768 2.92767,1.14096 4.40695,1.6416 1.84571,0.34621 3.65916,0.84416 5.52593,1.06921 0,0 9.18729,-6.44586 9.18729,-6.44586 z" />
    <ellipse
       style="fill:url(#linearGradient46);fill-opacity:1;stroke-width:26.4583"
       id="path36"
       cx="773.40002"
       cy="11.879011"
       rx="53.294643"
       ry="57.074402" />
    <path
       style="fill:#000000;stroke-width:26.4583"
       id="path264"
       d="m 46.954275,102.54971 c 5.257488,-5.06326 31.284476,-19.920627 3.821952,-3.764129 7.670418,-4.249505 15.467541,-8.282898 23.434079,-11.948959 8.306189,-3.662913 17.02054,-6.273874 25.527725,-9.421709 9.757359,-3.695232 19.265449,-7.986366 29.082559,-11.523427 12.6619,-4.083317 25.90619,-5.809848 39.08765,-7.205215 13.34479,-1.220486 26.75304,-1.40207 40.14333,-1.556885 15.40257,0.04881 30.68928,2.384829 45.60534,6.103993 5.28765,1.649978 10.79437,2.805546 15.91538,4.961252 3.4178,1.276887 6.85271,2.375379 10.09774,4.068072 1.19549,0.62267 2.40086,1.226076 3.60683,1.82812 0,0 16.80919,-11.139768 16.80919,-11.139768 v 0 c -1.24302,-0.523341 -2.48211,-1.056685 -3.69144,-1.655135 -3.27152,-1.694072 -6.62549,-3.078668 -10.10306,-4.274725 -5.42605,-2.204966 -11.31618,-3.00913 -16.91913,-4.649981 -15.15581,-3.496487 -30.61244,-5.871112 -46.18376,-6.253816 -13.36755,0.0092 -26.75802,-0.07868 -40.07529,1.281703 -13.17902,1.317194 -26.41723,2.965212 -39.16246,6.698112 -9.83639,3.371652 -19.30255,7.633671 -28.98986,11.39993 -8.4313,3.207523 -17.110859,5.718643 -25.4341,9.192305 -8.111601,3.54861 -15.934139,7.744912 -23.709121,11.970602 -12.696233,7.254845 -26.235012,13.95861 -37.428953,23.5797 0,0 18.565399,-7.69004 18.565399,-7.69004 z" />
    <path
       style="fill:#000000;stroke-width:26.4583"
       id="path266"
       d="m 280.50125,13.711012 c 1.82353,11.096469 3.20704,22.250665 4.62454,33.40441 2.51854,13.928916 7.35306,27.39254 12.84706,40.407603 0.29413,1.960459 2.04975,3.542091 2.37873,5.517788 0.2445,1.46844 -1.61104,1.574294 -1.37086,1.415965 4.91191,-3.237733 10.32442,-5.762217 14.89769,-9.462897 0.98996,-0.801074 -2.52717,0.316786 -3.79077,0.475179 -1.7018,0.07415 -3.40267,0.174881 -5.10545,0.22244 -6.66925,0.18628 -6.16501,-0.11262 -13.17789,0.554778 -7.6544,0.728454 -15.24852,1.989741 -22.81566,3.316825 -10.03542,1.797349 -19.89167,4.41566 -29.85692,6.535134 -1.7722,0.369612 -3.55611,0.675913 -5.34235,0.967634 0,0 -16.06937,12.058719 -16.06937,12.058719 v 0 c 1.9208,-0.28562 3.82008,-0.67008 5.71474,-1.09883 10.21192,-2.27797 20.26255,-5.23719 30.55795,-7.15575 13.38334,-2.45106 26.67043,-4.508132 40.3275,-3.775823 10.72579,-0.148921 4.83844,0.507952 23.18489,-10.548197 0.43886,-0.264477 0.39425,-0.967607 0.41724,-1.479494 0.11933,-2.656959 -2.19667,-4.762352 -3.08615,-7.067566 C 308.64005,65.454728 303.85541,52.171875 301.98544,38.2446 300.45726,27.071412 298.64563,15.835786 298.4822,4.5492654 c 0,0 -17.98095,9.1617466 -17.98095,9.1617466 z" />
  </g>
</svg>
