<?xml version="1.0" encoding="UTF-8" standalone="no"?>
<svg
   xmlns:dc="http://purl.org/dc/elements/1.1/"
   xmlns:cc="http://creativecommons.org/ns#"
   xmlns:rdf="http://www.w3.org/1999/02/22-rdf-syntax-ns#"
   xmlns:svg="http://www.w3.org/2000/svg"
   xmlns="http://www.w3.org/2000/svg"
   xmlns:sodipodi="http://sodipodi.sourceforge.net/DTD/sodipodi-0.dtd"
   xmlns:inkscape="http://www.inkscape.org/namespaces/inkscape"
   width="1173.121mm"
   height="329.59521mm"
   viewBox="0 0 1173.121 329.59521"
   version="1.1"
   id="svg61"
   inkscape:version="1.0.1 (c497b03c, 2020-09-10)"
   sodipodi:docname="dice.svg">
  <defs
     id="defs55" />
  <sodipodi:namedview
     id="base"
     pagecolor="#ffffff"
     bordercolor="#666666"
     borderopacity="1.0"
     inkscape:pageopacity="0.0"
     inkscape:pageshadow="2"
     inkscape:zoom="0.19467309"
     inkscape:cx="2060.3518"
     inkscape:cy="610.82435"
     inkscape:document-units="mm"
     inkscape:current-layer="layer1"
     inkscape:document-rotation="0"
     showgrid="false"
     inkscape:window-width="1252"
     inkscape:window-height="806"
     inkscape:window-x="26"
     inkscape:window-y="37"
     inkscape:window-maximized="0" />
  <metadata
     id="metadata58">
    <rdf:RDF>
      <cc:Work
         rdf:about="">
        <dc:format>image/svg+xml</dc:format>
        <dc:type
           rdf:resource="http://purl.org/dc/dcmitype/StillImage" />
        <dc:title></dc:title>
      </cc:Work>
    </rdf:RDF>
  </metadata>
  <g
     inkscape:label="Layer 1"
     inkscape:groupmode="layer"
     id="layer1"
     transform="translate(346.4263,45.195391)">
    <path
       style="fill:#000000;stroke-width:26.4583"
       id="path313"
       d="m -147.08907,81.401461 c 0.54069,11.261249 0.64066,22.540209 0.76441,33.812209 0.1343,18.31676 0.12719,36.63582 -0.13,54.95144 -0.0945,8.33856 -0.29056,16.67536 -0.53364,25.01074 -0.028,1.79944 -0.15773,3.59585 -0.13606,5.39579 0.0654,2.34046 0.0791,4.68096 0.0608,7.0221 0.0514,0.99285 0.18855,1.97678 0.33748,2.95848 0,0 9.87156,-5.24182 9.87156,-5.24182 v 0 c -0.17322,-0.90605 -0.3304,-1.81562 -0.34719,-2.74153 -0.0186,-2.3618 -0.003,-4.72295 0.0609,-7.0841 0.0208,-1.75384 -0.10568,-3.50385 -0.13606,-5.25713 -0.24508,-8.15402 -0.44042,-16.30959 -0.53364,-24.46693 -0.26029,-18.27143 -0.26219,-36.54638 -0.13001,-54.81897 0.12521,-11.531722 0.23232,-23.069627 0.76442,-34.591183 0,0 -9.91296,5.050904 -9.91296,5.050904 z" />
    <path
       style="fill:#000000;stroke-width:26.4583"
       id="path315"
       d="m -140.0821,84.959368 c 7.77427,-0.108148 15.53191,-0.626909 23.29726,-0.980162 15.02089,-0.835112 30.073366,-0.454385 45.101256,-0.927375 1.52837,-0.1328 3.06126,-0.220882 4.58508,-0.398402 1.27891,-0.148986 8.75209,-1.290243 9.96296,-1.460759 4.78734,-0.674161 9.57953,-1.187008 14.39251,-1.631627 3.40204,-0.342601 6.82215,-0.415954 10.22872,-0.686059 0,0 8.82131,-6.566419 8.82131,-6.566419 v 0 c -3.54454,0.537059 -7.13796,0.640083 -10.69798,1.0576 -4.85478,0.511263 -9.70812,1.02316 -14.54552,1.684222 -3.29089,0.449717 -6.56632,1.009411 -9.85949,1.441886 -1.55702,0.204473 -3.12004,0.36022 -4.68005,0.54033 -15.12917,0.868738 -30.30395,0.755687 -45.448766,1.195223 -7.35636,0.160509 -14.72142,0.403566 -22.07793,0.134998 0,0 -9.07936,6.596544 -9.07936,6.596544 z" />
    <path
       style="fill:#000000;stroke-width:26.4583"
       id="path317"
       d="m -31.428364,81.401461 c 0.50104,10.394757 0.5587,20.805929 0.68466,31.210289 0.34962,18.97662 0.29864,37.96005 -0.0722,56.93575 -0.13923,6.57604 -0.35648,13.14979 -0.57931,19.72335 -0.0771,2.79965 0.0282,5.60002 0.0733,8.39944 0.0388,3.28134 0.0356,6.56365 -0.0772,9.84349 0,0 9.85452,-5.02112 9.85452,-5.02112 v 0 c -0.11602,-3.25351 -0.11417,-6.5097 -0.0772,-9.76479 0.0448,-2.82431 0.14991,-5.64964 0.0733,-8.47416 -0.22392,-6.37671 -0.44159,-12.75365 -0.5793,-19.133 -0.37788,-18.95111 -0.41567,-37.91003 -0.0722,-56.86215 0.12727,-10.636987 0.19121,-21.280106 0.68469,-31.908003 0,0 -9.91296,5.050904 -9.91296,5.050904 z" />
    <path
       style="fill:#000000;stroke-width:26.4583"
       id="path319"
       d="m -144.1264,209.66296 c 11.19019,-0.72558 22.39768,-1.11464 33.60157,-1.55573 13.472976,-0.57623 26.931656,-1.42859 40.406446,-1.95989 6.86821,-0.28236 13.74219,-0.35034 20.6153,-0.33591 3.11364,0.21957 6.16617,-0.18618 9.22713,-0.68817 1.61195,-0.2768 3.16471,-0.79772 4.74845,-1.19203 0,0 8.93083,-6.82816 8.93083,-6.82816 v 0 c -1.63756,0.40891 -3.24011,0.92777 -4.86368,1.38812 -3.0671,0.52834 -6.11103,1.09663 -9.24414,0.91524 -7.07774,0.14322 -14.15201,0.41702 -21.22398,0.73224 -13.57865,0.72582 -27.14548,1.66698 -40.733316,2.21112 -10.8169,0.3753 -21.64027,0.7256 -32.46383,0.77372 0,0 -9.00078,6.53945 -9.00078,6.53945 z" />
    <path
       style="fill:#000000;stroke-width:26.4583"
       id="path321"
       d="m -128.88414,74.077823 c 3.92435,-2.76267 8.11948,-5.109281 12.25035,-7.54313 6.28686,-3.66108 12.11818,-7.995566 17.793766,-12.528299 5.32215,-4.498991 10.74596,-8.875332 16.06176,-13.381763 1.35786,-1.173652 2.72983,-2.329447 4.10281,-3.484308 0.71474,-0.601194 1.46269,-1.09088 2.11182,-1.762136 0.57198,-0.529915 1.03997,-1.073873 1.42774,-1.761642 0,0 -10.34605,4.532451 -10.34605,4.532451 v 0 c -0.42798,0.542997 -0.96497,0.97386 -1.43733,1.476447 -1.9849,1.64978 -3.92495,3.352736 -5.86639,5.053301 -5.18674,4.475318 -10.482166,8.822735 -15.743246,13.209884 -5.76069,4.516673 -11.69627,8.799449 -18.04132,12.469167 -4.30212,2.522569 -8.59746,5.054491 -12.7875,7.760689 0,0 10.47359,-4.040661 10.47359,-4.040661 z" />
    <path
       style="fill:#000000;stroke-width:26.4583"
       id="path323"
       d="m -83.090824,38.829142 c 5.45166,-0.13191 10.90552,-0.138917 16.35826,-0.206306 8.21534,-0.07283 16.43073,-0.0016 24.64599,0.04005 6.42662,0.02863 12.57345,-1.909193 18.71218,-3.558598 5.72188,-1.820141 11.63487,-2.833686 17.5251843,-3.917136 2.13823,-0.35084 4.26741,-0.751983 6.39465999,-1.16318 0,0 8.71850001,-6.61108 8.71850001,-6.61108 v 0 c -2.15842,0.477676 -4.318,0.958951 -6.50864,1.269963 -5.91889,1.182143 -11.91112,2.071135 -17.6724343,3.931224 -6.11362,1.640721 -12.20618,3.656754 -18.59489,3.819025 -8.25201,0.04112 -16.50417,0.112803 -24.75626,0.04005 -5.26344,-0.06734 -10.52809,-0.07202 -15.79034,-0.206306 0,0 -9.03221,6.562284 -9.03221,6.562284 z" />
    <path
       style="fill:#000000;stroke-width:26.4583"
       id="path325"
       d="m 1.2717903,37.447242 c -4.31779,4.859213 -9.00663,9.376069 -13.4792543,14.094706 -6.70817,7.101605 -13.17395,14.446639 -19.31922,22.041705 -2.30269,2.934319 -1.24007,1.558827 -3.19582,4.120298 0,0 9.98619,-4.310758 9.98619,-4.310758 v 0 c 1.75798,-2.454879 0.79497,-1.134581 2.90143,-3.951812 5.98402,-7.612769 12.3970743,-14.892615 19.1230743,-21.857459 4.72178,-4.893297 9.68926,-9.543399 14.2966797,-14.542819 0,0 -10.3130797,4.406139 -10.3130797,4.406139 z" />
    <path
       style="fill:#000000;stroke-width:26.4583"
       id="path327"
       d="m 3.3541103,40.666046 c 0.60306,11.249478 0.57899,22.524448 0.63222,33.787025 0.0453,13.214652 -0.006,26.429019 -0.30072,39.640649 -0.12573,4.28747 -0.20273,8.5764 -0.33735,12.8636 0.11724,0.99955 0.0316,0.54283 0.23053,1.3748 0,0 9.8767897,-5.34271 9.8767897,-5.34271 v 0 c -0.17063,-0.63748 -0.0945,-0.27932 -0.19997,-1.08014 -0.13536,-4.17257 -0.21111,-8.34698 -0.33734,-12.51984 -0.29901,-13.109382 -0.3442,-26.22168 -0.30075,-39.334165 0.054,-11.477533 0.0397,-22.966165 0.63224,-34.431301 0,0 -9.8956497,5.042082 -9.8956497,5.042082 z" />
    <path
       style="fill:#000000;stroke-width:26.4583"
       id="path329"
       d="m 5.9229003,133.52451 c -5.16274001,7.99392 -9.7825,16.33309 -14.6667,24.50094 -5.6636743,9.47096 -11.5963743,18.81928 -16.0621243,28.93272 -1.21679,2.83595 -2.07425,5.79905 -3.09732,8.70492 0,0 10.07285,-4.739 10.07285,-4.739 v 0 c 0.83936,-2.81023 1.48929,-5.6812 2.65245,-8.38688 4.200444,-9.95028 9.7155043,-19.25414 15.33858429,-28.4567 C 5.3054103,145.59352 10.2808,136.96677 16.18603,128.97574 c 0,0 -10.2631297,4.54877 -10.2631297,4.54877 z" />
    <path
       style="fill:#000000;stroke-width:26.4583"
       id="path331"
       d="m -114.27245,100.28835 c -0.65985,-0.867039 -2.2573,-2.595618 -1.16298,-3.682555 0.19713,-0.195802 0.46616,-0.30249 0.69924,-0.453737 4.24013,-1.596977 -0.58461,0.157052 -7.61998,4.735942 -0.27652,0.17997 0.64791,-0.15606 0.97782,-0.15343 1.17136,0.009 1.52395,0.84019 2.0011,1.74355 0.40025,1.93054 0.16563,4.36355 -1.88484,5.19101 3.07811,-1.78698 6.15621,-3.57396 9.23432,-5.36094 -0.77561,0.12814 -0.35997,-0.54668 -0.12489,-0.85955 3.96992,0.97205 0.52549,0.008 -8.79782,5.47346 -0.11168,0.0655 0.23962,-0.11044 0.36849,-0.12272 0.46227,-0.044 0.68193,0.28706 0.91077,0.61513 0.2836,0.8508 0.90597,2.27925 0.0923,2.96873 -3.64352,1.29712 -5.76859,3.02195 8.72189,-5.14507 0.0499,-0.0281 -0.0554,0.11332 -0.10929,0.13262 -0.12569,0.045 -0.16296,-0.21562 -0.21197,-0.3398 -0.31996,-0.83823 -0.17714,-1.50166 0.17704,-2.28209 0,0 -10.1901,4.79025 -10.1901,4.79025 v 0 c -0.23366,1.0196 -0.17329,2.0171 0.21464,2.99807 2.21919,4.93514 9.69988,-0.63008 11.62567,-4.82022 0.22641,-1.34761 -0.0815,-2.73444 -0.6413,-3.97016 -2.93629,-4.575387 -10.56452,-0.60371 -12.35426,4.46468 -0.78917,5.31906 11.12575,5.066 11.4966,-2.66717 1.58698,-1.84266 1.69821,-4.266816 1.0753,-6.547842 -0.49674,-0.987478 -0.6664,-1.624269 -1.56784,-2.312006 -0.42041,-0.320741 -1.62156,-0.85793 -2.21068,-0.575593 -9.16993,4.394689 -7.67801,3.255444 -11.45145,6.372421 -0.16805,0.30385 -0.40138,0.57988 -0.50413,0.91155 -0.53876,1.73906 0.8058,3.39439 1.6617,4.7628 0,0 9.57462,-5.86733 9.57462,-5.86733 z" />
    <path
       style="fill:#000000;stroke-width:26.4583"
       id="path333"
       d="m -122.04039,143.19903 c 1.91649,0.55547 2.73198,2.14153 3.25129,3.9282 0.17823,1.0002 0.74025,3.0995 -0.24739,3.91127 -0.13798,0.11341 -0.33655,0.11974 -0.50483,0.17961 3.02431,-1.79832 6.07494,-3.5531 9.07292,-5.39498 0.0246,-0.0151 -0.31469,0.32615 -0.97681,-0.0912 -0.57092,-0.35986 -0.81621,-0.96457 -1.06863,-1.55233 -0.34342,-0.97035 -0.61576,-2.25939 0.48762,-2.78351 3.95672,-0.815 0.24562,-0.10457 -8.64548,5.18872 -0.1693,0.10079 0.37079,-0.13518 0.56151,-0.18466 0.51779,-0.13434 1.06017,-0.16809 1.59126,-0.20302 0.005,-0.10929 1.26099,-0.0727 0.69395,0.18466 -4.38621,0.90095 2.62668,-1.75341 8.2872,-5.17023 0.21907,-0.13223 -0.47756,0.18861 -0.72642,0.24817 -0.72341,0.17315 -0.82843,0.11712 -1.54065,0.0756 -0.61668,-0.11213 -1.2053,-0.27185 -1.67685,-0.69328 0,0 -9.58827,5.89156 -9.58827,5.89156 v 0 c 0.61303,0.63173 1.25211,1.02431 2.12886,1.2182 4.73912,1.18035 12.1302,-1.8381 13.19833,-6.6096 -0.16361,-0.91309 -0.64793,-1.86004 -1.72013,-1.78588 -4.85743,0.11594 -9.72676,2.02261 -12.91429,6.21315 -0.55925,1.28378 -0.42821,2.61975 0.12704,3.8946 2.98417,6.55897 7.05909,0.89497 13.08185,-2.71582 0.85599,-1.64468 0.57893,-3.40775 0.12402,-5.15159 -0.64289,-2.06361 -1.65474,-3.9541 -3.71445,-4.89514 0,0 -9.28165,6.29752 -9.28165,6.29752 z" />
    <path
       style="fill:#000000;stroke-width:26.4583"
       id="path335"
       d="m -109.22938,179.91116 c -16.6429,10.16191 -9.87552,4.82486 -5.76462,3.95103 0.0495,-8e-4 0.10667,-0.0288 0.1484,-0.002 0.10989,0.07 -0.16439,0.20287 -0.25717,0.29435 -0.59248,0.58419 -1.24222,0.98043 -1.9673,1.38006 15.2829,-8.60721 9.22971,-4.92766 5.32211,-3.84505 -1.15411,0.31975 -2.3267,0.53463 -3.5059,0.73321 -1.44355,0.23081 -1.71198,-0.34179 -0.46706,-1.13155 3.80459,-1.66488 0.0718,-0.0594 -8.33046,4.97903 -0.20753,0.12444 0.43869,-0.2063 0.66694,-0.28663 0.68946,-0.24265 1.40829,-0.32892 2.12938,-0.41072 0.60899,-0.0658 1.42918,-0.15344 1.80853,0.26328 -3.84083,-1.7636 7.0355,-4.56406 9.04316,-5.75163 0.0662,-0.0391 -0.34955,0.0998 -0.38123,0.0671 -0.0795,-0.0819 -0.10274,-0.2038 -0.15411,-0.30569 -0.12428,-0.7525 -0.82094,-2.0044 -0.15249,-2.62575 3.8632,0.83768 0.45908,0.0255 -9.07906,5.61099 -0.0614,0.0359 0.10368,-0.0983 0.1622,-0.13876 0.2178,-0.15066 0.42787,-0.17531 0.68329,-0.2059 0.36823,-0.0333 0.7383,-0.0194 1.10705,-0.004 0,0 9.17193,-6.62284 9.17193,-6.62284 v 0 c -0.39058,-0.007 -0.78105,-0.0159 -1.17094,-0.0416 -4.20947,-0.14592 -10.34883,1.62132 -11.09783,6.16662 -0.0985,1.16178 0.31009,2.30845 0.62721,3.40988 0.25981,0.52494 0.34975,0.86626 0.82043,1.2362 0.10831,0.0851 0.26357,0.21141 0.38588,0.148 3.9541,-2.04987 11.16245,-2.13808 9.87907,-6.46377 -0.53485,-1.00193 -1.51445,-1.52992 -2.66005,-1.40262 -5.18096,0.37223 -10.27232,2.50553 -13.75866,6.78808 -0.10259,0.23008 -0.2523,0.44451 -0.30775,0.69024 -0.22906,1.01496 0.33523,2.3537 1.38857,2.692 0.25184,0.0809 0.52858,0.0213 0.79288,0.032 7.02956,-1.1942 10.58488,-2.89991 17.4192,-7.64574 1.35558,-1.13508 2.62075,-2.56088 0.92774,-4.08508 -4.89036,-1.73265 -10.58485,10.47069 -13.90293,6.56838 0,0 10.47359,-4.04065 10.47359,-4.04065 z" />
    <path
       style="fill:#000000;stroke-width:26.4583"
       id="path337"
       d="m -57.195364,96.491135 c -2.44015,-0.395279 -4.20796,-1.843717 -5.53569,-3.848568 -0.39651,-0.801537 -0.81198,-1.661467 -0.92951,-2.562625 -0.0241,-0.183941 -0.0624,-0.388702 0.0172,-0.556228 0.0613,-0.128826 0.47961,-0.30906 0.35837,-0.23386 -2.99169,1.856005 -5.97995,3.717555 -8.96993,5.576329 1.46577,-0.753456 2.60483,0.874345 3.33296,1.929866 0.49377,1.093258 1.36678,2.571499 1.01677,3.818851 -0.0489,0.084 -0.0639,0.20083 -0.14658,0.25189 -0.16923,0.10457 -0.76499,0.15801 -0.59418,0.056 3.07637,-1.836313 10.13659,-8.664746 9.43314,-5.151744 0.13388,0.163095 -0.0831,-0.231134 -0.0238,-0.267528 0.0589,-0.03621 0.13073,0.04598 0.19293,0.07614 0.11269,0.05461 0.4372,0.111509 0.33094,0.177755 -3.03778,1.893875 -6.1877,3.601622 -9.28155,5.402437 1.30907,-0.37591 2.68925,-0.34805 3.95819,0.1444 0.41479,0.25702 0.24352,0.0995 0.52448,0.46069 0,0 9.66989,-5.716638 9.66989,-5.716638 v 0 c -0.49631,-0.711174 -0.21005,-0.394015 -0.85537,-0.954546 -1.39407,-0.674997 -2.82549,-0.906867 -4.37454,-0.778766 -3.55558,1.976294 -12.35605,2.933835 -9.63012,7.59559 3.31298,3.30542 10.50903,-2.018737 10.8396,-6.343103 -0.12935,-1.559796 -0.6917,-3.054683 -1.45933,-4.410887 -1.04558,-1.547218 -2.21763,-3.001016 -4.17679,-3.298667 -8.42532,5.135272 -12.25349,3.76468 -8.79502,10.392029 1.49281,2.196518 3.35492,3.831098 5.9122,4.685928 0,0 9.18575,-6.444785 9.18575,-6.444785 z" />
    <path
       style="fill:#000000;stroke-width:26.4583"
       id="path339"
       d="m -71.794464,140.52812 c -0.3597,0.68772 -0.75089,1.48909 -1.32953,2.02922 -0.16516,0.15416 -0.77195,0.46979 -0.5774,0.35493 10.37936,-6.12805 12.11984,-7.13304 8.78803,-5.20642 -1.03664,-0.20385 -1.05421,-2.08014 -0.98933,-2.9153 -0.95608,-0.17443 1.661,-1.1721 1.23065,-0.90745 -2.92327,1.79767 -5.96095,3.40531 -8.8769,5.21482 -0.24471,0.15186 0.55226,-0.16644 0.83444,-0.22402 0.3257,-0.0665 0.65752,-0.0983 0.98629,-0.14749 1.87664,-0.2559 3.66641,-0.0314 5.1584,1.18124 0.1439,0.16053 0.30644,0.30616 0.43174,0.4816 0.10025,0.14038 0.22482,0.51381 0.0523,0.51488 -0.16697,0.001 -0.61767,-0.0598 -0.47773,-0.15087 8.02728,-5.22496 12.43568,-6.23409 8.11538,-5.15973 -2.25271,0.38049 -4.44555,0.37203 -6.45483,-0.78394 -0.48154,-0.37358 -2.36786,-2.08474 -1.35479,-2.72385 3.79838,1.22198 0.32721,0.021 -9.23843,5.5227 -0.0435,0.025 0.10723,-0.0428 0.14964,-0.016 0.0849,0.0537 0.14169,0.14525 0.19217,0.23207 0.1465,0.25189 0.2422,0.60107 0.33023,0.87264 0.0365,0.14194 0.073,0.28388 0.10953,0.42583 0,0 9.86576,-5.38389 9.86576,-5.38389 v 0 c -0.0503,-0.15631 -0.10051,-0.31262 -0.15076,-0.46892 -1.76585,-4.80843 -9.01149,-7.05249 -11.4482,3.60692 -0.005,1.67108 0.97475,2.89816 2.21221,3.94853 2.37251,1.57788 4.08299,1.67659 6.87096,1.46146 4.5584,-0.3299 14.48231,-3.7766 10.26647,-8.27745 -1.59417,-1.44955 -3.53005,-2.12778 -5.69886,-1.91242 -5.20941,0.29643 -4.69921,1.46056 -12.31247,5.85828 -0.62478,0.3609 -0.68918,1.30941 -0.7567,1.91588 0.10908,1.60524 0.42227,3.39468 1.82218,4.38077 4.87839,1.83871 10.55248,-4.05849 12.40208,-8.49199 0,0 -10.15254,4.768 -10.15254,4.768 z" />
    <path
       style="fill:#000000;stroke-width:26.4583"
       id="path341"
       d="m -59.476444,178.18051 c 3.05456,-2.46407 7.63233,-4.79863 -7.64739,4.28359 -1.04997,0.62409 0.72692,-0.38708 1.20854,-0.52634 0.41693,0.18335 0.4952,1.11987 0.0164,1.33237 -0.18733,0.0831 -0.40553,0.0595 -0.60831,0.0893 14.68425,-8.75517 9.39702,-3.65886 3.4902,-5.07236 -1.10887,-0.39949 -1.9594,-1.04575 -2.27311,-2.19656 0.0966,-0.41508 0.40775,-0.46922 0.77231,-0.58702 -3.03691,1.80871 -6.08139,3.6048 -9.11076,5.42613 -0.18463,0.111 0.37319,-0.21989 0.57533,-0.29443 0.23284,-0.0859 0.48099,-0.12251 0.72149,-0.18377 1.33628,-0.16317 2.73625,-0.40532 4.0771,-0.16174 0.61047,0.14719 0.50877,0.83161 0.5216,1.33766 -3.96417,0.73192 2.56127,-1.67896 8.85219,-5.42766 0.088,-0.0525 -0.19219,0.0776 -0.2939,0.0904 -0.40674,0.051 -0.3271,-0.0664 -0.57319,-0.42873 -0.83428,-1.99888 -0.76943,-4.00908 -0.13756,-6.03555 0.0743,-0.12712 0.14865,-0.25424 0.22297,-0.38136 0,0 -10.19472,4.7326 -10.19472,4.7326 v 0 c -0.0364,0.16153 -0.0728,0.32307 -0.10914,0.4846 -0.41963,2.30334 -0.28252,4.59008 0.55436,6.79887 0.1779,0.31632 0.31038,0.6629 0.53374,0.94895 0.033,0.0423 0.747,0.71993 1.01135,0.58145 3.33343,-1.74644 10.30366,-2.18001 10.12941,-6.55656 -0.12703,-1.00792 -0.35311,-1.9128 -1.25423,-2.50775 -1.43455,-0.48924 -2.91888,-0.28797 -4.4118,-0.19694 -4.70146,0.44741 -12.16324,2.64545 -11.73689,7.78542 0.54613,1.44209 1.52956,2.41361 2.94852,3.0507 6.51227,2.17994 9.75008,-1.58891 16.08841,-5.36526 0.7806,-1.38813 0.50401,-2.42255 -0.51622,-3.60171 -0.60294,-0.34669 -1.12655,-0.52392 -1.79893,-0.14314 -4.26824,2.41713 -8.12618,3.89736 -11.43233,7.02218 0,0 10.37458,-4.2973 10.37458,-4.2973 z" />
    <path
       style="fill:#000000;stroke-width:26.4583"
       id="path343"
       d="m -67.035984,46.644796 c -1.0463,0.330854 3.6518,-2.348828 2.52997,-1.697442 -9.52167,5.528567 -12.09569,7.153119 -8.88008,5.128985 0.0338,-0.02339 0.0629,-0.08457 0.10134,-0.07017 0.58491,0.218953 -0.94385,1.584222 -1.09533,1.702102 -4.07601,2.451571 5.3575,-3.105999 8.00421,-4.712594 0.27056,-0.164234 -0.57341,0.269923 -0.87014,0.380061 -0.74988,0.278336 -1.52109,0.432337 -2.30955,0.540412 -0.99803,0.134807 -0.97901,-0.62951 -0.52901,-1.300853 3.45562,-1.659885 6.65256,-4.00648 -8.23481,4.924463 -0.19764,0.118565 0.42111,-0.190457 0.64135,-0.258389 0.40196,-0.123973 0.94033,-0.184883 1.35353,-0.244401 0.75084,-0.01656 1.80255,-0.402013 2.32222,0.322363 -0.0825,0.206502 -0.0238,0.139467 -0.28593,0.27913 -0.28821,0.153567 -1.21555,0.457152 -0.93652,0.287499 8.29328,-5.042558 12.32141,-6.354997 8.27159,-4.983021 -1.41182,0.359084 -2.57543,-0.03658 -3.25848,-1.31799 -0.4998,-1.035262 0.11332,-1.588691 1.02018,-1.94386 -3.08814,1.800397 -6.1763,3.600794 -9.26446,5.401191 0,0 8.82573,-6.977422 8.82573,-6.977422 v 0 c -3.34068,1.909106 -6.68136,3.81821 -10.02205,5.727313 -0.82465,0.985198 -0.84116,2.231318 -0.26521,3.362221 0.87942,1.600806 2.18865,2.576881 4.08646,2.536301 4.60221,-0.77275 1.15901,-0.106005 11.06384,-5.844308 0.77658,-0.449901 0.76835,-1.512758 0.47279,-2.218108 -0.73912,-1.13646 -1.70628,-1.505564 -3.04711,-1.299184 -4.88727,0.309227 -10.89043,2.380946 -12.90436,7.031547 -0.17036,1.280756 0.12496,2.913738 1.65275,3.119419 4.97781,0.30775 11.81446,-4.714802 14.51345,-7.140148 0.87215,-1.305761 1.14779,-2.780104 -0.18841,-3.90185 -2.93044,-0.93777 -9.72008,4.516348 -13.14254,7.464027 0,0 10.37458,-4.297298 10.37458,-4.297298 z" />
    <path
       style="fill:#000000;stroke-width:26.4583"
       id="path345"
       d="m -91.257214,67.666617 c -1.10602,0.18541 4.08439,-2.801093 2.88435,-2.102083 -8.99625,5.240219 -11.927336,6.638245 -8.27461,4.873292 0.35086,-0.107543 1.37955,-0.754608 1.60011,-0.162415 0.0179,0.08416 0.10718,0.455422 0.0727,0.525796 -0.14809,0.302358 -1.73158,1.522632 -2.02716,1.77591 -3.438156,2.322952 -2.14175,1.423538 7.85349,-4.55177 0.25441,-0.15209 -0.52657,0.273048 -0.79726,0.393809 -0.70074,0.312615 -1.41312,0.504277 -2.15941,0.666189 -0.74334,0.178329 -1.25108,0.004 -1.03946,-0.826318 0.46648,-0.619471 0.98522,-1.232786 1.64653,-1.653577 0.20813,-0.132432 0.8661,-0.47249 0.65336,-0.347599 -2.98429,1.751939 -5.97901,3.486036 -8.96852,5.229053 0.69272,-0.437631 1.46549,-0.674277 2.26589,-0.810265 0,0 9.02942,-6.728889 9.02942,-6.728889 v 0 c -0.88331,0.06992 -1.7581,0.172755 -2.59056,0.500362 -0.50443,0.293229 -11.425036,4.375192 -12.050976,8.892048 0.13192,1.269042 0.72033,2.369751 2.12123,2.486956 5.378326,-0.824783 10.212416,-4.011623 14.343346,-7.4671 1.03057,-1.007621 2.13311,-2.116347 1.45023,-3.640368 -0.53787,-1.062357 -1.40944,-1.603227 -2.61696,-1.222883 -4.57914,1.718734 -10.12134,4.707427 -13.708826,8.57599 0,0 10.313076,-4.406138 10.313076,-4.406138 z" />
    <path
       style="fill:#000000;stroke-width:26.4583"
       id="path347"
       d="m -24.742604,42.833061 c -1.36046,-0.02347 -2.74058,0.124245 -4.09641,-0.03641 2.60064,3.173404 0.34861,0.188592 -8.85394,6.3565 -0.13774,0.09232 0.30102,-0.142687 0.46043,-0.188266 0.53133,-0.151903 1.12053,-0.170265 1.66796,-0.21331 0.73593,0.02705 1.42084,-0.422937 1.71442,0.38219 0.73223,0.06131 -1.57737,0.940399 -1.21232,0.721768 8.55585,-5.124 12.45319,-6.486514 8.52958,-5.075492 -0.74663,0.123672 -1.56771,0.422162 -2.32735,0.236882 -0.18733,-0.36612 -0.12703,-0.633651 0.25505,-0.833303 0.12521,-0.06543 0.51711,-0.223382 0.39632,-0.150095 -2.99775,1.819076 -6.02207,3.59401 -9.03311,5.391015 0.78819,-0.366501 1.71225,-0.75256 2.59644,-0.56623 0.30779,0.17626 -0.18497,0.04682 -0.31621,0.138412 -0.10707,0.07473 -0.15375,0.211066 -0.23063,0.316598 -0.11835,0.07928 -0.23673,0.158554 -0.35508,0.237831 -0.1162,0.08144 -0.23241,0.162875 -0.34861,0.244311 0,0 10.41598,-4.238951 10.41598,-4.238951 v 0 c 0.10192,-0.111159 0.20381,-0.222318 0.3057,-0.333478 0.66773,-1.024985 0.7918,-1.688533 -0.11057,-2.651921 -1.05791,-0.535615 -2.06475,-0.472639 -3.19539,-0.140486 -1.78602,1.045112 -12.60711,3.59723 -9.96239,8.520243 0.82265,0.918403 1.85674,0.812305 3.00252,0.623464 4.48977,-0.583213 0.92231,-0.03704 10.84644,-5.779257 0.73204,-0.423574 0.71969,-1.47089 0.56168,-2.162916 -0.53068,-1.180425 -1.16663,-1.728094 -2.49822,-1.535168 -4.09962,0.217408 -14.97936,1.195935 -11.69824,6.938536 1.30331,0.774504 2.96543,0.206312 4.40659,0.394081 0,0 9.07936,-6.596546 9.07936,-6.596546 z" />
    <path
       style="fill:#000000;stroke-width:26.4583"
       id="path349"
       d="m -42.906944,67.073757 c -0.55089,-1.4258 -0.89913,-2.853065 -0.71506,-4.378015 0.10343,-0.10251 0.28149,-0.318588 0.45037,-0.342249 0.11523,-0.01614 0.44562,-0.01315 0.34592,0.04688 -3.10274,1.868763 -6.28137,3.608554 -9.41914,5.417868 -0.17788,0.102555 0.37738,-0.168773 0.57777,-0.213408 0.12409,-0.12759 0.34623,0.0437 0.47887,-0.04647 0.0607,-0.04128 0.005,-0.529886 0.0309,0.170156 -0.12046,1.471952 -1.02655,1.961648 -2.27298,2.51495 3.04633,-1.759196 6.09717,-3.510659 9.13903,-5.277589 0.19791,-0.114956 -0.4544,0.135671 -0.6213,0.292267 -0.0909,0.08532 0.0306,0.565507 0.0429,0.225872 0.0422,-0.05739 0.0691,-0.130299 0.12679,-0.172161 0.20071,-0.145685 0.41862,-0.268714 0.64318,-0.373986 0.1856,-0.08701 0.75943,-0.298866 0.58393,-0.192924 -8.49654,5.129194 -12.14575,6.285479 -8.00658,4.901028 1.466,-0.392128 2.98355,-0.493369 4.49294,-0.555741 0,0 9.05283,-6.618124 9.05283,-6.618124 v 0 c -1.5729,0.02844 -3.14598,0.142613 -4.69998,0.393811 -4.74247,0.922983 -1.20439,0.137644 -11.27866,5.940645 -0.74457,0.428889 -0.9493,1.303213 -0.80304,2.076124 0.16812,0.450628 0.38762,1.177417 0.9498,1.298895 4.00347,0.865045 6.81742,-34.436153 10.83583,-5.954913 1.26225,-0.925185 1.8606,-2.15133 1.76831,-3.736491 -0.14755,-0.796073 -0.46529,-1.664652 -1.40848,-1.593125 -4.40947,-0.06848 -10.56105,2.301076 -11.04122,6.851367 0.0308,1.632622 0.46273,3.177545 0.9222,4.73633 0,0 9.82491,-5.411004 9.82491,-5.411004 z" />
    <path
       style="fill:#000000;stroke-width:26.4583"
       id="path351"
       d="m -2.9880597,110.90025 c -0.94295,-1.4854 -1.37694,-3.18548 -1.67336,-4.89881 0.10806,-1.02487 0.68782,-1.63432 1.56594,-2.09387 0.18756,-0.0981 0.75613,-0.37955 0.57372,-0.27217 -3.00958,1.77163 -6.03819,3.51075 -9.0572743,5.26612 0.947744,-0.57405 1.112024,0.75653 1.208754,1.42234 0.13282,1.07986 -0.17613,2.2491 -1.05606,2.93232 -3.792824,1.3467 -0.903974,0.35326 8.7373703,-5.21889 0.0873,-0.0504 -0.14388,0.14323 -0.22813,0.19862 -0.28432,0.18697 -0.47048,0.0277 -0.6999,-0.15289 -0.36981,-0.60024 -0.42817,-1.31637 -0.4613,-2.00475 -0.003,-0.0465 0.0329,-0.16278 -0.007,-0.13949 -12.4247343,7.17762 -9.9809643,2.13866 -9.3322043,7.5226 0.0143,0.18338 0.0288,0.36676 0.0432,0.55014 0,0 9.9463843,-5.18156 9.9463843,-5.18156 v 0 c -0.0204,-0.20023 -0.0407,-0.40046 -0.061,-0.60069 -0.6518,-4.21886 -5.05719,-10.692126 -10.5849743,3.07341 0.14303,0.92354 0.33083,1.84255 0.85193,2.63855 3.3728843,3.98067 9.5075443,-1.61721 12.1206743,-5.10539 0.60112999,-1.18466 0.88216999,-2.4341 0.62152999,-3.76278 -0.25855,-1.36668 -0.81903999,-2.75521 -2.30501999,-3.12132 -3.3922,1.91526 -6.80241,3.7989 -10.1765643,5.74577 -1.24032,0.71565 -1.6174,2.24959 -1.54829,3.56671 0.40372,1.82116 0.92035,3.61266 1.80951,5.26538 0,0 9.7125443,-5.62935 9.7125443,-5.62935 z" />
    <path
       style="fill:#000000;stroke-width:26.4583"
       id="path367"
       d="m -346.42624,112.95963 c 0.43987,8.78157 0.57471,17.57421 0.69386,26.36488 0.47317,17.03483 0.16705,34.07611 -0.20547,51.10908 -0.29992,9.44204 -0.0437,18.88368 -0.0279,28.32711 0.0211,7.56785 -0.0666,15.13579 -0.33153,22.69916 0,0 10.47677,-5.33818 10.47677,-5.33818 v 0 c -0.27061,-7.45057 -0.35116,-14.90608 -0.33154,-22.36132 0.0158,-9.43394 0.27256,-18.86622 -0.0279,-28.2987 -0.37945,-16.96317 -0.67482,-33.93449 -0.20547,-50.8997 0.12068,-9.02632 0.26141,-18.05419 0.69386,-27.07195 0,0 -10.73474,5.46962 -10.73474,5.46962 z" />
    <path
       style="fill:#000000;stroke-width:26.4583"
       id="path369"
       d="m -334.97841,114.76946 c 11.20958,-0.34473 22.42693,-0.36693 33.6409,-0.41318 14.4621,-0.0589 28.92356,0.0981 43.38464,-0.10635 6.95618,0.0275 13.88925,-0.42072 20.79638,-1.20093 2.01392,-0.24559 4.03212,-0.44694 6.05356,-0.61675 0.65764,0.007 1.26192,-0.037 1.83849,-0.36821 0,0 9.52216,-7.46782 9.52216,-7.46782 v 0 c -0.61159,0.14005 -0.99983,0.71782 -1.65068,0.67825 -2.14105,0.11867 -4.2568,0.52857 -6.38365,0.77814 -7.08648,0.98433 -14.20407,1.68415 -21.36682,1.76622 -14.55871,0.45392 -29.12099,0.40923 -43.68576,0.35579 -10.83474,-0.0452 -21.6736,-0.0582 -32.50352,-0.41318 0,0 -9.6457,7.00802 -9.6457,7.00802 z" />
    <path
       style="fill:#000000;stroke-width:26.4583"
       id="path371"
       d="m -228.75362,112.1481 c 0.9575,14.83521 0.94692,29.71734 1.03997,44.57735 -0.0142,18.98266 -0.06,37.96674 -0.45169,56.94589 -0.19334,6.57337 -0.41418,13.14615 -0.42478,19.72291 0.0621,3.60137 -0.22411,7.19716 -0.56745,10.77894 0,0 10.56499,-5.28679 10.56499,-5.28679 v 0 c 0.17723,-3.59619 0.44948,-7.19288 0.41021,-10.79517 -0.0104,-6.43256 -0.22742,-12.86104 -0.42477,-19.29004 -0.39688,-18.8256 -0.43547,-37.65639 -0.4517,-56.48558 0.0947,-15.21371 0.10316,-30.44664 1.03997,-45.63714 0,0 -10.73475,5.46963 -10.73475,5.46963 z" />
    <path
       style="fill:#000000;stroke-width:26.4583"
       id="path373"
       d="m -341.78723,244.6335 c 17.63349,-0.71564 35.28767,-0.68818 52.93255,-0.72005 16.17298,-0.0549 32.34784,0.18561 48.47641,1.43361 3.18012,0.25561 6.35319,0.58894 9.53101,0.86942 0.13838,0.0123 0.27674,0.0246 0.41511,0.0369 0,0 9.80756,-7.05325 9.80756,-7.05325 v 0 c -0.14865,-0.002 -0.29731,-0.003 -0.44596,-0.005 -3.39285,-0.082 -6.78068,-0.31079 -10.17304,-0.40899 -16.62625,-0.55614 -33.26295,-0.56466 -49.8969,-0.4776 -16.98377,-0.0308 -33.97941,0.0243 -50.95041,-0.72005 0,0 -9.69633,7.04478 -9.69633,7.04478 z" />
    <path
       style="fill:#000000;stroke-width:26.4583"
       id="path383"
       d="m -327.60285,104.47427 c 5.5521,-4.509595 11.69912,-8.257675 17.76217,-12.034057 7.7494,-4.741248 15.62202,-9.277006 23.4321,-13.917033 4.53394,-2.700446 9.032,-5.465561 13.34174,-8.514125 1.91214,-1.416343 3.81521,-2.876383 5.91174,-4.010935 0.42735,-0.400658 1.09826,-0.568285 1.5068,-0.991394 1.0792,-1.117695 -0.50166,0.181513 0.57412,-0.662384 0,0 -11.18825,4.569524 -11.18825,4.569524 v 0 c -0.58436,0.605599 -1.41853,0.921348 -2.10923,1.397066 -1.95001,1.232323 -3.77018,2.657882 -5.6369,4.00976 -4.23626,2.951104 -8.62753,5.666571 -13.06028,8.311356 -7.70423,4.603203 -15.45547,9.128454 -23.10861,13.816402 -6.32852,3.95048 -12.71668,7.87346 -18.56492,12.52209 0,0 11.13952,-4.49627 11.13952,-4.49627 z" />
    <path
       style="fill:#000000;stroke-width:26.4583"
       id="path389"
       d="m -262.5741,65.30316 c 5.65804,-0.169357 11.3204,-0.17898 16.98065,-0.205073 9.31594,0.02175 18.6373,-0.280913 27.94654,0.140862 6.15692,0.322193 12.17316,1.669161 18.10687,3.257624 3.85471,0.940985 7.58407,2.280584 11.23027,3.831352 1.48711,0.657936 0.7942,0.34585 2.08024,0.93287 0,0 9.95102,-6.637049 9.95102,-6.637049 v 0 c -1.36809,-0.538512 -0.63453,-0.249261 -2.20051,-0.868161 -3.73886,-1.486432 -7.49705,-2.957685 -11.41705,-3.902702 -6.12532,-1.501297 -12.30922,-2.850661 -18.62944,-3.179951 -9.28683,-0.396547 -18.59046,-0.0799 -27.88391,-0.247433 -5.47201,-0.02556 -10.94656,-0.03102 -16.41613,-0.205073 0,0 -9.74855,7.082734 -9.74855,7.082734 z" />
    <path
       style="fill:#000000;stroke-width:26.4583"
       id="path391"
       d="m -185.60486,73.475486 c -5.54031,6.659049 -11.45899,12.98529 -17.36542,19.317523 -7.29582,7.883671 -14.71357,15.671891 -22.48451,23.090921 -2.36121,2.13137 -4.63468,4.35674 -6.8757,6.61317 0,0 10.96516,-4.56088 10.96516,-4.56088 v 0 c 2.06822,-2.18325 4.19828,-4.30613 6.3828,-6.37339 7.52173,-7.46678 14.81148,-15.165043 22.00503,-22.947441 6.17525,-6.568869 12.29088,-13.194808 18.48496,-19.742775 0,0 -11.11232,4.602872 -11.11232,4.602872 z" />
    <path
       style="fill:#000000;stroke-width:26.4583"
       id="path393"
       d="m -183.29023,74.191216 c 0.27782,6.949905 0.35187,13.906955 0.48169,20.860845 0.40501,16.208769 0.31505,32.420929 0.11505,48.631519 -0.10103,7.65808 -0.26375,15.31502 -0.49808,22.97009 -0.0601,1.63271 -0.0298,0.88653 -0.0881,2.23862 0,0 10.67875,-5.44109 10.67875,-5.44109 v 0 c -0.0584,-1.29556 -0.0281,-0.57931 -0.0881,-2.14888 -0.23653,-7.48579 -0.39783,-14.97358 -0.49808,-22.46252 -0.20303,-16.24969 -0.2851,-32.50081 0.11505,-48.748756 0.1304,-7.117524 0.20686,-14.237967 0.48169,-21.351719 0,0 -10.69993,5.451891 -10.69993,5.451891 z" />
    <path
       style="fill:#000000;stroke-width:26.4583"
       id="path395"
       d="m -184.06545,170.95125 c -7.93031,8.04481 -14.96725,16.86555 -21.9925,25.69172 -8.65599,11.15988 -16.9781,22.57464 -25.15607,34.08785 -1.47615,2.00807 -2.7503,4.14583 -3.97629,6.31085 0,0 10.78317,-4.83026 10.78317,-4.83026 v 0 c 1.08401,-2.05486 2.23493,-4.07217 3.54778,-5.99263 7.66117,-11.50203 15.6605,-22.78263 24.25472,-33.61093 7.43789,-9.12796 14.99089,-18.20853 23.62468,-26.24837 0,0 -11.08549,4.59177 -11.08549,4.59177 z" />
    <path
       style="fill:#000000;stroke-width:26.4583"
       id="path397"
       d="m -317.10508,145.54599 c -3.50037,2.85035 -1.11083,0.85067 8.92053,-5.11179 0.15695,-0.0933 -0.32204,0.17347 -0.49068,0.24348 -0.50497,0.20965 -0.56492,-0.24029 -0.71319,-0.63532 -0.28562,-2.35822 1.43565,-3.52237 3.25664,-4.5494 -3.09523,1.81291 -6.21252,3.58868 -9.28572,5.43871 -0.27115,0.16324 0.5719,-0.2757 0.8727,-0.37416 0.98909,-0.32378 1.67602,-0.13212 2.35163,0.61253 0.10427,0.22929 0.82613,1.08567 0.29738,1.32168 -0.19423,0.0867 -0.81498,0.16493 -0.63614,0.0498 8.90704,-5.73486 13.07951,-6.27312 8.45006,-5.54034 -0.91202,0.35946 -3.56046,-1.21988 -2.22829,-0.35627 4.2722,-0.0392 0.57992,-0.0807 -9.42805,5.78822 -0.15058,0.0883 0.29565,-0.18709 0.45287,-0.26293 0.41064,-0.19808 0.86828,-0.30477 1.30774,-0.41611 1.05513,0.0142 0.58495,1.70579 0.42151,2.2879 -0.28548,1.41661 -1.03125,2.46044 -2.25353,3.18424 -4.17631,2.07526 8.32901,-9.55489 9.98175,-5.45476 0,0 -9.97063,6.9293 -9.97063,6.9293 v 0 c 3.39066,3.08454 8.03552,-3.03103 11.20046,-5.97864 1.01909,-1.08935 1.54905,-2.46189 1.8262,-3.9183 0.19778,-1.57008 0.0646,-3.16848 -1.39777,-4.09178 -0.61084,-0.15894 -1.58959,-0.19158 -2.17593,0.13986 -10.77055,6.08833 -8.9584,2.5365 -10.98623,6.80417 0.0484,0.27612 0.049,0.5651 0.14532,0.82839 0.37661,1.0298 2.55234,1.4473 3.4511,1.57006 5.27958,0.45069 1.77822,0.35876 12.3296,-6.10353 0.83821,-0.51337 -0.10854,-2.45881 -0.4873,-2.96992 -0.9606,-1.2034 -2.56892,-2.3899 -4.18514,-1.50683 -3.7596,2.05419 -7.44575,4.24005 -11.16863,6.36007 -2.08857,1.58717 -3.21284,3.36441 -2.63121,6.06531 0.28312,0.68417 1.17259,2.67449 2.32341,2.04858 9.51674,-5.17607 7.73717,-3.82868 11.62484,-6.88694 0,0 -11.1753,4.48473 -11.1753,4.48473 z" />
    <path
       style="fill:#000000;stroke-width:26.4583"
       id="path399"
       d="m -285.02679,170.40357 c -0.35571,0.94721 -1.03452,1.53069 -1.88771,2.03523 -0.31948,0.18892 -1.30974,0.69776 -0.99084,0.50789 9.2649,-5.51659 12.83665,-6.59042 8.70697,-5.28662 -1.38558,0.14211 -1.24557,-1.95465 -1.32376,-2.91363 0.61253,-4.02169 11.8654,-8.17904 -9.04224,4.49788 -0.0966,0.0586 0.13757,-0.20732 0.24805,-0.23117 0.10635,-0.023 0.20455,0.0743 0.30682,0.11138 1.3459,2.00413 0.57754,4.50505 -0.17911,6.56801 -0.64975,1.32582 -1.24328,2.71651 -2.23302,3.83716 -0.23834,0.26985 -0.48475,0.54548 -0.78964,0.73696 -0.2235,0.14036 -0.98338,0.36861 -0.75638,0.23398 3.29753,-1.95568 6.65699,-3.80501 9.98549,-5.70752 -1.23227,-0.79298 -10e-5,-4.29114 0.46273,-5.29192 0.49725,-0.79119 1.16921,-1.48232 1.98703,-1.94935 0.21221,-0.12117 0.88445,-0.41256 0.67403,-0.28832 -2.63692,1.55697 -13.27281,7.6735 -9.42974,5.46325 0.0832,-0.0259 0.16647,-0.0519 0.2497,-0.0778 0,0 9.86455,-7.00544 9.86455,-7.00544 v 0 c -0.14884,-0.0511 -0.29769,-0.10223 -0.44653,-0.15334 -4.70612,-0.51343 -0.60432,-0.1788 -11.44868,6.10347 -1.07873,0.62492 -1.7463,1.84712 -2.26558,2.91826 -0.78719,2.37746 -1.23045,5.18817 0.514,7.2531 9.35688,-4.71913 11.25405,-3.49243 14.32421,-11.09672 0.79313,-2.65452 1.29265,-5.51109 -0.32147,-7.97645 -4.31179,-4.17859 -12.62258,2.2828 -12.33472,7.60588 0.2052,1.74016 0.4233,3.90883 2.33403,4.55148 5.11394,0.005 0.89664,0.14259 12.04105,-6.2159 1.29769,-0.7404 2.1549,-1.97044 2.65167,-3.34921 0,0 -10.90091,5.11948 -10.90091,5.11948 z" />
    <path
       style="fill:#000000;stroke-width:26.4583"
       id="path401"
       d="m -260.11655,217.00628 c 0.24171,0.82997 0.20668,1.73244 -0.37913,2.43596 -0.20164,0.24215 -1.02182,0.73494 -0.75025,0.57513 10.18455,-5.99321 12.69556,-6.86742 8.58819,-5.35081 -2.15331,-0.24278 -3.20315,-2.37217 -3.86023,-4.2033 -0.12239,-0.66666 -0.6342,-1.52033 -0.18,-2.18256 0.26719,-0.38956 1.59322,-1.01544 1.18811,-0.77247 -3.1303,1.87744 -6.27637,3.72848 -9.41455,5.59272 1.79886,-0.80777 3.7361,-0.90076 5.6178,-0.37697 0.55275,0.19822 2.00309,1.2966 0.37617,0.97978 3.3044,-1.93562 6.60879,-3.87124 9.91318,-5.80686 -0.27558,0.021 -0.65212,0.40595 -0.9543,0.3236 -0.17533,-0.0478 -0.23153,-0.34368 -0.27342,-0.45136 -0.16568,-0.58833 -0.11648,-1.18249 0.37458,-1.56923 0,0 -11.00651,4.97757 -11.00651,4.97757 v 0 c -0.16726,0.84841 -0.20113,1.67083 0.11356,2.49931 0.31758,0.7065 1.18126,2.2503 2.24515,1.66694 3.63482,-1.99304 7.20637,-4.09935 10.80955,-6.14902 0.40547,-1.41094 -0.46889,-2.53805 -1.67335,-3.22985 -2.02941,-0.70155 -4.06667,-0.85986 -6.17378,-0.32785 -3.69235,2.12788 -7.43825,4.16544 -11.07706,6.38363 -1.36577,0.83256 -0.75739,3.10612 -0.32956,4.24965 0.92012,2.32201 2.2842,4.48155 4.66583,5.5107 5.23978,0.67266 1.55386,0.42454 12.06237,-6.42747 1.03845,-0.67712 0.93997,-3.14082 0.66679,-4.15711 0,0 -10.54914,5.80987 -10.54914,5.80987 z" />
    <path
       style="fill:#000000;stroke-width:26.4583"
       id="path403"
       d="m -243.59708,131.29346 c -2.50777,0.40492 -5.04786,0.56513 -7.58292,0.68425 -0.71836,-0.009 -0.56864,0.0314 -1.16454,-0.0897 -0.11849,-0.0241 0.24175,0.0479 0.36144,0.0307 0.18514,-0.0266 0.69724,-0.2569 0.53836,-0.1582 -3.0743,1.90972 -6.20068,3.7343 -9.30102,5.60146 1.72671,-0.77646 3.79977,-0.99969 5.36204,0.23085 0.30595,0.44626 1.13102,2.137 0.52064,2.52857 -4.10544,1.18971 1.39925,-0.38868 10.35069,-5.80249 0.012,-0.007 -0.18837,-0.69761 -0.1923,-1.12199 -0.005,-0.54621 0.11433,-0.68869 0.32066,-1.18226 -0.54802,-0.20719 2.22366,-1.49308 1.57491,-1.10644 -22.70426,13.53097 -12.18568,5.88381 -8.727,5.36456 1.20957,0.61423 0.0213,2.37622 -0.42895,3.10896 -0.52085,0.80958 -1.17758,1.49674 -2.01203,1.98646 -0.2546,0.14943 -1.05243,0.53369 -0.79846,0.38319 9.22337,-5.4658 12.93505,-6.92711 8.83577,-5.27215 0.027,0.25773 -1.28838,0.3218 -0.95635,0.13102 0.10588,-0.0608 0.23791,-0.0552 0.35686,-0.0828 0.19023,-0.10944 0.38046,-0.21888 0.57068,-0.32832 4.33928,-1.95309 -0.15967,0.0281 -7.97557,4.82144 -0.38748,0.23763 0.8315,-0.3682 1.25457,-0.53441 0.86078,-0.33818 1.7067,-0.59095 2.61635,-0.73892 0.30143,-0.16475 0.24789,-0.071 -0.21439,-0.52364 -0.14587,-0.14283 -0.27681,-0.34301 -0.47669,-0.38453 -0.15396,-0.032 -0.56459,0.27587 -0.42889,0.19644 9.41574,-5.5108 13.18352,-7.29931 9.20715,-5.39297 0,0 -9.44529,7.46843 -9.44529,7.46843 v 0 c 4.46636,-1.72454 0.87517,-0.30437 11.48972,-6.43623 0.9228,-0.53309 0.33992,-1.78588 -0.47741,-2.11332 -1.40112,0.10776 -2.97886,0.36949 -4.23058,1.0484 -10.81951,5.86829 -8.11904,3.77022 -12.39925,7.23752 -0.14425,0.25663 -0.35802,0.48513 -0.43274,0.76987 -0.31219,1.1897 0.82542,2.65049 2.05368,2.23356 4.80934,-1.30311 0.98623,-0.20164 11.82885,-6.42523 1.15049,-0.66037 1.90492,-1.85757 2.54824,-2.96851 0.783,-1.82022 0.97397,-3.61102 -0.59507,-5.08336 -4.37252,-1.76454 -10.19473,4.64875 -12.36351,5.9122 -0.6704,0.39056 -0.9855,1.22675 -1.22152,1.90706 -0.13178,0.84429 -0.1591,1.56471 0.0311,2.40699 1.06538,4.7192 4.33991,-0.95189 11.20316,-4.34014 0.11355,-0.0561 0.0319,-0.25125 0.0478,-0.37687 -0.0858,-1.29276 -0.44942,-2.57871 -1.2248,-3.63241 -1.65672,-1.58119 -4.03147,-1.97013 -6.21043,-1.32359 -3.72579,2.15311 -7.5292,4.17717 -11.17737,6.45934 -0.73342,0.45881 -0.21541,1.8279 0.23166,2.23889 0.4218,0.38775 0.99509,0.37089 1.51196,0.43758 2.53214,-0.16339 5.06305,-0.34689 7.59137,-0.56207 0,0 9.62947,-7.20717 9.62947,-7.20717 z" />
    <path
       style="fill:#000000;stroke-width:26.4583"
       id="path405"
       d="m -321.27135,213.66338 c -3.46467,2.4081 -8.93918,5.41897 7.9236,-4.48058 0.16073,-0.0944 -0.33471,0.16451 -0.49737,0.25554 -0.0628,0.0351 -0.11567,0.15857 -0.17785,0.12235 -0.10612,-0.0618 -0.11448,-0.21733 -0.17172,-0.32599 0.059,-2.90236 1.86624,-5.12212 4.12167,-6.72661 -21.42814,13.05858 -8.99478,3.7897 -5.90179,4.5961 0.75963,0.19805 1.08844,0.70678 1.63113,1.24584 1.17636,1.87042 2.70691,4.17201 2.29483,6.48724 -2.85498,2.45117 -10.49408,6.53083 8.43969,-4.88209 0.22483,-0.13552 -0.4616,0.25417 -0.70774,0.34544 -0.62247,0.2308 -0.7824,0.1903 -1.42018,0.21828 -1.15819,-0.11047 -1.86452,-0.86655 -2.23449,-1.90878 0.0232,-0.0593 0.18231,-0.47119 0.20028,-0.49139 0.14823,-0.16647 0.75364,-0.47632 0.56251,-0.36162 -10.09393,6.05758 -11.20089,9.78809 -9.98368,5.85617 -0.0458,-0.0649 -0.42537,-0.75067 -0.69701,-0.7113 -0.31524,0.0457 -1.66232,1.53615 -1.94966,1.78101 -3.78769,2.34261 -9.86794,5.72607 7.96791,-4.54444 0.0767,-0.0441 -0.19351,0.0498 -0.23158,0.12963 -0.0323,0.0678 0.0448,0.14345 0.0672,0.21517 5.25204,-2.06952 -12.99578,8.02688 -8.67133,5.34706 0,0 9.54212,-7.4046 9.54212,-7.4046 v 0 c -4.55782,0.4956 -0.99083,0.0406 -11.16616,6.27184 -0.62554,0.38306 -0.20729,1.67905 -0.0151,2.12984 0.17467,0.21854 0.30203,0.48535 0.52402,0.65562 0.11055,0.0848 0.29006,0.12848 0.41317,0.0633 3.87092,-2.05108 8.98752,-4.27707 12.66104,-7.41203 1.21086,-1.22875 2.56516,-2.06083 1.25289,-3.80876 -3.6581,-1.44955 -11.99218,3.40985 -11.01468,8.16929 0.6171,1.4182 1.57123,2.44534 3.02544,3.05135 5.45037,0.58065 12.60255,-2.70101 14.15493,-8.09298 -0.0837,-2.65404 -1.48581,-5.06067 -2.85488,-7.26697 -0.60001,-0.70966 -1.13559,-1.50477 -1.99463,-1.94533 -4.98322,-2.55569 -13.27264,9.50211 -14.91176,6.70305 -2.29709,2.15016 -4.01083,5.00491 -3.53706,8.26436 0.33219,0.62469 0.90939,2.05408 1.92983,1.49398 4.36254,-2.3945 8.56717,-4.67974 12.62473,-7.42053 0,0 -11.19833,4.38159 -11.19833,4.38159 z" />
    <path
       style="fill:#000000;stroke-width:26.4583"
       id="path407"
       d="m -304.92395,143.70102 c -18.1471,9.17361 -10.31807,5.8784 -6.08416,4.02029 0.85665,-0.3067 -0.53954,-0.1493 -0.72631,-0.14449 17.10064,-9.4181 11.28571,-5.31942 6.26994,-4.99658 -1.22286,0.11422 -2.38509,0.0876 -3.12414,-0.99807 -0.002,-0.0879 -0.0526,-0.18935 -0.006,-0.26383 0.0657,-0.10459 1.72922,-0.86244 1.09689,-0.48434 -8.69983,5.20199 -13.13811,7.50228 -9.06801,5.37978 1.27664,-0.69137 2.68361,-1.03376 4.10974,-1.23808 0.80317,-0.1763 0.97136,0.0753 0.77764,0.86147 -0.0889,0.13074 -0.15625,0.27916 -0.2668,0.39221 -0.21705,0.22198 -1.71202,1.11739 -0.8478,0.60659 19.12006,-11.30088 12.37105,-6.80367 8.79158,-5.35214 -0.83904,0.23338 -0.78016,-0.83224 -0.83406,-1.39059 -0.0373,-0.49962 -0.0339,-1.00085 -0.0371,-1.50144 0,0 -10.74041,5.49628 -10.74041,5.49628 v 0 c 0.0152,0.54157 0.0381,1.08252 0.10333,1.62098 0.20683,1.27692 0.54398,2.37614 1.81069,2.95258 0.4401,0.0533 0.80706,0.16922 1.23147,-0.0723 2.34713,-1.33557 10.78724,-3.35122 11.55605,-8.17008 -0.0775,-1.29382 -0.47814,-2.39776 -1.88406,-2.64331 -1.48885,0.1524 -2.98817,0.36239 -4.38385,0.93193 -4.31174,2.04658 -2.55262,1.1893 -11.50275,6.62043 -0.8012,0.48619 -0.61603,1.66855 -0.30907,2.35005 0.89155,1.35165 2.17525,2.17029 3.84798,2.00796 6.10511,-0.22106 7.68657,-1.67315 14.64708,-6.4901 0.66,-1.06507 0.45735,-2.34743 -0.85265,-2.72187 -0.73629,-0.0247 -1.2534,0.24484 -1.93999,0.5143 -4.65674,1.82763 -8.2772,3.64538 -12.88087,7.0508 0,0 11.24548,-4.33846 11.24548,-4.33846 z" />
    <path
       style="fill:#000000;stroke-width:26.4583"
       id="path409"
       d="m -259.95908,78.253837 c 0.44378,0.687449 0.74503,2.397546 -0.52191,2.210866 27.7748,-17.124066 8.63232,-1.373015 10.20237,-6.597951 2.75409,-2.777093 10.99794,-6.587051 -9.02534,5.123989 -0.11689,0.06836 0.2147,-0.181935 0.2655,-0.307453 0.35607,0.353417 -1.70865,1.442222 -1.25404,1.168712 3.16774,-1.905778 6.3644,-3.76306 9.5466,-5.644592 -0.90094,0.353899 -2.43076,1.286357 -3.41269,0.725435 -0.42199,-0.251693 1.21645,-1.201105 0.77977,-0.935652 -9.43805,5.737339 -13.15265,7.577871 -9.13738,5.567315 1.0524,-0.310954 2.18206,-0.573958 3.26281,-0.268517 0.0662,0.06231 0.37511,0.316552 0.31984,0.440028 -0.0351,0.07834 -0.17157,-0.0087 -0.25682,-0.01865 -0.14284,-0.01667 -0.54886,0.01537 -0.42708,-0.06112 7.27538,-4.569878 13.37417,-7.63728 9.40862,-5.634572 -0.38773,0.187934 -0.96099,0.137118 -1.12285,0.510257 0,0 -10.42706,6.213951 -10.42706,6.213951 v 0 c 0.65346,0.918382 0.9587,0.925267 2.02012,0.67436 4.02262,-0.745173 14.28853,-3.995137 10.60812,-8.709112 -1.1529,-0.845172 -2.51211,-0.745591 -3.86782,-0.498684 -3.97005,0.553529 -13.58847,3.846012 -11.42474,9.068366 1.33023,1.437568 2.61305,0.895022 4.32775,0.457168 3.64768,-2.134267 7.34979,-4.178125 10.94304,-6.402795 0.57018,-0.353012 0.81848,-1.482093 0.76148,-2.08742 -0.0585,-0.620971 -0.22184,-0.749517 -0.54047,-1.241612 -3.77861,-3.307279 -11.23927,2.619425 -12.1363,7.265572 0.38425,6.682404 8.15262,0.180321 11.85275,-3.235524 0.472,-1.316656 0.3492,-2.580738 -0.31592,-3.826573 0,0 -10.42835,6.044218 -10.42835,6.044218 z" />
    <path
       style="fill:#000000;stroke-width:26.4583"
       id="path411"
       d="m -250.34125,92.877792 c 1.33608,-0.255397 2.78047,-0.492601 4.06798,0.07138 0.79398,0.232233 -1.15023,0.512038 -1.0496,0.449821 8.62936,-5.334892 12.92,-6.704822 8.32934,-5.1542 -0.91796,0.08035 -3.094,1.045721 -3.94728,0.501058 -0.60085,-0.934453 0.37101,-1.419183 1.13802,-1.686949 -3.2435,1.8957 -6.50373,3.763065 -9.73051,5.687099 -0.19284,0.114986 0.41015,-0.184509 0.62283,-0.256455 0.54844,-0.185526 1.18228,-0.163002 1.70224,-0.402013 0.29799,0.245528 0.10064,0.939882 -0.14329,1.360522 -0.42001,0.137266 -0.21256,0.06503 -0.62243,0.216453 0,0 11.21278,-4.551482 11.21278,-4.551482 v 0 c 0.29605,-0.474768 0.17062,-0.20624 0.34681,-0.818711 0.17695,-1.133213 -0.0506,-2.251715 -0.85046,-3.109436 -0.5542,-0.282847 -0.83336,-0.200914 -1.44907,-0.119208 -4.92281,0.653272 -5.88148,2.019752 -12.29554,6.414802 -0.92137,1.074965 -1.06011,2.36079 -0.2345,3.560305 1.4181,1.669306 2.88619,0.739396 4.78871,0.482584 5.19182,-1.178282 1.71035,-0.280763 12.33546,-6.476601 1.05003,-0.612309 0.60908,-1.919912 -0.007,-2.623047 -1.29959,-0.994503 -3.01665,-1.041734 -4.58613,-0.787659 0,0 -9.62891,7.241738 -9.62891,7.241738 z" />
    <path
       style="fill:#000000;stroke-width:26.4583"
       id="path413"
       d="m -226.55484,97.208976 c -1.95616,0.451496 -3.95775,0.722154 -5.90732,1.200782 4.01629,7.377412 -15.4264,7.677072 -7.16218,6.733182 4.27745,-1.26205 11.2618,-2.57572 11.9235,-7.061484 0.10972,-0.447493 -0.16491,-1.053759 -0.006,-1.485395 0.0523,-0.142034 0.24247,-0.181208 0.36325,-0.27242 4.18636,0.54932 0.48168,-0.0038 -9.77219,5.951979 -0.0924,0.0537 0.16073,-0.14393 0.25487,-0.19452 0.15153,-0.0814 0.42144,-0.22529 0.59435,-0.2322 0.14429,0.1 0.16345,0.33571 0.17749,0.52436 0,0 10.67849,-5.709672 10.67849,-5.709672 v 0 c -0.14692,-0.551085 -0.36692,-1.046814 -0.74167,-1.488792 -0.17039,-0.124005 -0.55984,-0.424804 -0.74916,-0.480102 -0.11602,-0.03388 -0.24138,0.01585 -0.36225,0.01598 -0.13472,1.46e-4 -0.28631,-0.08093 -0.40388,-0.01513 -10.61746,5.940396 -9.27779,2.313472 -10.73596,6.574126 -0.13885,0.57387 0.0369,1.32009 -0.35705,1.78809 -2.95507,1.22666 14.94156,-8.376879 8.71042,-5.247461 -3.14054,1.370938 -21.75369,-1.271154 -12.12884,7.786171 1.82511,0.0392 4.12393,-1.03717 5.99466,-1.18031 0,0 9.62947,-7.207167 9.62947,-7.207167 z" />
    <path
       style="fill:#000000;stroke-width:26.4583"
       id="path415"
       d="m -216.17554,134.61679 c -0.67069,0.73265 -1.24067,1.55697 -2.04789,2.15519 -0.22545,0.16707 -0.96802,0.56814 -0.72614,0.4259 9.78312,-5.75293 13.18997,-6.8942 9.2333,-5.53218 -1.03632,-0.15851 -0.94008,-1.88633 -1.00083,-2.68595 -0.0274,-0.45305 -0.0667,-1.17334 0.28967,-1.55498 0.17831,-0.19094 0.98791,-0.3087 0.76424,-0.17372 -3.27166,1.97435 -6.61409,3.82897 -9.92113,5.74346 0.30129,-0.0357 1.18764,-0.6208 1.28701,-0.15455 0.0926,0.55158 0.12807,1.12166 0.0685,1.67751 3.59759,-1.94923 7.18563,-3.91617 10.79276,-5.84768 0.0712,-0.0382 1.06104,-0.34869 0.5888,-0.0684 -12.2606,7.27724 -13.4478,8.04586 -10.001,5.82521 0,0 9.66272,-7.32093 9.66272,-7.32093 v 0 c -4.34675,-0.33101 -0.47612,-0.0899 -10.8997,6.07472 -0.0686,0.0405 -0.1397,0.54979 -0.14017,0.55846 -0.008,0.14946 -0.12163,0.50894 0.0154,0.44875 3.66018,-1.6076 7.20412,-3.46782 10.80618,-5.20173 -0.1345,-0.66549 -0.0644,-1.37007 -0.31942,-2.01381 -0.45977,-1.09284 -1.11845,-1.61642 -2.33067,-1.38078 -5.59632,3.12021 -11.85849,3.03132 -11.31318,8.93763 0.1673,1.58936 0.41519,3.22355 1.86095,4.16453 4.69853,1.37347 11.41881,-4.68347 14.29587,-9.03769 0,0 -10.96527,4.96103 -10.96527,4.96103 z" />
    <path
       style="fill:#000000;stroke-width:26.4583"
       id="path417"
       d="m -189.0676,152.35852 c -1.58395,0.0154 -3.17054,0.0577 -4.7537,-0.0133 -0.96448,-0.16317 0.071,-1.21277 0.42028,-1.55872 4.13591,-1.46664 0.27935,-0.14194 -9.01157,5.43833 -0.22149,0.13303 0.46931,-0.21792 0.71242,-0.3054 0.60915,-0.21917 1.2468,-0.32722 1.88592,-0.40543 1.0361,0.0224 1.07233,1.30084 0.94043,2.08525 1.25798,0.0671 -1.59481,1.25374 -1.13582,0.983 8.23441,-4.85705 13.65807,-7.52916 9.90085,-5.67411 -0.5809,-0.65794 -1.13047,-1.98881 -0.90089,-2.87331 0,0 -10.76518,5.47662 -10.76518,5.47662 v 0 c 0.2057,1.50092 0.75983,2.95566 1.66241,4.17751 4.14285,2.80684 11.5651,-2.74279 11.98563,-7.51891 -0.0863,-1.48445 -0.45344,-3.00369 -1.91379,-3.69355 -4.62592,-0.78425 -12.87686,5.01402 -14.39522,7.15142 -0.59096,1.35475 -0.66922,2.75281 0.7416,3.63253 1.5678,0.43016 3.268,0.007 4.87808,0.18083 0,0 9.74855,-7.08274 9.74855,-7.08274 z" />
  </g>
</svg>
