<?xml version="1.0" encoding="UTF-8" standalone="no"?>
<svg
   xmlns:dc="http://purl.org/dc/elements/1.1/"
   xmlns:cc="http://creativecommons.org/ns#"
   xmlns:rdf="http://www.w3.org/1999/02/22-rdf-syntax-ns#"
   xmlns:svg="http://www.w3.org/2000/svg"
   xmlns="http://www.w3.org/2000/svg"
   xmlns:sodipodi="http://sodipodi.sourceforge.net/DTD/sodipodi-0.dtd"
   xmlns:inkscape="http://www.inkscape.org/namespaces/inkscape"
   width="230.87411mm"
   height="98.697609mm"
   viewBox="0 0 230.87411 98.697611"
   version="1.1"
   id="svg3442"
   inkscape:version="1.0.1 (c497b03c, 2020-09-10)"
   sodipodi:docname="likelihood.svg">
  <defs
     id="defs3436" />
  <sodipodi:namedview
     id="base"
     pagecolor="#ffffff"
     bordercolor="#666666"
     borderopacity="1.0"
     inkscape:pageopacity="0.0"
     inkscape:pageshadow="2"
     inkscape:zoom="0.35"
     inkscape:cx="-344.89269"
     inkscape:cy="359.00635"
     inkscape:document-units="mm"
     inkscape:current-layer="layer1"
     inkscape:document-rotation="0"
     showgrid="false"
     inkscape:window-width="1252"
     inkscape:window-height="806"
     inkscape:window-x="0"
     inkscape:window-y="23"
     inkscape:window-maximized="0" />
  <metadata
     id="metadata3439">
    <rdf:RDF>
      <cc:Work
         rdf:about="">
        <dc:format>image/svg+xml</dc:format>
        <dc:type
           rdf:resource="http://purl.org/dc/dcmitype/StillImage" />
        <dc:title></dc:title>
      </cc:Work>
    </rdf:RDF>
  </metadata>
  <g
     inkscape:label="Layer 1"
     inkscape:groupmode="layer"
     id="layer1"
     transform="translate(-197.08619,-53.179569)">
    <path
       style="fill:#000000;stroke-width:48.3412"
       id="path3450"
       d="m 235.66927,72.343576 c -0.54655,-1.382022 -1.07178,-2.770092 -1.58913,-4.161808 -0.53998,-1.464171 -1.20472,-2.898183 -2.38159,-4.06285 -1.00303,-0.876885 -2.35747,-1.131843 -3.70909,-1.339003 -1.68716,-0.207156 -3.39725,-0.246824 -5.06878,0.05893 -4.91289,1.512339 -6.41684,3.427133 -8.77182,6.880474 -2.23699,3.515799 -3.58675,7.259496 -4.5487,11.167328 -0.5324,2.653968 -0.7185,5.356468 -0.56442,8.046849 0.11079,1.935466 0.2344,2.514412 0.50773,4.430115 0.12298,0.693881 0.22717,1.390462 0.36885,2.08164 0.22519,1.098624 0.73493,3.078118 1.00086,4.173855 0.41557,1.712284 0.81544,3.427354 1.23336,5.139234 0.85747,3.19544 1.43057,6.43018 1.76499,9.69612 0.16581,2.37144 0.39198,4.77429 -0.0279,7.13735 -0.0629,0.3543 -0.16104,0.70318 -0.24156,1.05476 -0.4892,1.6902 -1.28746,3.32302 -2.41394,4.77068 -0.23346,0.30006 -0.50356,0.57735 -0.75535,0.86601 -1.2817,1.41631 -2.92418,2.51327 -4.72595,3.38193 6.05381,-2.92128 2.86965,-1.43002 1.40775,-0.92562 -0.51269,0.1769 -1.03384,0.32394 -1.56211,0.46016 -0.22806,0.0639 -0.46442,0.0967 -0.69779,0.141 0,0 -3.84774,2.51916 -3.84774,2.51916 v 0 c 0.26649,-0.0336 0.52398,-0.10544 0.78968,-0.14354 2.9621,-0.75559 5.61448,-2.02775 8.22497,-3.49026 1.76811,-0.92368 3.37024,-2.0599 4.5995,-3.51532 1.43339,-1.7535 2.60126,-3.67197 3.08599,-5.80103 0.0683,-0.35898 0.15562,-0.71559 0.20473,-1.07692 0.32246,-2.37303 0.0655,-4.78004 -0.1242,-7.15088 -0.35315,-3.28126 -0.89638,-6.5412 -1.76534,-9.75252 -1.02143,-3.743323 -2.05632,-7.492146 -2.72147,-11.298125 -0.26993,-1.895935 -0.40026,-2.478032 -0.48142,-4.39633 -0.11338,-2.680926 0.13182,-5.36534 0.68339,-8.003628 0.94763,-3.86212 2.29345,-7.648938 4.64154,-11.062029 0.89342,-1.228217 1.76223,-2.455609 2.93072,-3.506743 0.2553,-0.229676 1.14855,-0.774054 0.80991,-0.649984 -0.95586,0.350172 -4.85717,2.289522 -2.72609,1.304124 1.61007,-0.440881 3.31257,-0.400545 4.9732,-0.210854 1.25444,0.173252 2.52898,0.382222 3.51795,1.126537 1.1988,1.079186 1.81393,2.473113 2.34862,3.879313 0.51793,1.377551 1.05495,2.76266 1.40474,4.179278 0,0 4.22578,-1.9474 4.22578,-1.9474 z" />
    <path
       style="fill:#000000;stroke-width:48.3412"
       id="path3452"
       d="m 197.08619,101.33439 c 2.06912,-0.01 4.12941,-0.1027 6.19095,-0.25204 2.37357,-0.23198 4.75527,-0.39966 7.12122,-0.68715 2.12259,-0.32929 4.23595,-0.69815 6.36145,-1.013146 2.66801,-0.397763 5.36869,-0.531292 8.07139,-0.507547 2.11638,0.03266 4.20177,0.378442 6.24652,0.830737 0.81846,0.194421 1.61933,0.438886 2.41784,0.686806 0,0 3.91209,-2.304523 3.91209,-2.304523 v 0 c -0.83441,-0.228822 -1.66096,-0.481514 -2.50971,-0.668225 -2.0846,-0.468234 -4.21632,-0.807497 -6.37268,-0.871284 -2.71531,-0.02374 -5.4316,0.08407 -8.11806,0.451787 -2.1113,0.293361 -4.21376,0.627822 -6.31136,0.986921 -2.37291,0.338346 -4.769,0.50332 -7.15646,0.743888 -1.99128,0.14209 -3.9835,0.281386 -5.9826,0.160937 0,0 -3.87059,2.442839 -3.87059,2.442839 z" />
    <path
       style="fill:#000000;stroke-width:48.3412"
       id="path3458"
       d="m 259.30155,98.403343 c 0.22969,-1.132437 0.97446,-2.193143 2.05618,-2.867587 0.34008,-0.212038 0.72422,-0.364907 1.08633,-0.547364 -3.91694,2.082634 -3.51993,1.679043 -1.72256,1.11811 0.49135,-0.153329 1.19969,-0.335999 1.72079,-0.430535 0.62824,-0.113975 0.5736,-0.08825 1.15796,-0.0725 0.13853,0.04703 0.2944,0.06621 0.41561,0.141086 0.89098,0.55029 0.92954,2.87213 0.99577,3.709306 0.10941,1.818271 0.0667,3.639271 0.0491,5.458861 -9.2e-4,1.58306 -0.0413,3.16701 0.0288,4.74918 0.0925,1.06473 0.0619,2.22812 0.76843,3.14617 0.91522,0.67898 2.04918,0.49925 3.06979,0.12305 1.53935,-0.80667 3.11973,-1.55701 4.61807,-2.41999 0.26355,-0.1518 1.24351,-1.26185 1.37212,-1.41269 0.80216,-0.94071 1.54358,-1.91894 2.26218,-2.9084 1.35157,-1.91244 2.74906,-3.79839 3.84329,-5.834 1.06354,-2.195954 1.93986,-4.457347 2.76261,-6.728772 0.43213,-1.033692 0.56735,-2.1435 0.93611,-3.190082 0.0207,0.0029 0.0805,3.71e-4 0.062,0.0091 -4.89432,2.303537 -4.45631,0.866235 -4.17091,3.896113 0.14965,1.71833 0.193,3.441151 0.21812,5.163619 0.1146,1.609082 -0.20195,3.163562 -0.67232,4.709382 -0.74126,2.21436 -1.54132,4.41352 -2.27517,6.6297 -1.15206,3.22616 -1.74499,6.57507 -2.39438,9.89809 -0.45555,2.60138 -1.1725,5.15267 -2.1626,7.63756 -0.91555,1.92668 -2.23216,3.72958 -4.26417,4.90177 -0.2833,0.16342 -0.59231,0.29046 -0.88845,0.43569 1.06774,-0.56497 2.19133,-1.05704 3.20321,-1.69488 0.21152,-0.13333 -0.50346,0.13012 -0.76302,0.15669 -1.14116,0.11676 -2.18123,-0.2786 -3.17646,-0.70195 -1.56758,-0.77449 -2.80251,-1.93458 -3.88595,-3.16706 -1.25282,-1.45215 -1.96081,-3.15139 -2.51772,-4.88092 -0.31327,-1.10416 -0.47772,-2.23459 -0.5155,-3.37012 -0.0385,-0.26403 -0.0925,-0.52609 -0.25108,-0.75587 0,0 -4.13431,2.1493 -4.13431,2.1493 v 0 c 0.0702,0.1028 0.16403,0.33795 0.16795,0.50087 0.11963,1.14761 0.33605,2.28365 0.67418,3.39929 0.60706,1.76267 1.33521,3.51145 2.61475,5.00096 1.10445,1.28839 2.34225,2.52658 3.96182,3.34117 1.03009,0.47164 2.14422,0.93501 3.34143,0.92162 2.05737,-0.023 4.23971,-1.70661 5.58752,-2.3448 0.27876,-0.15813 0.57061,-0.30008 0.83628,-0.47439 1.94734,-1.27766 3.18274,-3.13387 4.0756,-5.07118 0.99413,-2.49276 1.71864,-5.04339 2.06226,-7.67031 0.58509,-3.33876 1.30129,-6.66467 2.49094,-9.8865 0.74658,-2.24348 1.63566,-4.44762 2.39078,-6.68871 0.48562,-1.6372 0.72279,-3.095989 0.59499,-4.796559 -0.0297,-1.734814 -0.0575,-3.470549 -0.17961,-5.20271 -0.0273,-0.552019 -0.0453,-1.098302 -0.0337,-1.650512 0.002,-0.09869 0.11201,-0.329172 0.005,-0.296091 -4.4337,1.370021 -4.66647,0.301881 -4.31654,1.715097 -0.13152,1.042465 -0.44755,2.061966 -0.7543,3.073163 -0.78166,2.265384 -1.66581,4.510073 -2.77996,6.669922 -1.14019,1.99605 -2.48865,3.89131 -3.84431,5.78162 -0.9484,1.26107 -1.89998,2.56863 -3.10702,3.65985 -0.22489,0.20331 -1.01127,0.69001 -0.71562,0.57362 1.17675,-0.46328 2.26191,-1.08509 3.39288,-1.62764 -0.81426,0.40994 -1.73637,0.73019 -2.64444,0.32499 -0.71899,-0.79151 -0.61309,-1.94073 -0.74095,-2.88792 -0.0777,-1.57791 3.4e-4,-3.15753 -0.0122,-4.7365 -0.002,-1.81863 -0.0276,-3.638091 -0.13166,-5.454705 -0.0891,-1.123887 -0.0561,-3.318443 -1.11016,-4.13824 -0.14934,-0.116109 -0.34674,-0.174584 -0.5201,-0.26188 -0.19906,-0.02503 -0.39604,-0.07464 -0.59718,-0.07508 -0.42707,-7.41e-4 -1.16686,0.15249 -1.5511,0.243201 -2.60596,0.615122 -4.7508,1.712305 -7.09756,3.0263 -0.35958,0.211039 -0.74453,0.39268 -1.07876,0.633108 -1.11049,0.798812 -1.80994,1.968644 -2.09854,3.179496 0,0 4.28526,-1.83065 4.28526,-1.83065 z" />
    <path
       style="fill:#000000;stroke-width:48.3412"
       id="path3462"
       d="m 303.34732,63.064081 c 0.028,4.500588 -0.20362,8.998995 -0.41211,13.494907 -0.25484,4.955911 -0.49209,9.912523 -0.71743,14.869518 -0.15654,1.885674 -0.12969,3.768394 -0.0668,5.655796 0.17083,4.282048 0.005,8.565958 -0.16753,12.845658 -0.0383,1.75815 -0.23179,3.51018 -0.48666,5.25353 -0.1175,0.54675 -0.0985,1.08495 -0.069,1.63698 0.13563,2.63563 0.13274,5.27355 0.091,7.91093 -0.0294,1.26048 -0.0533,2.52152 -0.12024,3.78105 -0.0183,0.48007 0.003,0.96052 0.0207,1.44036 0.0341,1.20211 0.0322,2.40407 0.0122,3.60628 -0.008,0.3857 0.0309,0.75896 -0.16138,1.11356 0,0 4.32925,-1.78571 4.32925,-1.78571 v 0 c 0.0669,-0.39325 0.0344,-0.78611 0.0221,-1.1824 -0.0203,-1.20584 -0.0212,-2.41142 0.0122,-3.61718 0.0166,-0.48595 0.039,-0.97255 0.0204,-1.4587 -0.069,-1.22356 -0.0924,-2.4488 -0.12298,-3.67338 -0.0447,-2.66349 -0.0483,-5.32773 0.0925,-7.98942 0.0346,-0.5386 0.0767,-1.0767 0.11124,-1.61529 0.11597,-1.71202 0.2075,-3.42597 0.15482,-5.14175 0.008,-4.30418 0.10637,-8.605869 0.28793,-12.907054 0.0587,-1.87499 0.0855,-3.746873 0.008,-5.622108 -0.0288,-4.897333 0.0674,-9.794603 0.32905,-14.687176 0.27551,-4.603381 0.57042,-9.208265 1.05811,-13.798857 0,0 -4.22595,1.870456 -4.22595,1.870456 z" />
    <path
       style="fill:#000000;stroke-width:48.3412"
       id="path3464"
       d="m 326.20976,90.339425 c 0.057,1.112366 0.0483,2.226683 0.0483,3.339957 0.006,1.643757 0.0556,3.287579 -0.008,4.930656 -0.0808,2.413892 -0.28008,4.823152 -0.62213,7.219512 -0.52239,3.15678 -1.13114,6.30455 -1.89935,9.42337 -0.73865,2.58536 -1.43015,5.20605 -2.61508,7.67079 -0.51998,0.94684 -1.00409,2.07461 -1.82548,2.86685 -0.0603,0.0457 -0.12055,0.0914 -0.18089,0.13704 0,0 4.41086,-1.60535 4.41086,-1.60535 v 0 c 0.0483,-0.0566 0.0966,-0.1133 0.14493,-0.16994 0.65327,-0.91765 1.18758,-1.90501 1.63158,-2.91085 1.05745,-2.48714 1.65195,-5.10107 2.42059,-7.66183 0.77541,-3.13558 1.36237,-6.30705 1.93248,-9.47507 0.34856,-2.42246 0.60849,-4.854791 0.70711,-7.29548 0.0702,-1.657179 0.0459,-3.31562 0.0693,-4.97368 1.2e-4,-1.127553 -0.008,-2.256064 0.0483,-3.382755 0,0 -4.26284,1.886789 -4.26284,1.886789 z" />
    <path
       style="fill:#000000;stroke-width:48.3412"
       id="path3466"
       d="m 327.82847,92.922631 c 0.1341,2.334021 0.12694,4.672676 0.14568,7.009054 0.0152,2.326635 -0.0216,4.653195 -0.10576,6.978665 -0.0971,0.72677 0.0152,1.40107 0.28321,2.08521 0.52373,0.9011 1.36831,1.61124 2.22508,2.27464 0.87048,0.7134 1.7534,1.15662 2.91133,1.39607 1.4696,0.24532 2.91694,0.0413 4.33521,-0.31128 3.18014,-0.99514 5.53541,-2.30165 7.57534,-4.44462 0.99462,-1.29819 1.29045,-2.89203 1.62847,-4.39657 0.38542,-2.09951 0.52817,-4.228359 0.63882,-6.350524 0.15907,-1.489908 0.24203,-2.984464 0.30596,-4.479361 0.0411,-0.920074 0.0683,-1.840535 0.0986,-2.760901 0.0571,-1.746682 0.5173,-0.894674 -4.26838,1.58615 -0.0716,0.03713 0.008,0.144699 0.0137,0.217041 0.0107,0.169786 0.0221,0.339544 0.0329,0.509317 0.43454,4.420618 1.04414,8.826738 1.54809,13.242078 0.23951,2.30422 0.51144,4.60755 0.66266,6.91793 0.0322,0.24676 0.0137,0.49289 0.003,0.7389 -8.5e-4,0.25039 0.003,0.50116 0.005,0.7517 0.02,0.066 0.0401,0.13196 0.06,0.19795 0,0 4.22596,-1.96603 4.22596,-1.96603 v 0 c -0.006,-0.04 -0.0107,-0.0799 -0.0159,-0.11981 0.003,-0.25163 0.008,-0.50318 0.0253,-0.75438 0.005,-0.25282 -0.0742,-0.50471 -0.10835,-0.75407 -0.41372,-2.23108 -0.79313,-4.46722 -1.12712,-6.70837 -0.6331,-4.443775 -1.22774,-8.91506 -1.08561,-13.400968 0.0107,-0.179401 0.0226,-0.358803 0.0337,-0.538209 0.005,-0.07579 0.0946,-0.256896 0.0137,-0.227352 -4.61902,1.69579 -4.32872,0.467867 -4.26681,2.18691 0.0216,0.901803 0.0192,1.803998 -0.005,2.705767 -0.0541,1.49193 -0.1751,2.979516 -0.2818,4.468991 -0.0535,2.097791 -0.15601,4.203841 -0.62594,6.267921 -0.3815,1.4776 -0.7364,3.03402 -1.82908,4.25718 -0.33509,0.33776 -0.54194,0.56287 -0.91968,0.87284 -1.16136,0.95305 -4.19782,2.465 2.09484,-0.79603 0.23677,-0.1227 -0.50015,0.2017 -0.75023,0.30254 -1.34649,0.39337 -2.71083,0.63672 -4.13511,0.43806 -1.1223,-0.16533 -1.96714,-0.51652 -2.81281,-1.19838 -0.80206,-0.60243 -1.57795,-1.27782 -2.03125,-2.12385 -0.24274,-0.62941 -0.30885,-1.26684 -0.28854,-1.93147 -0.0858,-2.29419 -0.12008,-4.58958 -0.10576,-6.884988 0.0189,-2.379391 0.0137,-4.760842 0.14569,-7.138003 0,0 -4.24808,1.880252 -4.24808,1.880252 z" />
    <path
       style="fill:#000000;stroke-width:48.3412"
       id="path3468"
       d="m 364.51848,110.94777 c -0.37995,-0.58846 -0.60083,-1.23161 -0.75624,-1.88864 -0.10881,-0.35844 0.008,-0.59494 0.29639,-0.82846 1.62031,-0.37029 0.1495,-0.0463 -3.79839,1.97344 -0.0469,0.024 0.096,-0.0452 0.14614,-0.0637 0.20308,-0.0749 0.34659,-0.0846 0.56533,-0.0686 0.76517,0.1108 1.48626,0.38471 2.16793,0.6982 0.51538,0.22563 0.84821,0.51252 1.01034,0.99214 0.1242,0.42141 -0.0882,0.78859 -0.55081,0.93964 6.94732,-3.51987 4.63662,-1.85251 2.77966,-1.77098 -0.40934,0.0227 -0.81987,-0.006 -1.22914,0.008 -0.20945,-0.0232 -0.1875,-0.0921 -0.19584,-0.25347 -0.0107,-0.29469 -0.006,-0.58982 0.006,-0.88445 0.0689,-0.0379 0.0709,-0.12757 0.1338,-0.16857 0.0806,-0.0527 0.18291,-0.0742 0.27366,-0.11244 0.0636,-0.0268 0.25796,-0.099 0.19708,-0.0678 -1.28833,0.65989 -2.5877,1.30338 -3.88154,1.95508 0.48493,-0.20003 0.9804,-0.37448 1.50663,-0.47037 0.49369,-0.0797 0.99926,-0.0883 1.50013,-0.082 0.44072,0.0318 0.45052,0.41808 0.49651,0.73061 0.0884,0.44434 -0.091,0.73326 -0.5203,0.97133 -1.45304,0.58794 -3.60282,1.81358 3.36985,-1.72412 0.0762,-0.0386 -0.15318,0.0763 -0.23302,0.10896 -0.21846,0.0891 -0.28358,0.0964 -0.51643,0.15428 -0.46616,0.10802 -0.91492,0.11627 -1.38228,0.0298 -0.29909,-0.0823 -0.723,-0.13439 -0.8919,-0.39534 -0.10576,-0.31877 -0.0658,-0.61833 0.0506,-0.92669 0.0558,-0.36933 0.43316,-0.55802 0.64091,-0.84809 2.10754,-1.05894 -5.58072,2.73422 -3.11547,1.63946 0.47811,-0.18714 0.97915,-0.32941 1.48435,-0.45199 0.76175,-0.21301 1.55409,-0.30488 2.34762,-0.36917 0.5023,-0.0347 0.91138,0.0237 1.14976,0.43162 0.29823,0.82863 0.41243,1.68943 0.49288,2.55089 0.0527,1.06587 0.14371,2.13983 0.03,3.20424 -0.17988,1.02243 -0.63505,1.95888 -1.20328,2.85873 -0.72711,1.07733 -1.78868,1.93512 -2.94266,2.66147 -0.67928,0.40886 -1.3743,0.79406 -2.08099,1.1656 -0.19896,0.1046 -0.7974,0.41615 -0.5958,0.31543 4.3009,-2.14859 4.5831,-2.27588 2.99165,-1.52668 -0.67716,0.31934 -1.40495,0.53514 -2.16302,0.64675 -0.039,0.0643 -0.72899,0.0146 -0.75106,0.0494 -0.0137,0.0223 0.02,0.0478 0.0299,0.0716 0.0404,0.0223 0.029,-0.0487 0.0305,-0.0938 0,0 -4.27685,1.91916 -4.27685,1.91916 v 0 c 0.0207,0.15413 0.0642,0.29152 0.17635,0.41655 0.0468,0.0473 0.0823,0.10513 0.14035,0.14182 0.11613,0.0735 0.68411,-0.0539 0.82564,-0.0172 0.80273,-0.0847 1.58874,-0.2542 2.31581,-0.57114 2.65743,-1.18772 5.24032,-2.52454 7.68731,-4.017 1.14371,-0.79602 2.21103,-1.69633 2.89751,-2.8374 0.5509,-0.95376 1.00587,-1.94839 1.13535,-3.01931 0.052,-1.08392 -0.0137,-2.17105 -0.0721,-3.25393 -0.0884,-0.91557 -0.21161,-1.8356 -0.52251,-2.71725 -0.31513,-0.54488 -0.75271,-0.81243 -1.46634,-0.83852 -0.80901,0.0519 -1.62349,0.12563 -2.4089,0.3077 -0.50546,0.12954 -1.0053,0.23309 -1.50091,0.38099 -0.11444,0.0419 -0.21021,0.11732 -0.32536,0.15775 -0.0619,0.0218 -0.13944,2e-4 -0.19761,0.0285 -1.25783,0.61256 -3.48143,1.16851 -4.51496,2.41408 -0.29479,0.28139 -0.46934,0.62565 -0.55363,0.99826 -0.0808,0.40743 -0.0748,0.82447 0.10698,1.21252 0.25416,0.37985 0.65519,0.53526 1.12069,0.67858 0.50932,0.10171 0.98122,0.22729 1.50933,0.10826 2.12205,-0.26148 3.93818,-1.48912 5.59686,-2.62631 0.34028,-0.40667 0.45527,-0.83725 0.33077,-1.33343 -0.0946,-0.44873 -0.23787,-1.0255 -0.80482,-1.17461 -0.51535,-0.12954 -1.06657,-0.0272 -1.59757,-0.0313 -0.54629,0.069 -1.08307,0.16829 -1.57723,0.39354 -1.44371,0.70847 -2.89491,1.4055 -4.33109,2.1254 -0.30672,0.15375 -0.41565,0.44855 -0.42449,0.73628 0.003,0.31086 -0.003,0.62199 0.0194,0.93248 0.0568,0.29259 0.17381,0.54892 0.50231,0.68057 0.40693,0.15506 0.88351,0.0457 1.31978,0.0803 2.32018,-0.0316 2.73969,-0.52439 5.52653,-2.22246 0.37012,-0.41188 0.46534,-0.89153 0.28848,-1.39559 -0.22126,-0.56092 -0.58645,-0.98353 -1.21126,-1.25244 -0.70534,-0.35002 -1.46464,-0.61054 -2.23573,-0.82907 -0.16436,-0.0339 -0.32313,-0.0917 -0.49078,-0.10961 -0.0393,-0.004 -0.33556,0.0188 -0.37842,0.0397 -4.25383,2.06772 -3.39194,0.93332 -4.36704,2.26893 -0.21637,0.35698 -0.19183,0.75284 -0.0811,1.13746 0.19588,0.66057 0.43558,1.30877 0.76134,1.93058 0,0 4.18841,-2.0038 4.18841,-2.0038 z" />
    <path
       style="fill:#000000;stroke-width:48.3412"
       id="path3470"
       d="m 386.76401,93.0127 c -0.71675,0.02438 -1.43676,-0.03563 -2.14585,0.07121 -3.13035,0.871981 -4.64334,1.51611 -5.5698,3.791379 -0.72269,1.714141 -1.36631,3.451561 -1.92416,5.211401 -0.53758,2.03831 -0.78816,4.13207 -0.70177,6.22112 0.30208,2.15066 1.72367,3.98584 3.16885,5.68978 0.96456,1.04544 1.98719,2.1002 3.25915,2.87744 0.64988,0.39713 0.83893,0.4424 1.5387,0.72557 1.47405,0.50528 3.01792,0.5591 4.55658,0.29824 3.46382,-0.89542 6.09234,-2.80246 8.29972,-5.12808 1.50865,-1.61905 2.43375,-3.55079 3.05748,-5.54359 0.24961,-1.11443 0.62243,-2.29372 0.40457,-3.43954 -0.11322,-0.59554 -0.26027,-0.8016 -0.53147,-1.3516 -0.99438,-1.32461 -2.1458,-2.562257 -3.28867,-3.79311 -0.7941,-0.819315 -1.48963,-1.715412 -2.43695,-2.410023 -0.71144,-0.489467 -1.49066,-0.880499 -2.32679,-1.182753 -0.69041,-0.268296 -1.40673,-0.45629 -2.15242,-0.559587 -0.50201,-0.0549 -1.00416,-0.04888 -1.49405,-0.164768 -0.22985,-0.06835 -0.46472,-0.120671 -0.70114,-0.16829 -0.22963,-0.04663 0.1721,0.195648 0.1753,0.198463 0.041,-0.107425 0.16083,-0.10135 0.26792,-0.148604 -1.32617,0.671709 -2.6531,1.342264 -3.97848,2.015125 -0.10744,0.05451 0.2263,-0.09148 0.34537,-0.122751 0.53631,-0.09146 1.08592,-0.08657 1.63004,-0.09436 0.91859,-0.04811 1.82797,0.05313 2.73737,0.147728 0.89816,0.06543 1.79352,0.138861 2.6889,0.229984 0.78896,0.06482 1.57825,0.158748 2.37165,0.166356 0.58617,-0.03363 1.13326,-0.221526 1.69382,-0.35516 0.69282,-0.132767 1.37974,-0.27794 2.08245,-0.366491 0.63333,-0.03693 1.24711,-0.178635 1.86979,-0.275056 0.42353,-0.0638 0.85212,-0.07971 1.28066,-0.09204 0.0622,0.0018 0.12436,0.0038 0.18664,0.0057 0,0 3.81022,-2.535546 3.81022,-2.535546 v 0 c -0.0405,0.02503 -0.0812,0.05008 -0.12191,0.07511 -0.44598,0.0011 -0.89402,0.01332 -1.33686,0.06054 -0.63497,0.06758 -1.24485,0.236213 -1.87807,0.292287 -0.71154,0.06698 -1.40676,0.187943 -2.10158,0.324605 -0.56648,0.09714 -1.08906,0.288419 -1.65165,0.392633 -0.76024,0.158893 -1.58314,-0.05805 -2.35281,-0.06502 -0.89213,-0.0909 -1.77579,-0.214717 -2.67522,-0.240761 -0.91868,-0.08398 -1.83281,-0.225235 -2.75964,-0.1928 -0.54948,-0.004 -1.10111,-0.01996 -1.64929,0.01938 -1.88961,0.10343 -3.82471,1.070265 -4.888,2.4143 0.0346,0.157616 0.0774,0.545987 0.31027,0.555507 0.23313,0.01569 0.46879,0.04459 0.69037,0.1106 0.51736,0.135595 1.01357,0.218129 1.55955,0.201312 0.72789,0.06307 1.43688,0.197796 2.10349,0.469557 0.81777,0.250292 1.56231,0.61951 2.25551,1.072213 0.96735,0.631696 1.66031,1.517933 2.46162,2.29453 1.12401,1.19452 2.24975,2.40135 3.2048,3.70298 0.25204,0.52945 0.36057,0.66524 0.45859,1.23512 0.18813,1.0939 -0.12618,2.21659 -0.38959,3.27697 -0.67228,1.9621 -1.62753,3.83922 -3.17957,5.40669 -0.66621,0.67402 -1.33736,1.33273 -2.12444,1.90485 -0.24567,0.17858 -1.05026,0.63079 -0.76326,0.50721 7.54861,-3.25043 3.5487,-1.69282 2.54848,-1.30904 -1.53946,0.37272 -2.8631,0.32943 -4.39181,-0.0816 -0.67708,-0.23528 -0.87843,-0.27454 -1.51078,-0.62636 -1.28028,-0.71228 -2.30324,-1.73214 -3.25207,-2.74714 -1.39983,-1.64709 -2.72745,-3.42252 -2.98411,-5.50757 -0.10028,-2.05594 0.15522,-4.11308 0.75888,-6.10551 0.58448,-1.756596 1.18809,-3.512496 2.01775,-5.196136 0.22702,-0.407313 0.29802,-0.600216 0.60119,-0.938753 0.0852,-0.0952 0.40727,-0.320816 0.28467,-0.264179 -6.66317,3.07808 -4.73182,2.389554 -3.33675,1.638565 0.65303,-0.245005 1.35084,-0.156631 2.04796,-0.15519 0,0 3.87059,-2.442839 3.87059,-2.442839 z" />
    <path
       style="fill:#000000;stroke-width:48.3412"
       id="path3472"
       d="m 398.18026,95.735485 c 0.54217,-0.0086 1.08466,-0.0055 1.62686,0.0026 0.43497,0.02582 0.82182,-0.165006 1.20622,-0.315708 0.95203,-0.41055 1.90736,-0.817516 2.88972,-1.170808 0.87112,-0.305415 1.77047,-0.515659 2.68814,-0.680332 0.76539,-0.143842 1.52204,-0.331277 2.26099,-0.556582 0.2788,-0.09653 0.56529,-0.17431 0.8491,-0.258543 0,0 3.81065,-2.528203 3.81065,-2.528203 v 0 c -0.31452,0.04337 -0.60905,0.146268 -0.91074,0.233224 -0.72396,0.262114 -1.48093,0.456311 -2.24132,0.619693 -0.92471,0.193759 -1.86735,0.312138 -2.75065,0.640613 -0.98013,0.323347 -1.91388,0.732724 -2.86949,1.105722 -0.34378,0.174237 -0.70658,0.296895 -1.05436,0.463233 -0.54476,0.0075 -1.08982,0.01113 -1.63455,0.0026 0,0 -3.87057,2.442842 -3.87057,2.442842 z" />
    <path
       style="fill:#000000;stroke-width:48.3412"
       id="path3474"
       d="m 400.78213,78.372827 c 1.05523,-0.237687 2.12474,-0.388519 3.2088,-0.479226 1.03719,-0.0751 2.07629,-0.123171 3.10464,0.03614 0.57021,0.12328 1.04426,0.366984 1.22981,0.863097 0.1716,0.73549 0.041,1.488329 -0.0808,2.221509 -0.56308,1.995468 -1.80969,3.784302 -3.03808,5.517757 -0.90118,1.289698 -2.03998,2.429713 -3.08363,3.629477 -0.39427,0.400803 -0.61178,0.727481 -0.0539,1.091371 1.40328,-0.716487 2.80745,-1.431681 4.20985,-2.149459 0.1088,-0.0557 0.43704,-0.220249 0.32808,-0.164769 -1.26402,0.64353 -2.53937,1.270383 -3.79597,1.924766 -0.121,0.06298 0.25613,-0.102736 0.38656,-0.149297 0.17924,-0.06398 0.36148,-0.12151 0.54223,-0.182265 1.70106,-0.504344 3.45905,-0.84004 5.20276,-1.210596 1.21222,-0.256575 2.43711,-0.465169 3.64925,-0.72223 0.58372,-0.143331 1.16916,-0.282726 1.76861,-0.366399 1.74624,-0.174091 3.18026,-1.291269 4.6018,-2.174384 0,0 -4.47181,1.533816 -4.47181,1.533816 v 0 c -1.54308,0.951036 5.75522,-2.164291 3.70599,-1.857217 -0.62766,0.07674 -1.24742,0.189796 -1.85158,0.359222 -1.2155,0.323194 -2.47738,0.499692 -3.70838,0.771712 -1.72396,0.393891 -3.46878,0.716285 -5.18128,1.149071 -0.10302,0.0287 -0.767,0.20433 -0.91372,0.274668 -1.47212,0.705714 -2.93145,1.431452 -4.38849,2.16037 -0.12238,0.06123 -0.44665,0.29781 -0.32349,0.237768 1.35278,-0.659367 2.69154,-1.340187 4.0373,-2.010282 0.23947,0.677871 0.25029,0.205565 0.59777,-0.143951 0.9877,-1.185731 2.05049,-2.327605 2.89557,-3.598865 1.23838,-1.808484 2.53459,-3.650438 3.09747,-5.718947 0.13486,-0.802038 0.29366,-1.636151 0.0466,-2.433953 -0.27344,-0.611717 -0.79255,-0.992015 -1.51281,-1.201871 -1.05956,-0.232397 -2.13874,-0.179875 -3.22136,-0.113848 -1.06515,0.06729 -2.13233,0.158365 -3.16473,0.409123 0,0 -3.82305,2.497669 -3.82305,2.497669 z" />
    <path
       style="fill:#000000;stroke-width:48.3412"
       id="path3478"
       d="m 419.02238,55.066356 c 1.55892,5.129209 2.76341,10.340168 3.68316,15.58412 0.27082,1.544147 0.48932,3.094876 0.73399,4.642313 0.75451,5.523208 1.40959,11.10007 0.95383,16.667537 -0.16252,1.985154 -0.42448,3.026192 -0.80808,4.908115 -1.00267,4.858359 -2.43553,9.631299 -4.0144,14.368719 -1.00182,2.89601 -1.94126,5.82481 -3.24396,8.63412 -0.54034,1.16526 -1.11089,2.1422 -1.73765,3.26383 -1.53088,2.58296 -3.28183,5.06019 -5.08161,7.50651 -1.45396,2.10445 -2.86794,4.22795 -4.41386,6.28302 -1.85226,2.39289 -3.89308,4.6753 -5.97771,6.9183 -0.97308,1.11202 -2.0604,2.14268 -3.18563,3.13855 0,0 4.34249,-1.57483 4.34249,-1.57483 v 0 c 1.05003,-1.00324 2.07485,-2.02736 3.01196,-3.11287 2.03993,-2.27888 4.07032,-4.5695 5.95329,-6.94862 1.54431,-2.05978 2.93683,-4.19824 4.41811,-6.29207 1.74464,-2.45713 3.48001,-4.92694 4.96263,-7.51294 0.557,-1.07795 1.1287,-2.14847 1.61489,-3.25314 1.23774,-2.81219 2.19617,-5.71647 3.12569,-8.6136 0.83443,-2.60223 1.65033,-5.2076 2.41136,-7.82694 0.26809,-0.9227 1.08004,-3.776348 1.3173,-4.787609 0.14295,-0.609381 0.241,-1.226077 0.36149,-1.839114 0.2663,-1.948584 0.42126,-2.751733 0.48317,-4.819756 0.16611,-5.548399 -0.44281,-11.098151 -1.24278,-16.594738 -0.69553,-4.414706 -0.7481,-4.882829 -1.52631,-9.284957 -0.59458,-3.363264 -1.32809,-6.722224 -1.77791,-10.104124 -0.0546,-0.410501 -0.067,-0.824409 -0.10058,-1.236613 0,0 -4.26284,1.886787 -4.26284,1.886787 z" />
    <path
       style="fill:#000000;stroke-width:48.3412"
       id="path3494"
       d="m 255.90597,61.510509 c -0.95396,2.52341 -2.31059,4.918847 -3.65949,7.297118 -1.92144,3.223773 -3.73209,6.494939 -5.47658,9.793398 -1.94252,3.689608 -3.33254,7.571974 -4.60208,11.468695 -1.02834,3.243925 -1.78878,6.538275 -2.39614,9.858469 -0.37768,2.240791 -0.49316,4.509391 -0.58199,6.770531 -0.14096,3.1688 -0.1688,6.3425 0.0744,9.50734 0.37719,2.89136 1.00131,5.75513 1.75412,8.58919 0.49357,1.74472 1.28108,3.40565 2.09347,5.05226 0.90751,1.7479 1.87587,3.46833 2.93759,5.14923 0.79587,1.26415 1.53175,2.55243 2.41294,3.77454 1.01611,1.14863 1.96209,2.33536 2.82845,3.57278 1.15358,1.65027 2.19926,3.35462 3.29623,5.03314 0.50908,0.78478 1.015,1.57954 1.58886,2.33068 0.17664,0.25393 0.43344,0.44585 0.66127,0.66124 0.48871,0.41914 0.92621,0.88064 1.36207,1.34094 0.0645,0.0557 0.12877,0.11147 0.19327,0.16712 0,0 4.06502,-2.18634 4.06502,-2.18634 v 0 c -0.0568,-0.0403 -0.11353,-0.0806 -0.17039,-0.12096 -0.45527,-0.43764 -0.8849,-0.89433 -1.33508,-1.33537 -0.19374,-0.23489 -0.46069,-0.4023 -0.66797,-0.62912 -0.61377,-0.71501 -1.14397,-1.48669 -1.67163,-2.25089 -1.15743,-1.64812 -2.26161,-3.32385 -3.33677,-5.01344 -0.83208,-1.26081 -1.71406,-2.48612 -2.7854,-3.60669 -0.87729,-1.21628 -1.60858,-2.49941 -2.42442,-3.74618 -1.0888,-1.64929 -2.0767,-3.34375 -2.96023,-5.08403 -0.76114,-1.64257 -1.48251,-3.2985 -2.06781,-4.99588 -0.84631,-2.78275 -1.53455,-5.60321 -1.83391,-8.47463 -0.24121,-3.16031 -0.19575,-6.32578 -0.006,-9.48823 0.15793,-2.25614 0.33364,-4.51437 0.6531,-6.758096 0.50861,-3.274352 1.15157,-6.53075 2.19129,-9.715033 1.31619,-3.888525 2.73757,-7.75803 4.69567,-11.4454 1.73326,-3.316457 3.63698,-6.558564 5.53737,-9.80452 1.41049,-2.469435 2.79912,-4.960523 3.9158,-7.542441 0,0 -4.28526,1.830652 -4.28526,1.830652 z" />
  </g>
</svg>
