<?xml version="1.0" encoding="UTF-8" standalone="no"?>
<svg
   xmlns:dc="http://purl.org/dc/elements/1.1/"
   xmlns:cc="http://creativecommons.org/ns#"
   xmlns:rdf="http://www.w3.org/1999/02/22-rdf-syntax-ns#"
   xmlns:svg="http://www.w3.org/2000/svg"
   xmlns="http://www.w3.org/2000/svg"
   xmlns:sodipodi="http://sodipodi.sourceforge.net/DTD/sodipodi-0.dtd"
   xmlns:inkscape="http://www.inkscape.org/namespaces/inkscape"
   width="210mm"
   height="297mm"
   viewBox="0 0 210 297"
   version="1.1"
   id="svg611"
   inkscape:version="1.0.1 (c497b03c, 2020-09-10)"
   sodipodi:docname="pill_questionmark.svg">
  <defs
     id="defs605" />
  <sodipodi:namedview
     id="base"
     pagecolor="#ffffff"
     bordercolor="#666666"
     borderopacity="1.0"
     inkscape:pageopacity="0.0"
     inkscape:pageshadow="2"
     inkscape:zoom="0.35"
     inkscape:cx="400"
     inkscape:cy="560"
     inkscape:document-units="mm"
     inkscape:current-layer="layer1"
     inkscape:document-rotation="0"
     showgrid="false"
     inkscape:window-width="1252"
     inkscape:window-height="806"
     inkscape:window-x="0"
     inkscape:window-y="23"
     inkscape:window-maximized="0" />
  <metadata
     id="metadata608">
    <rdf:RDF>
      <cc:Work
         rdf:about="">
        <dc:format>image/svg+xml</dc:format>
        <dc:type
           rdf:resource="http://purl.org/dc/dcmitype/StillImage" />
        <dc:title></dc:title>
      </cc:Work>
    </rdf:RDF>
  </metadata>
  <g
     inkscape:label="Layer 1"
     inkscape:groupmode="layer"
     id="layer1">
    <path
       style="fill:#0000ff;stroke-width:0.282349"
       id="path613"
       sodipodi:type="arc"
       sodipodi:cx="84.219849"
       sodipodi:cy="132.20012"
       sodipodi:rx="24.172159"
       sodipodi:ry="54.047791"
       sodipodi:start="0"
       sodipodi:end="3.1591124"
       sodipodi:open="true"
       sodipodi:arc-type="arc"
       d="M 108.39201,132.20012 A 24.172159,54.047791 0 0 1 96.183472,179.1639 24.172159,54.047791 0 0 1 71.890097,178.68806 24.172159,54.047791 0 0 1 60.051399,131.25326"
       transform="rotate(15.670404)" />
    <path
       style="fill:#ffff00;stroke-width:0.27721"
       id="path613-8"
       sodipodi:type="arc"
       sodipodi:cx="90.830429"
       sodipodi:cy="-127.21821"
       sodipodi:rx="24.225109"
       sodipodi:ry="51.983871"
       sodipodi:start="0"
       sodipodi:end="3.1591124"
       sodipodi:open="true"
       sodipodi:arc-type="arc"
       d="M 115.05554,-127.21821 A 24.225109,51.983871 0 0 1 102.82026,-82.047833 24.225109,51.983871 0 0 1 78.473669,-82.5055 24.225109,51.983871 0 0 1 66.609038,-128.12891"
       transform="matrix(0.95241461,0.30480553,0.31888131,-0.94779466,0,0)" />
    <path
       style="fill:#000000;stroke-width:0.264583"
       id="path650"
       d="m 113.07498,103.24119 c -0.19466,-4.565781 -0.18188,-9.137611 -0.18507,-13.706643 0.23325,-4.718037 1.91081,-9.095586 5.05408,-12.653132 0.67993,-0.769548 1.46439,-1.44001 2.19658,-2.160016 -2.03248,0.574059 7.2295,-4.9184 5.42967,-3.677753 -1.97471,1.361194 -4.2943,2.245151 -6.08296,3.842965 -0.77956,0.696383 1.95646,-0.740672 2.95526,-1.048986 2.41605,-0.745797 3.29676,-0.823349 5.78336,-1.26624 5.47731,-0.761892 10.26444,0.02946 15.31125,2.162418 3.55296,1.673297 5.6006,3.776946 7.28673,7.267538 1.63352,4.57019 1.55607,9.534488 1.67694,14.326688 -0.002,5.304191 0.17602,10.729821 -1.09215,15.927201 -0.24592,1.00783 -0.59656,1.98719 -0.89484,2.98079 -2.13909,6.64726 -6.28717,11.97603 -10.89366,17.08773 -6.55955,6.58138 -13.78669,12.45173 -20.65293,18.7059 -2.30697,2.19948 -4.67092,4.54352 -5.81147,7.59645 -0.4974,1.33139 -0.54308,2.09455 -0.76047,3.48997 -0.35044,3.79246 -0.23013,7.61394 -0.18731,11.41829 0.0593,3.27211 0.0475,6.5449 0.031,9.81732 0.0106,2.3081 -0.007,4.61607 -0.0244,6.92407 -0.0248,1.10349 -0.0214,2.20719 -0.0488,3.31061 0,0 10.01418,-5.10215 10.01418,-5.10215 v 0 c -0.0271,-1.08722 -0.0225,-2.17471 -0.0474,-3.26199 -0.0181,-2.29852 -0.0359,-4.597 -0.043,-6.89558 -0.0479,-3.25655 -0.11721,-6.51276 -0.14187,-9.76963 -0.0479,-3.74739 -0.18874,-7.51698 0.30389,-11.24311 0.28575,-1.37919 0.32247,-1.91641 0.88193,-3.2105 1.21236,-2.80436 3.45523,-4.97531 5.59976,-7.07176 3.17147,-2.9522 6.40663,-5.82674 9.65073,-8.69905 1.03087,-0.91272 6.91407,-6.09234 7.94394,-7.07146 1.0094,-0.95965 1.9469,-1.99219 2.92035,-2.98828 4.76309,-5.36215 8.80339,-10.62839 10.89698,-17.60809 0.28522,-1.02797 0.62227,-2.04296 0.85567,-3.08393 1.18238,-5.27344 0.93829,-10.742131 0.9737,-16.104091 -0.0762,-4.97986 0.17079,-10.156758 -1.61419,-14.89172 -1.88761,-3.853421 -3.88292,-5.96473 -7.81344,-7.85087 -5.16143,-2.284376 -10.1093,-3.243623 -15.77147,-2.590353 -2.65157,0.402304 -6.56692,0.942964 -8.96512,2.138336 -4.11978,2.053481 -8.12288,4.334446 -12.14055,6.581153 -2.88272,1.612032 -2.9144,1.845485 -5.37998,3.952449 -0.72319,0.771173 -1.50061,1.494864 -2.16957,2.313524 -3.11016,3.806135 -4.6343,8.40843 -4.80781,13.285241 -0.003,4.63193 0.007,9.266431 -0.18507,13.895231 0,0 9.94758,-5.06854 9.94758,-5.06854 z" />
    <path
       style="fill:#000000;stroke-width:0.264583"
       id="path656"
       d="m 107.88382,208.16137 c 2.56514,-0.0753 5.13075,-0.13273 7.68627,0.12741 1.80638,0.0709 3.19264,0.76172 4.55694,1.88179 2.09784,1.7564 2.89985,4.3961 3.53996,6.95352 0.56915,2.33767 0.66881,4.67623 -0.16678,6.94692 -1.0207,2.53458 -3.38573,4.01916 -5.65772,5.32692 15.87394,-9.03579 8.4453,-4.0166 3.94323,-3.71924 -2.31508,-0.11741 -4.32325,-1.24209 -6.19069,-2.51994 -1.4843,-0.99808 -2.40259,-2.44843 -2.9318,-4.12564 -0.42975,-2.0235 -0.38531,-4.10962 -0.40227,-6.16769 -0.0474,-1.69856 0.14028,-3.40265 0.6628,-5.02235 0.61403,-1.55993 2.00036,-2.46997 3.42785,-3.23102 -15.8956,8.69831 -9.89632,4.8561 -5.3933,4.35607 0.67055,-0.054 1.34332,-0.0679 2.01563,-0.0523 0.33711,0.0979 0.51905,-0.22589 0.71799,0.0356 -0.014,0.11828 -0.0269,0.4183 -0.0277,0.6215 0,0 10.06021,-5.139 10.06021,-5.139 v 0 c -0.009,-0.42589 -0.0567,-0.87507 -0.29812,-1.23886 -0.32814,-0.46085 -0.68226,-0.97847 -1.30233,-0.90203 -0.71524,-0.009 -1.4309,-0.0254 -2.14563,0.0135 -5.50641,0.26062 -8.83882,2.86251 -14.03979,6.34469 -1.43949,1.04123 -2.65451,2.20303 -3.09702,3.99777 -0.38967,1.73247 -0.58724,3.4838 -0.46368,5.26247 0.0181,2.17288 7.9e-4,4.38525 0.51014,6.50924 0.66066,1.85902 1.68545,3.57605 3.35831,4.69488 1.978,1.41072 4.08958,2.63662 6.50974,3.09446 5.61007,0.5572 11.35029,-4.73092 15.38862,-6.80314 2.32613,-1.54614 4.54948,-3.30518 5.40418,-6.08753 0.61742,-2.48398 0.47853,-4.97141 -0.21071,-7.43798 -0.74103,-2.73382 -1.6003,-5.63376 -3.75376,-7.60927 -1.45535,-1.28741 -2.95343,-2.33538 -4.97586,-2.40418 -2.54528,-0.28456 -5.08691,-0.26073 -7.64535,-0.30308 0,0 -9.07936,6.59654 -9.07936,6.59654 z" />
    <path
       style="fill:#000000;stroke-width:0.264583"
       id="path660"
       d="m 114.44072,217.02457 c 0.18757,1.75223 -0.0727,3.47164 -0.50477,5.16538 -2.38827,2.52311 -12.61937,8.53345 8.95087,-5.06939 0.11931,-0.0752 -0.26533,-0.11161 -0.36879,-0.20748 -0.54773,-0.5075 -0.72061,-0.92157 -1.10489,-1.57164 -1.01201,-1.99994 -1.31667,-4.22517 -1.48899,-6.4316 -0.0264,-1.25136 -0.1544,-2.52449 -0.007,-3.7735 -11.3837,6.22341 -9.97925,2.69732 -9.9632,10.19829 -0.006,1.50032 -0.0232,3.00078 -0.0522,4.50084 -0.0837,0.96786 0.20371,1.8798 0.67441,2.71616 0.37872,0.74728 0.86796,1.42563 1.35519,2.10443 0.4255,0.49301 0.81803,1.01305 1.3804,1.3546 3.95402,1.91724 6.64259,-2.79442 10.91114,-5.35997 0.14928,-0.0897 0.14583,-0.31695 0.23374,-0.4673 0.0976,-0.16702 0.21456,-0.32199 0.32184,-0.48299 0.67865,-1.50458 1.29308,-3.02089 1.66324,-4.63474 0.37071,-1.00427 -0.08,-2.63683 0.4477,-3.52964 0.12831,-0.18609 0.29001,-0.30803 0.4854,-0.41098 -3.11245,1.85764 -6.23013,3.70656 -9.33737,5.57291 -0.16755,0.10064 0.36225,-0.15154 0.55243,-0.19667 0.71689,-0.42276 0.90509,1.4153 0.96649,1.77124 0.35889,2.23364 0.0413,4.45676 -0.48178,6.63341 -0.34536,1.03153 -0.29956,2.598 -1.31099,3.26556 -0.067,0.01 -0.26067,0.0618 -0.20105,0.0296 15.16697,-8.18128 9.36198,-1.37997 9.97384,-6.89738 0.0981,-0.88483 0.27693,-1.75885 0.40864,-2.6393 0.48485,-2.91835 1.37623,-5.73997 2.01429,-8.6236 0.072,-0.91644 1.25333,-2.44293 1.01337,-3.34299 -0.0514,-0.19281 -0.17898,-0.35671 -0.26847,-0.53507 -1.10596,-1.17111 -2.46499,-0.22753 -3.6382,0.35983 -3.80295,1.89457 -7.57239,3.91339 -11.03664,6.37548 0,0 10.46157,-4.08249 10.46157,-4.08249 v 0 c 4.18474,-2.49894 -12.64587,7.05533 -8.16124,4.70142 0.35781,-0.18252 2.37817,-1.16146 2.55295,-1.42821 0.0621,-0.0948 0.0147,-0.22617 0.022,-0.33925 -0.40046,0.77619 -0.63912,2.15259 -0.93129,3.11231 -0.61941,2.88758 -1.41042,5.73672 -1.92408,8.64759 -0.12124,0.70631 -0.37339,2.06557 -0.43279,2.81016 -0.41882,5.2503 4.95165,6.3539 10.50235,-2.60838 0.45641,-1.17727 0.73411,-2.38692 0.94919,-3.63672 0.43031,-2.32622 0.70443,-4.69584 0.35221,-7.05479 -0.24445,-1.27354 -0.57464,-2.53593 -1.77433,-3.23253 -4.30109,-0.0775 -10.02042,2.28505 -10.91218,6.60075 -0.0881,1.17225 -0.0777,2.36075 -0.38167,3.50639 -0.41887,1.48954 -0.96118,2.97193 -1.87966,4.2324 -0.12527,0.14131 -0.23232,0.30116 -0.37582,0.42392 -0.10493,0.0898 -0.4802,0.27303 -0.35979,0.20541 3.1384,-1.76237 6.27584,-3.52645 9.41376,-5.28968 -0.11305,0.30237 -0.14187,0.31952 -0.45063,0.27332 -0.4994,-0.066 -0.74635,-0.46061 -1.07746,-0.84753 -0.49742,-0.60826 -0.95077,-1.24773 -1.29759,-1.95581 -0.38705,-0.68395 -0.45553,-1.42435 -0.41635,-2.19917 -0.0282,-1.48295 -0.0444,-2.9663 -0.0505,-4.44948 0.009,-7.25887 1.61338,-5.54212 -10.008,-0.0383 0.12154,1.26359 0.0531,2.54307 0.20873,3.80517 0.26046,2.34388 0.68082,4.69591 1.74267,6.8261 0.11486,0.21023 1.54719,2.72493 1.80447,2.61435 5.80907,-2.49684 9.4809,-1.92501 10.42834,-6.19368 0.2844,-1.78017 0.39931,-3.56915 0.40593,-5.37181 0,0 -9.9995,5.095 -9.9995,5.095 z" />
  </g>
</svg>
