<?xml version="1.0" encoding="UTF-8" standalone="no"?>
<svg
   xmlns:dc="http://purl.org/dc/elements/1.1/"
   xmlns:cc="http://creativecommons.org/ns#"
   xmlns:rdf="http://www.w3.org/1999/02/22-rdf-syntax-ns#"
   xmlns:svg="http://www.w3.org/2000/svg"
   xmlns="http://www.w3.org/2000/svg"
   xmlns:sodipodi="http://sodipodi.sourceforge.net/DTD/sodipodi-0.dtd"
   xmlns:inkscape="http://www.inkscape.org/namespaces/inkscape"
   version="1.1"
   id="svg100"
   xml:space="preserve"
   width="1249.3466"
   height="1034.4235"
   viewBox="0 0 1249.3466 1034.4235"
   sodipodi:docname="pill_box_magnified.svg"
   inkscape:version="1.0.1 (c497b03c, 2020-09-10)"><metadata
     id="metadata106"><rdf:RDF><cc:Work
         rdf:about=""><dc:format>image/svg+xml</dc:format><dc:type
           rdf:resource="http://purl.org/dc/dcmitype/StillImage" /><dc:title /></cc:Work></rdf:RDF></metadata><defs
     id="defs104" /><sodipodi:namedview
     pagecolor="#ffffff"
     bordercolor="#666666"
     borderopacity="1"
     objecttolerance="10"
     gridtolerance="10"
     guidetolerance="10"
     inkscape:pageopacity="0"
     inkscape:pageshadow="2"
     inkscape:window-width="1193"
     inkscape:window-height="792"
     id="namedview102"
     showgrid="false"
     inkscape:zoom="0.33314149"
     inkscape:cx="649.3233"
     inkscape:cy="589.03343"
     inkscape:window-x="0"
     inkscape:window-y="23"
     inkscape:window-maximized="0"
     inkscape:current-layer="g108"
     inkscape:document-rotation="0" /><g
     id="g108"
     inkscape:groupmode="layer"
     inkscape:label="ink_ext_XXXXXX"
     transform="matrix(1.3333333,0,0,-1.3333333,-897.21815,617.43882)"><path
       d="M 1150.8021,351.92113 H 936.61108 v 29.32 h 214.19102 v -29.32"
       style="fill:#ececec;fill-opacity:1;fill-rule:nonzero;stroke:none;stroke-width:0.1"
       id="path328" /><path
       d="M 1161.6521,41.490126 H 930.64708 c -12.207,0 -22.103,9.89492 -22.103,22.102 V 340.76913 c 0,12.207 9.896,22.102 22.103,22.102 h 231.00502 c 12.21,0 22.11,-9.895 22.11,-22.102 V 63.592126 c 0,-12.20708 -9.9,-22.102 -22.11,-22.102"
       style="fill:#e6e6e6;fill-opacity:1;fill-rule:nonzero;stroke:none;stroke-width:0.1"
       id="path330" /><path
       d="M 1158.1221,463.07913 H 929.29408 c -5.289,0 -9.576,-4.287 -9.576,-9.576 v -70.483 c 0,-5.289 4.287,-9.576 9.576,-9.576 h 228.82802 c 5.29,0 9.58,4.287 9.58,9.576 v 70.483 c 0,5.289 -4.29,9.576 -9.58,9.576"
       style="fill:#ececec;fill-opacity:1;fill-rule:nonzero;stroke:none;stroke-width:0.1"
       id="path332" /><path
       d="m 927.79308,378.36113 v 0 c -1.865,0 -3.377,1.512 -3.377,3.377 v 73.047 c 0,1.865 1.512,3.377 3.377,3.377 v 0 c 1.866,0 3.378,-1.512 3.378,-3.377 v -73.047 c 0,-1.865 -1.512,-3.377 -3.378,-3.377"
       style="fill:#ececec;fill-opacity:1;fill-rule:nonzero;stroke:none;stroke-width:0.1"
       id="path334" /><path
       d="m 939.99508,378.36113 v 0 c -1.865,0 -3.377,1.512 -3.377,3.377 v 73.047 c 0,1.865 1.512,3.377 3.377,3.377 v 0 c 1.865,0 3.377,-1.512 3.377,-3.377 v -73.047 c 0,-1.865 -1.512,-3.377 -3.377,-3.377"
       style="fill:#ececec;fill-opacity:1;fill-rule:nonzero;stroke:none;stroke-width:0.1"
       id="path336" /><path
       d="m 952.19608,378.36113 v 0 c -1.865,0 -3.377,1.512 -3.377,3.377 v 73.047 c 0,1.865 1.512,3.377 3.377,3.377 v 0 c 1.865,0 3.377,-1.512 3.377,-3.377 v -73.047 c 0,-1.865 -1.512,-3.377 -3.377,-3.377"
       style="fill:#ececec;fill-opacity:1;fill-rule:nonzero;stroke:none;stroke-width:0.1"
       id="path338" /><path
       d="m 964.39808,378.36113 v 0 c -1.865,0 -3.377,1.512 -3.377,3.377 v 73.047 c 0,1.865 1.512,3.377 3.377,3.377 v 0 c 1.865,0 3.377,-1.512 3.377,-3.377 v -73.047 c 0,-1.865 -1.512,-3.377 -3.377,-3.377"
       style="fill:#ececec;fill-opacity:1;fill-rule:nonzero;stroke:none;stroke-width:0.1"
       id="path340" /><path
       d="m 976.59908,378.36113 v 0 c -1.865,0 -3.377,1.512 -3.377,3.377 v 73.047 c 0,1.865 1.512,3.377 3.377,3.377 v 0 c 1.865,0 3.377,-1.512 3.377,-3.377 v -73.047 c 0,-1.865 -1.512,-3.377 -3.377,-3.377"
       style="fill:#ececec;fill-opacity:1;fill-rule:nonzero;stroke:none;stroke-width:0.1"
       id="path342" /><path
       d="m 988.80108,378.36113 v 0 c -1.865,0 -3.377,1.512 -3.377,3.377 v 73.047 c 0,1.865 1.512,3.377 3.377,3.377 v 0 c 1.865,0 3.377,-1.512 3.377,-3.377 v -73.047 c 0,-1.865 -1.512,-3.377 -3.377,-3.377"
       style="fill:#ececec;fill-opacity:1;fill-rule:nonzero;stroke:none;stroke-width:0.1"
       id="path344" /><path
       d="m 1001.0021,378.36113 v 0 c -1.86502,0 -3.37702,1.512 -3.37702,3.377 v 73.047 c 0,1.865 1.512,3.377 3.37702,3.377 v 0 c 1.865,0 3.377,-1.512 3.377,-3.377 v -73.047 c 0,-1.865 -1.512,-3.377 -3.377,-3.377"
       style="fill:#ececec;fill-opacity:1;fill-rule:nonzero;stroke:none;stroke-width:0.1"
       id="path346" /><path
       d="m 1013.2021,378.36113 v 0 c -1.86,0 -3.38,1.512 -3.38,3.377 v 73.047 c 0,1.865 1.52,3.377 3.38,3.377 v 0 c 1.87,0 3.38,-1.512 3.38,-3.377 v -73.047 c 0,-1.865 -1.51,-3.377 -3.38,-3.377"
       style="fill:#ececec;fill-opacity:1;fill-rule:nonzero;stroke:none;stroke-width:0.1"
       id="path348" /><path
       d="m 1025.4021,378.36113 v 0 c -1.86,0 -3.37,1.512 -3.37,3.377 v 73.047 c 0,1.865 1.51,3.377 3.37,3.377 v 0 c 1.87,0 3.38,-1.512 3.38,-3.377 v -73.047 c 0,-1.865 -1.51,-3.377 -3.38,-3.377"
       style="fill:#ececec;fill-opacity:1;fill-rule:nonzero;stroke:none;stroke-width:0.1"
       id="path350" /><path
       d="m 1037.6021,378.36113 v 0 c -1.86,0 -3.37,1.512 -3.37,3.377 v 73.047 c 0,1.865 1.51,3.377 3.37,3.377 v 0 c 1.87,0 3.38,-1.512 3.38,-3.377 v -73.047 c 0,-1.865 -1.51,-3.377 -3.38,-3.377"
       style="fill:#ececec;fill-opacity:1;fill-rule:nonzero;stroke:none;stroke-width:0.1"
       id="path352" /><path
       d="m 1049.8121,378.36113 v 0 c -1.87,0 -3.38,1.512 -3.38,3.377 v 73.047 c 0,1.865 1.51,3.377 3.38,3.377 v 0 c 1.86,0 3.37,-1.512 3.37,-3.377 v -73.047 c 0,-1.865 -1.51,-3.377 -3.37,-3.377"
       style="fill:#ececec;fill-opacity:1;fill-rule:nonzero;stroke:none;stroke-width:0.1"
       id="path354" /><path
       d="m 1062.0121,378.36113 v 0 c -1.87,0 -3.38,1.512 -3.38,3.377 v 73.047 c 0,1.865 1.51,3.377 3.38,3.377 v 0 c 1.86,0 3.37,-1.512 3.37,-3.377 v -73.047 c 0,-1.865 -1.51,-3.377 -3.37,-3.377"
       style="fill:#ececec;fill-opacity:1;fill-rule:nonzero;stroke:none;stroke-width:0.1"
       id="path356" /><path
       d="m 1074.2121,378.36113 v 0 c -1.87,0 -3.38,1.512 -3.38,3.377 v 73.047 c 0,1.865 1.51,3.377 3.38,3.377 v 0 c 1.86,0 3.38,-1.512 3.38,-3.377 v -73.047 c 0,-1.865 -1.52,-3.377 -3.38,-3.377"
       style="fill:#ececec;fill-opacity:1;fill-rule:nonzero;stroke:none;stroke-width:0.1"
       id="path358" /><path
       d="m 1086.4121,378.36113 v 0 c -1.86,0 -3.38,1.512 -3.38,3.377 v 73.047 c 0,1.865 1.52,3.377 3.38,3.377 v 0 c 1.87,0 3.38,-1.512 3.38,-3.377 v -73.047 c 0,-1.865 -1.51,-3.377 -3.38,-3.377"
       style="fill:#ececec;fill-opacity:1;fill-rule:nonzero;stroke:none;stroke-width:0.1"
       id="path360" /><path
       d="m 1098.6121,378.36113 v 0 c -1.86,0 -3.38,1.512 -3.38,3.377 v 73.047 c 0,1.865 1.52,3.377 3.38,3.377 v 0 c 1.87,0 3.38,-1.512 3.38,-3.377 v -73.047 c 0,-1.865 -1.51,-3.377 -3.38,-3.377"
       style="fill:#ececec;fill-opacity:1;fill-rule:nonzero;stroke:none;stroke-width:0.1"
       id="path362" /><path
       d="m 1110.8121,378.36113 v 0 c -1.86,0 -3.37,1.512 -3.37,3.377 v 73.047 c 0,1.865 1.51,3.377 3.37,3.377 v 0 c 1.87,0 3.38,-1.512 3.38,-3.377 v -73.047 c 0,-1.865 -1.51,-3.377 -3.38,-3.377"
       style="fill:#ececec;fill-opacity:1;fill-rule:nonzero;stroke:none;stroke-width:0.1"
       id="path364" /><path
       d="m 1123.0121,378.36113 v 0 c -1.86,0 -3.37,1.512 -3.37,3.377 v 73.047 c 0,1.865 1.51,3.377 3.37,3.377 v 0 c 1.87,0 3.38,-1.512 3.38,-3.377 v -73.047 c 0,-1.865 -1.51,-3.377 -3.38,-3.377"
       style="fill:#ececec;fill-opacity:1;fill-rule:nonzero;stroke:none;stroke-width:0.1"
       id="path366" /><path
       d="m 1135.2221,378.36113 v 0 c -1.87,0 -3.38,1.512 -3.38,3.377 v 73.047 c 0,1.865 1.51,3.377 3.38,3.377 v 0 c 1.86,0 3.37,-1.512 3.37,-3.377 v -73.047 c 0,-1.865 -1.51,-3.377 -3.37,-3.377"
       style="fill:#ececec;fill-opacity:1;fill-rule:nonzero;stroke:none;stroke-width:0.1"
       id="path368" /><path
       d="m 1147.4221,378.36113 v 0 c -1.87,0 -3.38,1.512 -3.38,3.377 v 73.047 c 0,1.865 1.51,3.377 3.38,3.377 v 0 c 1.86,0 3.38,-1.512 3.38,-3.377 v -73.047 c 0,-1.865 -1.52,-3.377 -3.38,-3.377"
       style="fill:#ececec;fill-opacity:1;fill-rule:nonzero;stroke:none;stroke-width:0.1"
       id="path370" /><path
       d="m 1159.6221,378.36113 v 0 c -1.87,0 -3.38,1.512 -3.38,3.377 v 73.047 c 0,1.865 1.51,3.377 3.38,3.377 v 0 c 1.86,0 3.38,-1.512 3.38,-3.377 v -73.047 c 0,-1.865 -1.52,-3.377 -3.38,-3.377"
       style="fill:#ececec;fill-opacity:1;fill-rule:nonzero;stroke:none;stroke-width:0.1"
       id="path372" /><path
       d="M 1157.8721,79.841326 H 934.43108 c -5.525,0 -10.005,4.4797 -10.005,10.0058 V 303.13613 c 0,5.526 4.48,10.005 10.005,10.005 h 223.44102 c 5.52,0 10,-4.479 10,-10.005 V 89.847126 c 0,-5.5261 -4.48,-10.0058 -10,-10.0058"
       style="fill:#ffffff;fill-opacity:1;fill-rule:nonzero;stroke:none;stroke-width:0.1"
       id="path374" /><text
       xml:space="preserve"
       style="font-size:40px;line-height:1.25;font-family:Menlo;-inkscape-font-specification:Menlo;stroke-width:0.75"
       x="925.62823"
       y="-267.83148"
       id="text647"
       transform="scale(1,-1)"><tspan
         sodipodi:role="line"
         id="tspan645"
         x="925.62823"
         y="-267.83148"
         style="font-size:40px;stroke-width:0.75">Frequentol</tspan></text><text
       xml:space="preserve"
       style="font-size:30px;line-height:1.25;font-family:Menlo;-inkscape-font-specification:Menlo;stroke-width:0.75"
       x="932.95001"
       y="-226.34135"
       id="text651"
       transform="scale(1,-1)"><tspan
         sodipodi:role="line"
         id="tspan649"
         x="932.95001"
         y="-226.34135"
         style="stroke-width:0.75">95% Coverage,</tspan><tspan
         sodipodi:role="line"
         x="932.95001"
         y="-188.84135"
         style="stroke-width:0.75"
         id="tspan653">Guaranteed!<tspan
   style="font-size:65%;baseline-shift:super;fill:#ff0000"
   id="tspan659">*</tspan></tspan></text><text
       xml:space="preserve"
       style="font-size:10px;line-height:1.25;font-family:Menlo;-inkscape-font-specification:Menlo;stroke-width:0.75"
       x="939.05151"
       y="-106.75218"
       id="text667"
       transform="scale(1,-1)"><tspan
         sodipodi:role="line"
         id="tspan665"
         x="939.05151"
         y="-106.75218"
         style="font-size:10px;fill:#ff0000;stroke-width:0.75"><tspan
   style="font-size:65%;baseline-shift:super;fill:#ff0000"
   id="tspan671">*</tspan>guarantee void in Tennesee, Alaska,</tspan><tspan
         sodipodi:role="line"
         x="939.05151"
         y="-94.252182"
         style="font-size:10px;fill:#ff0000;stroke-width:0.75"
         id="tspan669">and Finite Samples</tspan></text><rect
       style="fill:none;fill-opacity:0.945098;stroke:#020000;stroke-width:5.14652;stroke-miterlimit:4;stroke-dasharray:none;stroke-opacity:1"
       id="rect697"
       width="236.65067"
       height="85.33374"
       x="926.89203"
       y="-146.97842"
       transform="scale(1,-1)" /><rect
       style="fill:#ffffff;fill-opacity:0.945098;stroke:#020000;stroke-width:15.542;stroke-miterlimit:4;stroke-dasharray:none;stroke-opacity:1"
       id="rect697-2"
       width="921.46796"
       height="199.86717"
       x="680.68463"
       y="105.10034"
       transform="scale(1,-1)" /><text
       xml:space="preserve"
       style="font-size:40px;line-height:1.25;font-family:Menlo;-inkscape-font-specification:Menlo;stroke-width:0.75"
       x="719.40729"
       y="181.52757"
       id="text667-1"
       transform="scale(1,-1)"><tspan
         sodipodi:role="line"
         id="tspan665-1"
         x="719.40729"
         y="181.52757"
         style="font-size:40px;fill:#ff0000;stroke-width:0.75"><tspan
   style="font-size:40px;baseline-shift:super;fill:#ff0000;stroke-width:0.75"
   id="tspan671-8">*</tspan>guarantee void in Tennesee, Alaska,</tspan><tspan
         sodipodi:role="line"
         x="719.40729"
         y="231.52757"
         style="font-size:40px;fill:#ff0000;stroke-width:0.75"
         id="tspan669-1">and Finite Samples</tspan></text><path
       style="fill:none;stroke:#000000;stroke-width:11.25;stroke-linecap:butt;stroke-linejoin:miter;stroke-miterlimit:4;stroke-dasharray:none;stroke-opacity:1"
       d="M 1039.116,60.380847 680.68464,-105.10034 Z"
       id="path1592" /><path
       style="fill:none;stroke:#000000;stroke-width:11.25;stroke-linecap:butt;stroke-linejoin:miter;stroke-miterlimit:4;stroke-dasharray:none;stroke-opacity:1"
       d="M 1039.116,60.380847 1602.1526,-105.10034 Z"
       id="path1594" /></g></svg>
