<?xml version="1.0" encoding="UTF-8" standalone="no"?>
<svg
   xmlns:dc="http://purl.org/dc/elements/1.1/"
   xmlns:cc="http://creativecommons.org/ns#"
   xmlns:rdf="http://www.w3.org/1999/02/22-rdf-syntax-ns#"
   xmlns:svg="http://www.w3.org/2000/svg"
   xmlns="http://www.w3.org/2000/svg"
   xmlns:sodipodi="http://sodipodi.sourceforge.net/DTD/sodipodi-0.dtd"
   xmlns:inkscape="http://www.inkscape.org/namespaces/inkscape"
   version="1.1"
   id="svg226"
   xml:space="preserve"
   width="346.64774"
   height="241.73851"
   viewBox="0 0 346.64774 241.73851"
   sodipodi:docname="robot1_yo.svg"
   inkscape:version="1.0.1 (c497b03c, 2020-09-10)"><metadata
     id="metadata232"><rdf:RDF><cc:Work
         rdf:about=""><dc:format>image/svg+xml</dc:format><dc:type
           rdf:resource="http://purl.org/dc/dcmitype/StillImage" /><dc:title></dc:title></cc:Work></rdf:RDF></metadata><defs
     id="defs230"><clipPath
       clipPathUnits="userSpaceOnUse"
       id="clipPath716"><path
         d="m 2941.42,1473.47 c -7.96,2.69 1.2,-1.23 7,-6.71 16.63,-15.73 27.79,-37.46 37.91,-59.61 55.88,-122.37 53.78,-275.22 52.43,-406.26 -0.43,-41.929 64.57,-41.902 65,0 1.51,147.15 -1.53,308.17 -63.87,444.67 -15.88,34.77 -42.62,77.52 -81.19,90.58 -39.81,13.5 -56.76,-49.29 -17.28,-62.67 z"
         id="path714" /></clipPath><clipPath
       clipPathUnits="userSpaceOnUse"
       id="clipPath740"><path
         d="m 2269.61,1473.47 c 7.96,2.69 -1.2,-1.23 -7,-6.71 -16.63,-15.73 -27.8,-37.46 -37.91,-59.61 -55.88,-122.37 -53.78,-275.22 -52.43,-406.26 0.43,-41.929 -64.57,-41.902 -65,0 -1.52,147.15 1.53,308.17 63.86,444.67 15.88,34.77 42.63,77.52 81.19,90.58 39.82,13.5 56.76,-49.29 17.29,-62.67 z"
         id="path738" /></clipPath></defs><sodipodi:namedview
     pagecolor="#ffffff"
     bordercolor="#666666"
     borderopacity="1"
     objecttolerance="10"
     gridtolerance="10"
     guidetolerance="10"
     inkscape:pageopacity="0"
     inkscape:pageshadow="2"
     inkscape:window-width="1210"
     inkscape:window-height="797"
     id="namedview228"
     showgrid="false"
     inkscape:zoom="0.89699997"
     inkscape:cx="304.69509"
     inkscape:cy="274.76561"
     inkscape:window-x="107"
     inkscape:window-y="31"
     inkscape:window-maximized="0"
     inkscape:current-layer="g234"
     inkscape:document-rotation="0"
     fit-margin-top="0"
     fit-margin-left="0"
     fit-margin-right="0"
     fit-margin-bottom="0"
     inkscape:pagecheckerboard="true" /><g
     id="g234"
     inkscape:groupmode="layer"
     inkscape:label="ink_ext_XXXXXX"
     transform="matrix(1.3333333,0,0,-1.3333333,-107.79099,618.13238)"><path
       d="m 235.77398,364.91641 c -3.58338,-0.584 -6.69538,-3.141 -8.95846,-5.411 -8.82039,-8.846 -9.94222,-22.44 -10.02096,-33.483 -0.0151,-1.962 -3.55534,-1.963 -3.54132,0 0.0841,11.715 1.51663,25.185 10.25827,34.775 2.72044,2.986 6.7709,6.312 11.32186,7.053 2.23071,0.363 3.18319,-2.568 0.94061,-2.934 v 0"
       style="fill:#e5ac1c;fill-opacity:1;fill-rule:nonzero;stroke:none;stroke-width:0.10386"
       id="path380" /><path
       d="m 235.84086,370.52641 v -13.532 c -4.03104,0 -7.29729,3.03 -7.29729,6.766 0,3.736 3.26625,6.766 7.29729,6.766"
       style="fill:#55bf9b;fill-opacity:1;fill-rule:nonzero;stroke:none;stroke-width:0.10386"
       id="path382" /><path
       d="m 206.22454,317.76841 h 3.5877 v 5.967 h 10.19571 v -5.967 h 3.5877 v 9.293 h -17.37111 v -9.293"
       style="fill:#55bf9b;fill-opacity:1;fill-rule:nonzero;stroke:none;stroke-width:0.10386"
       id="path384" /><path
       d="m 216.83231,344.25341 c 2.01498,-0.722 4.27913,0.205 5.0601,2.073 0.77881,1.869 -0.22113,3.967 -2.23719,4.691 -2.0139,0.723 -4.27805,-0.205 -5.05794,-2.073 -0.78097,-1.868 0.22005,-3.967 2.23503,-4.691"
       style="fill:#55bf9b;fill-opacity:1;fill-rule:nonzero;stroke:none;stroke-width:0.10386"
       id="path386" /><path
       d="m 311.2807,364.91641 c 3.5823,-0.584 6.69538,-3.141 8.95738,-5.411 8.82039,-8.846 9.94222,-22.44 10.02204,-33.483 0.014,-1.962 3.55426,-1.963 3.54132,0 -0.0841,11.715 -1.51771,25.185 -10.25828,34.775 -2.72151,2.986 -6.77089,6.312 -11.32185,7.053 -2.2318,0.363 -3.18319,-2.568 -0.94061,-2.934 v 0"
       style="fill:#e5ac1c;fill-opacity:1;fill-rule:nonzero;stroke:none;stroke-width:0.10386"
       id="path388" /><path
       d="m 311.21274,370.52641 v -13.532 c 4.03212,0 7.29837,3.03 7.29837,6.766 0,3.736 -3.26625,6.766 -7.29837,6.766"
       style="fill:#55bf9b;fill-opacity:1;fill-rule:nonzero;stroke:none;stroke-width:0.10386"
       id="path390" /><path
       d="m 340.82906,317.76841 h -3.5877 v 5.967 h -10.19463 v -5.967 h -3.5877 v 9.293 h 17.37003 v -9.293"
       style="fill:#55bf9b;fill-opacity:1;fill-rule:nonzero;stroke:none;stroke-width:0.10386"
       id="path392" /><path
       d="m 330.22129,344.25341 c -2.01498,-0.722 -4.27806,0.205 -5.05902,2.073 -0.77989,1.869 0.22113,3.967 2.23611,4.691 2.0139,0.723 4.27913,-0.205 5.05902,-2.073 0.77989,-1.868 -0.22005,-3.967 -2.23611,-4.691"
       style="fill:#55bf9b;fill-opacity:1;fill-rule:nonzero;stroke:none;stroke-width:0.10386"
       id="path394" /><path
       d="m 261.69473,283.78241 h -5.02882 v 36.11 h 5.02882 v -36.11"
       style="fill:#e5ac1c;fill-opacity:1;fill-rule:nonzero;stroke:none;stroke-width:0.10386"
       id="path396" /><path
       d="m 259.18032,293.70541 c -6.79894,0 -12.30777,-5.109 -12.30777,-11.41 h 24.61554 c 0,6.301 -5.51099,11.41 -12.30777,11.41"
       style="fill:#55bf9b;fill-opacity:1;fill-rule:nonzero;stroke:none;stroke-width:0.10386"
       id="path398" /><path
       d="m 290.21186,283.78241 h -5.02989 v 36.11 h 5.02989 v -36.11"
       style="fill:#e5ac1c;fill-opacity:1;fill-rule:nonzero;stroke:none;stroke-width:0.10386"
       id="path400" /><path
       d="m 287.69746,293.70541 c -6.79786,0 -12.30778,-5.109 -12.30778,-11.41 h 24.61447 c 0,6.301 -5.50991,11.41 -12.30669,11.41"
       style="fill:#55bf9b;fill-opacity:1;fill-rule:nonzero;stroke:none;stroke-width:0.10386"
       id="path402" /><path
       d="m 281.46914,371.61341 h -16.06159 v 12.839 h 16.06159 v -12.839"
       style="fill:#e5ac1c;fill-opacity:1;fill-rule:nonzero;stroke:none;stroke-width:0.10386"
       id="path404" /><path
       d="m 237.03496,410.70941 h -2.74093 v 27.105 h 2.74093 v -27.105"
       style="fill:#b2b2b2;fill-opacity:1;fill-rule:nonzero;stroke:none;stroke-width:0.10386"
       id="path406" /><path
       d="m 241.83186,437.81441 c 0,-3.157 -2.76143,-5.717 -6.16683,-5.717 -3.40648,0 -6.16791,2.56 -6.16791,5.717 0,3.158 2.76143,5.718 6.16791,5.718 3.4054,0 6.16683,-2.56 6.16683,-5.718"
       style="fill:#55bf9b;fill-opacity:1;fill-rule:nonzero;stroke:none;stroke-width:0.10386"
       id="path408" /><path
       d="m 239.46092,419.79041 c -6.57565,0 -11.90542,-4.942 -11.90542,-11.038 0,-6.096 5.32977,-11.038 11.90542,-11.038 v 22.076"
       style="fill:#e5ac1c;fill-opacity:1;fill-rule:nonzero;stroke:none;stroke-width:0.10386"
       id="path410" /><path
       d="m 309.84281,410.70941 h 2.74094 v 27.105 h -2.74094 v -27.105"
       style="fill:#b2b2b2;fill-opacity:1;fill-rule:nonzero;stroke:none;stroke-width:0.10386"
       id="path412" /><path
       d="m 305.04591,437.81441 c 0,-3.157 2.76035,-5.717 6.16575,-5.717 3.40756,0 6.16791,2.56 6.16791,5.717 0,3.158 -2.76035,5.718 -6.16791,5.718 -3.4054,0 -6.16575,-2.56 -6.16575,-5.718"
       style="fill:#55bf9b;fill-opacity:1;fill-rule:nonzero;stroke:none;stroke-width:0.10386"
       id="path414" /><path
       d="m 307.41686,419.79041 c 6.57457,0 11.90542,-4.942 11.90542,-11.038 0,-6.096 -5.33085,-11.038 -11.90542,-11.038 v 22.076"
       style="fill:#e5ac1c;fill-opacity:1;fill-rule:nonzero;stroke:none;stroke-width:0.10386"
       id="path416" /><path
       d="m 307.40283,396.31241 c 0,-6.841 -6.03846,-12.439 -13.41665,-12.439 h -41.0935 c -7.38251,0 -13.41882,5.598 -13.41882,12.439 v 24.88 c 0,6.842 6.03631,12.439 13.41882,12.439 h 41.0935 c 7.37819,0 13.41665,-5.597 13.41665,-12.439 v -24.88"
       style="fill:#f9cc4f;fill-opacity:1;fill-rule:nonzero;stroke:none;stroke-width:0.10386"
       id="path418" /><path
       d="m 266.0882,408.75241 c 0,-5.235 -4.57793,-9.478 -10.22483,-9.478 -5.64798,0 -10.22591,4.243 -10.22591,9.478 0,5.235 4.57793,9.479 10.22591,9.479 5.6469,0 10.22483,-4.244 10.22483,-9.479"
       style="fill:#e5ac1c;fill-opacity:1;fill-rule:nonzero;stroke:none;stroke-width:0.10386"
       id="path420" /><path
       d="m 262.95139,408.75241 c 0,-3.63 -3.17456,-6.571 -7.08802,-6.571 -3.91562,0 -7.0891,2.941 -7.0891,6.571 0,3.629 3.17348,6.571 7.0891,6.571 3.91346,0 7.08802,-2.942 7.08802,-6.571"
       style="fill:#ffffff;fill-opacity:1;fill-rule:nonzero;stroke:none;stroke-width:0.10386"
       id="path422" /><path
       d="m 257.92257,408.75241 c 0,-1.054 -0.92227,-1.91 -2.0592,-1.91 -1.13801,0 -2.05921,0.856 -2.05921,1.91 0,1.055 0.9212,1.91 2.05921,1.91 1.13693,0 2.0592,-0.855 2.0592,-1.91"
       style="fill:#2b2a28;fill-opacity:1;fill-rule:nonzero;stroke:none;stroke-width:0.10386"
       id="path424" /><path
       d="m 301.23924,408.75241 c 0,-5.235 -4.57793,-9.478 -10.22376,-9.478 -5.64798,0 -10.22591,4.243 -10.22591,9.478 0,5.235 4.57793,9.479 10.22591,9.479 5.64583,0 10.22376,-4.244 10.22376,-9.479"
       style="fill:#e5ac1c;fill-opacity:1;fill-rule:nonzero;stroke:none;stroke-width:0.10386"
       id="path426" /><path
       d="m 298.10243,408.75241 c 0,-3.63 -3.17349,-6.571 -7.08695,-6.571 -3.91562,0 -7.0891,2.941 -7.0891,6.571 0,3.629 3.17348,6.571 7.0891,6.571 3.91346,0 7.08695,-2.942 7.08695,-6.571"
       style="fill:#ffffff;fill-opacity:1;fill-rule:nonzero;stroke:none;stroke-width:0.10386"
       id="path428" /><path
       d="m 293.07469,408.75241 c 0,-1.054 -0.92227,-1.91 -2.05921,-1.91 -1.13801,0 -2.06028,0.856 -2.06028,1.91 0,1.055 0.92227,1.91 2.06028,1.91 1.13694,0 2.05921,-0.855 2.05921,-1.91"
       style="fill:#2b2a28;fill-opacity:1;fill-rule:nonzero;stroke:none;stroke-width:0.10386"
       id="path430" /><path
       d="m 253.80416,393.74641 c 13.08874,0 26.17963,0 39.26945,0 1.73992,0 1.73992,2.5 0,2.5 -13.08982,0 -26.18071,0 -39.26945,0 -1.73991,0 -1.73991,-2.5 0,-2.5 v 0"
       style="fill:#ffffff;fill-opacity:1;fill-rule:nonzero;stroke:none;stroke-width:0.10386"
       id="path432" /><path
       d="m 282.46369,376.96941 c -4.9641,0 -13.08658,0 -18.0496,0 h -19.72588 c -4.96301,0 -9.02426,-3.15 -9.02426,-7 v -27.354 c 0,-3.851 2.39792,-9.543 5.32762,-12.651 l 8.57661,-9.098 c 2.9297,-3.108 9.38777,-5.651 14.35187,-5.651 h 0.49404 c 4.96302,0 13.0855,0 18.0496,0 h 0.49619 c 4.96194,0 11.42109,2.543 14.3508,5.651 l 8.57552,9.098 c 2.92971,3.108 5.32654,8.8 5.32654,12.651 v 27.354 c 0,3.85 -4.06124,7 -9.02426,7 h -19.72479"
       style="fill:#f9cc4f;fill-opacity:1;fill-rule:nonzero;stroke:none;stroke-width:0.10386"
       id="path434" /><path
       d="m 251.32751,366.39841 c 0,-1.456 -1.27393,-2.638 -2.84449,-2.638 -1.57056,0 -2.84556,1.182 -2.84556,2.638 0,1.456 1.275,2.636 2.84556,2.636 1.57056,0 2.84449,-1.18 2.84449,-2.636"
       style="fill:#e5ac1c;fill-opacity:1;fill-rule:nonzero;stroke:none;stroke-width:0.10386"
       id="path436" /><path
       d="m 261.32366,366.39841 c 0,-1.456 -1.27284,-2.638 -2.84449,-2.638 -1.57056,0 -2.84448,1.182 -2.84448,2.638 0,1.456 1.27392,2.636 2.84448,2.636 1.57165,0 2.84449,-1.18 2.84449,-2.636"
       style="fill:#e5ac1c;fill-opacity:1;fill-rule:nonzero;stroke:none;stroke-width:0.10386"
       id="path438" /><path
       d="m 271.32089,366.39841 c 0,-1.456 -1.27392,-2.638 -2.84556,-2.638 -1.57164,0 -2.84449,1.182 -2.84449,2.638 0,1.456 1.27285,2.636 2.84449,2.636 1.57164,0 2.84556,-1.18 2.84556,-2.636"
       style="fill:#e5ac1c;fill-opacity:1;fill-rule:nonzero;stroke:none;stroke-width:0.10386"
       id="path440" /><path
       d="m 281.31705,366.39841 c 0,-1.456 -1.27393,-2.638 -2.84341,-2.638 -1.57272,0 -2.84557,1.182 -2.84557,2.638 0,1.456 1.27285,2.636 2.84557,2.636 1.56948,0 2.84341,-1.18 2.84341,-2.636"
       style="fill:#e5ac1c;fill-opacity:1;fill-rule:nonzero;stroke:none;stroke-width:0.10386"
       id="path442" /><path
       d="m 291.3132,366.39841 c 0,-1.456 -1.275,-2.638 -2.84557,-2.638 -1.57056,0 -2.8434,1.182 -2.8434,2.638 0,1.456 1.27284,2.636 2.8434,2.636 1.57057,0 2.84557,-1.18 2.84557,-2.636"
       style="fill:#e5ac1c;fill-opacity:1;fill-rule:nonzero;stroke:none;stroke-width:0.10386"
       id="path444" /><path
       d="m 301.31043,366.39841 c 0,-1.456 -1.27392,-2.638 -2.84448,-2.638 -1.57272,0 -2.84557,1.182 -2.84557,2.638 0,1.456 1.27285,2.636 2.84557,2.636 1.57056,0 2.84448,-1.18 2.84448,-2.636"
       style="fill:#e5ac1c;fill-opacity:1;fill-rule:nonzero;stroke:none;stroke-width:0.10386"
       id="path446" /><path
       d="m 301.23924,339.64641 c 0,-4.401 -3.88218,-8 -8.62946,-8 h -38.34286 c -4.74513,0 -8.62946,3.599 -8.62946,8 v 10.565 c 0,4.4 3.88433,8 8.62946,8 h 38.34286 c 4.74728,0 8.62946,-3.6 8.62946,-8 v -10.565"
       style="fill:#ffdc85;fill-opacity:1;fill-rule:nonzero;stroke:none;stroke-width:0.10386"
       id="path448" /><path
       d="m 285.83888,352.88641 h -34.29671 v 2.085 h 34.29671 v -2.085"
       style="fill:#f9cc4f;fill-opacity:1;fill-rule:nonzero;stroke:none;stroke-width:0.10386"
       id="path450" /><path
       d="m 285.83888,340.88641 h -34.29671 v 2.085 h 34.29671 v -2.085"
       style="fill:#f9cc4f;fill-opacity:1;fill-rule:nonzero;stroke:none;stroke-width:0.10386"
       id="path452" /><path
       d="m 285.83888,346.88641 h -34.29671 v 2.085 h 34.29671 v -2.085"
       style="fill:#f9cc4f;fill-opacity:1;fill-rule:nonzero;stroke:none;stroke-width:0.10386"
       id="path454" /><path
       d="m 285.83888,334.88641 h -34.29671 v 2.085 h 34.29671 v -2.085"
       style="fill:#f9cc4f;fill-opacity:1;fill-rule:nonzero;stroke:none;stroke-width:0.10386"
       id="path456" /><path
       d="m 295.33561,349.55741 h -5.57356 v 5.414 h 5.57356 v -5.414"
       style="fill:#f9cc4f;fill-opacity:1;fill-rule:nonzero;stroke:none;stroke-width:0.10386"
       id="path458" /><path
       d="m 295.33561,342.22141 h -5.57356 v 5.414 h 5.57356 v -5.414"
       style="fill:#f9cc4f;fill-opacity:1;fill-rule:nonzero;stroke:none;stroke-width:0.10386"
       id="path460" /><path
       d="m 295.33561,334.88641 h -5.57356 v 5.414 h 5.57356 v -5.414"
       style="fill:#f9cc4f;fill-opacity:1;fill-rule:nonzero;stroke:none;stroke-width:0.10386"
       id="path462" /><ellipse
       style="fill:#ffffff;stroke-width:0.75"
       id="path249"
       cx="143.97034"
       cy="-418.44879"
       rx="63.127094"
       ry="45.150505"
       transform="scale(1,-1)" /><path
       sodipodi:type="star"
       style="fill:#ffffff;stroke-width:7.5"
       id="path240"
       sodipodi:sides="3"
       sodipodi:cx="2507.8386"
       sodipodi:cy="-3758.4658"
       sodipodi:r1="549.87238"
       sodipodi:r2="256.23764"
       sodipodi:arg1="1.7234457"
       sodipodi:arg2="2.7182667"
       inkscape:flatsided="false"
       inkscape:rounded="0"
       inkscape:randomized="0"
       transform="matrix(-0.04245513,-0.01164496,-0.01663697,0.04067444,247.93513,579.62979)"
       inkscape:transform-center-x="-12.917449"
       inkscape:transform-center-y="-70.535743"
       d="m 2424.2266,-3214.9875 -150.0069,-438.2172 -195.241,-449.4104 454.5106,89.1987 486.8214,55.6216 -304.5038,349.0183 z" /><text
       xml:space="preserve"
       style="font-style:normal;font-variant:normal;font-weight:normal;font-stretch:normal;font-size:30px;line-height:1.25;font-family:Silom;-inkscape-font-specification:Silom;fill:#00ff00;fill-opacity:1;stroke:none;stroke-width:0.75"
       x="115.54225"
       y="-406.7431"
       id="text352"
       transform="scale(1,-1)"><tspan
         sodipodi:role="line"
         id="tspan350"
         x="115.54225"
         y="-406.7431"
         style="font-style:normal;font-variant:normal;font-weight:normal;font-stretch:normal;font-family:Silom;-inkscape-font-specification:Silom;fill:#ff0000;stroke-width:0.75">Yo</tspan></text></g></svg>
