<?xml version="1.0" encoding="UTF-8" standalone="no"?>
<svg
   xmlns:dc="http://purl.org/dc/elements/1.1/"
   xmlns:cc="http://creativecommons.org/ns#"
   xmlns:rdf="http://www.w3.org/1999/02/22-rdf-syntax-ns#"
   xmlns:svg="http://www.w3.org/2000/svg"
   xmlns="http://www.w3.org/2000/svg"
   xmlns:sodipodi="http://sodipodi.sourceforge.net/DTD/sodipodi-0.dtd"
   xmlns:inkscape="http://www.inkscape.org/namespaces/inkscape"
   version="1.1"
   id="svg10"
   xml:space="preserve"
   width="913.2052"
   height="572.89545"
   viewBox="0 0 913.20524 572.89544"
   sodipodi:docname="robot2_centered.svg"
   inkscape:version="1.0.1 (c497b03c, 2020-09-10)"><metadata
     id="metadata16"><rdf:RDF><cc:Work
         rdf:about=""><dc:format>image/svg+xml</dc:format><dc:type
           rdf:resource="http://purl.org/dc/dcmitype/StillImage" /><dc:title></dc:title></cc:Work></rdf:RDF></metadata><defs
     id="defs14"><rect
       x="5421.7183"
       y="6346.4507"
       width="83.612045"
       height="351.17059"
       id="rect680" /><rect
       x="23.411373"
       y="450.66891"
       width="154.68228"
       height="202.34116"
       id="rect642" /><rect
       x="397.1572"
       y="459.03012"
       width="287.62543"
       height="31.772577"
       id="rect636" /><clipPath
       clipPathUnits="userSpaceOnUse"
       id="clipPath500"><path
         d="m 2941.42,1473.47 c -7.96,2.69 1.2,-1.23 7,-6.71 16.63,-15.73 27.79,-37.46 37.91,-59.61 55.88,-122.37 53.78,-275.22 52.43,-406.26 -0.43,-41.929 64.57,-41.902 65,0 1.51,147.15 -1.53,308.17 -63.87,444.67 -15.88,34.77 -42.62,77.52 -81.19,90.58 -39.81,13.5 -56.76,-49.29 -17.28,-62.67 z"
         id="path498" /></clipPath><clipPath
       clipPathUnits="userSpaceOnUse"
       id="clipPath524"><path
         d="m 2269.61,1473.47 c 7.96,2.69 -1.2,-1.23 -7,-6.71 -16.63,-15.73 -27.8,-37.46 -37.91,-59.61 -55.88,-122.37 -53.78,-275.22 -52.43,-406.26 0.43,-41.929 -64.57,-41.902 -65,0 -1.52,147.15 1.53,308.17 63.86,444.67 15.88,34.77 42.63,77.52 81.19,90.58 39.82,13.5 56.76,-49.29 17.29,-62.67 z"
         id="path522" /></clipPath><clipPath
       clipPathUnits="userSpaceOnUse"
       id="clipPath2934"><ellipse
         style="fill:#ffffff;stroke-width:28.4269"
         id="ellipse2936"
         cx="3459.2168"
         cy="-4356.9194"
         rx="4484.085"
         ry="4534.0566"
         clip-path="none"
         inkscape:transform-center-y="-2.229655"
         transform="scale(1,-1)" /></clipPath></defs><sodipodi:namedview
     pagecolor="#ffffff"
     bordercolor="#666666"
     borderopacity="1"
     objecttolerance="10"
     gridtolerance="10"
     guidetolerance="10"
     inkscape:pageopacity="0"
     inkscape:pageshadow="2"
     inkscape:window-width="1222"
     inkscape:window-height="796"
     id="namedview12"
     showgrid="false"
     inkscape:pagecheckerboard="true"
     fit-margin-top="0"
     fit-margin-left="0"
     fit-margin-right="0"
     fit-margin-bottom="0"
     inkscape:zoom="0.89699997"
     inkscape:cx="464.39522"
     inkscape:cy="269.66377"
     inkscape:window-x="9"
     inkscape:window-y="23"
     inkscape:window-maximized="0"
     inkscape:current-layer="g20"
     inkscape:document-rotation="0" /><g
     id="g18"
     inkscape:groupmode="layer"
     inkscape:label="ink_ext_XXXXXX"
     transform="matrix(1.3333333,0,0,-1.3333333,-102.49441,926.99277)"><g
       id="g20"
       transform="scale(0.1)"><path
         d="m 4429.47,3946.09 v -15.04 h 160.44 v 15.04 h -160.44"
         style="fill:#b2b2b2;fill-opacity:1;fill-rule:nonzero;stroke:none"
         id="path248" /><path
         d="m 4589.91,3972.42 c -18.69,0 -33.85,-15.14 -33.85,-33.84 0,-18.7 15.16,-33.84 33.85,-33.84 18.69,0 33.84,15.14 33.84,33.84 0,18.7 -15.15,33.84 -33.84,33.84"
         style="fill:#293237;fill-opacity:1;fill-rule:nonzero;stroke:none"
         id="path250" /><path
         d="m 4424.91,3844.22 c -35.9,0 -65,29.1 -65,65 v 58.72 c 0,35.9 29.1,65 65,65 v 0 c 35.9,0 65,-29.1 65,-65 v -58.72 c 0,-35.9 -29.1,-65 -65,-65 v 0"
         style="fill:#53aec4;fill-opacity:1;fill-rule:nonzero;stroke:none"
         id="path252" /><path
         d="m 3807.53,3946.09 v -15.04 h -160.44 v 15.04 h 160.44"
         style="fill:#b2b2b2;fill-opacity:1;fill-rule:nonzero;stroke:none"
         id="path254" /><path
         d="m 3647.09,3972.42 c 18.69,0 33.85,-15.14 33.85,-33.84 0,-18.7 -15.16,-33.84 -33.85,-33.84 -18.69,0 -33.84,15.14 -33.84,33.84 0,18.7 15.15,33.84 33.84,33.84"
         style="fill:#293237;fill-opacity:1;fill-rule:nonzero;stroke:none"
         id="path256" /><path
         d="m 3812.09,3844.22 c 35.9,0 65,29.1 65,65 v 58.72 c 0,35.9 -29.1,65 -65,65 v 0 c -35.9,0 -65,-29.1 -65,-65 v -58.72 c 0,-35.9 29.1,-65 65,-65 v 0"
         style="fill:#53aec4;fill-opacity:1;fill-rule:nonzero;stroke:none"
         id="path258" /><path
         d="m 4110.23,4204 h 15.04 v 160.44 h -15.04 V 4204"
         style="fill:#b2b2b2;fill-opacity:1;fill-rule:nonzero;stroke:none"
         id="path260" /><path
         d="m 4083.91,4364.44 c 0,-18.69 15.14,-33.83 33.83,-33.83 18.71,0 33.85,15.14 33.85,33.83 0,18.7 -15.14,33.85 -33.85,33.85 -18.69,0 -33.83,-15.15 -33.83,-33.85"
         style="fill:#293237;fill-opacity:1;fill-rule:nonzero;stroke:none"
         id="path262" /><path
         d="m 4212.11,4199.44 c 0,-35.89 -29.1,-65 -65,-65 h -58.72 c -35.9,0 -65,29.11 -65,65 v 0 c 0,35.9 29.1,65 65,65 h 58.72 c 35.9,0 65,-29.1 65,-65 v 0"
         style="fill:#53aec4;fill-opacity:1;fill-rule:nonzero;stroke:none"
         id="path264" /><path
         d="m 4401.62,3735.29 c 27.41,47.84 43.17,103.22 43.17,162.31 0,180.62 -146.42,327.04 -327.06,327.04 -180.61,0 -327.04,-146.42 -327.04,-327.04 0,-59.09 15.76,-114.47 43.17,-162.31 h 567.76"
         style="fill:#95d8e9;fill-opacity:1;fill-rule:nonzero;stroke:none"
         id="path266" /><path
         d="m 4238.86,3936.83 c 0,-66.89 -54.23,-121.11 -121.12,-121.11 -66.87,0 -121.1,54.22 -121.1,121.11 0,66.88 54.23,121.1 121.1,121.1 66.89,0 121.12,-54.22 121.12,-121.1"
         style="fill:#53aec4;fill-opacity:1;fill-rule:nonzero;stroke:none"
         id="path268" /><path
         d="m 4201.7,3936.83 c 0,-46.38 -37.59,-83.96 -83.96,-83.96 -46.36,0 -83.94,37.58 -83.94,83.96 0,46.36 37.58,83.95 83.94,83.95 46.37,0 83.96,-37.59 83.96,-83.95"
         style="fill:#ffffff;fill-opacity:1;fill-rule:nonzero;stroke:none"
         id="path270" /><path
         d="m 4142.15,3936.83 c 0,-13.48 -10.92,-24.41 -24.41,-24.41 -13.46,0 -24.39,10.93 -24.39,24.41 0,13.47 10.93,24.4 24.39,24.4 13.49,0 24.41,-10.93 24.41,-24.4"
         style="fill:#2b2a28;fill-opacity:1;fill-rule:nonzero;stroke:none"
         id="path272" /><path
         d="m 4220.27,3655.34 h -205.06 v 79.95 h 205.06 v -79.95"
         style="fill:#53aec4;fill-opacity:1;fill-rule:nonzero;stroke:none"
         id="path274" /><path
         d="m 4467.36,3159.18 h -699.22 v 502.72 h 699.22 v -502.72"
         style="fill:#95d8e9;fill-opacity:1;fill-rule:nonzero;stroke:none"
         id="path276" /><path
         d="m 4379.41,3250.03 h -523.33 v 321.08 h 523.33 v -321.08"
         style="fill:#bee9f4;fill-opacity:1;fill-rule:nonzero;stroke:none"
         id="path278" /><path
         d="m 4341.28,3358.93 c -14.4,29.59 -28.81,59.17 -43.21,88.75 -2.27,4.65 -8.95,2.96 -10.32,-1.35 -9.8,-30.63 -19.61,-61.25 -29.41,-91.89 -8.58,43.04 -17.18,86.06 -25.76,129.09 -1.22,6.11 -8.99,4.59 -10.88,0 -13.75,-33.2 -27.51,-66.39 -41.26,-99.59 -4.74,20.8 -9.47,41.59 -14.2,62.39 -1.35,5.91 -9.05,4.81 -10.88,0 -11.81,-30.98 -23.6,-61.96 -35.4,-92.94 -9.08,54.61 -18.17,109.22 -27.25,163.82 -1,6.03 -9.16,4.68 -10.87,0 -18.56,-50.56 -37.1,-101.13 -55.65,-151.69 -4.08,15.7 -8.17,31.39 -12.25,47.09 -1.41,5.42 -9.45,5.38 -10.87,0 -6.49,-24.27 -12.96,-48.54 -19.44,-72.81 -8.34,35.51 -16.67,71.02 -25.01,106.53 -1.08,4.63 -8.1,5.69 -10.31,1.35 -17.53,-34.59 -35.07,-69.18 -52.6,-103.77 -3.28,-6.48 6.46,-12.19 9.75,-5.7 15.26,30.09 30.52,60.2 45.77,90.29 8.87,-37.8 17.74,-75.59 26.61,-113.37 1.29,-5.51 9.47,-5.3 10.88,0 6.57,24.61 13.15,49.23 19.71,73.84 3.8,-14.6 7.6,-29.19 11.39,-43.79 1.51,-5.77 9.06,-4.99 10.88,0 18.19,49.54 36.35,99.08 54.52,148.63 9.06,-54.44 18.11,-108.87 27.16,-163.29 1.02,-6.09 9.12,-4.62 10.88,0 12.05,31.65 24.11,63.29 36.17,94.94 4.65,-20.5 9.32,-40.98 13.98,-61.47 1.37,-6.03 8.94,-4.67 10.88,0 13.65,32.94 27.3,65.88 40.94,98.82 8.81,-44.09 17.62,-88.19 26.41,-132.29 1.16,-5.79 9.29,-4.97 10.88,0 10.59,33.07 21.17,66.15 31.76,99.22 12.42,-25.5 24.83,-51 37.25,-76.51 3.2,-6.54 12.92,-0.82 9.75,5.7"
         style="fill:#53aec4;fill-opacity:1;fill-rule:nonzero;stroke:none"
         id="path280" /><path
         d="m 3984.79,2712.78 h -51.6 v 446.4 h 51.6 v -446.4"
         style="fill:#53aec4;fill-opacity:1;fill-rule:nonzero;stroke:none"
         id="path282" /><path
         d="m 4013.54,2979.91 c 0,-30.12 -24.42,-54.55 -54.55,-54.55 -30.12,0 -54.55,24.43 -54.55,54.55 0,30.13 24.43,54.55 54.55,54.55 30.13,0 54.55,-24.42 54.55,-54.55"
         style="fill:#293237;fill-opacity:1;fill-rule:nonzero;stroke:none"
         id="path284" /><path
         d="m 3959,2769.83 c -63.02,0 -114.1,-51.09 -114.1,-114.1 h 228.19 c 0,63.01 -51.08,114.1 -114.09,114.1"
         style="fill:#293237;fill-opacity:1;fill-rule:nonzero;stroke:none"
         id="path286" /><path
         d="m 4302.29,2712.78 h -51.6 v 446.4 h 51.6 v -446.4"
         style="fill:#53aec4;fill-opacity:1;fill-rule:nonzero;stroke:none"
         id="path288" /><path
         d="m 4331.04,2979.91 c 0,-30.12 -24.42,-54.55 -54.55,-54.55 -30.12,0 -54.55,24.43 -54.55,54.55 0,30.13 24.43,54.55 54.55,54.55 30.13,0 54.55,-24.42 54.55,-54.55"
         style="fill:#293237;fill-opacity:1;fill-rule:nonzero;stroke:none"
         id="path290" /><path
         d="m 4276.5,2769.83 c -63.02,0 -114.1,-51.09 -114.1,-114.1 h 228.19 c 0,63.01 -51.08,114.1 -114.09,114.1"
         style="fill:#293237;fill-opacity:1;fill-rule:nonzero;stroke:none"
         id="path292" /><path
         d="m 4430.01,3623.89 c 133.25,-75.32 182.66,-253.51 153.48,-403.21 -7.62,-39.03 52.82,-51.55 60.44,-12.47 34.08,174.8 -22.05,378.09 -185.8,470.66 -34.76,19.63 -62.61,-35.48 -28.12,-54.98 v 0"
         style="fill:#95d8e9;fill-opacity:1;fill-rule:nonzero;stroke:none"
         id="path294" /><path
         d="m 4542.23,3615.21 c -8.74,-42.32 -50.14,-69.56 -92.46,-60.82 -42.35,8.73 -69.57,50.14 -60.84,92.47 8.74,42.32 50.12,69.56 92.47,60.82 42.32,-8.73 69.56,-50.14 60.83,-92.47"
         style="fill:#293237;fill-opacity:1;fill-rule:nonzero;stroke:none"
         id="path296" /><path
         d="m 4672.88,3411.82 c -7.16,-34.67 -41.02,-56.96 -75.68,-49.8 -34.64,7.15 -56.93,41.03 -49.79,75.68 7.16,34.64 41.04,56.95 75.69,49.78 34.64,-7.14 56.93,-41.03 49.78,-75.66"
         style="fill:#293237;fill-opacity:1;fill-rule:nonzero;stroke:none"
         id="path298" /><path
         d="m 4687.55,3125.8 c 4.92,39.44 -13.77,73.8 -48.8,89.65 -5.57,2.52 -11.51,4.55 -17.68,6 -21.51,5.07 -43.58,0.21 -62.15,-13.71 -16.92,-12.66 -29.43,-31.83 -34.33,-52.6 -1.97,-8.34 1.73,-15.96 9.41,-19.45 5.21,-2.35 11.3,-2.27 16.34,0.2 4.8,2.36 8.15,6.63 9.43,12.04 3.58,15.22 12.01,26.49 24.34,32.55 12.68,6.23 28.3,6.31 41.81,0.18 19.14,-8.66 28.91,-27.12 26.14,-49.33 -1.01,-8.04 3.13,-15.41 10.53,-18.75 5.48,-2.5 11.73,-2.32 16.65,0.44 4.66,2.6 7.61,7.15 8.31,12.78"
         style="fill:#293237;fill-opacity:1;fill-rule:nonzero;stroke:none"
         id="path300" /><path
         d="m 3815.48,3623.89 c -133.24,-75.32 -182.65,-253.51 -153.47,-403.21 7.62,-39.03 -52.82,-51.55 -60.44,-12.47 -34.09,174.8 22.05,378.09 185.79,470.66 34.76,19.63 62.61,-35.48 28.12,-54.98 v 0"
         style="fill:#95d8e9;fill-opacity:1;fill-rule:nonzero;stroke:none"
         id="path302" /><path
         d="m 3703.27,3615.21 c 8.74,-42.32 50.13,-69.56 92.46,-60.82 42.34,8.73 69.56,50.14 60.83,92.47 -8.74,42.32 -50.12,69.56 -92.46,60.82 -42.33,-8.73 -69.55,-50.14 -60.83,-92.47"
         style="fill:#293237;fill-opacity:1;fill-rule:nonzero;stroke:none"
         id="path304" /><path
         d="m 3572.61,3411.82 c 7.16,-34.67 41.03,-56.96 75.68,-49.8 34.64,7.15 56.92,41.03 49.79,75.68 -7.15,34.64 -41.04,56.95 -75.68,49.78 -34.65,-7.14 -56.93,-41.03 -49.79,-75.66"
         style="fill:#293237;fill-opacity:1;fill-rule:nonzero;stroke:none"
         id="path306" /><path
         d="m 3557.95,3125.8 c -4.93,39.44 13.76,73.8 48.8,89.65 5.55,2.52 11.5,4.55 17.67,6 21.51,5.07 43.58,0.21 62.15,-13.71 16.92,-12.66 29.44,-31.83 34.33,-52.6 1.98,-8.34 -1.73,-15.96 -9.41,-19.45 -5.2,-2.35 -11.3,-2.27 -16.33,0.2 -4.8,2.36 -8.15,6.63 -9.44,12.04 -3.58,15.22 -12.01,26.49 -24.34,32.55 -12.68,6.23 -28.3,6.31 -41.81,0.18 -19.13,-8.66 -28.92,-27.12 -26.13,-49.33 0.99,-8.04 -3.14,-15.41 -10.53,-18.75 -5.49,-2.5 -11.72,-2.32 -16.66,0.44 -4.65,2.6 -7.61,7.15 -8.3,12.78"
         style="fill:#293237;fill-opacity:1;fill-rule:nonzero;stroke:none"
         id="path308" /><text
         xml:space="preserve"
         id="text678"
         style="font-style:normal;font-weight:normal;font-size:300px;line-height:1.25;font-family:sans-serif;white-space:pre;shape-inside:url(#rect680);fill:#000000;fill-opacity:1;stroke:none;" /><path
         sodipodi:type="star"
         style="fill:#000000;stroke-width:7.5"
         id="path225"
         sodipodi:sides="5"
         sodipodi:cx="2326.9404"
         sodipodi:cy="-4080.3569"
         sodipodi:r1="7.9971099"
         sodipodi:r2="7.8190866"
         sodipodi:arg1="1.8585302"
         sodipodi:arg2="2.4868488"
         inkscape:flatsided="false"
         inkscape:rounded="0"
         inkscape:randomized="0"
         d="m 2324.671,-4072.6886 -3.9327,-2.9069 -1.7922,-4.5501 1.5493,-4.6385 3.7737,-3.1106 4.8902,0.04 4.1245,2.6278 1.473,4.6633 -1.2246,4.7346 -3.9799,2.8419 z"
         transform="scale(1,-1)"
         inkscape:transform-center-x="0.011864317"
         inkscape:transform-center-y="0.0087132603" /><rect
         style="fill:#000000;stroke-width:7.5"
         id="rect232"
         width="0"
         height="0"
         x="2022.8887"
         y="-3758.4658"
         transform="scale(1,-1)"
         ry="0" /></g></g></svg>
