<?xml version="1.0" encoding="UTF-8" standalone="no"?>
<svg
   xmlns:dc="http://purl.org/dc/elements/1.1/"
   xmlns:cc="http://creativecommons.org/ns#"
   xmlns:rdf="http://www.w3.org/1999/02/22-rdf-syntax-ns#"
   xmlns:svg="http://www.w3.org/2000/svg"
   xmlns="http://www.w3.org/2000/svg"
   xmlns:sodipodi="http://sodipodi.sourceforge.net/DTD/sodipodi-0.dtd"
   xmlns:inkscape="http://www.inkscape.org/namespaces/inkscape"
   width="197.36711mm"
   height="121.15646mm"
   viewBox="0 0 197.36711 121.15646"
   version="1.1"
   id="svg107"
   inkscape:version="1.0.1 (c497b03c, 2020-09-10)"
   sodipodi:docname="robot2_talking.svg">
  <defs
     id="defs101" />
  <sodipodi:namedview
     id="base"
     pagecolor="#ffffff"
     bordercolor="#666666"
     borderopacity="1.0"
     inkscape:pageopacity="0.0"
     inkscape:pageshadow="2"
     inkscape:zoom="1.0831724"
     inkscape:cx="366.17368"
     inkscape:cy="252.08104"
     inkscape:document-units="mm"
     inkscape:current-layer="layer1"
     inkscape:document-rotation="0"
     showgrid="false"
     inkscape:window-width="1252"
     inkscape:window-height="806"
     inkscape:window-x="201"
     inkscape:window-y="23"
     inkscape:window-maximized="0"
     inkscape:snap-global="false" />
  <metadata
     id="metadata104">
    <rdf:RDF>
      <cc:Work
         rdf:about="">
        <dc:format>image/svg+xml</dc:format>
        <dc:type
           rdf:resource="http://purl.org/dc/dcmitype/StillImage" />
        <dc:title></dc:title>
      </cc:Work>
    </rdf:RDF>
  </metadata>
  <g
     inkscape:label="Layer 1"
     inkscape:groupmode="layer"
     id="layer1"
     transform="translate(-11.236967,-78.65398)">
    <path
       sodipodi:type="star"
       style="fill:#000000;stroke-width:0.264583;"
       id="path141"
       sodipodi:sides="3"
       sodipodi:cx="118.46951"
       sodipodi:cy="151.93411"
       sodipodi:r1="53.499508"
       sodipodi:r2="21.376802"
       sodipodi:arg1="1.1623074"
       sodipodi:arg2="2.2095049"
       inkscape:flatsided="true"
       inkscape:rounded="0"
       inkscape:randomized="0"
       d="M 139.72075,201.03179 65.324055,145.78938 150.36373,108.98116 Z"
       inkscape:transform-center-x="2.5018958"
       inkscape:transform-center-y="-5.1886032"
       transform="matrix(0.28179388,-0.14581613,0.09761499,0.38384949,12.183312,108.30975)" />
    <ellipse
       style="fill:#000000;stroke-width:0.283061;"
       id="path152"
       cx="131.04929"
       cy="139.23221"
       rx="77.554794"
       ry="60.578228" />
    <g
       id="g314"
       transform="translate(-17.831496,-28.823512)">
      <path
         d="m 58.114555,178.90896 v 0.53058 h 5.659967 v -0.53058 h -5.659967"
         style="fill:#b2b2b2;fill-opacity:1;fill-rule:nonzero;stroke:none;stroke-width:0.0352777"
         id="path248" />
      <path
         d="m 63.774522,177.9801 c -0.659342,0 -1.194152,0.5341 -1.194152,1.1938 0,0.65969 0.53481,1.1938 1.194152,1.1938 0.659341,0 1.1938,-0.53411 1.1938,-1.1938 0,-0.6597 -0.534459,-1.1938 -1.1938,-1.1938"
         style="fill:#293237;fill-opacity:1;fill-rule:nonzero;stroke:none;stroke-width:0.0352777"
         id="path250" />
      <path
         d="m 57.953688,182.50271 c -1.266473,0 -2.293055,-1.02659 -2.293055,-2.29306 v -2.07151 c 0,-1.26647 1.026582,-2.29305 2.293055,-2.29305 v 0 c 1.266473,0 2.293057,1.02658 2.293057,2.29305 v 2.07151 c 0,1.26647 -1.026584,2.29306 -2.293057,2.29306 v 0"
         style="fill:#53aec4;fill-opacity:1;fill-rule:nonzero;stroke:none;stroke-width:0.0352777"
         id="path252" />
      <path
         d="m 36.173894,178.90896 v 0.53058 h -5.659966 v -0.53058 h 5.659966"
         style="fill:#b2b2b2;fill-opacity:1;fill-rule:nonzero;stroke:none;stroke-width:0.0352777"
         id="path254" />
      <path
         d="m 30.513928,177.9801 c 0.659342,0 1.194153,0.5341 1.194153,1.1938 0,0.65969 -0.534811,1.1938 -1.194153,1.1938 -0.659342,0 -1.1938,-0.53411 -1.1938,-1.1938 0,-0.6597 0.534458,-1.1938 1.1938,-1.1938"
         style="fill:#293237;fill-opacity:1;fill-rule:nonzero;stroke:none;stroke-width:0.0352777"
         id="path256" />
      <path
         d="m 36.334761,182.50271 c 1.266472,0 2.293056,-1.02659 2.293056,-2.29306 v -2.07151 c 0,-1.26647 -1.026584,-2.29305 -2.293056,-2.29305 v 0 c -1.266472,0 -2.293055,1.02658 -2.293055,2.29305 v 2.07151 c 0,1.26647 1.026583,2.29306 2.293055,2.29306 v 0"
         style="fill:#53aec4;fill-opacity:1;fill-rule:nonzero;stroke:none;stroke-width:0.0352777"
         id="path258" />
      <path
         d="m 46.852477,169.81047 h 0.530578 v -5.65997 h -0.530578 v 5.65997"
         style="fill:#b2b2b2;fill-opacity:1;fill-rule:nonzero;stroke:none;stroke-width:0.0352777"
         id="path260" />
      <path
         d="m 45.923966,164.1505 c 0,0.65934 0.534106,1.19345 1.193448,1.19345 0.660047,0 1.194152,-0.53411 1.194152,-1.19345 0,-0.65969 -0.534105,-1.19415 -1.194152,-1.19415 -0.659342,0 -1.193448,0.53446 -1.193448,1.19415"
         style="fill:#293237;fill-opacity:1;fill-rule:nonzero;stroke:none;stroke-width:0.0352777"
         id="path262" />
      <path
         d="m 50.446577,169.97134 c 0,1.26612 -1.026583,2.29305 -2.293055,2.29305 h -2.071511 c -1.266472,0 -2.293056,-1.02693 -2.293056,-2.29305 v 0 c 0,-1.26648 1.026584,-2.29306 2.293056,-2.29306 h 2.071511 c 1.266472,0 2.293055,1.02658 2.293055,2.29306 v 0"
         style="fill:#53aec4;fill-opacity:1;fill-rule:nonzero;stroke:none;stroke-width:0.0352777"
         id="path264" />
      <path
         d="m 57.13207,186.34552 c 0.966962,-1.68769 1.522941,-3.64138 1.522941,-5.72594 0,-6.37187 -5.165373,-11.53724 -11.53795,-11.53724 -6.371519,0 -11.537244,5.16537 -11.537244,11.53724 0,2.08456 0.555977,4.03825 1.522941,5.72594 H 57.13207"
         style="fill:#95d8e9;fill-opacity:1;fill-rule:nonzero;stroke:none;stroke-width:0.0352777"
         id="path266" />
      <path
         d="m 51.390258,179.23563 c 0,2.35973 -1.913114,4.27249 -4.272844,4.27249 -2.359025,0 -4.272139,-1.91276 -4.272139,-4.27249 0,-2.35937 1.913114,-4.27214 4.272139,-4.27214 2.35973,0 4.272844,1.91277 4.272844,4.27214"
         style="fill:#53aec4;fill-opacity:1;fill-rule:nonzero;stroke:none;stroke-width:0.0352777"
         id="path268" />
      <path
         d="m 50.079336,179.23563 c 0,1.63619 -1.326092,2.96193 -2.961922,2.96193 -1.635478,0 -2.961217,-1.32574 -2.961217,-2.96193 0,-1.63547 1.325739,-2.96157 2.961217,-2.96157 1.63583,0 2.961922,1.3261 2.961922,2.96157"
         style="fill:#ffffff;fill-opacity:1;fill-rule:nonzero;stroke:none;stroke-width:0.0352777"
         id="path270" />
      <path
         d="m 47.978544,179.23563 c 0,0.47555 -0.385233,0.86113 -0.86113,0.86113 -0.474839,0 -0.860425,-0.38558 -0.860425,-0.86113 0,-0.47519 0.385586,-0.86077 0.860425,-0.86077 0.475897,0 0.86113,0.38558 0.86113,0.86077"
         style="fill:#2b2a28;fill-opacity:1;fill-rule:nonzero;stroke:none;stroke-width:0.0352777"
         id="path272" />
    </g>
    <text
       xml:space="preserve"
       style="font-size:22.57779999999999987px;line-height:1.25;font-family:Menlo;-inkscape-font-specification:'Menlo, Normal';fill:#66ff00;stroke-width:0.264583;font-weight:normal;font-style:normal;font-stretch:normal;font-variant:normal;font-variant-ligatures:normal;font-variant-caps:normal;font-variant-numeric:normal;font-variant-east-asian:normal;"
       x="89.64669"
       y="113.3399"
       id="text1206"><tspan
         sodipodi:role="line"
         id="tspan1261">μ=5.6</tspan></text>
    <text
       xml:space="preserve"
       style="font-style:normal;font-variant:normal;font-weight:normal;font-stretch:normal;font-size:22.5778px;line-height:1.25;font-family:Menlo;-inkscape-font-specification:'Menlo, Normal';font-variant-ligatures:normal;font-variant-caps:normal;font-variant-numeric:normal;font-variant-east-asian:normal;fill:#66ff00;stroke-width:0.264583"
       x="83.540016"
       y="152.6669"
       id="text1210"><tspan
         sodipodi:role="line"
         id="tspan1263"
         x="83.540016"
         y="152.6669">σ<tspan
   style="font-size:65%;baseline-shift:super"
   id="tspan1265">2</tspan>=0.19</tspan></text>
    <text
       xml:space="preserve"
       style="font-size:10.5833px;line-height:1.25;font-family:Menlo;-inkscape-font-specification:Menlo;stroke-width:0.264583"
       x="104.30272"
       y="135.81247"
       id="text1214"><tspan
         sodipodi:role="line"
         id="tspan1212"
         x="104.30272"
         y="135.81247"
         style="stroke-width:0.264583" /></text>
    <text
       xml:space="preserve"
       style="font-size:10.5833px;line-height:1.25;font-family:Menlo;-inkscape-font-specification:Menlo;stroke-width:0.264583"
       x="112.11926"
       y="137.0338"
       id="text1220"><tspan
         sodipodi:role="line"
         id="tspan1218"
         x="112.11926"
         y="137.0338"
         style="stroke-width:0.264583"></tspan></text>
    <text
       xml:space="preserve"
       style="font-size:10.5833px;line-height:1.25;font-family:Menlo;-inkscape-font-specification:Menlo;stroke-width:0.264583"
       x="110.40939"
       y="135.07967"
       id="text1226"><tspan
         sodipodi:role="line"
         id="tspan1224"
         x="110.40939"
         y="135.07967"
         style="fill:#00ff00;stroke-width:0.264583" /></text>
    <g
       aria-label=" ̂"
       id="text1236"
       style="font-size:10.5833px;line-height:1.25;font-family:Menlo;-inkscape-font-specification:Menlo;fill:#66ff00;stroke-width:0.264583"
       transform="matrix(2.9972716,0,0,2.2571516,-217.25666,-255.4418)">
      <path
         d="m 104.17753,155.19835 h 0.75965 l 1.27123,1.94302 h -0.7183 l -0.93534,-1.26606 -0.93017,1.26606 h -0.7183 z"
         style="fill:#66ff00;stroke-width:0.264583"
         id="path1238" />
    </g>
    <g
       aria-label=" ̂"
       id="text1236-9"
       style="font-size:10.5833px;line-height:1.25;font-family:Menlo;-inkscape-font-specification:Menlo;fill:#66ff00;stroke-width:0.264583"
       transform="matrix(4.032894,0,0,2.7600122,-331.04497,-295.21824)">
      <path
         d="m 104.17753,155.19835 h 0.75965 l 1.27123,1.94302 h -0.7183 l -0.93534,-1.26606 -0.93017,1.26606 h -0.7183 z"
         style="fill:#66ff00;stroke-width:0.264583"
         id="path1238-3" />
    </g>
  </g>
</svg>
