<?xml version="1.0" encoding="UTF-8" standalone="no"?>
<svg
   xmlns:dc="http://purl.org/dc/elements/1.1/"
   xmlns:cc="http://creativecommons.org/ns#"
   xmlns:rdf="http://www.w3.org/1999/02/22-rdf-syntax-ns#"
   xmlns:svg="http://www.w3.org/2000/svg"
   xmlns="http://www.w3.org/2000/svg"
   xmlns:sodipodi="http://sodipodi.sourceforge.net/DTD/sodipodi-0.dtd"
   xmlns:inkscape="http://www.inkscape.org/namespaces/inkscape"
   width="197.36711mm"
   height="121.15646mm"
   viewBox="0 0 197.36711 121.15646"
   version="1.1"
   id="svg107"
   inkscape:version="1.0.1 (c497b03c, 2020-09-10)"
   sodipodi:docname="robo1_talking.svg">
  <defs
     id="defs101" />
  <sodipodi:namedview
     id="base"
     pagecolor="#ffffff"
     bordercolor="#666666"
     borderopacity="1.0"
     inkscape:pageopacity="0.0"
     inkscape:pageshadow="2"
     inkscape:zoom="1.0831724"
     inkscape:cx="415.10402"
     inkscape:cy="287.16317"
     inkscape:document-units="mm"
     inkscape:current-layer="layer1"
     inkscape:document-rotation="0"
     showgrid="false"
     inkscape:window-width="1252"
     inkscape:window-height="806"
     inkscape:window-x="60"
     inkscape:window-y="48"
     inkscape:window-maximized="0" />
  <metadata
     id="metadata104">
    <rdf:RDF>
      <cc:Work
         rdf:about="">
        <dc:format>image/svg+xml</dc:format>
        <dc:type
           rdf:resource="http://purl.org/dc/dcmitype/StillImage" />
        <dc:title />
      </cc:Work>
    </rdf:RDF>
  </metadata>
  <g
     inkscape:label="Layer 1"
     inkscape:groupmode="layer"
     id="layer1"
     transform="translate(-11.236967,-78.65398)">
    <path
       d="m 14.58111,148.24564 h -0.96694 v -9.56204 h 0.96694 v 9.56204"
       style="fill:#b2b2b2;fill-opacity:1;fill-rule:nonzero;stroke:none;stroke-width:0.0366395"
       id="path406" />
    <path
       d="m 16.273349,138.6836 c 0,1.11371 -0.974171,2.01683 -2.17552,2.01683 -1.201731,0 -2.175902,-0.90312 -2.175902,-2.01683 0,-1.11408 0.974171,-2.01719 2.175902,-2.01719 1.201349,0 2.17552,0.90311 2.17552,2.01719"
       style="fill:#55bf9b;fill-opacity:1;fill-rule:nonzero;stroke:none;stroke-width:0.0366395"
       id="path408" />
    <path
       d="m 15.436934,145.04206 c -2.319743,0 -4.199967,1.74343 -4.199967,3.89396 0,2.15054 1.880224,3.89396 4.199967,3.89396 v -7.78792"
       style="fill:#e5ac1c;fill-opacity:1;fill-rule:nonzero;stroke:none;stroke-width:0.0366395"
       id="path410" />
    <path
       d="m 40.266103,148.24564 h 0.96694 v -9.56204 h -0.96694 v 9.56204"
       style="fill:#b2b2b2;fill-opacity:1;fill-rule:nonzero;stroke:none;stroke-width:0.0366395"
       id="path412" />
    <path
       d="m 38.573863,138.6836 c 0,1.11371 0.97379,2.01683 2.17514,2.01683 1.20211,0 2.1759,-0.90312 2.1759,-2.01683 0,-1.11408 -0.97379,-2.01719 -2.1759,-2.01719 -1.20135,0 -2.17514,0.90311 -2.17514,2.01719"
       style="fill:#55bf9b;fill-opacity:1;fill-rule:nonzero;stroke:none;stroke-width:0.0366395"
       id="path414" />
    <path
       d="m 39.410283,145.04206 c 2.31936,0 4.19996,1.74343 4.19996,3.89396 0,2.15054 -1.8806,3.89396 -4.19996,3.89396 v -7.78792"
       style="fill:#e5ac1c;fill-opacity:1;fill-rule:nonzero;stroke:none;stroke-width:0.0366395"
       id="path416" />
    <path
       d="m 39.405333,153.32458 c 0,2.41335 -2.13024,4.3882 -4.7331,4.3882 H 20.175361 c -2.604386,0 -4.733862,-1.97485 -4.733862,-4.3882 v -8.77711 c 0,-2.41371 2.129476,-4.38821 4.733862,-4.38821 h 14.496872 c 2.60286,0 4.7331,1.9745 4.7331,4.38821 v 8.77711"
       style="fill:#f9cc4f;fill-opacity:1;fill-rule:nonzero;stroke:none;stroke-width:0.0366395"
       id="path418" />
    <path
       d="m 24.830443,148.93602 c 0,1.84679 -1.61499,3.34363 -3.607089,3.34363 -1.992482,0 -3.607474,-1.49684 -3.607474,-3.34363 0,-1.84679 1.614992,-3.34398 3.607474,-3.34398 1.992099,0 3.607089,1.49719 3.607089,3.34398"
       style="fill:#e5ac1c;fill-opacity:1;fill-rule:nonzero;stroke:none;stroke-width:0.0366395"
       id="path420" />
    <path
       d="m 23.723853,148.93602 c 0,1.28059 -1.11992,2.31811 -2.500499,2.31811 -1.381344,0 -2.500877,-1.03752 -2.500877,-2.31811 0,-1.28023 1.119533,-2.3181 2.500877,-2.3181 1.380579,0 2.500499,1.03787 2.500499,2.3181"
       style="fill:#ffffff;fill-opacity:1;fill-rule:nonzero;stroke:none;stroke-width:0.0366395"
       id="path422" />
    <path
       d="m 21.949793,148.93602 c 0,0.37183 -0.32536,0.67381 -0.726439,0.67381 -0.401465,0 -0.726444,-0.30198 -0.726444,-0.67381 0,-0.37218 0.324979,-0.6738 0.726444,-0.6738 0.401079,0 0.726439,0.30162 0.726439,0.6738"
       style="fill:#2b2a28;fill-opacity:1;fill-rule:nonzero;stroke:none;stroke-width:0.0366395"
       id="path424" />
    <path
       d="m 37.230953,148.93602 c 0,1.84679 -1.61499,3.34363 -3.60672,3.34363 -1.99248,0 -3.60747,-1.49684 -3.60747,-3.34363 0,-1.84679 1.61499,-3.34398 3.60747,-3.34398 1.99173,0 3.60672,1.49719 3.60672,3.34398"
       style="fill:#e5ac1c;fill-opacity:1;fill-rule:nonzero;stroke:none;stroke-width:0.0366395"
       id="path426" />
    <path
       d="m 36.124353,148.93602 c 0,1.28059 -1.11953,2.31811 -2.50012,2.31811 -1.38134,0 -2.50087,-1.03752 -2.50087,-2.31811 0,-1.28023 1.11953,-2.3181 2.50087,-2.3181 1.38059,0 2.50012,1.03787 2.50012,2.3181"
       style="fill:#ffffff;fill-opacity:1;fill-rule:nonzero;stroke:none;stroke-width:0.0366395"
       id="path428" />
    <path
       d="m 34.350683,148.93602 c 0,0.37183 -0.32536,0.67381 -0.72645,0.67381 -0.40146,0 -0.72682,-0.30198 -0.72682,-0.67381 0,-0.37218 0.32536,-0.6738 0.72682,-0.6738 0.40109,0 0.72645,0.30162 0.72645,0.6738"
       style="fill:#2b2a28;fill-opacity:1;fill-rule:nonzero;stroke:none;stroke-width:0.0366395"
       id="path430" />
    <path
       d="m 20.49691,154.22981 c 4.617413,0 9.235593,0 13.853393,0 0.6138,0 0.6138,-0.88195 0,-0.88195 -4.6178,0 -9.23598,0 -13.853393,0 -0.613801,0 -0.613801,0.88195 0,0.88195 v 0"
       style="fill:#ffffff;fill-opacity:1;fill-rule:nonzero;stroke:none;stroke-width:0.0366395"
       id="path432" />
    <path
       sodipodi:type="star"
       style="fill:#000000;stroke-width:0.264583"
       id="path141"
       sodipodi:sides="3"
       sodipodi:cx="118.46951"
       sodipodi:cy="151.93411"
       sodipodi:r1="53.499508"
       sodipodi:r2="21.376802"
       sodipodi:arg1="1.1623074"
       sodipodi:arg2="2.2095049"
       inkscape:flatsided="true"
       inkscape:rounded="0"
       inkscape:randomized="0"
       d="M 139.72075,201.03179 65.324055,145.78938 150.36373,108.98116 Z"
       inkscape:transform-center-x="2.5018958"
       inkscape:transform-center-y="-5.1886032"
       transform="matrix(0.28179388,-0.14581613,0.09761499,0.38384949,11.939045,107.08841)" />
    <ellipse
       style="fill:#000000;stroke-width:0.283061"
       id="path152"
       cx="131.04929"
       cy="139.23221"
       rx="77.554794"
       ry="60.578228" />
    <text
       xml:space="preserve"
       style="font-style:normal;font-variant:normal;font-weight:normal;font-stretch:normal;font-size:17.1888px;line-height:1.25;font-family:Menlo;-inkscape-font-specification:'Menlo, Normal';font-variant-ligatures:normal;font-variant-caps:normal;font-variant-numeric:normal;font-variant-east-asian:normal;fill:#ff2a2a;fill-opacity:0.945098;stroke-width:0.201429"
       x="116.41102"
       y="80.162079"
       id="text1206"
       transform="scale(0.63091348,1.5850034)"><tspan
         sodipodi:role="line"
         id="tspan193"
         x="116.41102"
         y="80.162079"
         style="stroke-width:0.201429">The posterior mean </tspan><tspan
         sodipodi:role="line"
         x="116.41102"
         y="101.64808"
         style="stroke-width:0.201429"
         id="tspan252">for μ is 5.51</tspan></text>
  </g>
</svg>
