<?xml version="1.0" encoding="UTF-8" standalone="no"?>
<svg
   xmlns:dc="http://purl.org/dc/elements/1.1/"
   xmlns:cc="http://creativecommons.org/ns#"
   xmlns:rdf="http://www.w3.org/1999/02/22-rdf-syntax-ns#"
   xmlns:svg="http://www.w3.org/2000/svg"
   xmlns="http://www.w3.org/2000/svg"
   xmlns:sodipodi="http://sodipodi.sourceforge.net/DTD/sodipodi-0.dtd"
   xmlns:inkscape="http://www.inkscape.org/namespaces/inkscape"
   version="1.1"
   id="svg10"
   xml:space="preserve"
   width="913.2052"
   height="572.89545"
   viewBox="0 0 913.20524 572.89544"
   sodipodi:docname="robot2_giant_tiny_speech.svg"
   inkscape:version="1.0.1 (c497b03c, 2020-09-10)"><metadata
     id="metadata16"><rdf:RDF><cc:Work
         rdf:about=""><dc:format>image/svg+xml</dc:format><dc:type
           rdf:resource="http://purl.org/dc/dcmitype/StillImage" /><dc:title></dc:title></cc:Work></rdf:RDF></metadata><defs
     id="defs14"><rect
       x="5421.7183"
       y="6346.4507"
       width="83.612045"
       height="351.17059"
       id="rect680" /><rect
       x="23.411373"
       y="450.66891"
       width="154.68228"
       height="202.34116"
       id="rect642" /><rect
       x="397.1572"
       y="459.03012"
       width="287.62543"
       height="31.772577"
       id="rect636" /><clipPath
       clipPathUnits="userSpaceOnUse"
       id="clipPath500"><path
         d="m 2941.42,1473.47 c -7.96,2.69 1.2,-1.23 7,-6.71 16.63,-15.73 27.79,-37.46 37.91,-59.61 55.88,-122.37 53.78,-275.22 52.43,-406.26 -0.43,-41.929 64.57,-41.902 65,0 1.51,147.15 -1.53,308.17 -63.87,444.67 -15.88,34.77 -42.62,77.52 -81.19,90.58 -39.81,13.5 -56.76,-49.29 -17.28,-62.67 z"
         id="path498" /></clipPath><clipPath
       clipPathUnits="userSpaceOnUse"
       id="clipPath524"><path
         d="m 2269.61,1473.47 c 7.96,2.69 -1.2,-1.23 -7,-6.71 -16.63,-15.73 -27.8,-37.46 -37.91,-59.61 -55.88,-122.37 -53.78,-275.22 -52.43,-406.26 0.43,-41.929 -64.57,-41.902 -65,0 -1.52,147.15 1.53,308.17 63.86,444.67 15.88,34.77 42.63,77.52 81.19,90.58 39.82,13.5 56.76,-49.29 17.29,-62.67 z"
         id="path522" /></clipPath><clipPath
       clipPathUnits="userSpaceOnUse"
       id="clipPath2934"><ellipse
         style="fill:#ffffff;stroke-width:28.4269"
         id="ellipse2936"
         cx="3459.2168"
         cy="-4356.9194"
         rx="4484.085"
         ry="4534.0566"
         clip-path="none"
         inkscape:transform-center-y="-2.229655"
         transform="scale(1,-1)" /></clipPath></defs><sodipodi:namedview
     pagecolor="#ffffff"
     bordercolor="#666666"
     borderopacity="1"
     objecttolerance="10"
     gridtolerance="10"
     guidetolerance="10"
     inkscape:pageopacity="0"
     inkscape:pageshadow="2"
     inkscape:window-width="1222"
     inkscape:window-height="796"
     id="namedview12"
     showgrid="false"
     inkscape:pagecheckerboard="true"
     fit-margin-top="0"
     fit-margin-left="0"
     fit-margin-right="0"
     fit-margin-bottom="0"
     inkscape:zoom="0.89699997"
     inkscape:cx="464.39522"
     inkscape:cy="269.66377"
     inkscape:window-x="9"
     inkscape:window-y="23"
     inkscape:window-maximized="0"
     inkscape:current-layer="g20"
     inkscape:document-rotation="0" /><g
     id="g18"
     inkscape:groupmode="layer"
     inkscape:label="ink_ext_XXXXXX"
     transform="matrix(1.3333333,0,0,-1.3333333,-102.49441,926.99277)"><g
       id="g20"
       transform="scale(0.1)"><path
         d="m 4429.47,3946.09 v -15.04 h 160.44 v 15.04 h -160.44"
         style="fill:#b2b2b2;fill-opacity:1;fill-rule:nonzero;stroke:none"
         id="path248" /><path
         d="m 4589.91,3972.42 c -18.69,0 -33.85,-15.14 -33.85,-33.84 0,-18.7 15.16,-33.84 33.85,-33.84 18.69,0 33.84,15.14 33.84,33.84 0,18.7 -15.15,33.84 -33.84,33.84"
         style="fill:#293237;fill-opacity:1;fill-rule:nonzero;stroke:none"
         id="path250" /><path
         d="m 4424.91,3844.22 c -35.9,0 -65,29.1 -65,65 v 58.72 c 0,35.9 29.1,65 65,65 v 0 c 35.9,0 65,-29.1 65,-65 v -58.72 c 0,-35.9 -29.1,-65 -65,-65 v 0"
         style="fill:#53aec4;fill-opacity:1;fill-rule:nonzero;stroke:none"
         id="path252" /><path
         d="m 3807.53,3946.09 v -15.04 h -160.44 v 15.04 h 160.44"
         style="fill:#b2b2b2;fill-opacity:1;fill-rule:nonzero;stroke:none"
         id="path254" /><path
         d="m 3647.09,3972.42 c 18.69,0 33.85,-15.14 33.85,-33.84 0,-18.7 -15.16,-33.84 -33.85,-33.84 -18.69,0 -33.84,15.14 -33.84,33.84 0,18.7 15.15,33.84 33.84,33.84"
         style="fill:#293237;fill-opacity:1;fill-rule:nonzero;stroke:none"
         id="path256" /><path
         d="m 3812.09,3844.22 c 35.9,0 65,29.1 65,65 v 58.72 c 0,35.9 -29.1,65 -65,65 v 0 c -35.9,0 -65,-29.1 -65,-65 v -58.72 c 0,-35.9 29.1,-65 65,-65 v 0"
         style="fill:#53aec4;fill-opacity:1;fill-rule:nonzero;stroke:none"
         id="path258" /><path
         d="m 4110.23,4204 h 15.04 v 160.44 h -15.04 V 4204"
         style="fill:#b2b2b2;fill-opacity:1;fill-rule:nonzero;stroke:none"
         id="path260" /><path
         d="m 4083.91,4364.44 c 0,-18.69 15.14,-33.83 33.83,-33.83 18.71,0 33.85,15.14 33.85,33.83 0,18.7 -15.14,33.85 -33.85,33.85 -18.69,0 -33.83,-15.15 -33.83,-33.85"
         style="fill:#293237;fill-opacity:1;fill-rule:nonzero;stroke:none"
         id="path262" /><path
         d="m 4212.11,4199.44 c 0,-35.89 -29.1,-65 -65,-65 h -58.72 c -35.9,0 -65,29.11 -65,65 v 0 c 0,35.9 29.1,65 65,65 h 58.72 c 35.9,0 65,-29.1 65,-65 v 0"
         style="fill:#53aec4;fill-opacity:1;fill-rule:nonzero;stroke:none"
         id="path264" /><path
         d="m 4401.62,3735.29 c 27.41,47.84 43.17,103.22 43.17,162.31 0,180.62 -146.42,327.04 -327.06,327.04 -180.61,0 -327.04,-146.42 -327.04,-327.04 0,-59.09 15.76,-114.47 43.17,-162.31 h 567.76"
         style="fill:#95d8e9;fill-opacity:1;fill-rule:nonzero;stroke:none"
         id="path266" /><path
         d="m 4238.86,3936.83 c 0,-66.89 -54.23,-121.11 -121.12,-121.11 -66.87,0 -121.1,54.22 -121.1,121.11 0,66.88 54.23,121.1 121.1,121.1 66.89,0 121.12,-54.22 121.12,-121.1"
         style="fill:#53aec4;fill-opacity:1;fill-rule:nonzero;stroke:none"
         id="path268" /><path
         d="m 4201.7,3936.83 c 0,-46.38 -37.59,-83.96 -83.96,-83.96 -46.36,0 -83.94,37.58 -83.94,83.96 0,46.36 37.58,83.95 83.94,83.95 46.37,0 83.96,-37.59 83.96,-83.95"
         style="fill:#ffffff;fill-opacity:1;fill-rule:nonzero;stroke:none"
         id="path270" /><path
         d="m 4142.15,3936.83 c 0,-13.48 -10.92,-24.41 -24.41,-24.41 -13.46,0 -24.39,10.93 -24.39,24.41 0,13.47 10.93,24.4 24.39,24.4 13.49,0 24.41,-10.93 24.41,-24.4"
         style="fill:#2b2a28;fill-opacity:1;fill-rule:nonzero;stroke:none"
         id="path272" /><path
         d="m 4220.27,3655.34 h -205.06 v 79.95 h 205.06 v -79.95"
         style="fill:#53aec4;fill-opacity:1;fill-rule:nonzero;stroke:none"
         id="path274" /><path
         d="m 4467.36,3159.18 h -699.22 v 502.72 h 699.22 v -502.72"
         style="fill:#95d8e9;fill-opacity:1;fill-rule:nonzero;stroke:none"
         id="path276" /><path
         d="m 4379.41,3250.03 h -523.33 v 321.08 h 523.33 v -321.08"
         style="fill:#bee9f4;fill-opacity:1;fill-rule:nonzero;stroke:none"
         id="path278" /><path
         d="m 4341.28,3358.93 c -14.4,29.59 -28.81,59.17 -43.21,88.75 -2.27,4.65 -8.95,2.96 -10.32,-1.35 -9.8,-30.63 -19.61,-61.25 -29.41,-91.89 -8.58,43.04 -17.18,86.06 -25.76,129.09 -1.22,6.11 -8.99,4.59 -10.88,0 -13.75,-33.2 -27.51,-66.39 -41.26,-99.59 -4.74,20.8 -9.47,41.59 -14.2,62.39 -1.35,5.91 -9.05,4.81 -10.88,0 -11.81,-30.98 -23.6,-61.96 -35.4,-92.94 -9.08,54.61 -18.17,109.22 -27.25,163.82 -1,6.03 -9.16,4.68 -10.87,0 -18.56,-50.56 -37.1,-101.13 -55.65,-151.69 -4.08,15.7 -8.17,31.39 -12.25,47.09 -1.41,5.42 -9.45,5.38 -10.87,0 -6.49,-24.27 -12.96,-48.54 -19.44,-72.81 -8.34,35.51 -16.67,71.02 -25.01,106.53 -1.08,4.63 -8.1,5.69 -10.31,1.35 -17.53,-34.59 -35.07,-69.18 -52.6,-103.77 -3.28,-6.48 6.46,-12.19 9.75,-5.7 15.26,30.09 30.52,60.2 45.77,90.29 8.87,-37.8 17.74,-75.59 26.61,-113.37 1.29,-5.51 9.47,-5.3 10.88,0 6.57,24.61 13.15,49.23 19.71,73.84 3.8,-14.6 7.6,-29.19 11.39,-43.79 1.51,-5.77 9.06,-4.99 10.88,0 18.19,49.54 36.35,99.08 54.52,148.63 9.06,-54.44 18.11,-108.87 27.16,-163.29 1.02,-6.09 9.12,-4.62 10.88,0 12.05,31.65 24.11,63.29 36.17,94.94 4.65,-20.5 9.32,-40.98 13.98,-61.47 1.37,-6.03 8.94,-4.67 10.88,0 13.65,32.94 27.3,65.88 40.94,98.82 8.81,-44.09 17.62,-88.19 26.41,-132.29 1.16,-5.79 9.29,-4.97 10.88,0 10.59,33.07 21.17,66.15 31.76,99.22 12.42,-25.5 24.83,-51 37.25,-76.51 3.2,-6.54 12.92,-0.82 9.75,5.7"
         style="fill:#53aec4;fill-opacity:1;fill-rule:nonzero;stroke:none"
         id="path280" /><path
         d="m 3984.79,2712.78 h -51.6 v 446.4 h 51.6 v -446.4"
         style="fill:#53aec4;fill-opacity:1;fill-rule:nonzero;stroke:none"
         id="path282" /><path
         d="m 4013.54,2979.91 c 0,-30.12 -24.42,-54.55 -54.55,-54.55 -30.12,0 -54.55,24.43 -54.55,54.55 0,30.13 24.43,54.55 54.55,54.55 30.13,0 54.55,-24.42 54.55,-54.55"
         style="fill:#293237;fill-opacity:1;fill-rule:nonzero;stroke:none"
         id="path284" /><path
         d="m 3959,2769.83 c -63.02,0 -114.1,-51.09 -114.1,-114.1 h 228.19 c 0,63.01 -51.08,114.1 -114.09,114.1"
         style="fill:#293237;fill-opacity:1;fill-rule:nonzero;stroke:none"
         id="path286" /><path
         d="m 4302.29,2712.78 h -51.6 v 446.4 h 51.6 v -446.4"
         style="fill:#53aec4;fill-opacity:1;fill-rule:nonzero;stroke:none"
         id="path288" /><path
         d="m 4331.04,2979.91 c 0,-30.12 -24.42,-54.55 -54.55,-54.55 -30.12,0 -54.55,24.43 -54.55,54.55 0,30.13 24.43,54.55 54.55,54.55 30.13,0 54.55,-24.42 54.55,-54.55"
         style="fill:#293237;fill-opacity:1;fill-rule:nonzero;stroke:none"
         id="path290" /><path
         d="m 4276.5,2769.83 c -63.02,0 -114.1,-51.09 -114.1,-114.1 h 228.19 c 0,63.01 -51.08,114.1 -114.09,114.1"
         style="fill:#293237;fill-opacity:1;fill-rule:nonzero;stroke:none"
         id="path292" /><path
         d="m 4430.01,3623.89 c 133.25,-75.32 182.66,-253.51 153.48,-403.21 -7.62,-39.03 52.82,-51.55 60.44,-12.47 34.08,174.8 -22.05,378.09 -185.8,470.66 -34.76,19.63 -62.61,-35.48 -28.12,-54.98 v 0"
         style="fill:#95d8e9;fill-opacity:1;fill-rule:nonzero;stroke:none"
         id="path294" /><path
         d="m 4542.23,3615.21 c -8.74,-42.32 -50.14,-69.56 -92.46,-60.82 -42.35,8.73 -69.57,50.14 -60.84,92.47 8.74,42.32 50.12,69.56 92.47,60.82 42.32,-8.73 69.56,-50.14 60.83,-92.47"
         style="fill:#293237;fill-opacity:1;fill-rule:nonzero;stroke:none"
         id="path296" /><path
         d="m 4672.88,3411.82 c -7.16,-34.67 -41.02,-56.96 -75.68,-49.8 -34.64,7.15 -56.93,41.03 -49.79,75.68 7.16,34.64 41.04,56.95 75.69,49.78 34.64,-7.14 56.93,-41.03 49.78,-75.66"
         style="fill:#293237;fill-opacity:1;fill-rule:nonzero;stroke:none"
         id="path298" /><path
         d="m 4687.55,3125.8 c 4.92,39.44 -13.77,73.8 -48.8,89.65 -5.57,2.52 -11.51,4.55 -17.68,6 -21.51,5.07 -43.58,0.21 -62.15,-13.71 -16.92,-12.66 -29.43,-31.83 -34.33,-52.6 -1.97,-8.34 1.73,-15.96 9.41,-19.45 5.21,-2.35 11.3,-2.27 16.34,0.2 4.8,2.36 8.15,6.63 9.43,12.04 3.58,15.22 12.01,26.49 24.34,32.55 12.68,6.23 28.3,6.31 41.81,0.18 19.14,-8.66 28.91,-27.12 26.14,-49.33 -1.01,-8.04 3.13,-15.41 10.53,-18.75 5.48,-2.5 11.73,-2.32 16.65,0.44 4.66,2.6 7.61,7.15 8.31,12.78"
         style="fill:#293237;fill-opacity:1;fill-rule:nonzero;stroke:none"
         id="path300" /><path
         d="m 3815.48,3623.89 c -133.24,-75.32 -182.65,-253.51 -153.47,-403.21 7.62,-39.03 -52.82,-51.55 -60.44,-12.47 -34.09,174.8 22.05,378.09 185.79,470.66 34.76,19.63 62.61,-35.48 28.12,-54.98 v 0"
         style="fill:#95d8e9;fill-opacity:1;fill-rule:nonzero;stroke:none"
         id="path302" /><path
         d="m 3703.27,3615.21 c 8.74,-42.32 50.13,-69.56 92.46,-60.82 42.34,8.73 69.56,50.14 60.83,92.47 -8.74,42.32 -50.12,69.56 -92.46,60.82 -42.33,-8.73 -69.55,-50.14 -60.83,-92.47"
         style="fill:#293237;fill-opacity:1;fill-rule:nonzero;stroke:none"
         id="path304" /><path
         d="m 3572.61,3411.82 c 7.16,-34.67 41.03,-56.96 75.68,-49.8 34.64,7.15 56.92,41.03 49.79,75.68 -7.15,34.64 -41.04,56.95 -75.68,49.78 -34.65,-7.14 -56.93,-41.03 -49.79,-75.66"
         style="fill:#293237;fill-opacity:1;fill-rule:nonzero;stroke:none"
         id="path306" /><path
         d="m 3557.95,3125.8 c -4.93,39.44 13.76,73.8 48.8,89.65 5.55,2.52 11.5,4.55 17.67,6 21.51,5.07 43.58,0.21 62.15,-13.71 16.92,-12.66 29.44,-31.83 34.33,-52.6 1.98,-8.34 -1.73,-15.96 -9.41,-19.45 -5.2,-2.35 -11.3,-2.27 -16.33,0.2 -4.8,2.36 -8.15,6.63 -9.44,12.04 -3.58,15.22 -12.01,26.49 -24.34,32.55 -12.68,6.23 -28.3,6.31 -41.81,0.18 -19.13,-8.66 -28.92,-27.12 -26.13,-49.33 0.99,-8.04 -3.14,-15.41 -10.53,-18.75 -5.49,-2.5 -11.72,-2.32 -16.66,0.44 -4.65,2.6 -7.61,7.15 -8.3,12.78"
         style="fill:#293237;fill-opacity:1;fill-rule:nonzero;stroke:none"
         id="path308" /><ellipse
         style="fill:#ffffff;stroke-width:7.5"
         id="path666"
         cx="4422.5547"
         cy="-4239.4272"
         transform="scale(1,-1)"
         rx="79.431442"
         ry="66.889641" /><ellipse
         style="fill:#ffffff;stroke-width:7.5"
         id="path668"
         cx="4610.6812"
         cy="-4398.29"
         transform="scale(1,-1)"
         rx="150.50168"
         ry="100.33446" /><ellipse
         style="fill:#ffffff;stroke-width:7.5"
         id="path670"
         cx="4848.9761"
         cy="-4670.0293"
         transform="scale(1,-1)"
         rx="271.73914"
         ry="146.32108" /><ellipse
         style="fill:#ffffff;stroke-width:7.5"
         id="path672"
         cx="6078.0728"
         cy="-5610.6646"
         transform="scale(1,-1)"
         rx="1433.9467"
         ry="1011.7057" /><text
         xml:space="preserve"
         id="text678"
         style="font-style:normal;font-weight:normal;font-size:300px;line-height:1.25;font-family:sans-serif;white-space:pre;shape-inside:url(#rect680);fill:#000000;fill-opacity:1;stroke:none;" /><g
         id="g1426"
         transform="matrix(0.57007627,0.01162256,-0.01064587,0.46588962,4777.6703,4654.5377)"><path
           d="M 5000,967.941 H 0 v 2.5 h 5000 v -2.5"
           style="fill:#cadef4;fill-opacity:1;fill-rule:nonzero;stroke:none"
           id="path1428" /><path
           d="m 1077.13,855.539 h 132.04 v -2.5 h -132.04 v 2.5"
           style="fill:#cadef4;fill-opacity:1;fill-rule:nonzero;stroke:none"
           id="path1430" /><path
           d="m 803.586,854.289 h 200.204 v -2.5 H 803.586 v 2.5"
           style="fill:#cadef4;fill-opacity:1;fill-rule:nonzero;stroke:none"
           id="path1432" /><path
           d="M 2189.89,868.602 H 1670 v 2.5 h 519.89 v -2.5"
           style="fill:#cadef4;fill-opacity:1;fill-rule:nonzero;stroke:none"
           id="path1434" /><path
           d="m 2390,895.68 h -279 v 2.5 h 279 v -2.5"
           style="fill:#cadef4;fill-opacity:1;fill-rule:nonzero;stroke:none"
           id="path1436" /><path
           d="m 3353.33,819.012 h 651.01 v -2.5 h -651.01 v 2.5"
           style="fill:#cadef4;fill-opacity:1;fill-rule:nonzero;stroke:none"
           id="path1438" /><path
           d="m 3137.65,819.012 h 160.15 v -2.5 h -160.15 v 2.5"
           style="fill:#cadef4;fill-opacity:1;fill-rule:nonzero;stroke:none"
           id="path1440" /><path
           d="m 3900.37,879.43 h 286.3 v -2.5 h -286.3 v 2.5"
           style="fill:#cadef4;fill-opacity:1;fill-rule:nonzero;stroke:none"
           id="path1442" /><path
           d="m 439.148,4242.4 c -30.093,0 -54.578,-24.48 -54.578,-54.58 V 1473.51 c 0,-30.1 24.485,-54.58 54.578,-54.58 H 2370.14 c 30.08,0 54.57,24.48 54.57,54.58 v 2714.31 c 0,30.1 -24.49,54.58 -54.57,54.58 z M 2370.14,1416.43 H 439.148 c -31.472,0 -57.078,25.6 -57.078,57.08 v 2714.31 c 0,31.47 25.606,57.08 57.078,57.08 H 2370.14 c 31.46,0 57.07,-25.61 57.07,-57.08 V 1473.51 c 0,-31.48 -25.61,-57.08 -57.07,-57.08"
           style="fill:#cadef4;fill-opacity:1;fill-rule:nonzero;stroke:none"
           id="path1444" /><path
           d="m 2602.12,4242.4 c -30.09,0 -54.57,-24.48 -54.57,-54.58 V 1473.51 c 0,-30.1 24.48,-54.58 54.57,-54.58 h 1930.99 c 30.09,0 54.58,24.48 54.58,54.58 v 2714.31 c 0,30.1 -24.49,54.58 -54.58,54.58 z M 4533.11,1416.43 H 2602.12 c -31.47,0 -57.07,25.6 -57.07,57.08 v 2714.31 c 0,31.47 25.6,57.08 57.07,57.08 h 1930.99 c 31.47,0 57.08,-25.61 57.08,-57.08 V 1473.51 c 0,-31.48 -25.61,-57.08 -57.08,-57.08"
           style="fill:#cadef4;fill-opacity:1;fill-rule:nonzero;stroke:none"
           id="path1446" /><path
           d="m 1512.2,2836.03 370.14,283.46 V 970.441 H 1512.2 V 2836.03"
           style="fill:#f1f7fd;fill-opacity:1;fill-rule:nonzero;stroke:none"
           id="path1448" /><path
           d="m 2074.44,2974.43 -192.1,145.06 V 970.441 h 192.1 V 2974.43"
           style="fill:#deebf8;fill-opacity:1;fill-rule:nonzero;stroke:none"
           id="path1450" /><path
           d="m 2051.6,2560.95 h 526.67 V 970.441 H 2051.6 V 2560.95"
           style="fill:#f1f7fd;fill-opacity:1;fill-rule:nonzero;stroke:none"
           id="path1452" /><path
           d="M 2851.6,2560.95 H 2578.27 V 970.441 H 2851.6 V 2560.95"
           style="fill:#deebf8;fill-opacity:1;fill-rule:nonzero;stroke:none"
           id="path1454" /><path
           d="m 2122.47,2560.95 h 455.8 v 137.55 h -455.8 v -137.55"
           style="fill:#f1f7fd;fill-opacity:1;fill-rule:nonzero;stroke:none"
           id="path1456" /><path
           d="m 2122.47,2560.95 h 455.8 v 30.88 h -455.8 v -30.88"
           style="fill:#deebf8;fill-opacity:1;fill-rule:nonzero;stroke:none"
           id="path1458" /><path
           d="m 2780.73,2560.95 h -202.46 v 137.55 h 202.46 v -137.55"
           style="fill:#deebf8;fill-opacity:1;fill-rule:nonzero;stroke:none"
           id="path1460" /><path
           d="m 2193.33,2698.5 h 384.94 v 137.55 H 2193.33 V 2698.5"
           style="fill:#f1f7fd;fill-opacity:1;fill-rule:nonzero;stroke:none"
           id="path1462" /><path
           d="m 2193.33,2698.5 h 384.94 v 30.89 h -384.94 v -30.89"
           style="fill:#deebf8;fill-opacity:1;fill-rule:nonzero;stroke:none"
           id="path1464" /><path
           d="m 2709.87,2698.5 h -131.6 v 137.55 h 131.6 V 2698.5"
           style="fill:#deebf8;fill-opacity:1;fill-rule:nonzero;stroke:none"
           id="path1466" /><path
           d="m 2464.38,2836.05 h -25.56 v 192.24 h 25.56 v -192.24"
           style="fill:#deebf8;fill-opacity:1;fill-rule:nonzero;stroke:none"
           id="path1468" /><path
           d="m 2764.35,2320.3 h 384.6 V 970.441 h -384.6 V 2320.3"
           style="fill:#f1f7fd;fill-opacity:1;fill-rule:nonzero;stroke:none"
           id="path1470" /><path
           d="M 3348.54,2320.3 H 3148.95 V 970.441 h 199.59 V 2320.3"
           style="fill:#deebf8;fill-opacity:1;fill-rule:nonzero;stroke:none"
           id="path1472" /><path
           d="m 961.609,2486.65 291.661,75.34 V 970.441 H 961.609 V 2486.65"
           style="fill:#f1f7fd;fill-opacity:1;fill-rule:nonzero;stroke:none"
           id="path1474" /><path
           d="M 1404.64,2561.99 H 1253.27 V 970.441 h 151.37 V 2561.99"
           style="fill:#deebf8;fill-opacity:1;fill-rule:nonzero;stroke:none"
           id="path1476" /><path
           d="m 3454.1,2317.27 h 265.64 V 970.441 H 3454.1 V 2317.27"
           style="fill:#f1f7fd;fill-opacity:1;fill-rule:nonzero;stroke:none"
           id="path1478" /><path
           d="m 3857.61,1963.94 -137.87,353.33 V 970.441 h 137.87 v 993.499"
           style="fill:#deebf8;fill-opacity:1;fill-rule:nonzero;stroke:none"
           id="path1480" /><path
           d="m 3777.71,1997.27 h 216.87 V 970.441 H 3777.71 V 1997.27"
           style="fill:#f1f7fd;fill-opacity:1;fill-rule:nonzero;stroke:none"
           id="path1482" /><path
           d="m 4107.15,1777.76 -112.57,219.51 V 970.441 h 112.57 v 807.319"
           style="fill:#deebf8;fill-opacity:1;fill-rule:nonzero;stroke:none"
           id="path1484" /><path
           d="m 4590.18,970.441 c -201.01,0 -3686.492,0 -3686.492,0 0,0 795.502,200.339 1178.082,380.339 382.58,180 449.56,101.42 675.25,-28.58 225.69,-130 441.47,-128.07 755.21,13.34 766.52,345.48 751.1,-242.78 1077.95,-365.099"
           style="fill:#e1edf9;fill-opacity:1;fill-rule:nonzero;stroke:none"
           id="path1486" /><path
           d="m 161.113,970.441 c -35.554,0 3946.687,0 3946.687,0 0,0 -233.33,0.661 -696.67,180.659 -463.33,180 -650,160 -923.33,30 -273.33,-130 -323.24,131.13 -1000.02,278.88 C 645.559,1643.86 506.113,970.441 161.113,970.441"
           style="fill:#cadef4;fill-opacity:1;fill-rule:nonzero;stroke:none"
           id="path1488" /><path
           d="m 3409.81,3485.13 c 0,-176.96 -143.46,-320.42 -320.43,-320.42 -176.97,0 -320.42,143.46 -320.42,320.42 0,176.97 143.45,320.43 320.42,320.43 176.97,0 320.43,-143.46 320.43,-320.43"
           style="fill:#f1f7fd;fill-opacity:1;fill-rule:nonzero;stroke:none"
           id="path1490" /><path
           d="m 638.867,3496.33 c -58.008,125.34 -11.965,214.57 129.824,214.57 88.914,0 199.176,-35.12 306.539,-92.3 12.13,32.6 46.29,52.13 101.24,52.13 96.73,0 230.05,-60.36 334.64,-145.53 25.31,18.99 61.93,30.62 108.99,32.48 92.57,3.85 204.68,-30.84 302.15,-87.25 8.44,9.44 22.92,15.37 42.9,16.24 53.35,2.2 125.55,-32.81 161.42,-78.14 2.23,-2.85 4.21,-5.6 6.2,-8.34 h -110.79 -88.15 -306.22 -150.69 -117.16 -180.48 -32.75 -447.675 -132.019 c -49.477,44.43 5.211,93.91 72.031,96.14"
           style="fill:#deebf8;fill-opacity:1;fill-rule:nonzero;stroke:none"
           id="path1492" /><path
           d="m 2953.54,3228.36 c 4.41,0.48 8.88,0.71 13.41,0.71 -4.16,46.49 19.93,76.18 71.39,76.18 37.12,0 82.68,-15.5 129.11,-41.73 -13.28,90.24 29.27,148.89 125.6,148.89 77.71,0 176.1,-38.14 273.28,-100.37 8.5,35.41 37.14,56.62 85.25,56.62 84.51,0 204.6,-65.56 300.89,-158.06 0,0 0.04,-0.12 0.12,0 20.81,20.62 52.07,33.37 93.15,35.4 80.48,4.17 180.4,-33.5 268.99,-94.88 6.73,10.37 19.01,16.8 36.56,17.64 44.01,2.26 104.66,-31.59 139.87,-76.89 h -102.65 -69.6 -267.64 -125.34 -111.61 -158.54 -299.51 -116.75 -41.54 -166.16 -149.11 c -37.76,68.66 -7.67,128.74 70.83,136.49"
           style="fill:#deebf8;fill-opacity:1;fill-rule:nonzero;stroke:none"
           id="path1494" /><path
           d="m 4438.89,632.039 c 0,-62.539 -868.07,-113.23 -1938.89,-113.23 -1070.82,0 -1938.887,50.691 -1938.887,113.23 0,62.539 868.067,113.242 1938.887,113.242 1070.82,0 1938.89,-50.703 1938.89,-113.242"
           style="fill:#ecf4fb;fill-opacity:1;fill-rule:nonzero;stroke:none"
           id="path1496" /><path
           d="m 2527.58,808.16 58.78,-52.59 111.83,116.469 -58.78,52.59 -111.83,-116.469"
           style="fill:#f47171;fill-opacity:1;fill-rule:nonzero;stroke:none"
           id="path1498" /><path
           d="m 2728.88,698.672 h 74.13 l 9.63,171.68 h -74.13 l -9.63,-171.68"
           style="fill:#f47171;fill-opacity:1;fill-rule:nonzero;stroke:none"
           id="path1500" /><path
           d="m 2806.89,707.262 h -83.28 c -3.03,0 -5.32,-2.114 -5.49,-5.071 l -4.05,-65.902 c -0.42,-6.82 6,-13.301 12.98,-13.18 28.99,0.512 42.85,2.2 79.47,2.2 22.54,0 118.34,-2.329 149.46,-2.329 30.44,0 30.23,30.758 17.04,33.559 -59.13,12.492 -132.42,29.723 -153.35,46.16 -3.78,2.973 -8.34,4.563 -12.78,4.563"
           style="fill:#1a2847;fill-opacity:1;fill-rule:nonzero;stroke:none"
           id="path1502" /><path
           d="m 2602.57,776.672 -71.46,48.109 c -2.67,1.789 -6.07,1.699 -8.17,-0.242 l -54.61,-55.109 c -4.85,-4.481 -3.27,-12.168 2.63,-16.711 45.58,-35.11 78.51,-61.598 104.46,-90.789 30.33,-34.129 46.25,-38.95 116.25,-38.95 32.37,0 50.69,27.27 37.5,31.45 -116.67,36.941 -85.48,52.992 -113.82,107.09 -3.07,5.871 -7.14,11.351 -12.78,15.152"
           style="fill:#1a2847;fill-opacity:1;fill-rule:nonzero;stroke:none"
           id="path1504" /><path
           d="m 3086.82,3160.34 c 1.36,-4.38 3.61,-11.07 5.63,-16.72 l 6.41,-17.85 c 4.42,-11.92 9.21,-23.75 14.32,-35.4 10.17,-23.3 21.23,-46.11 33.58,-67.67 24.58,-43.02 54.47,-81.93 89.7,-106.85 l 6.2,-4.27 c 0.07,-0.14 0,-0.34 -0.05,-0.41 -0.13,-0.22 -0.02,-0.67 1.45,-0.87 2.94,-0.57 10.76,1.05 19.32,5.22 17.47,8.46 37.57,23.68 56,40.7 18.87,16.95 37.04,36.05 54.86,55.77 17.87,19.54 35.33,40.67 51.86,60.98 l 47.64,-28.8 c -25.3,-52.21 -54.37,-100.59 -92.65,-146.77 -19.69,-22.64 -40.56,-45.35 -71.05,-64.43 -15.37,-9.29 -33.69,-18.45 -58.36,-21.32 -12.27,-1.27 -26.13,-0.33 -39.4,3.62 -6.66,1.9 -13.03,4.62 -19.01,7.75 l -11.45,6.49 c -29.09,17.13 -53.9,38.73 -75.19,62.01 -21.51,23.18 -39.63,48.23 -55.58,73.99 -16.05,25.74 -29.68,52.38 -41.68,79.57 -5.94,13.62 -11.47,27.38 -16.63,41.33 -2.55,6.99 -5.1,13.99 -7.41,21.14 -2.35,7.43 -4.36,13.85 -6.79,22.74 l 108.28,30.05"
           style="fill:#f47171;fill-opacity:1;fill-rule:nonzero;stroke:none"
           id="path1506" /><path
           d="m 2951.63,3174.5 c -22.68,-66.33 110.66,-261.66 110.66,-261.66 l 127.89,70.79 c 0,0 -34.82,99.35 -76.8,178.02 -45.06,84.42 -136.86,85.65 -161.75,12.85"
           style="fill:#1a2847;fill-opacity:1;fill-rule:nonzero;stroke:none"
           id="path1508" /><path
           d="m 2949.69,3166.11 c 28.6,13.77 61.59,2.25 96.22,-52.53 34.18,-54.23 64.23,-146.36 67.47,-172.47 l -51.1,-28.27 c 0,0 -123.13,180.37 -112.59,253.27"
           style="fill:#142037;fill-opacity:1;fill-rule:nonzero;stroke:none"
           id="path1510" /><path
           d="m 3423.4,3074.83 26.52,64.44 59.42,-45.45 c 0,0 -36.16,-72.65 -60.68,-66.06 l -25.26,47.07"
           style="fill:#f47171;fill-opacity:1;fill-rule:nonzero;stroke:none"
           id="path1512" /><path
           d="m 3534.17,3147.48 27.77,-34.05 -52.6,-19.61 -59.42,45.45 84.25,8.21"
           style="fill:#f47171;fill-opacity:1;fill-rule:nonzero;stroke:none"
           id="path1514" /><path
           d="m 2698.14,872.012 -57.62,-60.043 -58.81,52.609 57.64,60.051 58.79,-52.617"
           style="fill:#ef5b5c;fill-opacity:1;fill-rule:nonzero;stroke:none"
           id="path1516" /><path
           d="m 2738.49,870.301 h 74.16 l -5,-88.481 h -74.16 l 5,88.481"
           style="fill:#ef5b5c;fill-opacity:1;fill-rule:nonzero;stroke:none"
           id="path1518" /><path
           d="m 3037.9,3225.23 c 0,0 95.26,-223.87 26.61,-640.78 -119.47,0 -338.39,0 -396.52,0 -4.85,60.87 23.1,357.8 -45.56,644.6 0,0 67.5,13.64 132.16,16.77 50.59,2.44 123.88,4.06 168.56,-0.01 58.91,-5.36 114.75,-20.58 114.75,-20.58"
           style="fill:#1a2847;fill-opacity:1;fill-rule:nonzero;stroke:none"
           id="path1520" /><path
           d="m 2711.03,3158.24 c 8.24,-47.19 -2.74,-160.13 -43.16,-290.63 -3.62,100.44 -13.7,216.89 -38.94,332.91 l -0.02,0.57 c 26.03,2.66 74.26,1.4 82.12,-42.85"
           style="fill:#142037;fill-opacity:1;fill-rule:nonzero;stroke:none"
           id="path1522" /><path
           d="m 2764.71,3435.62 c 12.52,-54.24 26.57,-153.62 -10.12,-189.8 0,0 15.83,-44.93 116.61,-44.93 110.81,0 51.95,44.92 51.95,44.92 -60.98,14.44 -60.97,59.32 -51.9,101.45 l -106.54,88.36"
           style="fill:#f47171;fill-opacity:1;fill-rule:nonzero;stroke:none"
           id="path1524" /><path
           d="m 2808.14,3399.57 63.06,-52.26 c -2.19,-9.97 -3.8,-20.09 -4.16,-29.92 -23.22,3.34 -55.84,28.71 -59.13,52.9 -1.64,12.06 -1.53,23.66 0.23,29.28"
           style="fill:#ef5b5c;fill-opacity:1;fill-rule:nonzero;stroke:none"
           id="path1526" /><path
           d="m 2896.19,3619.44 c 37.97,-12.9 68.2,-113.38 24.04,-139.92 -44.16,-26.54 -95.97,164.36 -24.04,139.92"
           style="fill:#1a2847;fill-opacity:1;fill-rule:nonzero;stroke:none"
           id="path1528" /><path
           d="m 2741.01,3492.45 c 22.58,-70.23 32.22,-112.36 77.79,-140.97 68.54,-43.05 148.77,8.93 147.73,83.75 -0.92,67.34 -37.71,170.88 -115.17,183.84 -76.32,12.78 -132.94,-56.39 -110.35,-126.62"
           style="fill:#f47171;fill-opacity:1;fill-rule:nonzero;stroke:none"
           id="path1530" /><path
           d="m 2665.56,3598.31 c -33.33,-18.88 -49.59,-68.35 -14.45,-109.44 46.12,-53.92 125.71,-87.07 147.57,-65.3 36.47,15.44 25.07,41.27 -28.63,119.47 22.45,2.22 176.45,12.79 208.84,100.83 17.78,48.33 -55.11,109.72 -132.21,113.89 29.99,-75.56 -175.43,-73.33 -181.12,-159.45"
           style="fill:#1a2847;fill-opacity:1;fill-rule:nonzero;stroke:none"
           id="path1532" /><path
           d="m 2728.65,3406.88 c 14.36,-14.14 33.8,-20.63 50.23,-20.62 24.69,0.01 29.67,23.37 16.63,42.92 -11.74,17.6 -38.74,38.8 -60.56,29.38 -21.5,-9.29 -22.71,-35.51 -6.3,-51.68"
           style="fill:#f47171;fill-opacity:1;fill-rule:nonzero;stroke:none"
           id="path1534" /><path
           d="m 3064.51,2584.45 c 0,0 78.1,-540.58 104.76,-834.86 21.38,-236.02 -489.11,-940.309 -489.11,-940.309 l -98.76,92.918 c 0,0 372.88,631.111 344.18,893.901 -27.81,254.53 -122.05,788.35 -122.05,788.35 h 260.98"
           style="fill:#9abee8;fill-opacity:1;fill-rule:nonzero;stroke:none"
           id="path1536" /><path
           d="m 2925.53,1796.13 c -14.3,131.1 -46.3,336.5 -73.8,504.7 14.4,28.2 54.78,85.26 54.78,85.26 36.2,-125.1 114.89,-596.66 2.62,-1233.57 -117,-188.59 -229,-343.192 -229,-343.192 l -15.31,243.192 c 108.11,203.41 280.61,561.7 260.71,743.61"
           style="fill:#7aaae0;fill-opacity:1;fill-rule:nonzero;stroke:none"
           id="path1538" /><path
           d="m 2575.39,907.852 110.76,-104.223 35.66,38.301 -126.66,115.422 -19.76,-49.5"
           style="fill:#3359b1;fill-opacity:1;fill-rule:nonzero;stroke:none"
           id="path1540" /><path
           d="m 2923.52,2584.45 c 0,0 7.06,-566.56 -4.97,-778.81 -13.17,-232.44 -79.11,-1002.46 -79.11,-1002.46 h -135.78 c 0,0 4.05,751.26 -4.13,981.38 -8.88,249.78 -31.88,799.89 -31.88,799.89 h 255.87"
           style="fill:#9abee8;fill-opacity:1;fill-rule:nonzero;stroke:none"
           id="path1542" /><path
           d="m 2698.19,803.18 h 146.73 l 8.14,51.519 -161.95,-8.051 7.08,-43.468"
           style="fill:#3359b1;fill-opacity:1;fill-rule:nonzero;stroke:none"
           id="path1544" /><path
           d="m 2849.66,3494.59 c 1.48,-5.79 5.78,-9.82 9.6,-8.98 3.82,0.83 5.71,6.21 4.23,12 -1.48,5.8 -5.78,9.82 -9.59,8.99 -3.82,-0.83 -5.72,-6.21 -4.24,-12.01"
           style="fill:#1a2847;fill-opacity:1;fill-rule:nonzero;stroke:none"
           id="path1546" /><path
           d="m 2915.68,3509.04 c 1.49,-5.8 5.78,-9.82 9.6,-8.99 3.82,0.84 5.72,6.22 4.23,12.01 -1.47,5.8 -5.77,9.82 -9.59,8.99 -3.82,-0.84 -5.71,-6.21 -4.24,-12.01"
           style="fill:#1a2847;fill-opacity:1;fill-rule:nonzero;stroke:none"
           id="path1548" /><path
           d="m 2900.68,3503.33 c 0,0 21.83,-30.54 40.57,-43.48 -7.89,-11.83 -26.58,-11.3 -26.58,-11.3 l -13.99,54.78"
           style="fill:#f14454;fill-opacity:1;fill-rule:nonzero;stroke:none"
           id="path1550" /><path
           d="m 2893.18,3422.45 c -20.28,0 -32.67,11.37 -33.28,11.95 -0.7,0.66 -0.74,1.77 -0.08,2.48 0.67,0.69 1.77,0.73 2.48,0.08 0.16,-0.15 16.76,-15.3 42.39,-9.73 0.94,0.23 1.87,-0.39 2.09,-1.34 0.2,-0.94 -0.4,-1.88 -1.35,-2.09 -4.34,-0.94 -8.43,-1.35 -12.25,-1.35"
           style="fill:#1a2847;fill-opacity:1;fill-rule:nonzero;stroke:none"
           id="path1552" /><path
           d="m 2828.74,3513.03 c -0.47,0 -0.95,0.09 -1.4,0.29 -1.77,0.77 -2.59,2.84 -1.82,4.62 7.64,17.6 23.74,20.14 24.42,20.25 1.98,0.26 3.71,-1.06 3.99,-2.97 0.27,-1.92 -1.05,-3.69 -2.95,-3.98 v 0 c -0.53,-0.08 -12.97,-2.19 -19.02,-16.1 -0.57,-1.32 -1.86,-2.11 -3.22,-2.11"
           style="fill:#1a2847;fill-opacity:1;fill-rule:nonzero;stroke:none"
           id="path1554" /><path
           d="m 2944.32,3535.91 c -0.98,-0.24 -2.05,-0.05 -2.92,0.59 -12.85,9.52 -25.22,5.42 -25.37,5.4 -2.18,-0.68 -3.84,0.37 -4.46,2.19 -0.62,1.84 0.35,3.84 2.19,4.46 0.69,0.22 16.07,5.26 31.82,-6.41 1.56,-1.16 1.89,-3.35 0.73,-4.91 -0.51,-0.68 -1.22,-1.13 -1.99,-1.32"
           style="fill:#1a2847;fill-opacity:1;fill-rule:nonzero;stroke:none"
           id="path1556" /><path
           d="m 2698.11,3117.6 -17.58,-30.34 c -5.95,-10.39 -11.76,-20.93 -17.4,-31.53 -11.36,-21.16 -22.38,-42.49 -32.84,-63.93 -10.24,-21.49 -20.09,-43.1 -28.88,-64.77 -8.38,-21.7 -16.73,-43.5 -22.51,-65.04 l -1.19,-4.05 -0.59,-2.03 c -0.21,-0.68 -0.1,-0.26 -0.18,-0.45 -0.2,-0.1 -0.36,-0.89 -0.57,-1.8 -0.33,-2.06 -0.33,-5.41 0.03,-9.29 0.64,-7.88 2.79,-17.72 5.87,-27.8 6.3,-20.25 15.14,-42.05 25.35,-63.42 20.2,-42.93 44.27,-86.69 68.54,-128.93 l -43.86,-34.28 c -36.6,37.59 -69.24,76.98 -98.79,121.28 -14.43,22.35 -28.53,45.39 -39.95,72.14 -5.72,13.41 -10.98,27.69 -14.6,44.56 -1.73,8.48 -2.98,17.68 -3.04,28.18 0.06,5.36 0.3,10.85 1.27,16.92 l 0.7,4.17 0.5,2.55 1.03,5.09 c 10.48,54.72 28.69,105.02 49.56,153.46 10.54,24.17 22.03,47.75 34.28,70.88 6.18,11.55 12.52,22.99 19.07,34.36 6.55,11.59 13.11,22.26 20.94,34.36 l 94.84,-60.29"
           style="fill:#f47171;fill-opacity:1;fill-rule:nonzero;stroke:none"
           id="path1558" /><path
           d="m 2622.43,3229.05 c -69.78,-10.2 -141.68,-253.25 -141.68,-253.25 l 150.2,-83.21 c 0,0 60.87,115.6 89.89,201.45 30.4,89.94 -23.55,145.96 -98.41,135.01"
           style="fill:#1a2847;fill-opacity:1;fill-rule:nonzero;stroke:none"
           id="path1560" /><path
           d="m 2818.17,699.488 c 13.25,-2.629 23.04,-2.218 26.49,1.223 1.43,1.418 1.83,3.437 1.23,6.168 -0.28,1.262 -0.89,2.031 -1.92,2.43 -4.87,1.863 -17.21,-4.348 -25.8,-9.821 z m 15.01,-5.136 c -6.84,0 -14.43,1.398 -19.76,2.636 -0.67,0.16 -1.17,0.692 -1.31,1.364 -0.13,0.668 0.16,1.347 0.71,1.738 2.37,1.64 23.48,16.019 32.4,12.43 2.1,-0.821 3.5,-2.508 4.03,-4.879 0.88,-3.942 0.15,-7.09 -2.16,-9.391 -2.94,-2.922 -8.16,-3.898 -13.91,-3.898"
           style="fill:#4d6dbe;fill-opacity:1;fill-rule:nonzero;stroke:none"
           id="path1562" /><path
           d="m 2823.95,727 c -1.44,0 -2.66,-0.5 -3.73,-1.52 -4.46,-4.3 -5.06,-16.511 -4.86,-23.55 6.45,5.449 13.81,17.199 12.69,22.511 -0.22,1 -0.78,2.2 -3.3,2.52 -0.28,0.019 -0.55,0.039 -0.8,0.039 z m -10.14,-30.051 c -0.27,0 -0.55,0.063 -0.79,0.192 -0.53,0.269 -0.88,0.8 -0.93,1.39 -0.08,0.91 -1.74,22.219 5.74,29.43 2.02,1.949 4.53,2.82 7.33,2.41 3.41,-0.41 5.64,-2.262 6.27,-5.223 1.7,-8.097 -9.35,-23.57 -16.74,-27.957 -0.27,-0.16 -0.58,-0.242 -0.88,-0.242"
           style="fill:#4d6dbe;fill-opacity:1;fill-rule:nonzero;stroke:none"
           id="path1564" /><path
           d="m 2620.38,750.828 c 16.01,-8.758 28.65,-12.609 34.22,-10.219 1.7,0.692 2.77,1.961 3.27,3.871 0.2,0.739 0.07,1.282 -0.4,1.86 -3.67,4.398 -22.74,5.121 -37.09,4.488 z m 30.2,-14.34 c -10.89,0 -27.27,8.532 -37.01,14.242 -0.65,0.391 -0.98,1.149 -0.81,1.879 0.17,0.731 0.8,1.27 1.56,1.332 3.98,0.289 39.1,2.661 45.8,-5.39 1.19,-1.43 1.57,-3.141 1.09,-4.942 -0.79,-2.988 -2.57,-5.07 -5.29,-6.199 -1.54,-0.64 -3.35,-0.922 -5.34,-0.922"
           style="fill:#4d6dbe;fill-opacity:1;fill-rule:nonzero;stroke:none"
           id="path1566" /><path
           d="m 2637.56,771.18 c -9.16,0 -16.94,-11.578 -20.08,-16.989 10.65,1.368 26.86,8 27.86,12.707 0.24,1.051 -0.74,2.122 -2.9,3.153 -1.66,0.789 -3.29,1.129 -4.88,1.129 z m -23.12,-20.692 c -0.58,0 -1.13,0.301 -1.45,0.793 -0.32,0.508 -0.36,1.141 -0.1,1.688 0.56,1.16 13.94,28.351 31.04,20.191 4.71,-2.262 5.21,-5.039 4.79,-6.988 -1.73,-8.043 -24.02,-15.453 -34.24,-15.684 -0.01,0 -0.03,0 -0.04,0"
           style="fill:#4d6dbe;fill-opacity:1;fill-rule:nonzero;stroke:none"
           id="path1568" /><path
           d="m 2656.33,2640.64 73.82,12.85 -37.89,-85.43 c 0,0 -67.38,0.39 -64.29,35.12 l 28.36,37.46"
           style="fill:#f47171;fill-opacity:1;fill-rule:nonzero;stroke:none"
           id="path1570" /><path
           d="m 2785.21,2610.56 -34.67,-69.03 -58.28,26.53 37.89,85.43 55.06,-42.93"
           style="fill:#f47171;fill-opacity:1;fill-rule:nonzero;stroke:none"
           id="path1572" /><path
           d="m 2195.47,1583.31 c -585.77,0 -1062.32,729.83 -1062.32,1626.9 0,5.52 4.48,10 10,10 5.52,0 10,-4.48 10,-10 0,-886.05 467.58,-1606.9 1042.32,-1606.9 574.74,0 1042.31,720.85 1042.31,1606.9 0,5.52 4.48,10 10,10 5.53,0 10,-4.48 10,-10 0,-897.07 -476.55,-1626.9 -1062.31,-1626.9"
           style="fill:#5280c9;fill-opacity:1;fill-rule:nonzero;stroke:none"
           id="path1574" /><path
           d="m 1721.76,1816.03 h -578.61 v 117.44 h 578.61 v -117.44"
           style="fill:#5280c9;fill-opacity:1;fill-rule:nonzero;stroke:none"
           id="path1576" /><path
           d="m 1721.76,2224.65 h -578.61 v 117.44 h 578.61 v -117.44"
           style="fill:#5280c9;fill-opacity:1;fill-rule:nonzero;stroke:none"
           id="path1578" /><path
           d="m 1721.76,2633.27 h -578.61 v 117.44 h 578.61 v -117.44"
           style="fill:#5280c9;fill-opacity:1;fill-rule:nonzero;stroke:none"
           id="path1580" /><path
           d="m 1721.76,2995.98 h -578.61 v 117.45 h 578.61 v -117.45"
           style="fill:#5280c9;fill-opacity:1;fill-rule:nonzero;stroke:none"
           id="path1582" /><path
           d="m 1727.74,1816.03 h -127.32 v 117.44 h 127.32 v -117.44"
           style="fill:#3359b1;fill-opacity:1;fill-rule:nonzero;stroke:none"
           id="path1584" /><path
           d="m 1736.83,2224.65 h -127.32 v 117.44 h 127.32 v -117.44"
           style="fill:#3359b1;fill-opacity:1;fill-rule:nonzero;stroke:none"
           id="path1586" /><path
           d="m 1744.88,2633.27 h -127.32 v 117.44 h 127.32 v -117.44"
           style="fill:#3359b1;fill-opacity:1;fill-rule:nonzero;stroke:none"
           id="path1588" /><path
           d="m 1752.93,2995.98 h -127.31 v 117.45 h 127.31 v -117.45"
           style="fill:#3359b1;fill-opacity:1;fill-rule:nonzero;stroke:none"
           id="path1590" /><path
           d="M 1804.64,879.43 H 1638.89 V 633.91 h 165.75 v 245.52"
           style="fill:#5280c9;fill-opacity:1;fill-rule:nonzero;stroke:none"
           id="path1592" /><path
           d="m 1795.56,1933.47 h -147.59 v 408.62 h 147.59 v -408.62"
           style="fill:#5280c9;fill-opacity:1;fill-rule:nonzero;stroke:none"
           id="path1594" /><path
           d="m 1787.5,2750.71 h -131.47 v -408.62 h 131.47 v 408.62"
           style="fill:#5280c9;fill-opacity:1;fill-rule:nonzero;stroke:none"
           id="path1596" /><path
           d="m 1779.44,2750.71 h -115.36 v 408.62 h 115.36 v -408.62"
           style="fill:#5280c9;fill-opacity:1;fill-rule:nonzero;stroke:none"
           id="path1598" /><path
           d="M 3330.66,1933.47 H 3164.91 V 879.43 h 165.75 v 1054.04"
           style="fill:#5280c9;fill-opacity:1;fill-rule:nonzero;stroke:none"
           id="path1600" /><path
           d="M 3330.66,1418.93 H 3164.91 V 1286.1 l 165.75,-83.34 v 216.17"
           style="fill:#3359b1;fill-opacity:1;fill-rule:nonzero;stroke:none"
           id="path1602" /><path
           d="M 1226.03,1933.47 H 1060.27 V 879.43 h 165.76 v 1054.04"
           style="fill:#5280c9;fill-opacity:1;fill-rule:nonzero;stroke:none"
           id="path1604" /><path
           d="M 1226.03,1418.93 H 1060.27 V 1286.1 l 165.76,-83.34 v 216.17"
           style="fill:#3359b1;fill-opacity:1;fill-rule:nonzero;stroke:none"
           id="path1606" /><path
           d="M 881.113,1498.04 H 730.758 v 10 h 150.355 v -10"
           style="fill:#5280c9;fill-opacity:1;fill-rule:nonzero;stroke:none"
           id="path1608" /><path
           d="m 708.535,1498.04 h -40 v 10 h 40 v -10"
           style="fill:#5280c9;fill-opacity:1;fill-rule:nonzero;stroke:none"
           id="path1610" /><path
           d="M 4438.89,1473.05 H 561.113 V 1359.81 H 4438.89 v 113.24"
           style="fill:#5280c9;fill-opacity:1;fill-rule:nonzero;stroke:none"
           id="path1612" /><path
           d="M 1870,1473.05 H 1721.76 V 1359.81 H 1870 v 113.24"
           style="fill:#3359b1;fill-opacity:1;fill-rule:nonzero;stroke:none"
           id="path1614" /><path
           d="M 1804.64,1933.47 H 1638.89 V 879.43 h 165.75 v 1054.04"
           style="fill:#5280c9;fill-opacity:1;fill-rule:nonzero;stroke:none"
           id="path1616" /><path
           d="m 1821.76,879.43 h -200 V 633.91 h 200 v 245.52"
           style="fill:#5280c9;fill-opacity:1;fill-rule:nonzero;stroke:none"
           id="path1618" /><path
           d="m 1243.15,879.43 h -200 V 633.91 h 200 v 245.52"
           style="fill:#5280c9;fill-opacity:1;fill-rule:nonzero;stroke:none"
           id="path1620" /><path
           d="m 1216.94,1933.47 h -147.58 v 408.62 h 147.58 v -408.62"
           style="fill:#5280c9;fill-opacity:1;fill-rule:nonzero;stroke:none"
           id="path1622" /><path
           d="m 1208.89,2750.71 h -131.48 v -408.62 h 131.48 v 408.62"
           style="fill:#5280c9;fill-opacity:1;fill-rule:nonzero;stroke:none"
           id="path1624" /><path
           d="m 1200.83,2750.71 h -115.36 v 408.62 h 115.36 v -408.62"
           style="fill:#5280c9;fill-opacity:1;fill-rule:nonzero;stroke:none"
           id="path1626" /><path
           d="m 1756.76,3159.33 h -70 v 66.76 c 0,19.33 15.67,35 35,35 v 0 c 19.33,0 35,-15.67 35,-35 v -66.76"
           style="fill:#5280c9;fill-opacity:1;fill-rule:nonzero;stroke:none"
           id="path1628" /><path
           d="m 1178.15,3159.33 h -70 v 66.76 c 0,19.33 15.67,35 35,35 v 0 c 19.33,0 35,-15.67 35,-35 v -66.76"
           style="fill:#5280c9;fill-opacity:1;fill-rule:nonzero;stroke:none"
           id="path1630" /><path
           d="m 3826.41,1816.03 h -578.63 v 117.44 h 578.63 v -117.44"
           style="fill:#5280c9;fill-opacity:1;fill-rule:nonzero;stroke:none"
           id="path1632" /><path
           d="m 3826.41,2224.65 h -578.63 v 117.44 h 578.63 v -117.44"
           style="fill:#5280c9;fill-opacity:1;fill-rule:nonzero;stroke:none"
           id="path1634" /><path
           d="m 3826.41,2633.27 h -578.63 v 117.44 h 578.63 v -117.44"
           style="fill:#5280c9;fill-opacity:1;fill-rule:nonzero;stroke:none"
           id="path1636" /><path
           d="m 3826.41,2995.98 h -578.63 v 117.45 h 578.63 v -117.45"
           style="fill:#5280c9;fill-opacity:1;fill-rule:nonzero;stroke:none"
           id="path1638" /><path
           d="m 3832.38,1816.03 h -127.32 v 117.44 h 127.32 v -117.44"
           style="fill:#3359b1;fill-opacity:1;fill-rule:nonzero;stroke:none"
           id="path1640" /><path
           d="m 3841.46,2224.65 h -127.32 v 117.44 h 127.32 v -117.44"
           style="fill:#3359b1;fill-opacity:1;fill-rule:nonzero;stroke:none"
           id="path1642" /><path
           d="M 3849.52,2633.27 H 3722.2 v 117.44 h 127.32 v -117.44"
           style="fill:#3359b1;fill-opacity:1;fill-rule:nonzero;stroke:none"
           id="path1644" /><path
           d="m 3857.58,2995.98 h -127.33 v 117.45 h 127.33 v -117.45"
           style="fill:#3359b1;fill-opacity:1;fill-rule:nonzero;stroke:none"
           id="path1646" /><path
           d="M 3909.28,879.43 H 3743.53 V 633.91 h 165.75 v 245.52"
           style="fill:#5280c9;fill-opacity:1;fill-rule:nonzero;stroke:none"
           id="path1648" /><path
           d="m 3900.2,1933.47 h -147.59 v 408.62 h 147.59 v -408.62"
           style="fill:#5280c9;fill-opacity:1;fill-rule:nonzero;stroke:none"
           id="path1650" /><path
           d="m 3892.14,2750.71 h -131.48 v -408.62 h 131.48 v 408.62"
           style="fill:#5280c9;fill-opacity:1;fill-rule:nonzero;stroke:none"
           id="path1652" /><path
           d="m 3884.08,2750.71 h -115.36 v 408.62 h 115.36 v -408.62"
           style="fill:#5280c9;fill-opacity:1;fill-rule:nonzero;stroke:none"
           id="path1654" /><path
           d="m 3974.64,1473.05 h -148.23 v -113.24 h 148.23 v 113.24"
           style="fill:#3359b1;fill-opacity:1;fill-rule:nonzero;stroke:none"
           id="path1656" /><path
           d="M 3909.28,1933.47 H 3743.53 V 879.43 h 165.75 v 1054.04"
           style="fill:#5280c9;fill-opacity:1;fill-rule:nonzero;stroke:none"
           id="path1658" /><path
           d="m 3926.41,879.43 h -200 V 633.91 h 200 v 245.52"
           style="fill:#5280c9;fill-opacity:1;fill-rule:nonzero;stroke:none"
           id="path1660" /><path
           d="m 3347.78,879.43 h -200 V 633.91 h 200 v 245.52"
           style="fill:#5280c9;fill-opacity:1;fill-rule:nonzero;stroke:none"
           id="path1662" /><path
           d="m 3321.58,1933.47 h -147.59 v 408.62 h 147.59 v -408.62"
           style="fill:#5280c9;fill-opacity:1;fill-rule:nonzero;stroke:none"
           id="path1664" /><path
           d="m 3313.53,2750.71 h -131.48 v -408.62 h 131.48 v 408.62"
           style="fill:#5280c9;fill-opacity:1;fill-rule:nonzero;stroke:none"
           id="path1666" /><path
           d="m 3305.47,2750.71 h -115.36 v 408.62 h 115.36 v -408.62"
           style="fill:#5280c9;fill-opacity:1;fill-rule:nonzero;stroke:none"
           id="path1668" /><path
           d="m 3861.41,3159.33 h -70 v 66.76 c 0,19.33 15.66,35 35,35 v 0 c 19.32,0 35,-15.67 35,-35 v -66.76"
           style="fill:#5280c9;fill-opacity:1;fill-rule:nonzero;stroke:none"
           id="path1670" /><path
           d="m 3282.78,3159.33 h -70 v 66.76 c 0,19.33 15.68,35 35,35 v 0 c 19.34,0 35,-15.67 35,-35 v -66.76"
           style="fill:#5280c9;fill-opacity:1;fill-rule:nonzero;stroke:none"
           id="path1672" /><path
           d="m 2774.08,1583.31 c -585.76,0 -1062.32,729.83 -1062.32,1626.9 0,5.52 4.48,10 10,10 5.53,0 10,-4.48 10,-10 0,-886.05 467.59,-1606.9 1042.32,-1606.9 574.74,0 1042.33,720.85 1042.33,1606.9 0,5.52 4.47,10 10,10 5.52,0 10,-4.48 10,-10 0,-897.07 -476.56,-1626.9 -1062.33,-1626.9"
           style="fill:#5280c9;fill-opacity:1;fill-rule:nonzero;stroke:none"
           id="path1674" /></g><ellipse
         style="fill:#ffffff;stroke-width:7.5"
         id="path666-3"
         cx="3724.3938"
         cy="-4276.8604"
         rx="79.431442"
         ry="66.889641"
         transform="scale(1,-1)" /><ellipse
         style="fill:#ffffff;stroke-width:7.5"
         id="path668-6"
         cx="3465.1965"
         cy="-4427.3623"
         rx="150.50168"
         ry="100.33446"
         transform="scale(1,-1)" /><ellipse
         style="fill:#ffffff;stroke-width:7.5"
         id="path670-0"
         cx="3214.3606"
         cy="-4745.0879"
         rx="271.73914"
         ry="146.32108"
         transform="scale(1,-1)" /><ellipse
         style="fill:#ffffff;stroke-width:7.5"
         id="path672-4"
         cx="2202.6548"
         cy="-5940.7402"
         rx="1433.9467"
         ry="1011.7057"
         transform="scale(1,-1)" /><g
         id="g2816"
         transform="matrix(0.24020099,0,0,0.18793479,1208.9392,5188.5191)"
         clip-path="url(#clipPath2934)"><path
           d="M 8000,0 H 0 V 8000 H 8000 V 0"
           style="fill:#a2c8ac;fill-opacity:1;fill-rule:nonzero;stroke:none"
           id="path2818" /><path
           d="m 1645.87,2557 c 512.34,-729.42 1103.17,-963.82 1420.69,-634.54 526.85,546.37 -430.04,755.9 -627.28,1053.24 -222.97,336.17 59.95,863.75 575.65,1386.97 543.91,551.85 1825.32,877.89 2388.77,765.04 398.04,-79.74 258.03,-971.75 1267.34,-629.3 439.57,149.14 -36.79,1171.03 -876.78,1324.01 -616.05,112.2 -2073.99,-430.66 -2073.99,-430.66 339.8,282.59 1230.18,536.16 1605.1,629.94 828.62,207.27 1126.13,-471.7 1456.82,34.25 413.57,632.77 -871.31,846.36 -1635.86,630.74 -559.3,-157.73 -1556.44,-819.64 -1556.44,-819.64 245.54,272.87 501.41,506.4 747.11,662.53 619.67,393.75 1259.67,267.09 1293,613.76 54.66,568.47 -732.07,489.32 -1638.24,-218.83 -378.43,-295.73 -746.7,-977.64 -746.7,-977.64 32.05,265.56 154.05,510.87 278.79,690.96 410.32,592.71 982.95,614.71 605.86,972.82 C 3850.46,7875.77 3361.73,7381.58 3044.68,6765.21 2772.72,6236.58 2706.13,5687.36 2706.13,5687.36 L 2094.93,6270.3 921.316,4846.68 1829.96,4140.34 C 1567.66,3783.79 1190.27,3205.63 1645.87,2557"
           style="fill:#9f2920;fill-opacity:1;fill-rule:nonzero;stroke:none"
           id="path2820" /><path
           d="M 2499.23,6072.36 1105.13,4498.41 732.387,4829.22 2030.87,6462.7 2499.23,6072.36"
           style="fill:#f9fafa;fill-opacity:1;fill-rule:nonzero;stroke:none"
           id="path2822" /><path
           d="M 638.695,8000 H 0 V 5226.43 L 680.566,4647.55 2250.42,6662.57 638.695,8000"
           style="fill:#2a231b;fill-opacity:1;fill-rule:nonzero;stroke:none"
           id="path2824" /><path
           d="m 1323.32,6708.73 c 0,-97.09 78.7,-175.8 175.79,-175.8 97.08,0 175.78,78.71 175.78,175.8 0,97.08 -78.7,175.78 -175.78,175.78 -97.09,0 -175.79,-78.7 -175.79,-175.78"
           style="fill:#f9fafa;fill-opacity:1;fill-rule:nonzero;stroke:none"
           id="path2826" /><path
           d="m 855.535,7066.44 c 0,-97.08 78.707,-175.79 175.785,-175.79 97.08,0 175.78,78.71 175.78,175.79 0,97.08 -78.7,175.79 -175.78,175.79 -97.078,0 -175.785,-78.71 -175.785,-175.79"
           style="fill:#f9fafa;fill-opacity:1;fill-rule:nonzero;stroke:none"
           id="path2828" /><path
           d="m 355.535,7481.44 c 0,-97.08 78.707,-175.79 175.789,-175.79 97.074,0 175.781,78.71 175.781,175.79 0,97.08 -78.707,175.79 -175.781,175.79 -97.082,0 -175.789,-78.71 -175.789,-175.79"
           style="fill:#f9fafa;fill-opacity:1;fill-rule:nonzero;stroke:none"
           id="path2830" /><path
           d="m 4301.75,4339.19 -139.07,-95.3 287.18,-292.38 41.25,24.7 -189.36,362.98"
           style="fill:#f8f8f8;fill-opacity:1;fill-rule:nonzero;stroke:none"
           id="path2832" /><path
           d="m 3930.29,3938.53 -73.53,-135.64 397.62,-128.27 24.57,53.3 -348.66,210.61"
           style="fill:#f8f8f8;fill-opacity:1;fill-rule:nonzero;stroke:none"
           id="path2834" /><path
           d="m 3925.2,3325.2 56.25,-134.87 346.67,200.57 -19.72,55.26 -383.2,-120.96"
           style="fill:#f8f8f8;fill-opacity:1;fill-rule:nonzero;stroke:none"
           id="path2836" /><path
           d="m 7008.9,3058.48 32.57,165.4 -409.74,7.75 -12.17,-46.49 389.34,-126.66"
           style="fill:#f8f8f8;fill-opacity:1;fill-rule:nonzero;stroke:none"
           id="path2838" /><path
           d="m 7068.3,3537.63 -42.43,148.3 -373.75,-186.73 19.77,-55.25 396.41,93.68"
           style="fill:#f8f8f8;fill-opacity:1;fill-rule:nonzero;stroke:none"
           id="path2840" /><path
           d="m 6791.66,3932.28 -108.06,98.38 -229.17,-328.44 41.26,-41.73 295.97,271.79"
           style="fill:#f8f8f8;fill-opacity:1;fill-rule:nonzero;stroke:none"
           id="path2842" /><path
           d="m 4514.74,1578.05 -41.47,-172.88 -151.05,69.08 c 0,0 -160.58,-105.53 -91.84,-160.64 68.77,-55.1 85.62,84.18 85.62,84.18 0,0 151.15,-96.78 211.72,-113.08 60.59,-16.31 81.64,125.26 81.64,125.26 0,0 698.32,-267.39 1331.22,-204.65 0,0 -21.03,-220.511 -47.57,-296.75 0,0 231.4,-53.05 259.94,57.891 28.57,110.949 -161.27,21.078 -161.27,21.078 0,0 81.61,204.201 74.82,266.111 -6.8,61.93 -162.66,37.41 -162.66,37.41 l -1389.1,286.99"
           style="fill:#2c1913;fill-opacity:1;fill-rule:nonzero;stroke:none"
           id="path2844" /><path
           d="m 6197.82,2358.12 c -131.9,-30.87 -806.18,-19.82 -1638.25,214.27 -88.69,-656.04 -44.83,-994.34 -44.83,-994.34 797.7,-285.31 1389.1,-286.99 1389.1,-286.99 247.21,574.56 293.79,1065.13 293.98,1067.06"
           style="fill:#f8f8f8;fill-opacity:1;fill-rule:nonzero;stroke:none"
           id="path2846" /><path
           d="m 5603.59,3575.87 c 0,0 -778.5,305.66 -1044.02,-1003.48 577.17,-155.77 1152.04,-283.41 1638.25,-214.27 0,0 -75.5,1039.21 -594.23,1217.75"
           style="fill:#fcd8b7;fill-opacity:1;fill-rule:nonzero;stroke:none"
           id="path2848" /><path
           d="m 6010.87,3401.05 c 0,0 25.19,386.64 -506.36,430.33 -474.7,39 -688.38,-494.58 -935.12,-3.6 0,0 -248.53,-801.76 1226.26,-698.7 0,0 40.95,-190.05 70.58,-290.02 0,0 74.2,81.15 118.6,-20.49 35.92,-82.1 -87.18,-86.21 -87.18,-86.21 0,0 79.42,-255.03 300.17,-374.24 0,0 401.99,1200.96 -186.95,1042.93"
           style="fill:#2c1913;fill-opacity:1;fill-rule:nonzero;stroke:none"
           id="path2850" /><path
           d="m 5492.39,2903.72 c -23.22,-43.87 -20.46,-78.13 -0.33,-88.76 20.1,-10.61 49.95,6.4 73.17,50.26 23.2,43.88 20.49,78.12 0.37,88.77 -20.11,10.65 -49.99,-6.38 -73.21,-50.27"
           style="fill:#2c1913;fill-opacity:1;fill-rule:nonzero;stroke:none"
           id="path2852" /><path
           d="m 4824.01,3014.45 c -23.19,-43.87 -20.46,-78.12 -0.33,-88.76 20.1,-10.65 49.97,6.38 73.18,50.27 23.22,43.88 20.44,78.14 0.36,88.77 -20.13,10.64 -49.99,-6.4 -73.21,-50.28"
           style="fill:#2c1913;fill-opacity:1;fill-rule:nonzero;stroke:none"
           id="path2854" /><path
           d="m 5019,2800.59 c 0,0 417.23,30.3 454.51,-157.03 33.23,-166.95 -153.53,-172.72 -204.84,-160.49 -32.44,7.75 -247.34,66.2 -249.67,317.52"
           style="fill:#2c1913;fill-opacity:1;fill-rule:nonzero;stroke:none"
           id="path2856" /><path
           d="m 3816.03,1969.79 c -1.79,-9.39 -5.41,-37.06 12.74,-41.54 8.67,-2.16 15.18,3.96 19.68,11.39 1.04,-8.96 4.59,-17.41 13.91,-19.68 7.85,-1.96 13.9,2.86 18.34,9.28 1.37,-7.97 5.06,-15.11 13.52,-17.21 8.69,-2.17 15.16,3.98 19.69,11.37 1.01,-8.93 4.55,-17.36 13.89,-19.67 19.46,-4.84 29.63,36.73 30.87,43.48 0,0 71.86,577.85 433.99,529.24 l 22.22,112.58 c -508.87,83.61 -598.85,-619.24 -598.85,-619.24"
           style="fill:#fbd7b5;fill-opacity:1;fill-rule:nonzero;stroke:none"
           id="path2858" /><path
           d="m 4566.29,2544.91 c -54.22,22.21 -104.55,36.42 -151.41,44.12 l -22.22,-112.58 c 47.49,-6.39 99.9,-23.39 157.87,-54.04 l 15.76,122.5"
           style="fill:#f8f8f8;fill-opacity:1;fill-rule:nonzero;stroke:none"
           id="path2860" /><path
           d="m 6918.84,2814.92 c 1.49,9.46 4.23,37.22 -14.03,41.12 -8.77,1.88 -15.06,-4.43 -19.31,-12 -1.34,8.93 -5.17,17.26 -14.53,19.24 -7.91,1.71 -13.83,-3.31 -18.05,-9.87 -1.61,7.95 -5.56,14.94 -14.07,16.76 -8.75,1.9 -15.03,-4.44 -19.3,-11.99 -1.31,8.92 -5.1,17.24 -14.53,19.25 -19.58,4.22 -28.45,-37.66 -29.46,-44.44 0,0 -62.85,-569.75 -426.33,-532.62 l -18.66,-113.21 c 511.26,-67.47 588.27,627.76 588.27,627.76"
           style="fill:#fbd7b5;fill-opacity:1;fill-rule:nonzero;stroke:none"
           id="path2862" /><path
           d="m 6177.84,2226.46 c 54.92,-20.48 105.66,-33.09 152.73,-39.3 l 18.66,113.21 c -47.67,4.88 -100.59,20.23 -159.48,49.03 l -11.91,-122.94"
           style="fill:#f8f8f8;fill-opacity:1;fill-rule:nonzero;stroke:none"
           id="path2864" /><path
           d="m 5604.79,2184.52 58.42,60.83 170.61,-10.57 28.5,-125.25 -71.47,-48.21 -131.97,-485.61 -275.44,-40.13 -17.82,262.36 299.09,293.16 -59.92,93.42"
           style="fill:#2c1913;fill-opacity:1;fill-rule:nonzero;stroke:none"
           id="path2866" /><path
           d="M 8000,349.16 0,2089.16 V 0 h 8000 v 349.16"
           style="fill:#915836;fill-opacity:1;fill-rule:nonzero;stroke:none"
           id="path2868" /><path
           d="m 3977.31,1599.97 c -4.76,5.37 -10.41,10.09 -16.94,13.9 -33.45,19.61 -76.46,8.39 -96.06,-25.08 -11.01,-18.8 -12.29,-40.6 -5.37,-59.6 -10.5,-4.04 -19.77,-11.51 -25.9,-21.97 -14.39,-24.58 -6.14,-56.17 18.42,-70.56 8.35,-4.87 17.51,-7.1 26.54,-7.01 1.1,-16.47 10.06,-32.11 25.37,-41.08 24.57,-14.38 56.15,-6.14 70.55,18.43 1.03,1.76 1.91,3.56 2.71,5.37 27.38,-8.64 58.04,2.35 73.14,28.17 11.66,19.87 11.1,43.46 0.7,62.27 1.82,2.28 3.54,4.67 5.07,7.27 17.57,29.96 7.5,68.49 -22.49,86.06 -17.63,10.34 -38.2,11.05 -55.74,3.83"
           style="fill:#f5f5f5;fill-opacity:1;fill-rule:nonzero;stroke:none"
           id="path2870" /><path
           d="m 3574.16,1785.48 c -6.72,7.55 -14.67,14.21 -23.86,19.58 -47.1,27.6 -107.65,11.79 -135.25,-35.3 -15.49,-26.48 -17.3,-57.19 -7.55,-83.91 -14.78,-5.71 -27.82,-16.23 -36.46,-30.99 -20.27,-34.57 -8.65,-79.01 25.93,-99.31 11.76,-6.85 24.65,-9.99 37.36,-9.86 1.55,-23.18 14.17,-45.2 35.72,-57.84 34.59,-20.26 79.05,-8.64 99.32,25.95 1.44,2.47 2.69,5 3.82,7.58 38.54,-12.18 81.7,3.29 102.99,39.64 16.4,27.99 15.61,61.2 0.96,87.66 2.56,3.21 4.99,6.57 7.13,10.24 24.73,42.19 10.56,96.45 -31.63,121.19 -24.83,14.55 -53.79,15.51 -78.48,5.37"
           style="fill:#f5f5f5;fill-opacity:1;fill-rule:nonzero;stroke:none"
           id="path2872" /></g><path
         sodipodi:type="star"
         style="fill:#000000;stroke-width:7.5"
         id="path225"
         sodipodi:sides="5"
         sodipodi:cx="2326.9404"
         sodipodi:cy="-4080.3569"
         sodipodi:r1="7.9971099"
         sodipodi:r2="7.8190866"
         sodipodi:arg1="1.8585302"
         sodipodi:arg2="2.4868488"
         inkscape:flatsided="false"
         inkscape:rounded="0"
         inkscape:randomized="0"
         d="m 2324.671,-4072.6886 -3.9327,-2.9069 -1.7922,-4.5501 1.5493,-4.6385 3.7737,-3.1106 4.8902,0.04 4.1245,2.6278 1.473,4.6633 -1.2246,4.7346 -3.9799,2.8419 z"
         transform="scale(1,-1)"
         inkscape:transform-center-x="0.011864317"
         inkscape:transform-center-y="0.0087132603" /><rect
         style="fill:#000000;stroke-width:7.5"
         id="rect232"
         width="0"
         height="0"
         x="2022.8887"
         y="-3758.4658"
         transform="scale(1,-1)"
         ry="0" /><path
         sodipodi:type="star"
         style="fill:#ffffff;stroke-width:7.5"
         id="path240"
         sodipodi:sides="3"
         sodipodi:cx="2507.8386"
         sodipodi:cy="-3758.4658"
         sodipodi:r1="549.87238"
         sodipodi:r2="256.23764"
         sodipodi:arg1="1.7234457"
         sodipodi:arg2="2.7182667"
         inkscape:flatsided="false"
         inkscape:rounded="0"
         inkscape:randomized="0"
         d="m 2424.2266,-3214.9875 -150.0069,-438.2172 -195.241,-449.4104 454.5106,89.1987 486.8214,55.6216 -304.5038,349.0183 z"
         transform="matrix(-0.16104747,0.4934222,0.44904995,0.18710402,5329.9765,3149.677)"
         inkscape:transform-center-x="-5.6982209"
         inkscape:transform-center-y="4.0287363" /><ellipse
         style="fill:#ffffff;stroke-width:7.5"
         id="path249"
         cx="2637.4375"
         cy="-3591.2417"
         transform="scale(1,-1)"
         rx="631.27094"
         ry="451.50507" /><text
         xml:space="preserve"
         style="font-style:normal;font-variant:normal;font-weight:normal;font-stretch:normal;font-size:160px;line-height:1.25;font-family:Silom;-inkscape-font-specification:Silom;fill:#00ff00;fill-opacity:1;stroke:none;stroke-width:7.5;"
         x="2139.9456"
         y="-3633.0476"
         id="text253"
         transform="scale(1,-1)"><tspan
           sodipodi:role="line"
           id="tspan251"
           x="2139.9456"
           y="-3633.0476"
           style="font-style:normal;font-variant:normal;font-weight:normal;font-stretch:normal;font-size:160px;font-family:Silom;-inkscape-font-specification:Silom;stroke-width:7.5;fill:#00ff00;">Hey, it could </tspan><tspan
           sodipodi:role="line"
           x="2139.9456"
           y="-3433.0476"
           style="font-style:normal;font-variant:normal;font-weight:normal;font-stretch:normal;font-size:160px;font-family:Silom;-inkscape-font-specification:Silom;stroke-width:7.5;fill:#00ff00;"
           id="tspan255">happen</tspan></text></g></g></svg>
