<?xml version="1.0" encoding="UTF-8" standalone="no"?>
<svg
   xmlns:dc="http://purl.org/dc/elements/1.1/"
   xmlns:cc="http://creativecommons.org/ns#"
   xmlns:rdf="http://www.w3.org/1999/02/22-rdf-syntax-ns#"
   xmlns:svg="http://www.w3.org/2000/svg"
   xmlns="http://www.w3.org/2000/svg"
   xmlns:xlink="http://www.w3.org/1999/xlink"
   xmlns:sodipodi="http://sodipodi.sourceforge.net/DTD/sodipodi-0.dtd"
   xmlns:inkscape="http://www.inkscape.org/namespaces/inkscape"
   width="470.95831mm"
   height="329.59521mm"
   viewBox="0 0 470.95831 329.59521"
   version="1.1"
   id="svg8"
   inkscape:version="1.0.1 (c497b03c, 2020-09-10)"
   sodipodi:docname="solar_system.svg">
  <defs
     id="defs2">
    <linearGradient
       inkscape:collect="always"
       id="linearGradient44">
      <stop
         style="stop-color:#00ccff;stop-opacity:1;"
         offset="0"
         id="stop40" />
      <stop
         style="stop-color:#00ccff;stop-opacity:0;"
         offset="1"
         id="stop42" />
    </linearGradient>
    <linearGradient
       inkscape:collect="always"
       xlink:href="#linearGradient44"
       id="linearGradient46"
       x1="140.60715"
       y1="-6.0476184"
       x2="-61.232143"
       y2="-103.56548"
       gradientUnits="userSpaceOnUse"
       gradientTransform="translate(114.14881,66.523809)" />
  </defs>
  <sodipodi:namedview
     id="base"
     pagecolor="#ffffff"
     bordercolor="#666666"
     borderopacity="1.0"
     inkscape:pageopacity="0.0"
     inkscape:pageshadow="2"
     inkscape:zoom="0.35"
     inkscape:cx="1199.9999"
     inkscape:cy="592.33664"
     inkscape:document-units="mm"
     inkscape:current-layer="layer1"
     inkscape:document-rotation="0"
     showgrid="false"
     inkscape:window-width="1252"
     inkscape:window-height="806"
     inkscape:window-x="0"
     inkscape:window-y="23"
     inkscape:window-maximized="0" />
  <metadata
     id="metadata5">
    <rdf:RDF>
      <cc:Work
         rdf:about="">
        <dc:format>image/svg+xml</dc:format>
        <dc:type
           rdf:resource="http://purl.org/dc/dcmitype/StillImage" />
        <dc:title></dc:title>
      </cc:Work>
    </rdf:RDF>
  </metadata>
  <g
     inkscape:label="Layer 1"
     inkscape:groupmode="layer"
     id="layer1"
     transform="translate(265.33926,34.017857)">
    <ellipse
       style="fill:#ffff00;stroke-width:26.4583"
       id="path16"
       cx="-89.958336"
       cy="147.78868"
       rx="147.41072"
       ry="147.78868" />
    <ellipse
       style="fill:#ffeeaa;stroke-width:27.281"
       id="path20"
       cx="123.97619"
       cy="219.60416"
       rx="42.333332"
       ry="38.175594" />
    <circle
       style="fill:#ff9955;stroke-width:25.6975"
       id="path22"
       cx="-249.84224"
       cy="46.491074"
       r="15.497025" />
    <path
       style="fill:#e3dbdb;stroke-width:26.4583"
       id="path28"
       d="m 70.701661,205.59497 c -17.867066,9.94652 -6.803903,4.03798 -2.554184,2.04475 3.261108,-1.47589 6.717792,-2.3355 10.239266,-2.89016 1.74502,-0.34029 3.454062,-0.32761 5.190628,-0.0218 1.587256,0.29433 3.2064,0.32331 4.815398,0.35994 2.38969,0.0216 4.779483,0.005 7.169248,0.0135 1.500581,0.016 3.001049,0.0339 4.501723,0.0326 1.38528,-0.003 2.77057,-0.006 4.15585,-0.008 1.76984,0.0196 3.53926,-0.0162 5.30891,-0.0383 3.07719,-0.007 6.15437,-0.0155 9.2316,-0.018 2.96234,0.0147 5.92783,-0.10177 8.87906,0.19594 1.72878,0.18428 3.44071,0.44677 5.12858,0.86275 1.86097,0.55579 3.78549,0.80765 5.6905,1.15041 1.38669,0.37655 2.78557,0.63738 4.21588,0.76414 1.46279,0.11207 2.92334,0.0814 4.38117,0.25584 1.95652,0.40259 3.87355,1.03065 5.77173,1.65469 1.20677,0.52139 2.47568,0.84264 3.72758,1.22679 1.61967,0.53318 3.20701,1.15176 4.77833,1.81211 1.5607,0.62711 3.0547,1.40482 4.59965,2.0664 1.04328,0.5483 2.11036,1.08895 3.09059,1.7466 0.89476,0.57226 1.66821,1.29669 2.48524,1.96883 0.29754,0.24594 0.37872,0.53353 0.38248,0.89208 -0.003,0.61734 -5.3e-4,1.23467 -0.009,1.85195 0.14269,0.61188 0.55362,1.14729 0.6787,1.76031 0.0836,0.45399 0.0712,0.91971 0.0719,1.3797 -0.004,0.66366 -0.004,1.32556 0.0105,1.98905 -0.1064,0.44574 0.2574,1.73284 -0.19491,1.94375 -0.51874,0.19871 -0.29917,1.00629 -0.71439,1.24187 -0.34867,0.37123 -0.24169,0.99223 -0.47933,1.39412 -0.0471,0.0796 -0.14827,0.11061 -0.2224,0.16591 -0.0573,0.10781 -0.11452,0.21562 -0.17177,0.32343 -0.35119,0.41442 -0.24292,1.00535 -0.41362,1.47299 -0.0817,0.22392 -0.25802,0.40374 -0.34977,0.62375 -0.22311,0.71192 -0.57734,1.25127 -0.9037,1.91083 -0.2121,0.52487 -0.42565,1.20093 -1.10969,1.16686 -0.006,0.20167 -0.89379,0.57904 -0.82045,0.53668 31.16762,-18.00575 -22.42071,12.90165 8.58441,-5.00876 -0.57975,0.3359 -1.145,0.65653 -1.80757,0.78635 -4.16366,-0.12205 -0.4534,-0.0772 -10.26875,5.6666 -0.0706,0.0413 -0.21275,0.24099 -0.14187,0.20018 14.89711,-8.57725 12.37852,-7.23459 9.09215,-5.32291 -0.11057,0.33178 -0.66308,0.0837 -0.78109,0.14998 -12.46459,7.00225 -6.36437,4.21813 -10.20507,5.96355 3.14613,-1.82061 6.29226,-3.64121 9.43839,-5.46181 -0.27657,0.28847 -0.66958,0.36139 -1.05244,0.40028 -0.0692,0.004 -0.13848,0.007 -0.20771,0.0106 0,0 -9.1262,6.65218 -9.1262,6.65218 v 0 c 0.0757,0.001 0.15134,0.003 0.227,0.004 4.66138,0.11043 4.1402,-0.63072 11.23428,-5.67697 3.06721,-2.47953 -0.7122,0.59622 -9.08793,5.21423 -0.0846,0.0467 -0.0269,-0.21669 0.0391,-0.28722 0.12783,-0.13654 0.49341,0.18161 0.63767,0.0127 4.01566,-1.00301 2.28894,-1.22776 10.267,-5.88222 3.56863,-2.08196 -11.86448,8.48681 -9.10263,5.09025 0.73413,-0.0388 1.44158,-0.0541 2.08318,-0.46563 33.24186,-19.10739 -22.58907,12.75868 10.69515,-6.08837 0.29985,-0.1698 0.48352,-0.47445 0.821,-0.57703 0.31257,-0.56844 0.58809,-1.13195 0.85581,-1.72132 0.33261,-0.64305 0.58551,-1.30232 0.86311,-1.97301 0.28763,-0.66015 0.36909,-1.39903 0.8241,-1.98813 0.35336,-0.5915 0.43704,-1.32409 0.89803,-1.87154 0.12318,-0.53227 0.49255,-0.91719 0.62768,-1.43767 0.004,-0.75683 -0.009,-1.51332 -0.01,-2.27014 0.0165,-0.67438 0.0249,-1.34731 0.012,-2.02199 -0.0158,-0.55871 -0.0266,-1.12141 -0.20698,-1.65723 -0.16889,-0.48786 -0.46534,-0.94016 -0.54111,-1.45437 0.001,-0.66361 0.0338,-1.32948 -0.0304,-1.9912 -0.12093,-0.63851 -0.42324,-1.17323 -0.85935,-1.65755 -0.87999,-0.62556 -1.63775,-1.38708 -2.56201,-1.95198 -1.00544,-0.7843 -2.16374,-1.322 -3.24351,-1.99734 -1.59444,-0.54272 -3.07622,-1.36985 -4.62711,-2.01647 -1.5975,-0.64607 -3.18532,-1.3139 -4.793,-1.92963 -1.25254,-0.38128 -2.51641,-0.69444 -3.74311,-1.16376 -1.9292,-0.70786 -3.96374,-1.14903 -5.90415,-1.83185 -1.4647,-0.22948 -2.90596,-0.37606 -4.3935,-0.33744 -1.39781,-0.0748 -2.78322,-0.22254 -4.13043,-0.62817 -1.86557,-0.47198 -3.84129,-0.44308 -5.67974,-1.07719 -1.72338,-0.54351 -3.47578,-0.85165 -5.27926,-0.98639 -3.00242,-0.33174 -6.00688,-0.23491 -9.02471,-0.23455 -3.06066,-0.003 -6.12127,-0.0109 -9.18188,-0.0181 -1.73454,-0.0224 -3.46882,-0.0583 -5.20355,-0.0383 -1.37919,-0.001 -2.75837,-0.004 -4.13755,-0.006 -1.53377,2.6e-4 -3.06729,0.022 -4.60095,0.0396 -2.36999,0.0104 -4.74004,0.006 -7.109849,-0.0292 -1.555134,-0.0251 -3.118937,-0.0395 -4.661318,-0.2587 -1.86591,-0.32456 -3.671887,-0.59619 -5.56237,-0.15362 -3.573386,0.52527 -7.094421,1.28646 -10.449308,2.66244 -5.695911,2.57515 -11.142647,5.62856 -16.52016,8.82998 0,0 10.475264,-4.0413 10.475264,-4.0413 z" />
    <path
       style="fill:#e3dbdb;stroke-width:26.4583"
       id="path30"
       d="m 88.664546,229.53451 c -1.62289,0.0438 -3.246705,0.0246 -4.869809,0.004 -0.906566,-0.004 -1.796945,0.0603 -2.671596,-0.20348 -0.677728,-0.14446 -1.236316,-0.45191 -1.823008,-0.80294 -0.797513,-0.4457 -1.559455,-0.94674 -2.339383,-1.42086 -0.907764,-0.41994 -1.758214,-0.94309 -2.619216,-1.44852 -0.47916,-0.33894 -0.917001,-0.7324 -1.399606,-1.06779 -0.404283,-0.27418 -0.666814,-0.67357 -0.992952,-1.02491 -0.484643,-0.61359 -0.843637,-1.29977 -1.319329,-1.91987 -0.268767,-0.32574 -0.594323,-0.72648 -0.596114,-1.17267 -0.0994,-0.49158 -0.446897,-0.95624 -0.677402,-1.41544 -0.07515,-0.32436 -0.07701,-0.65318 -0.07796,-0.98353 0.0037,-0.45965 2.64e-4,-0.91927 0.0031,-1.37893 0.0158,-0.47244 -7.94e-4,-0.9449 -2.64e-4,-1.41746 -0.0075,-0.49163 0.01349,-0.98361 0.0047,-1.47514 0.006,-0.53367 -0.0037,-1.06723 -0.01463,-1.60081 -0.01426,-0.80146 -0.159385,-1.1872 0.496089,-1.70957 0.04745,-0.0285 0.118448,-0.0355 0.142356,-0.0854 0.148894,-0.31084 -0.0587,-0.25035 0.08915,-0.53137 0.108802,-0.20681 0.354605,-0.43102 0.497224,-0.62512 0.291819,-0.93982 0.789561,-1.82822 1.361598,-2.63576 0.374563,-0.27411 1.060276,-1.6509 1.3441,-1.81916 0.34695,-0.54073 0.720748,-1.51139 1.383167,-1.67542 0.570283,-0.15186 -0.0232,0.0748 0.422101,-0.36455 0.141734,-0.13984 0.704257,-0.37146 0.532045,-0.27152 -9.424673,5.46915 -15.936772,9.21187 0.603329,-0.31958 -18.185198,13.54716 -11.351537,5.8163 -7.902294,4.6833 4.759825,-1.06323 -6.727457,4.33472 10.640285,-5.80804 0,0 -10.496222,4.16922 -10.496222,4.16922 v 0 c 3.161673,-1.8281 6.288915,-3.71709 9.485016,-5.48431 0.08112,-0.0448 0.01193,0.21131 -0.05819,0.27193 -0.08387,0.0725 -0.485979,-0.11675 -0.595638,0.0103 -4.396092,0.67128 -7.172849,5.09546 -11.566895,6.25046 3.121197,-1.78372 12.495688,-7.11565 9.363591,-5.35115 -3.523957,1.98526 -7.751757,3.76655 -10.879542,6.43976 -0.371888,0.66818 -0.837243,1.29207 -1.293339,1.90244 -0.275789,0.68149 -0.939224,1.1887 -1.239904,1.88107 -0.499459,0.87115 -0.892847,1.81103 -1.436563,2.64767 -0.255109,0.43019 -0.410753,0.90868 -0.733227,1.25311 -0.257736,0.73933 -0.183099,1.51028 -0.188571,2.28248 -0.01082,0.53853 -0.02061,1.07705 -0.01455,1.61567 -0.0086,0.48975 0.01212,0.97992 0.0042,1.46977 4e-5,0.47239 -0.0173,0.94459 -0.0061,1.41694 -5.29e-4,0.47475 -0.01368,0.95015 0.0095,1.42451 0.03335,0.49336 0.122261,0.97757 0.318979,1.43495 0.203496,0.35919 0.468225,0.71468 0.52375,1.12519 0.170093,0.59364 0.461621,1.17786 0.894787,1.62241 0.5335,0.62659 0.878239,1.37236 1.356492,2.04146 0.388305,0.34731 0.597064,0.82989 1.055939,1.11617 0.481166,0.44544 1.101317,0.71815 1.532876,1.22508 0.900145,0.46618 1.741932,1.01294 2.635883,1.48118 0.808929,0.31641 1.441235,0.97329 2.256573,1.29166 0.599641,0.4701 1.241031,0.92433 1.99459,1.06591 0.971246,0.36625 1.867379,0.61504 2.919982,0.48119 1.619811,-0.0202 3.240391,-0.0412 4.859962,0.004 0,0 9.080859,-6.59763 9.080859,-6.59763 z" />
    <path
       style="fill:#c8b7b7;stroke-width:26.4583"
       id="path34"
       d="m 88.717757,237.83545 c -1.880246,-0.16415 -3.712377,-0.59474 -5.549578,-1.00245 -1.458145,-0.34158 -2.863797,-0.88059 -4.246509,-1.44913 -0.82491,-0.30076 -1.562428,-0.83935 -2.405801,-1.08928 -0.678323,-0.35453 -1.247944,-0.8695 -1.901087,-1.26601 -0.6487,-0.3928 -1.271378,-0.83372 -1.927963,-1.22144 -0.650271,-0.39144 -1.280422,-0.81521 -1.943729,-1.18519 -0.742524,-0.46571 -1.448078,-0.97317 -2.219455,-1.39199 -0.188656,-0.0607 -0.868286,-0.73221 -0.790758,-0.66096 -0.02061,-0.46479 -0.368546,-0.89123 -0.531966,-1.3395 -0.181612,-0.56804 -0.746389,-1.0106 -0.894008,-1.58496 -0.07856,-0.27111 -0.05657,-0.5461 -0.05234,-0.82277 -0.003,-0.58719 -0.451635,-1.04256 -0.644316,-1.57882 -0.12869,-0.57855 -0.09321,-1.14443 -0.274854,-1.71622 -0.20211,-0.64589 -0.457864,-1.27387 -0.55676,-1.94529 -0.0514,-0.66484 -0.04987,-1.33266 -0.0441,-1.99906 -0.0034,-0.50603 0.02297,-1.01245 0.01482,-1.51838 -0.01378,-0.64185 -0.0059,-1.2838 -0.0108,-1.92573 -0.0029,-0.86364 -0.01011,-1.72723 -0.0136,-2.59091 -0.01873,-0.70864 0.501893,-1.27597 0.638762,-1.97171 0.119605,-0.52143 0.507206,-0.98134 0.830887,-1.41112 0.0077,-0.104 -0.03061,-0.22256 0.02302,-0.312 0.07017,-0.11702 0.471061,-0.1266 0.559919,-0.28708 0.09756,-0.1762 0.09019,-0.39282 0.146256,-0.58626 0.668409,-0.0227 0.667843,-0.43803 0.828397,-0.97756 0.110279,-0.3135 -0.10383,-0.81736 0.02851,-1.11767 0.05562,-0.1262 0.235112,-0.14619 0.340157,-0.23556 0.434816,-0.3162 0.265438,-0.16641 0.384659,-0.63032 0.04737,-0.18431 0.211971,-0.31626 0.310962,-0.47879 0.190008,-0.43249 0.488421,-0.70756 0.811583,-1.01843 0.52352,-0.8483 -0.01577,-0.59332 0.927074,-1.02213 0.02527,-0.1076 0.01138,-0.23301 0.07583,-0.32279 0.0959,-0.13357 0.498562,-0.23889 0.643356,-0.35368 0.164105,-0.13009 0.306215,-0.28582 0.462975,-0.42468 3.006567,-3.10036 7.282138,-4.76245 -8.190343,4.40333 3.27846,-1.93766 6.575245,-3.84466 9.83538,-5.81299 0.07839,-0.0473 0.08464,-0.17215 0.161123,-0.22249 0.07726,-0.0508 0.187203,-0.0215 0.270552,-0.0616 0.115131,-0.0554 0.424723,-0.28357 0.314103,-0.21964 -3.070339,1.77422 -12.198553,7.23544 -9.194448,5.35124 3.280349,-2.05747 6.682401,-3.9142 10.023602,-5.8713 3.672186,-2.09964 -2.576179,1.47167 -8.633037,5.01337 -0.146857,0.0859 0.303149,-0.15463 0.457282,-0.22663 0.359596,-0.16798 0.721609,-0.31282 1.101461,-0.42607 0.586335,-0.17612 1.188418,-0.20403 1.795573,-0.18928 0.757709,-0.20737 1.491732,-0.47162 2.264675,-0.6295 0.598914,-0.096 1.204172,-0.11525 1.809004,-0.13403 0.47543,-0.002 0.950799,-0.004 1.42617,0.006 0.982258,-0.012 1.964232,-0.03 2.946609,-0.0273 0.904798,-0.002 1.809451,0.014 2.714154,0.0227 0.679207,0.004 1.358175,-0.001 2.037355,-0.009 1.12371,-0.005 2.247461,-0.008 3.371197,-0.0118 1.078579,-0.002 2.126967,-0.28353 3.176873,-0.49908 0.756012,-0.0758 1.393947,-0.31934 2.092055,-0.60547 1.577361,-0.30696 3.15295,-0.62798 4.73964,-0.88692 1.359993,-0.21277 2.737646,-0.26013 4.11179,-0.27362 0.96696,-0.006 1.93408,-0.003 2.90101,0.008 1.21636,7e-5 2.43257,-0.0169 3.64892,-0.0205 1.52565,-0.006 3.05124,0.003 4.57684,0.009 1.13355,-0.005 2.26704,0.01 3.40057,0.0107 0.81249,0.0173 1.62501,-5.3e-4 2.43755,0.002 0.81508,0.005 1.63015,2.4e-4 2.44522,0.003 1.08006,0.0133 2.15972,-0.0214 3.23977,-0.0298 1.96274,-0.0216 3.92576,-0.0167 5.88847,0.006 1.48619,-0.0564 2.94342,0.26599 4.40341,0.49201 1.04922,0.0883 2.03516,0.45832 3.04481,0.72667 0.91377,0.45809 1.80151,0.73817 2.83516,0.86813 1.86015,0.0772 3.69984,0.33283 5.5435,0.57685 1.44877,0.25217 2.88785,0.59749 4.28786,1.04917 0.88035,0.40705 1.88167,0.45968 2.77322,0.81239 0.83704,0.40756 1.74866,0.58894 2.61602,0.92201 1.04143,0.48886 2.20026,0.52286 3.3172,0.71282 1.69918,0.19952 3.35956,0.58156 5.02347,0.96514 0.82607,0.2913 1.74954,0.21541 2.57251,0.48291 0.296,0.29268 0.94199,0.27373 1.20288,0.50184 0.5032,0.62339 1.23017,0.76014 1.94888,0.99605 0.96274,0.23238 1.86074,0.5927 2.76621,0.98337 0.51022,0.23363 0.99559,0.53944 1.29946,1.0176 0.47806,0.47166 0.64659,1.06547 0.93299,1.64056 0.8209,1.19559 1.88334,2.20895 2.89829,3.23897 0.63905,0.77215 1.53578,1.25305 2.17621,2.01909 0.22636,0.4489 0.41149,0.95092 0.58769,1.4404 0.12415,0.93006 0.42651,1.79119 0.7167,2.67914 0.18938,0.53711 0.3016,1.08045 0.33194,1.64704 0.003,0.40211 0.002,0.8043 -0.001,1.20641 0.005,0.5163 -0.002,1.03254 -0.004,1.54882 -0.009,0.38146 -1.7e-4,0.76266 -0.008,1.14419 0.16825,0.48636 0.57694,0.83819 0.712,1.33025 0.0807,0.30902 0.0615,0.63174 0.0547,0.94864 -10e-4,0.3847 -0.003,0.76909 -0.004,1.15373 -0.012,0.4361 0.005,0.8721 0.005,1.30829 -0.4885,0.12139 -0.55567,0.66265 -0.72937,1.0824 0.009,0.51815 -0.32566,1.20661 -0.70339,1.54951 -0.5205,0.58851 -0.52258,1.43142 -0.92828,2.0534 -0.34973,0.69957 -0.77337,1.32432 -1.15947,2.02276 -0.36135,0.65817 0.13174,-0.0773 -0.388,0.25648 -0.0864,0.0555 -0.0888,0.19305 -0.16844,0.25787 -0.24728,0.20134 -0.61987,0.29472 -0.88722,0.50617 0.89853,-0.45028 -1.79209,1.18808 -0.82089,0.62536 3.13493,-1.81642 12.47984,-7.367 9.38684,-5.48009 -8.2575,5.03754 -6.47962,4.19684 -10.20116,5.93199 -0.10034,0.0504 -0.39815,0.20734 -0.30101,0.15106 19.44569,-11.26699 5.05278,-3.11163 -1.1247,0.93296 24.95109,-14.49442 -0.33573,0.18089 -0.49978,0.27799 -0.28347,0.1678 -0.5648,0.66654 -0.78793,0.9114 -0.54905,0.0405 -0.61233,0.69817 -1.00478,0.95488 -0.15803,0.10336 -0.36519,0.0966 -0.54595,0.15115 19.38013,-11.38352 5.33155,-2.83735 -1.17526,0.8979 24.72402,-14.26323 -0.572,0.24929 -0.9794,0.38334 -3.31714,1.09142 12.03845,-7.08427 9.04237,-5.29034 -3.99063,1.48938 -7.74927,3.74446 -11.11623,6.37545 -0.005,0.12465 0.0376,0.26058 -0.0144,0.37396 -0.0442,0.0964 -0.56716,0.33627 -0.68723,0.41584 3.12563,-1.82148 6.25126,-3.64296 9.37688,-5.46445 -0.28468,0.2254 -0.66129,0.0729 -0.96445,0.24739 -0.20775,0.11956 -25.56786,14.98418 -0.50492,0.3694 -3.56492,1.91692 -6.78087,3.81022 -10.59268,5.97064 -2.86208,2.6503 -0.20759,0.16594 9.18864,-5.32854 0.12763,-0.0746 -0.24709,0.16295 -0.37629,0.23482 -0.31284,0.17401 -0.11389,0.11634 -0.54695,0.12125 -31.96575,17.9229 5.9412,-2.62617 -1.12011,0.67307 -3.90641,0.71941 -2.02683,0.89264 -10.31863,5.83536 -0.065,0.0387 -0.20215,0.21916 -0.1367,0.1812 8.91379,-5.16893 12.32495,-7.77849 9.23802,-5.42682 -0.328,0.23626 -0.65751,0.32507 -1.05222,0.37733 -0.45182,0.0248 -0.90447,0.0245 -1.35677,0.0164 -0.45118,-0.001 -0.90237,0.002 -1.35355,-0.003 -0.43351,-0.004 -0.86707,0.002 -1.30062,0.001 -0.11633,-0.0302 -0.23266,-0.0604 -0.34899,-0.0907 0,0 -8.86076,6.99694 -8.86076,6.99694 v 0 c 0.0259,-0.0905 0.0519,-0.18101 0.0778,-0.27151 0.43162,-2.7e-4 0.86325,0.005 1.29484,0.002 0.44822,-0.004 0.89647,6e-5 1.34467,0.003 0.46445,-0.003 0.92865,0.004 1.39303,0.0105 0.43954,0.026 0.88935,0.0869 1.31523,-0.0276 3.95883,-0.8674 0.14405,-0.005 10.07154,-5.84792 0.0544,-0.032 0.22193,-0.12003 0.16737,-0.0883 -3.15127,1.82994 -6.27579,3.70699 -9.45765,5.48321 -0.12105,0.0676 0.23853,-0.654 0.35249,-0.22067 0.18022,-0.0386 0.48042,-0.0559 0.63639,-0.14555 3.29917,-1.89729 6.57124,-3.84135 9.86015,-5.75639 0.0602,-0.035 0.24703,-0.12838 0.18672,-0.0936 -3.14635,1.8149 -6.29676,3.62274 -9.44514,5.43411 0.26542,-0.41731 0.55421,-0.0982 0.94817,-0.3247 9.17573,-5.27625 6.76815,-3.59372 10.07303,-5.9148 -11.52519,6.41797 -12.91816,5.61037 -8.71946,5.23035 2.66504,-1.5419 23.27931,-13.28741 0.57324,-0.31103 -0.17881,0.10218 0.26002,-0.34851 0.45319,-0.41992 0.11862,-0.0439 0.25289,-0.005 0.37933,-0.008 3.44188,-1.95046 7.74585,-2.90261 10.2696,-5.94916 0.11672,-0.1409 0.13101,-0.36535 0.27929,-0.47252 0.0532,-0.0384 0.12822,0.028 0.19232,0.042 4.39632,-2.74638 -12.75979,6.99383 -8.24452,4.75094 3.83697,-1.0571 6.60021,-1.78772 10.27268,-5.87152 2.42389,-2.69537 -6.34851,3.50153 -9.49999,5.29275 -0.13949,0.0793 0.72588,-0.12708 0.47941,-0.0432 3.34697,-1.8693 6.69394,-3.73859 10.04091,-5.60789 3.83156,-3.41319 -12.21004,6.84509 -8.68489,4.85435 3.30284,-1.86519 6.58854,-3.76059 9.8828,-5.64089 0.48748,-0.44957 0.89858,-0.99302 1.42107,-1.40249 0.17699,-0.17863 0.26601,-0.27712 0.46009,-0.43824 0.12673,-0.10521 0.55704,-0.35147 0.41416,-0.26952 -11.32489,6.49507 -14.02134,8.05105 0.50162,-0.30267 5.98296,-4.94 -29.43626,18.15781 1.43552,-0.99952 2.72106,-2.19194 -12.07019,7.04183 -9.10899,5.18709 3.7121,-2.32505 7.3786,-3.8191 10.70844,-6.3283 0.58162,-0.38452 1.01473,-0.83481 1.26448,-1.47902 0.38889,-0.69478 0.819,-1.35833 1.11602,-2.1008 0.22432,-0.69038 0.58022,-1.30676 0.99305,-1.90505 0.23072,-0.57975 0.47801,-1.15718 0.66842,-1.73359 0.23178,-0.50383 0.60183,-0.89295 0.50878,-1.49028 2.7e-4,-0.43717 0.0174,-0.87407 0.009,-1.3112 0.002,-0.39773 0.008,-0.79519 -0.002,-1.193 -0.032,-0.4203 -0.0663,-0.84318 -0.22559,-1.23854 -0.13422,-0.35245 -0.37215,-0.73537 -0.52596,-1.01046 -0.008,-0.37823 0.001,-0.75608 -0.007,-1.13425 -8e-4,-0.51562 -0.004,-1.03134 0.005,-1.54691 1e-5,-0.44013 0.0141,-0.88356 -0.052,-1.32024 -0.0981,-0.62964 -0.26949,-1.23495 -0.49277,-1.83236 -0.30078,-0.89598 -0.51133,-1.79591 -0.71811,-2.71747 -0.22465,-0.60577 -0.38818,-1.27892 -0.77446,-1.80015 -0.6916,-0.78742 -1.549,-1.31346 -2.30243,-2.03172 -0.92562,-0.93996 -1.90163,-1.85888 -2.63759,-2.96059 -0.28378,-0.63418 -0.49601,-1.26768 -0.98518,-1.78754 -0.45814,-0.67957 -1.01207,-1.13556 -1.69166,-1.58398 -0.94219,-0.34131 -1.79985,-0.86485 -2.80462,-1.01007 -0.56928,-0.21436 -1.04631,-0.29225 -1.57432,-0.51711 -0.54106,-0.71282 -0.7749,-0.57215 -1.50978,-0.93051 -0.98585,-0.51432 -1.67553,-0.45289 -2.76436,-0.62669 -1.6909,-0.32283 -3.34457,-0.81593 -5.06367,-0.97797 -1.05156,-0.19933 -2.10772,-0.32372 -3.13564,-0.58964 -0.85154,-0.31441 -1.66367,-0.64224 -2.5437,-0.84569 -0.92142,-0.51335 -1.91316,-0.58075 -2.91215,-0.90525 -1.46583,-0.48116 -2.94566,-0.87083 -4.45899,-1.19235 -1.8439,-0.20804 -3.66472,-0.58855 -5.52295,-0.6173 -1.05388,-0.0836 -1.87031,-0.0793 -2.69947,-0.79237 -1.06646,-0.21071 -2.0742,-0.63142 -3.14338,-0.78253 -1.50718,-0.18114 -2.99789,-0.55796 -4.51017,-0.60363 -1.96809,0.022 -3.9365,0.028 -5.90462,0.006 -1.05269,-0.008 -2.10493,-0.0436 -3.15764,-0.0298 -0.81817,0.003 -1.63634,-0.002 -2.45451,0.003 -0.81441,0.002 -1.62878,-0.0153 -2.44314,0.002 -1.14336,8e-4 -2.28669,0.0156 -3.43007,0.0107 -1.53363,0.006 -3.06724,0.0156 -4.60091,0.009 -1.19273,-0.004 -2.38527,-0.0209 -3.57799,-0.0272 -0.98434,0.005 -1.96871,-1.7e-4 -2.95305,0.009 -1.40632,0.0201 -2.81655,0.01 -4.21666,0.16364 -1.59727,0.21256 -3.16328,0.62577 -4.75913,0.78825 -1.016919,0.0793 -1.144139,0.5354 -2.054782,0.58553 -1.026559,0.25071 -2.058979,0.47453 -3.082086,0.73883 -1.112906,-0.004 -2.225826,-0.007 -3.338703,-0.0118 -0.670949,-0.008 -1.341683,-0.0126 -2.012661,-0.009 -0.925433,0.009 -1.850822,0.0246 -2.776345,0.0226 -0.953566,0.002 -1.906733,-0.0139 -2.860122,-0.0304 -0.483883,0.005 -0.967634,-5.3e-4 -1.451525,-10e-4 -0.636307,-0.0118 -1.273828,-0.008 -1.908564,0.0412 -0.796851,0.0426 -1.627007,0.14051 -2.342957,0.51167 -0.506822,0.36411 -1.17263,0.0937 -1.771382,0.22293 -4.639123,0.67635 -8.461505,4.15757 -12.343064,6.56414 3.060943,-1.76214 12.205308,-7.11378 9.182833,-5.28643 -3.308006,1.99997 -6.697025,3.8628 -10.039612,5.80443 -0.621924,0.36126 -0.09887,0.0547 -0.537835,0.47884 -0.05625,0.0543 -0.264302,0.1673 -0.196633,0.12807 3.144528,-1.82287 6.284976,-3.65276 9.427464,-5.47915 -5.678532,3.35081 -7.621579,3.80415 -11.055244,6.9021 -0.223282,0.18051 -0.469942,0.33468 -0.670592,0.5409 -0.139337,0.1432 -0.203263,0.35183 -0.352178,0.48504 -0.05003,0.0447 -0.130882,0.0299 -0.196324,0.0449 -0.329398,0.40092 -0.385098,0.92353 -0.841026,1.21109 -0.282636,0.37505 -0.453257,0.82378 -0.706109,1.22033 -0.105423,0.1953 -0.137441,0.43878 -0.291341,0.59869 -0.03462,0.036 -0.104709,-0.0354 -0.149238,-0.0128 -0.141978,0.072 -0.168489,0.42369 -0.269946,0.52405 -0.140515,0.47002 -0.0327,1.04349 -0.34476,1.44362 -0.284951,0.36583 -0.797169,0.33815 -0.826209,0.95997 -0.417693,0.49137 0.192275,-0.18027 -0.308534,0.22116 -0.243744,0.19538 -0.229587,0.50777 -0.352271,0.75625 -0.02352,0.0476 -0.08549,0.0631 -0.128239,0.0946 -0.290189,0.53648 -0.548722,1.07959 -0.678312,1.68015 -0.32485,0.71401 -0.527039,1.46267 -0.456835,2.25463 -0.0035,0.86822 -0.01053,1.73636 -0.01368,2.60455 -0.0052,0.64497 0.0028,1.28993 -0.01397,1.9348 -0.01106,0.50548 0.0089,1.01174 0.0076,1.51727 0.01373,0.73101 0.01691,1.46714 0.130223,2.19095 0.158128,0.67986 0.438735,1.31671 0.613032,1.99254 0.09361,0.61954 0.04084,1.26855 0.314235,1.8526 0.17567,0.41891 0.493286,0.76531 0.442576,1.23268 0.02053,0.40535 0.103431,0.79606 0.252788,1.17514 0.246362,0.55162 0.669484,0.99936 0.901063,1.56266 0.178313,0.44925 0.408892,0.86161 0.49563,1.339 0.263959,0.55294 0.725874,0.89517 1.216801,1.25953 0.690197,0.50146 1.523074,0.82164 2.18151,1.37476 0.63127,0.50348 1.440241,0.73329 2.040867,1.28914 0.712184,0.30948 1.337357,0.78949 1.936038,1.27529 0.731467,0.19678 1.203505,0.83547 1.843878,1.18675 0.725694,0.54201 1.755746,0.63494 2.533468,1.1354 1.404204,0.68768 2.927675,1.14096 4.406974,1.64161 1.845699,0.34621 3.659158,0.84417 5.525929,1.06921 0,0 9.18728,-6.44586 9.18728,-6.44586 z" />
    <ellipse
       style="fill:url(#linearGradient46);fill-opacity:1;stroke-width:26.4583"
       id="path36"
       cx="152.3244"
       cy="23.056545"
       rx="53.294643"
       ry="57.074402" />
  </g>
</svg>
